%TF.GenerationSoftware,KiCad,Pcbnew,10.0.4*%
%TF.CreationDate,2026-09-27T12:18:16-03:00*%
%TF.ProjectId,vet3000_cartucho,76657433-3030-4305-9f63-617274756368,1.0*%
%TF.SameCoordinates,Original*%
%TF.FileFunction,Legend,Top*%
%TF.FilePolarity,Positive*%
%FSLAX46Y46*%
G04 Gerber Fmt 4.6, Leading zero omitted, Abs format (unit mm)*
G04 Created by KiCad (PCBNEW 10.0.4) date 2026-09-27 12:18:16*
%MOMM*%
%LPD*%
G01*
G04 APERTURE LIST*
G04 Aperture macros list*
%AMRoundRect*
0 Rectangle with rounded corners*
0 $1 Rounding radius*
0 $2 $3 $4 $5 $6 $7 $8 $9 X,Y pos of 4 corners*
0 Add a 4 corners polygon primitive as box body*
4,1,4,$2,$3,$4,$5,$6,$7,$8,$9,$2,$3,0*
0 Add four circle primitives for the rounded corners*
1,1,$1+$1,$2,$3*
1,1,$1+$1,$4,$5*
1,1,$1+$1,$6,$7*
1,1,$1+$1,$8,$9*
0 Add four rect primitives between the rounded corners*
20,1,$1+$1,$2,$3,$4,$5,0*
20,1,$1+$1,$4,$5,$6,$7,0*
20,1,$1+$1,$6,$7,$8,$9,0*
20,1,$1+$1,$8,$9,$2,$3,0*%
G04 Aperture macros list end*
%ADD10C,0.120000*%
%ADD11C,0.150000*%
%ADD12C,0.300000*%
%ADD13C,3.200000*%
%ADD14R,1.700000X1.700000*%
%ADD15C,1.700000*%
%ADD16RoundRect,0.250000X-0.550000X-0.550000X0.550000X-0.550000X0.550000X0.550000X-0.550000X0.550000X0*%
%ADD17C,1.600000*%
%ADD18RoundRect,0.250000X0.550000X-0.550000X0.550000X0.550000X-0.550000X0.550000X-0.550000X-0.550000X0*%
G04 APERTURE END LIST*
D10*
X108497994Y-115063855D02*
X108497994Y-115635283D01*
X108497994Y-115635283D02*
X108459899Y-115749569D01*
X108459899Y-115749569D02*
X108383708Y-115825760D01*
X108383708Y-115825760D02*
X108269423Y-115863855D01*
X108269423Y-115863855D02*
X108193232Y-115863855D01*
X108878947Y-115863855D02*
X108878947Y-115063855D01*
X108878947Y-115063855D02*
X109183709Y-115063855D01*
X109183709Y-115063855D02*
X109259899Y-115101950D01*
X109259899Y-115101950D02*
X109297994Y-115140045D01*
X109297994Y-115140045D02*
X109336090Y-115216236D01*
X109336090Y-115216236D02*
X109336090Y-115330521D01*
X109336090Y-115330521D02*
X109297994Y-115406712D01*
X109297994Y-115406712D02*
X109259899Y-115444807D01*
X109259899Y-115444807D02*
X109183709Y-115482902D01*
X109183709Y-115482902D02*
X108878947Y-115482902D01*
X109640851Y-115140045D02*
X109678947Y-115101950D01*
X109678947Y-115101950D02*
X109755137Y-115063855D01*
X109755137Y-115063855D02*
X109945613Y-115063855D01*
X109945613Y-115063855D02*
X110021804Y-115101950D01*
X110021804Y-115101950D02*
X110059899Y-115140045D01*
X110059899Y-115140045D02*
X110097994Y-115216236D01*
X110097994Y-115216236D02*
X110097994Y-115292426D01*
X110097994Y-115292426D02*
X110059899Y-115406712D01*
X110059899Y-115406712D02*
X109602756Y-115863855D01*
X109602756Y-115863855D02*
X110097994Y-115863855D01*
X110440852Y-115787664D02*
X110478947Y-115825760D01*
X110478947Y-115825760D02*
X110440852Y-115863855D01*
X110440852Y-115863855D02*
X110402756Y-115825760D01*
X110402756Y-115825760D02*
X110440852Y-115787664D01*
X110440852Y-115787664D02*
X110440852Y-115863855D01*
X110440852Y-115368617D02*
X110478947Y-115406712D01*
X110478947Y-115406712D02*
X110440852Y-115444807D01*
X110440852Y-115444807D02*
X110402756Y-115406712D01*
X110402756Y-115406712D02*
X110440852Y-115368617D01*
X110440852Y-115368617D02*
X110440852Y-115444807D01*
X111431328Y-115330521D02*
X111431328Y-116130521D01*
X111431328Y-115368617D02*
X111507518Y-115330521D01*
X111507518Y-115330521D02*
X111659899Y-115330521D01*
X111659899Y-115330521D02*
X111736090Y-115368617D01*
X111736090Y-115368617D02*
X111774185Y-115406712D01*
X111774185Y-115406712D02*
X111812280Y-115482902D01*
X111812280Y-115482902D02*
X111812280Y-115711474D01*
X111812280Y-115711474D02*
X111774185Y-115787664D01*
X111774185Y-115787664D02*
X111736090Y-115825760D01*
X111736090Y-115825760D02*
X111659899Y-115863855D01*
X111659899Y-115863855D02*
X111507518Y-115863855D01*
X111507518Y-115863855D02*
X111431328Y-115825760D01*
X112155138Y-115863855D02*
X112155138Y-115330521D01*
X112155138Y-115063855D02*
X112117042Y-115101950D01*
X112117042Y-115101950D02*
X112155138Y-115140045D01*
X112155138Y-115140045D02*
X112193233Y-115101950D01*
X112193233Y-115101950D02*
X112155138Y-115063855D01*
X112155138Y-115063855D02*
X112155138Y-115140045D01*
X112536090Y-115330521D02*
X112536090Y-115863855D01*
X112536090Y-115406712D02*
X112574185Y-115368617D01*
X112574185Y-115368617D02*
X112650375Y-115330521D01*
X112650375Y-115330521D02*
X112764661Y-115330521D01*
X112764661Y-115330521D02*
X112840852Y-115368617D01*
X112840852Y-115368617D02*
X112878947Y-115444807D01*
X112878947Y-115444807D02*
X112878947Y-115863855D01*
X113374185Y-115863855D02*
X113297995Y-115825760D01*
X113297995Y-115825760D02*
X113259900Y-115787664D01*
X113259900Y-115787664D02*
X113221804Y-115711474D01*
X113221804Y-115711474D02*
X113221804Y-115482902D01*
X113221804Y-115482902D02*
X113259900Y-115406712D01*
X113259900Y-115406712D02*
X113297995Y-115368617D01*
X113297995Y-115368617D02*
X113374185Y-115330521D01*
X113374185Y-115330521D02*
X113488471Y-115330521D01*
X113488471Y-115330521D02*
X113564662Y-115368617D01*
X113564662Y-115368617D02*
X113602757Y-115406712D01*
X113602757Y-115406712D02*
X113640852Y-115482902D01*
X113640852Y-115482902D02*
X113640852Y-115711474D01*
X113640852Y-115711474D02*
X113602757Y-115787664D01*
X113602757Y-115787664D02*
X113564662Y-115825760D01*
X113564662Y-115825760D02*
X113488471Y-115863855D01*
X113488471Y-115863855D02*
X113374185Y-115863855D01*
X114555138Y-115140045D02*
X114593234Y-115101950D01*
X114593234Y-115101950D02*
X114669424Y-115063855D01*
X114669424Y-115063855D02*
X114859900Y-115063855D01*
X114859900Y-115063855D02*
X114936091Y-115101950D01*
X114936091Y-115101950D02*
X114974186Y-115140045D01*
X114974186Y-115140045D02*
X115012281Y-115216236D01*
X115012281Y-115216236D02*
X115012281Y-115292426D01*
X115012281Y-115292426D02*
X114974186Y-115406712D01*
X114974186Y-115406712D02*
X114517043Y-115863855D01*
X114517043Y-115863855D02*
X115012281Y-115863855D01*
X115278948Y-115063855D02*
X115812282Y-115063855D01*
X115812282Y-115063855D02*
X115469424Y-115863855D01*
X108688470Y-117951950D02*
X108612280Y-117913855D01*
X108612280Y-117913855D02*
X108497994Y-117913855D01*
X108497994Y-117913855D02*
X108383708Y-117951950D01*
X108383708Y-117951950D02*
X108307518Y-118028140D01*
X108307518Y-118028140D02*
X108269423Y-118104331D01*
X108269423Y-118104331D02*
X108231327Y-118256712D01*
X108231327Y-118256712D02*
X108231327Y-118370998D01*
X108231327Y-118370998D02*
X108269423Y-118523379D01*
X108269423Y-118523379D02*
X108307518Y-118599569D01*
X108307518Y-118599569D02*
X108383708Y-118675760D01*
X108383708Y-118675760D02*
X108497994Y-118713855D01*
X108497994Y-118713855D02*
X108574185Y-118713855D01*
X108574185Y-118713855D02*
X108688470Y-118675760D01*
X108688470Y-118675760D02*
X108726566Y-118637664D01*
X108726566Y-118637664D02*
X108726566Y-118370998D01*
X108726566Y-118370998D02*
X108574185Y-118370998D01*
X109069423Y-118713855D02*
X109069423Y-117913855D01*
X109069423Y-117913855D02*
X109526566Y-118713855D01*
X109526566Y-118713855D02*
X109526566Y-117913855D01*
X109907518Y-118713855D02*
X109907518Y-117913855D01*
X109907518Y-117913855D02*
X110097994Y-117913855D01*
X110097994Y-117913855D02*
X110212280Y-117951950D01*
X110212280Y-117951950D02*
X110288470Y-118028140D01*
X110288470Y-118028140D02*
X110326565Y-118104331D01*
X110326565Y-118104331D02*
X110364661Y-118256712D01*
X110364661Y-118256712D02*
X110364661Y-118370998D01*
X110364661Y-118370998D02*
X110326565Y-118523379D01*
X110326565Y-118523379D02*
X110288470Y-118599569D01*
X110288470Y-118599569D02*
X110212280Y-118675760D01*
X110212280Y-118675760D02*
X110097994Y-118713855D01*
X110097994Y-118713855D02*
X109907518Y-118713855D01*
X108269423Y-123489093D02*
X108878947Y-123489093D01*
X108574185Y-123793855D02*
X108574185Y-123184331D01*
X109640851Y-122993855D02*
X109259899Y-122993855D01*
X109259899Y-122993855D02*
X109221803Y-123374807D01*
X109221803Y-123374807D02*
X109259899Y-123336712D01*
X109259899Y-123336712D02*
X109336089Y-123298617D01*
X109336089Y-123298617D02*
X109526565Y-123298617D01*
X109526565Y-123298617D02*
X109602756Y-123336712D01*
X109602756Y-123336712D02*
X109640851Y-123374807D01*
X109640851Y-123374807D02*
X109678946Y-123450998D01*
X109678946Y-123450998D02*
X109678946Y-123641474D01*
X109678946Y-123641474D02*
X109640851Y-123717664D01*
X109640851Y-123717664D02*
X109602756Y-123755760D01*
X109602756Y-123755760D02*
X109526565Y-123793855D01*
X109526565Y-123793855D02*
X109336089Y-123793855D01*
X109336089Y-123793855D02*
X109259899Y-123755760D01*
X109259899Y-123755760D02*
X109221803Y-123717664D01*
X109907518Y-122993855D02*
X110174185Y-123793855D01*
X110174185Y-123793855D02*
X110440851Y-122993855D01*
X108497994Y-128063855D02*
X108497994Y-128635283D01*
X108497994Y-128635283D02*
X108459899Y-128749569D01*
X108459899Y-128749569D02*
X108383708Y-128825760D01*
X108383708Y-128825760D02*
X108269423Y-128863855D01*
X108269423Y-128863855D02*
X108193232Y-128863855D01*
X108878947Y-128863855D02*
X108878947Y-128063855D01*
X108878947Y-128063855D02*
X109183709Y-128063855D01*
X109183709Y-128063855D02*
X109259899Y-128101950D01*
X109259899Y-128101950D02*
X109297994Y-128140045D01*
X109297994Y-128140045D02*
X109336090Y-128216236D01*
X109336090Y-128216236D02*
X109336090Y-128330521D01*
X109336090Y-128330521D02*
X109297994Y-128406712D01*
X109297994Y-128406712D02*
X109259899Y-128444807D01*
X109259899Y-128444807D02*
X109183709Y-128482902D01*
X109183709Y-128482902D02*
X108878947Y-128482902D01*
X110097994Y-128863855D02*
X109640851Y-128863855D01*
X109869423Y-128863855D02*
X109869423Y-128063855D01*
X109869423Y-128063855D02*
X109793232Y-128178140D01*
X109793232Y-128178140D02*
X109717042Y-128254331D01*
X109717042Y-128254331D02*
X109640851Y-128292426D01*
X110440852Y-128787664D02*
X110478947Y-128825760D01*
X110478947Y-128825760D02*
X110440852Y-128863855D01*
X110440852Y-128863855D02*
X110402756Y-128825760D01*
X110402756Y-128825760D02*
X110440852Y-128787664D01*
X110440852Y-128787664D02*
X110440852Y-128863855D01*
X110440852Y-128368617D02*
X110478947Y-128406712D01*
X110478947Y-128406712D02*
X110440852Y-128444807D01*
X110440852Y-128444807D02*
X110402756Y-128406712D01*
X110402756Y-128406712D02*
X110440852Y-128368617D01*
X110440852Y-128368617D02*
X110440852Y-128444807D01*
X111431328Y-128330521D02*
X111431328Y-129130521D01*
X111431328Y-128368617D02*
X111507518Y-128330521D01*
X111507518Y-128330521D02*
X111659899Y-128330521D01*
X111659899Y-128330521D02*
X111736090Y-128368617D01*
X111736090Y-128368617D02*
X111774185Y-128406712D01*
X111774185Y-128406712D02*
X111812280Y-128482902D01*
X111812280Y-128482902D02*
X111812280Y-128711474D01*
X111812280Y-128711474D02*
X111774185Y-128787664D01*
X111774185Y-128787664D02*
X111736090Y-128825760D01*
X111736090Y-128825760D02*
X111659899Y-128863855D01*
X111659899Y-128863855D02*
X111507518Y-128863855D01*
X111507518Y-128863855D02*
X111431328Y-128825760D01*
X112155138Y-128863855D02*
X112155138Y-128330521D01*
X112155138Y-128063855D02*
X112117042Y-128101950D01*
X112117042Y-128101950D02*
X112155138Y-128140045D01*
X112155138Y-128140045D02*
X112193233Y-128101950D01*
X112193233Y-128101950D02*
X112155138Y-128063855D01*
X112155138Y-128063855D02*
X112155138Y-128140045D01*
X112536090Y-128330521D02*
X112536090Y-128863855D01*
X112536090Y-128406712D02*
X112574185Y-128368617D01*
X112574185Y-128368617D02*
X112650375Y-128330521D01*
X112650375Y-128330521D02*
X112764661Y-128330521D01*
X112764661Y-128330521D02*
X112840852Y-128368617D01*
X112840852Y-128368617D02*
X112878947Y-128444807D01*
X112878947Y-128444807D02*
X112878947Y-128863855D01*
X113374185Y-128863855D02*
X113297995Y-128825760D01*
X113297995Y-128825760D02*
X113259900Y-128787664D01*
X113259900Y-128787664D02*
X113221804Y-128711474D01*
X113221804Y-128711474D02*
X113221804Y-128482902D01*
X113221804Y-128482902D02*
X113259900Y-128406712D01*
X113259900Y-128406712D02*
X113297995Y-128368617D01*
X113297995Y-128368617D02*
X113374185Y-128330521D01*
X113374185Y-128330521D02*
X113488471Y-128330521D01*
X113488471Y-128330521D02*
X113564662Y-128368617D01*
X113564662Y-128368617D02*
X113602757Y-128406712D01*
X113602757Y-128406712D02*
X113640852Y-128482902D01*
X113640852Y-128482902D02*
X113640852Y-128711474D01*
X113640852Y-128711474D02*
X113602757Y-128787664D01*
X113602757Y-128787664D02*
X113564662Y-128825760D01*
X113564662Y-128825760D02*
X113488471Y-128863855D01*
X113488471Y-128863855D02*
X113374185Y-128863855D01*
X115012281Y-128863855D02*
X114555138Y-128863855D01*
X114783710Y-128863855D02*
X114783710Y-128063855D01*
X114783710Y-128063855D02*
X114707519Y-128178140D01*
X114707519Y-128178140D02*
X114631329Y-128254331D01*
X114631329Y-128254331D02*
X114555138Y-128292426D01*
X108688470Y-130951950D02*
X108612280Y-130913855D01*
X108612280Y-130913855D02*
X108497994Y-130913855D01*
X108497994Y-130913855D02*
X108383708Y-130951950D01*
X108383708Y-130951950D02*
X108307518Y-131028140D01*
X108307518Y-131028140D02*
X108269423Y-131104331D01*
X108269423Y-131104331D02*
X108231327Y-131256712D01*
X108231327Y-131256712D02*
X108231327Y-131370998D01*
X108231327Y-131370998D02*
X108269423Y-131523379D01*
X108269423Y-131523379D02*
X108307518Y-131599569D01*
X108307518Y-131599569D02*
X108383708Y-131675760D01*
X108383708Y-131675760D02*
X108497994Y-131713855D01*
X108497994Y-131713855D02*
X108574185Y-131713855D01*
X108574185Y-131713855D02*
X108688470Y-131675760D01*
X108688470Y-131675760D02*
X108726566Y-131637664D01*
X108726566Y-131637664D02*
X108726566Y-131370998D01*
X108726566Y-131370998D02*
X108574185Y-131370998D01*
X109069423Y-131713855D02*
X109069423Y-130913855D01*
X109069423Y-130913855D02*
X109526566Y-131713855D01*
X109526566Y-131713855D02*
X109526566Y-130913855D01*
X109907518Y-131713855D02*
X109907518Y-130913855D01*
X109907518Y-130913855D02*
X110097994Y-130913855D01*
X110097994Y-130913855D02*
X110212280Y-130951950D01*
X110212280Y-130951950D02*
X110288470Y-131028140D01*
X110288470Y-131028140D02*
X110326565Y-131104331D01*
X110326565Y-131104331D02*
X110364661Y-131256712D01*
X110364661Y-131256712D02*
X110364661Y-131370998D01*
X110364661Y-131370998D02*
X110326565Y-131523379D01*
X110326565Y-131523379D02*
X110288470Y-131599569D01*
X110288470Y-131599569D02*
X110212280Y-131675760D01*
X110212280Y-131675760D02*
X110097994Y-131713855D01*
X110097994Y-131713855D02*
X109907518Y-131713855D01*
X108269423Y-136489093D02*
X108878947Y-136489093D01*
X108574185Y-136793855D02*
X108574185Y-136184331D01*
X109640851Y-135993855D02*
X109259899Y-135993855D01*
X109259899Y-135993855D02*
X109221803Y-136374807D01*
X109221803Y-136374807D02*
X109259899Y-136336712D01*
X109259899Y-136336712D02*
X109336089Y-136298617D01*
X109336089Y-136298617D02*
X109526565Y-136298617D01*
X109526565Y-136298617D02*
X109602756Y-136336712D01*
X109602756Y-136336712D02*
X109640851Y-136374807D01*
X109640851Y-136374807D02*
X109678946Y-136450998D01*
X109678946Y-136450998D02*
X109678946Y-136641474D01*
X109678946Y-136641474D02*
X109640851Y-136717664D01*
X109640851Y-136717664D02*
X109602756Y-136755760D01*
X109602756Y-136755760D02*
X109526565Y-136793855D01*
X109526565Y-136793855D02*
X109336089Y-136793855D01*
X109336089Y-136793855D02*
X109259899Y-136755760D01*
X109259899Y-136755760D02*
X109221803Y-136717664D01*
X109907518Y-135993855D02*
X110174185Y-136793855D01*
X110174185Y-136793855D02*
X110440851Y-135993855D01*
X110823809Y-107059093D02*
X111433333Y-107059093D01*
X111128571Y-107363855D02*
X111128571Y-106754331D01*
X112195237Y-106563855D02*
X111814285Y-106563855D01*
X111814285Y-106563855D02*
X111776189Y-106944807D01*
X111776189Y-106944807D02*
X111814285Y-106906712D01*
X111814285Y-106906712D02*
X111890475Y-106868617D01*
X111890475Y-106868617D02*
X112080951Y-106868617D01*
X112080951Y-106868617D02*
X112157142Y-106906712D01*
X112157142Y-106906712D02*
X112195237Y-106944807D01*
X112195237Y-106944807D02*
X112233332Y-107020998D01*
X112233332Y-107020998D02*
X112233332Y-107211474D01*
X112233332Y-107211474D02*
X112195237Y-107287664D01*
X112195237Y-107287664D02*
X112157142Y-107325760D01*
X112157142Y-107325760D02*
X112080951Y-107363855D01*
X112080951Y-107363855D02*
X111890475Y-107363855D01*
X111890475Y-107363855D02*
X111814285Y-107325760D01*
X111814285Y-107325760D02*
X111776189Y-107287664D01*
X112461904Y-106563855D02*
X112728571Y-107363855D01*
X112728571Y-107363855D02*
X112995237Y-106563855D01*
X113871428Y-107363855D02*
X113871428Y-106563855D01*
X114709523Y-107363855D02*
X114442856Y-106982902D01*
X114252380Y-107363855D02*
X114252380Y-106563855D01*
X114252380Y-106563855D02*
X114557142Y-106563855D01*
X114557142Y-106563855D02*
X114633332Y-106601950D01*
X114633332Y-106601950D02*
X114671427Y-106640045D01*
X114671427Y-106640045D02*
X114709523Y-106716236D01*
X114709523Y-106716236D02*
X114709523Y-106830521D01*
X114709523Y-106830521D02*
X114671427Y-106906712D01*
X114671427Y-106906712D02*
X114633332Y-106944807D01*
X114633332Y-106944807D02*
X114557142Y-106982902D01*
X114557142Y-106982902D02*
X114252380Y-106982902D01*
X115585713Y-107440045D02*
X115509523Y-107401950D01*
X115509523Y-107401950D02*
X115433332Y-107325760D01*
X115433332Y-107325760D02*
X115319046Y-107211474D01*
X115319046Y-107211474D02*
X115242856Y-107173379D01*
X115242856Y-107173379D02*
X115166665Y-107173379D01*
X115204761Y-107363855D02*
X115128570Y-107325760D01*
X115128570Y-107325760D02*
X115052380Y-107249569D01*
X115052380Y-107249569D02*
X115014284Y-107097188D01*
X115014284Y-107097188D02*
X115014284Y-106830521D01*
X115014284Y-106830521D02*
X115052380Y-106678140D01*
X115052380Y-106678140D02*
X115128570Y-106601950D01*
X115128570Y-106601950D02*
X115204761Y-106563855D01*
X115204761Y-106563855D02*
X115357142Y-106563855D01*
X115357142Y-106563855D02*
X115433332Y-106601950D01*
X115433332Y-106601950D02*
X115509523Y-106678140D01*
X115509523Y-106678140D02*
X115547618Y-106830521D01*
X115547618Y-106830521D02*
X115547618Y-107097188D01*
X115547618Y-107097188D02*
X115509523Y-107249569D01*
X115509523Y-107249569D02*
X115433332Y-107325760D01*
X115433332Y-107325760D02*
X115357142Y-107363855D01*
X115357142Y-107363855D02*
X115204761Y-107363855D01*
X116499999Y-107363855D02*
X116499999Y-106563855D01*
X116499999Y-106944807D02*
X116957142Y-106944807D01*
X116957142Y-107363855D02*
X116957142Y-106563855D01*
X117719046Y-107363855D02*
X117338094Y-107363855D01*
X117338094Y-107363855D02*
X117338094Y-106563855D01*
X117871427Y-106563855D02*
X118328570Y-106563855D01*
X118099998Y-107363855D02*
X118099998Y-106563855D01*
X119661904Y-107363855D02*
X119395237Y-106982902D01*
X119204761Y-107363855D02*
X119204761Y-106563855D01*
X119204761Y-106563855D02*
X119509523Y-106563855D01*
X119509523Y-106563855D02*
X119585713Y-106601950D01*
X119585713Y-106601950D02*
X119623808Y-106640045D01*
X119623808Y-106640045D02*
X119661904Y-106716236D01*
X119661904Y-106716236D02*
X119661904Y-106830521D01*
X119661904Y-106830521D02*
X119623808Y-106906712D01*
X119623808Y-106906712D02*
X119585713Y-106944807D01*
X119585713Y-106944807D02*
X119509523Y-106982902D01*
X119509523Y-106982902D02*
X119204761Y-106982902D01*
X119928570Y-106563855D02*
X120119046Y-107363855D01*
X120119046Y-107363855D02*
X120271427Y-106792426D01*
X120271427Y-106792426D02*
X120423808Y-107363855D01*
X120423808Y-107363855D02*
X120614285Y-106563855D01*
X121680952Y-106982902D02*
X121680952Y-107363855D01*
X121414285Y-106563855D02*
X121680952Y-106982902D01*
X121680952Y-106982902D02*
X121947618Y-106563855D01*
X122176189Y-106640045D02*
X122214285Y-106601950D01*
X122214285Y-106601950D02*
X122290475Y-106563855D01*
X122290475Y-106563855D02*
X122480951Y-106563855D01*
X122480951Y-106563855D02*
X122557142Y-106601950D01*
X122557142Y-106601950D02*
X122595237Y-106640045D01*
X122595237Y-106640045D02*
X122633332Y-106716236D01*
X122633332Y-106716236D02*
X122633332Y-106792426D01*
X122633332Y-106792426D02*
X122595237Y-106906712D01*
X122595237Y-106906712D02*
X122138094Y-107363855D01*
X122138094Y-107363855D02*
X122633332Y-107363855D01*
X124042857Y-107363855D02*
X123776190Y-106982902D01*
X123585714Y-107363855D02*
X123585714Y-106563855D01*
X123585714Y-106563855D02*
X123890476Y-106563855D01*
X123890476Y-106563855D02*
X123966666Y-106601950D01*
X123966666Y-106601950D02*
X124004761Y-106640045D01*
X124004761Y-106640045D02*
X124042857Y-106716236D01*
X124042857Y-106716236D02*
X124042857Y-106830521D01*
X124042857Y-106830521D02*
X124004761Y-106906712D01*
X124004761Y-106906712D02*
X123966666Y-106944807D01*
X123966666Y-106944807D02*
X123890476Y-106982902D01*
X123890476Y-106982902D02*
X123585714Y-106982902D01*
X124538095Y-106563855D02*
X124690476Y-106563855D01*
X124690476Y-106563855D02*
X124766666Y-106601950D01*
X124766666Y-106601950D02*
X124842857Y-106678140D01*
X124842857Y-106678140D02*
X124880952Y-106830521D01*
X124880952Y-106830521D02*
X124880952Y-107097188D01*
X124880952Y-107097188D02*
X124842857Y-107249569D01*
X124842857Y-107249569D02*
X124766666Y-107325760D01*
X124766666Y-107325760D02*
X124690476Y-107363855D01*
X124690476Y-107363855D02*
X124538095Y-107363855D01*
X124538095Y-107363855D02*
X124461904Y-107325760D01*
X124461904Y-107325760D02*
X124385714Y-107249569D01*
X124385714Y-107249569D02*
X124347618Y-107097188D01*
X124347618Y-107097188D02*
X124347618Y-106830521D01*
X124347618Y-106830521D02*
X124385714Y-106678140D01*
X124385714Y-106678140D02*
X124461904Y-106601950D01*
X124461904Y-106601950D02*
X124538095Y-106563855D01*
X125223809Y-107363855D02*
X125223809Y-106563855D01*
X125223809Y-106563855D02*
X125490475Y-107135283D01*
X125490475Y-107135283D02*
X125757142Y-106563855D01*
X125757142Y-106563855D02*
X125757142Y-107363855D01*
X127166666Y-107363855D02*
X126709523Y-107363855D01*
X126938095Y-107363855D02*
X126938095Y-106563855D01*
X126938095Y-106563855D02*
X126861904Y-106678140D01*
X126861904Y-106678140D02*
X126785714Y-106754331D01*
X126785714Y-106754331D02*
X126709523Y-106792426D01*
X127928571Y-106601950D02*
X127852381Y-106563855D01*
X127852381Y-106563855D02*
X127738095Y-106563855D01*
X127738095Y-106563855D02*
X127623809Y-106601950D01*
X127623809Y-106601950D02*
X127547619Y-106678140D01*
X127547619Y-106678140D02*
X127509524Y-106754331D01*
X127509524Y-106754331D02*
X127471428Y-106906712D01*
X127471428Y-106906712D02*
X127471428Y-107020998D01*
X127471428Y-107020998D02*
X127509524Y-107173379D01*
X127509524Y-107173379D02*
X127547619Y-107249569D01*
X127547619Y-107249569D02*
X127623809Y-107325760D01*
X127623809Y-107325760D02*
X127738095Y-107363855D01*
X127738095Y-107363855D02*
X127814286Y-107363855D01*
X127814286Y-107363855D02*
X127928571Y-107325760D01*
X127928571Y-107325760D02*
X127966667Y-107287664D01*
X127966667Y-107287664D02*
X127966667Y-107020998D01*
X127966667Y-107020998D02*
X127814286Y-107020998D01*
X129338095Y-106601950D02*
X129261905Y-106563855D01*
X129261905Y-106563855D02*
X129147619Y-106563855D01*
X129147619Y-106563855D02*
X129033333Y-106601950D01*
X129033333Y-106601950D02*
X128957143Y-106678140D01*
X128957143Y-106678140D02*
X128919048Y-106754331D01*
X128919048Y-106754331D02*
X128880952Y-106906712D01*
X128880952Y-106906712D02*
X128880952Y-107020998D01*
X128880952Y-107020998D02*
X128919048Y-107173379D01*
X128919048Y-107173379D02*
X128957143Y-107249569D01*
X128957143Y-107249569D02*
X129033333Y-107325760D01*
X129033333Y-107325760D02*
X129147619Y-107363855D01*
X129147619Y-107363855D02*
X129223810Y-107363855D01*
X129223810Y-107363855D02*
X129338095Y-107325760D01*
X129338095Y-107325760D02*
X129376191Y-107287664D01*
X129376191Y-107287664D02*
X129376191Y-107020998D01*
X129376191Y-107020998D02*
X129223810Y-107020998D01*
X129719048Y-107363855D02*
X129719048Y-106563855D01*
X129719048Y-106563855D02*
X130176191Y-107363855D01*
X130176191Y-107363855D02*
X130176191Y-106563855D01*
X130557143Y-107363855D02*
X130557143Y-106563855D01*
X130557143Y-106563855D02*
X130747619Y-106563855D01*
X130747619Y-106563855D02*
X130861905Y-106601950D01*
X130861905Y-106601950D02*
X130938095Y-106678140D01*
X130938095Y-106678140D02*
X130976190Y-106754331D01*
X130976190Y-106754331D02*
X131014286Y-106906712D01*
X131014286Y-106906712D02*
X131014286Y-107020998D01*
X131014286Y-107020998D02*
X130976190Y-107173379D01*
X130976190Y-107173379D02*
X130938095Y-107249569D01*
X130938095Y-107249569D02*
X130861905Y-107325760D01*
X130861905Y-107325760D02*
X130747619Y-107363855D01*
X130747619Y-107363855D02*
X130557143Y-107363855D01*
X125238095Y-158987664D02*
X125199999Y-159025760D01*
X125199999Y-159025760D02*
X125085714Y-159063855D01*
X125085714Y-159063855D02*
X125009523Y-159063855D01*
X125009523Y-159063855D02*
X124895237Y-159025760D01*
X124895237Y-159025760D02*
X124819047Y-158949569D01*
X124819047Y-158949569D02*
X124780952Y-158873379D01*
X124780952Y-158873379D02*
X124742856Y-158720998D01*
X124742856Y-158720998D02*
X124742856Y-158606712D01*
X124742856Y-158606712D02*
X124780952Y-158454331D01*
X124780952Y-158454331D02*
X124819047Y-158378140D01*
X124819047Y-158378140D02*
X124895237Y-158301950D01*
X124895237Y-158301950D02*
X125009523Y-158263855D01*
X125009523Y-158263855D02*
X125085714Y-158263855D01*
X125085714Y-158263855D02*
X125199999Y-158301950D01*
X125199999Y-158301950D02*
X125238095Y-158340045D01*
X125733333Y-158263855D02*
X125885714Y-158263855D01*
X125885714Y-158263855D02*
X125961904Y-158301950D01*
X125961904Y-158301950D02*
X126038095Y-158378140D01*
X126038095Y-158378140D02*
X126076190Y-158530521D01*
X126076190Y-158530521D02*
X126076190Y-158797188D01*
X126076190Y-158797188D02*
X126038095Y-158949569D01*
X126038095Y-158949569D02*
X125961904Y-159025760D01*
X125961904Y-159025760D02*
X125885714Y-159063855D01*
X125885714Y-159063855D02*
X125733333Y-159063855D01*
X125733333Y-159063855D02*
X125657142Y-159025760D01*
X125657142Y-159025760D02*
X125580952Y-158949569D01*
X125580952Y-158949569D02*
X125542856Y-158797188D01*
X125542856Y-158797188D02*
X125542856Y-158530521D01*
X125542856Y-158530521D02*
X125580952Y-158378140D01*
X125580952Y-158378140D02*
X125657142Y-158301950D01*
X125657142Y-158301950D02*
X125733333Y-158263855D01*
X126419047Y-159063855D02*
X126419047Y-158263855D01*
X126419047Y-158263855D02*
X126685713Y-158835283D01*
X126685713Y-158835283D02*
X126952380Y-158263855D01*
X126952380Y-158263855D02*
X126952380Y-159063855D01*
X127333333Y-159063855D02*
X127333333Y-158263855D01*
X127333333Y-158263855D02*
X127638095Y-158263855D01*
X127638095Y-158263855D02*
X127714285Y-158301950D01*
X127714285Y-158301950D02*
X127752380Y-158340045D01*
X127752380Y-158340045D02*
X127790476Y-158416236D01*
X127790476Y-158416236D02*
X127790476Y-158530521D01*
X127790476Y-158530521D02*
X127752380Y-158606712D01*
X127752380Y-158606712D02*
X127714285Y-158644807D01*
X127714285Y-158644807D02*
X127638095Y-158682902D01*
X127638095Y-158682902D02*
X127333333Y-158682902D01*
X128285714Y-158263855D02*
X128438095Y-158263855D01*
X128438095Y-158263855D02*
X128514285Y-158301950D01*
X128514285Y-158301950D02*
X128590476Y-158378140D01*
X128590476Y-158378140D02*
X128628571Y-158530521D01*
X128628571Y-158530521D02*
X128628571Y-158797188D01*
X128628571Y-158797188D02*
X128590476Y-158949569D01*
X128590476Y-158949569D02*
X128514285Y-159025760D01*
X128514285Y-159025760D02*
X128438095Y-159063855D01*
X128438095Y-159063855D02*
X128285714Y-159063855D01*
X128285714Y-159063855D02*
X128209523Y-159025760D01*
X128209523Y-159025760D02*
X128133333Y-158949569D01*
X128133333Y-158949569D02*
X128095237Y-158797188D01*
X128095237Y-158797188D02*
X128095237Y-158530521D01*
X128095237Y-158530521D02*
X128133333Y-158378140D01*
X128133333Y-158378140D02*
X128209523Y-158301950D01*
X128209523Y-158301950D02*
X128285714Y-158263855D01*
X128971428Y-159063855D02*
X128971428Y-158263855D01*
X128971428Y-158263855D02*
X129428571Y-159063855D01*
X129428571Y-159063855D02*
X129428571Y-158263855D01*
X129809523Y-158644807D02*
X130076189Y-158644807D01*
X130190475Y-159063855D02*
X129809523Y-159063855D01*
X129809523Y-159063855D02*
X129809523Y-158263855D01*
X129809523Y-158263855D02*
X130190475Y-158263855D01*
X130533333Y-159063855D02*
X130533333Y-158263855D01*
X130533333Y-158263855D02*
X130990476Y-159063855D01*
X130990476Y-159063855D02*
X130990476Y-158263855D01*
X131257142Y-158263855D02*
X131714285Y-158263855D01*
X131485713Y-159063855D02*
X131485713Y-158263855D01*
X131980952Y-158644807D02*
X132247618Y-158644807D01*
X132361904Y-159063855D02*
X131980952Y-159063855D01*
X131980952Y-159063855D02*
X131980952Y-158263855D01*
X131980952Y-158263855D02*
X132361904Y-158263855D01*
X132666666Y-159025760D02*
X132780952Y-159063855D01*
X132780952Y-159063855D02*
X132971428Y-159063855D01*
X132971428Y-159063855D02*
X133047619Y-159025760D01*
X133047619Y-159025760D02*
X133085714Y-158987664D01*
X133085714Y-158987664D02*
X133123809Y-158911474D01*
X133123809Y-158911474D02*
X133123809Y-158835283D01*
X133123809Y-158835283D02*
X133085714Y-158759093D01*
X133085714Y-158759093D02*
X133047619Y-158720998D01*
X133047619Y-158720998D02*
X132971428Y-158682902D01*
X132971428Y-158682902D02*
X132819047Y-158644807D01*
X132819047Y-158644807D02*
X132742857Y-158606712D01*
X132742857Y-158606712D02*
X132704762Y-158568617D01*
X132704762Y-158568617D02*
X132666666Y-158492426D01*
X132666666Y-158492426D02*
X132666666Y-158416236D01*
X132666666Y-158416236D02*
X132704762Y-158340045D01*
X132704762Y-158340045D02*
X132742857Y-158301950D01*
X132742857Y-158301950D02*
X132819047Y-158263855D01*
X132819047Y-158263855D02*
X133009524Y-158263855D01*
X133009524Y-158263855D02*
X133123809Y-158301950D01*
X133961905Y-158263855D02*
X134228572Y-159063855D01*
X134228572Y-159063855D02*
X134495238Y-158263855D01*
X134914286Y-158263855D02*
X135066667Y-158263855D01*
X135066667Y-158263855D02*
X135142857Y-158301950D01*
X135142857Y-158301950D02*
X135219048Y-158378140D01*
X135219048Y-158378140D02*
X135257143Y-158530521D01*
X135257143Y-158530521D02*
X135257143Y-158797188D01*
X135257143Y-158797188D02*
X135219048Y-158949569D01*
X135219048Y-158949569D02*
X135142857Y-159025760D01*
X135142857Y-159025760D02*
X135066667Y-159063855D01*
X135066667Y-159063855D02*
X134914286Y-159063855D01*
X134914286Y-159063855D02*
X134838095Y-159025760D01*
X134838095Y-159025760D02*
X134761905Y-158949569D01*
X134761905Y-158949569D02*
X134723809Y-158797188D01*
X134723809Y-158797188D02*
X134723809Y-158530521D01*
X134723809Y-158530521D02*
X134761905Y-158378140D01*
X134761905Y-158378140D02*
X134838095Y-158301950D01*
X134838095Y-158301950D02*
X134914286Y-158263855D01*
X135980952Y-159063855D02*
X135600000Y-159063855D01*
X135600000Y-159063855D02*
X135600000Y-158263855D01*
X136133333Y-158263855D02*
X136590476Y-158263855D01*
X136361904Y-159063855D02*
X136361904Y-158263855D01*
X136819047Y-158835283D02*
X137200000Y-158835283D01*
X136742857Y-159063855D02*
X137009524Y-158263855D01*
X137009524Y-158263855D02*
X137276190Y-159063855D01*
X137542857Y-159063855D02*
X137542857Y-158263855D01*
X137542857Y-158263855D02*
X137733333Y-158263855D01*
X137733333Y-158263855D02*
X137847619Y-158301950D01*
X137847619Y-158301950D02*
X137923809Y-158378140D01*
X137923809Y-158378140D02*
X137961904Y-158454331D01*
X137961904Y-158454331D02*
X138000000Y-158606712D01*
X138000000Y-158606712D02*
X138000000Y-158720998D01*
X138000000Y-158720998D02*
X137961904Y-158873379D01*
X137961904Y-158873379D02*
X137923809Y-158949569D01*
X137923809Y-158949569D02*
X137847619Y-159025760D01*
X137847619Y-159025760D02*
X137733333Y-159063855D01*
X137733333Y-159063855D02*
X137542857Y-159063855D01*
X138495238Y-158263855D02*
X138647619Y-158263855D01*
X138647619Y-158263855D02*
X138723809Y-158301950D01*
X138723809Y-158301950D02*
X138800000Y-158378140D01*
X138800000Y-158378140D02*
X138838095Y-158530521D01*
X138838095Y-158530521D02*
X138838095Y-158797188D01*
X138838095Y-158797188D02*
X138800000Y-158949569D01*
X138800000Y-158949569D02*
X138723809Y-159025760D01*
X138723809Y-159025760D02*
X138647619Y-159063855D01*
X138647619Y-159063855D02*
X138495238Y-159063855D01*
X138495238Y-159063855D02*
X138419047Y-159025760D01*
X138419047Y-159025760D02*
X138342857Y-158949569D01*
X138342857Y-158949569D02*
X138304761Y-158797188D01*
X138304761Y-158797188D02*
X138304761Y-158530521D01*
X138304761Y-158530521D02*
X138342857Y-158378140D01*
X138342857Y-158378140D02*
X138419047Y-158301950D01*
X138419047Y-158301950D02*
X138495238Y-158263855D01*
X139142856Y-159025760D02*
X139257142Y-159063855D01*
X139257142Y-159063855D02*
X139447618Y-159063855D01*
X139447618Y-159063855D02*
X139523809Y-159025760D01*
X139523809Y-159025760D02*
X139561904Y-158987664D01*
X139561904Y-158987664D02*
X139599999Y-158911474D01*
X139599999Y-158911474D02*
X139599999Y-158835283D01*
X139599999Y-158835283D02*
X139561904Y-158759093D01*
X139561904Y-158759093D02*
X139523809Y-158720998D01*
X139523809Y-158720998D02*
X139447618Y-158682902D01*
X139447618Y-158682902D02*
X139295237Y-158644807D01*
X139295237Y-158644807D02*
X139219047Y-158606712D01*
X139219047Y-158606712D02*
X139180952Y-158568617D01*
X139180952Y-158568617D02*
X139142856Y-158492426D01*
X139142856Y-158492426D02*
X139142856Y-158416236D01*
X139142856Y-158416236D02*
X139180952Y-158340045D01*
X139180952Y-158340045D02*
X139219047Y-158301950D01*
X139219047Y-158301950D02*
X139295237Y-158263855D01*
X139295237Y-158263855D02*
X139485714Y-158263855D01*
X139485714Y-158263855D02*
X139599999Y-158301950D01*
X140552381Y-159063855D02*
X140552381Y-158263855D01*
X140552381Y-158263855D02*
X140857143Y-158263855D01*
X140857143Y-158263855D02*
X140933333Y-158301950D01*
X140933333Y-158301950D02*
X140971428Y-158340045D01*
X140971428Y-158340045D02*
X141009524Y-158416236D01*
X141009524Y-158416236D02*
X141009524Y-158530521D01*
X141009524Y-158530521D02*
X140971428Y-158606712D01*
X140971428Y-158606712D02*
X140933333Y-158644807D01*
X140933333Y-158644807D02*
X140857143Y-158682902D01*
X140857143Y-158682902D02*
X140552381Y-158682902D01*
X141314285Y-158835283D02*
X141695238Y-158835283D01*
X141238095Y-159063855D02*
X141504762Y-158263855D01*
X141504762Y-158263855D02*
X141771428Y-159063855D01*
X142495238Y-159063855D02*
X142228571Y-158682902D01*
X142038095Y-159063855D02*
X142038095Y-158263855D01*
X142038095Y-158263855D02*
X142342857Y-158263855D01*
X142342857Y-158263855D02*
X142419047Y-158301950D01*
X142419047Y-158301950D02*
X142457142Y-158340045D01*
X142457142Y-158340045D02*
X142495238Y-158416236D01*
X142495238Y-158416236D02*
X142495238Y-158530521D01*
X142495238Y-158530521D02*
X142457142Y-158606712D01*
X142457142Y-158606712D02*
X142419047Y-158644807D01*
X142419047Y-158644807D02*
X142342857Y-158682902D01*
X142342857Y-158682902D02*
X142038095Y-158682902D01*
X142799999Y-158835283D02*
X143180952Y-158835283D01*
X142723809Y-159063855D02*
X142990476Y-158263855D01*
X142990476Y-158263855D02*
X143257142Y-159063855D01*
X144285714Y-158263855D02*
X144438095Y-158263855D01*
X144438095Y-158263855D02*
X144514285Y-158301950D01*
X144514285Y-158301950D02*
X144590476Y-158378140D01*
X144590476Y-158378140D02*
X144628571Y-158530521D01*
X144628571Y-158530521D02*
X144628571Y-158797188D01*
X144628571Y-158797188D02*
X144590476Y-158949569D01*
X144590476Y-158949569D02*
X144514285Y-159025760D01*
X144514285Y-159025760D02*
X144438095Y-159063855D01*
X144438095Y-159063855D02*
X144285714Y-159063855D01*
X144285714Y-159063855D02*
X144209523Y-159025760D01*
X144209523Y-159025760D02*
X144133333Y-158949569D01*
X144133333Y-158949569D02*
X144095237Y-158797188D01*
X144095237Y-158797188D02*
X144095237Y-158530521D01*
X144095237Y-158530521D02*
X144133333Y-158378140D01*
X144133333Y-158378140D02*
X144209523Y-158301950D01*
X144209523Y-158301950D02*
X144285714Y-158263855D01*
X145466666Y-158263855D02*
X145733333Y-159063855D01*
X145733333Y-159063855D02*
X145999999Y-158263855D01*
X146266666Y-158644807D02*
X146533332Y-158644807D01*
X146647618Y-159063855D02*
X146266666Y-159063855D01*
X146266666Y-159063855D02*
X146266666Y-158263855D01*
X146266666Y-158263855D02*
X146647618Y-158263855D01*
X146876190Y-158263855D02*
X147333333Y-158263855D01*
X147104761Y-159063855D02*
X147104761Y-158263855D01*
X153273434Y-117435283D02*
X153654387Y-117435283D01*
X153197244Y-117663855D02*
X153463911Y-116863855D01*
X153463911Y-116863855D02*
X153730577Y-117663855D01*
X153882958Y-116863855D02*
X154340101Y-116863855D01*
X154111529Y-117663855D02*
X154111529Y-116863855D01*
X154606768Y-117663855D02*
X154606768Y-116863855D01*
X154873434Y-116863855D02*
X155140101Y-117663855D01*
X155140101Y-117663855D02*
X155406767Y-116863855D01*
X155825815Y-116863855D02*
X155978196Y-116863855D01*
X155978196Y-116863855D02*
X156054386Y-116901950D01*
X156054386Y-116901950D02*
X156130577Y-116978140D01*
X156130577Y-116978140D02*
X156168672Y-117130521D01*
X156168672Y-117130521D02*
X156168672Y-117397188D01*
X156168672Y-117397188D02*
X156130577Y-117549569D01*
X156130577Y-117549569D02*
X156054386Y-117625760D01*
X156054386Y-117625760D02*
X155978196Y-117663855D01*
X155978196Y-117663855D02*
X155825815Y-117663855D01*
X155825815Y-117663855D02*
X155749624Y-117625760D01*
X155749624Y-117625760D02*
X155673434Y-117549569D01*
X155673434Y-117549569D02*
X155635338Y-117397188D01*
X155635338Y-117397188D02*
X155635338Y-117130521D01*
X155635338Y-117130521D02*
X155673434Y-116978140D01*
X155673434Y-116978140D02*
X155749624Y-116901950D01*
X155749624Y-116901950D02*
X155825815Y-116863855D01*
D11*
X160428571Y-142659580D02*
X160380952Y-142707200D01*
X160380952Y-142707200D02*
X160238095Y-142754819D01*
X160238095Y-142754819D02*
X160142857Y-142754819D01*
X160142857Y-142754819D02*
X160000000Y-142707200D01*
X160000000Y-142707200D02*
X159904762Y-142611961D01*
X159904762Y-142611961D02*
X159857143Y-142516723D01*
X159857143Y-142516723D02*
X159809524Y-142326247D01*
X159809524Y-142326247D02*
X159809524Y-142183390D01*
X159809524Y-142183390D02*
X159857143Y-141992914D01*
X159857143Y-141992914D02*
X159904762Y-141897676D01*
X159904762Y-141897676D02*
X160000000Y-141802438D01*
X160000000Y-141802438D02*
X160142857Y-141754819D01*
X160142857Y-141754819D02*
X160238095Y-141754819D01*
X160238095Y-141754819D02*
X160380952Y-141802438D01*
X160380952Y-141802438D02*
X160428571Y-141850057D01*
X160809524Y-142469104D02*
X161285714Y-142469104D01*
X160714286Y-142754819D02*
X161047619Y-141754819D01*
X161047619Y-141754819D02*
X161380952Y-142754819D01*
X162285714Y-142754819D02*
X161952381Y-142278628D01*
X161714286Y-142754819D02*
X161714286Y-141754819D01*
X161714286Y-141754819D02*
X162095238Y-141754819D01*
X162095238Y-141754819D02*
X162190476Y-141802438D01*
X162190476Y-141802438D02*
X162238095Y-141850057D01*
X162238095Y-141850057D02*
X162285714Y-141945295D01*
X162285714Y-141945295D02*
X162285714Y-142088152D01*
X162285714Y-142088152D02*
X162238095Y-142183390D01*
X162238095Y-142183390D02*
X162190476Y-142231009D01*
X162190476Y-142231009D02*
X162095238Y-142278628D01*
X162095238Y-142278628D02*
X161714286Y-142278628D01*
X162571429Y-141754819D02*
X163142857Y-141754819D01*
X162857143Y-142754819D02*
X162857143Y-141754819D01*
X163476191Y-141754819D02*
X163476191Y-142564342D01*
X163476191Y-142564342D02*
X163523810Y-142659580D01*
X163523810Y-142659580D02*
X163571429Y-142707200D01*
X163571429Y-142707200D02*
X163666667Y-142754819D01*
X163666667Y-142754819D02*
X163857143Y-142754819D01*
X163857143Y-142754819D02*
X163952381Y-142707200D01*
X163952381Y-142707200D02*
X164000000Y-142659580D01*
X164000000Y-142659580D02*
X164047619Y-142564342D01*
X164047619Y-142564342D02*
X164047619Y-141754819D01*
X165095238Y-142659580D02*
X165047619Y-142707200D01*
X165047619Y-142707200D02*
X164904762Y-142754819D01*
X164904762Y-142754819D02*
X164809524Y-142754819D01*
X164809524Y-142754819D02*
X164666667Y-142707200D01*
X164666667Y-142707200D02*
X164571429Y-142611961D01*
X164571429Y-142611961D02*
X164523810Y-142516723D01*
X164523810Y-142516723D02*
X164476191Y-142326247D01*
X164476191Y-142326247D02*
X164476191Y-142183390D01*
X164476191Y-142183390D02*
X164523810Y-141992914D01*
X164523810Y-141992914D02*
X164571429Y-141897676D01*
X164571429Y-141897676D02*
X164666667Y-141802438D01*
X164666667Y-141802438D02*
X164809524Y-141754819D01*
X164809524Y-141754819D02*
X164904762Y-141754819D01*
X164904762Y-141754819D02*
X165047619Y-141802438D01*
X165047619Y-141802438D02*
X165095238Y-141850057D01*
X165523810Y-142754819D02*
X165523810Y-141754819D01*
X165523810Y-142231009D02*
X166095238Y-142231009D01*
X166095238Y-142754819D02*
X166095238Y-141754819D01*
X166761905Y-141754819D02*
X166952381Y-141754819D01*
X166952381Y-141754819D02*
X167047619Y-141802438D01*
X167047619Y-141802438D02*
X167142857Y-141897676D01*
X167142857Y-141897676D02*
X167190476Y-142088152D01*
X167190476Y-142088152D02*
X167190476Y-142421485D01*
X167190476Y-142421485D02*
X167142857Y-142611961D01*
X167142857Y-142611961D02*
X167047619Y-142707200D01*
X167047619Y-142707200D02*
X166952381Y-142754819D01*
X166952381Y-142754819D02*
X166761905Y-142754819D01*
X166761905Y-142754819D02*
X166666667Y-142707200D01*
X166666667Y-142707200D02*
X166571429Y-142611961D01*
X166571429Y-142611961D02*
X166523810Y-142421485D01*
X166523810Y-142421485D02*
X166523810Y-142088152D01*
X166523810Y-142088152D02*
X166571429Y-141897676D01*
X166571429Y-141897676D02*
X166666667Y-141802438D01*
X166666667Y-141802438D02*
X166761905Y-141754819D01*
X162071429Y-144088152D02*
X162309524Y-144754819D01*
X162309524Y-144754819D02*
X162547619Y-144088152D01*
X163452381Y-144754819D02*
X162880953Y-144754819D01*
X163166667Y-144754819D02*
X163166667Y-143754819D01*
X163166667Y-143754819D02*
X163071429Y-143897676D01*
X163071429Y-143897676D02*
X162976191Y-143992914D01*
X162976191Y-143992914D02*
X162880953Y-144040533D01*
X163880953Y-144659580D02*
X163928572Y-144707200D01*
X163928572Y-144707200D02*
X163880953Y-144754819D01*
X163880953Y-144754819D02*
X163833334Y-144707200D01*
X163833334Y-144707200D02*
X163880953Y-144659580D01*
X163880953Y-144659580D02*
X163880953Y-144754819D01*
X164547619Y-143754819D02*
X164642857Y-143754819D01*
X164642857Y-143754819D02*
X164738095Y-143802438D01*
X164738095Y-143802438D02*
X164785714Y-143850057D01*
X164785714Y-143850057D02*
X164833333Y-143945295D01*
X164833333Y-143945295D02*
X164880952Y-144135771D01*
X164880952Y-144135771D02*
X164880952Y-144373866D01*
X164880952Y-144373866D02*
X164833333Y-144564342D01*
X164833333Y-144564342D02*
X164785714Y-144659580D01*
X164785714Y-144659580D02*
X164738095Y-144707200D01*
X164738095Y-144707200D02*
X164642857Y-144754819D01*
X164642857Y-144754819D02*
X164547619Y-144754819D01*
X164547619Y-144754819D02*
X164452381Y-144707200D01*
X164452381Y-144707200D02*
X164404762Y-144659580D01*
X164404762Y-144659580D02*
X164357143Y-144564342D01*
X164357143Y-144564342D02*
X164309524Y-144373866D01*
X164309524Y-144373866D02*
X164309524Y-144135771D01*
X164309524Y-144135771D02*
X164357143Y-143945295D01*
X164357143Y-143945295D02*
X164404762Y-143850057D01*
X164404762Y-143850057D02*
X164452381Y-143802438D01*
X164452381Y-143802438D02*
X164547619Y-143754819D01*
D12*
X158321430Y-139178328D02*
X158821430Y-140678328D01*
X158821430Y-140678328D02*
X159321430Y-139178328D01*
X159821429Y-139892614D02*
X160321429Y-139892614D01*
X160535715Y-140678328D02*
X159821429Y-140678328D01*
X159821429Y-140678328D02*
X159821429Y-139178328D01*
X159821429Y-139178328D02*
X160535715Y-139178328D01*
X160964287Y-139178328D02*
X161821430Y-139178328D01*
X161392858Y-140678328D02*
X161392858Y-139178328D01*
X163321429Y-139178328D02*
X164250001Y-139178328D01*
X164250001Y-139178328D02*
X163750001Y-139749757D01*
X163750001Y-139749757D02*
X163964286Y-139749757D01*
X163964286Y-139749757D02*
X164107144Y-139821185D01*
X164107144Y-139821185D02*
X164178572Y-139892614D01*
X164178572Y-139892614D02*
X164250001Y-140035471D01*
X164250001Y-140035471D02*
X164250001Y-140392614D01*
X164250001Y-140392614D02*
X164178572Y-140535471D01*
X164178572Y-140535471D02*
X164107144Y-140606900D01*
X164107144Y-140606900D02*
X163964286Y-140678328D01*
X163964286Y-140678328D02*
X163535715Y-140678328D01*
X163535715Y-140678328D02*
X163392858Y-140606900D01*
X163392858Y-140606900D02*
X163321429Y-140535471D01*
X165178572Y-139178328D02*
X165321429Y-139178328D01*
X165321429Y-139178328D02*
X165464286Y-139249757D01*
X165464286Y-139249757D02*
X165535715Y-139321185D01*
X165535715Y-139321185D02*
X165607143Y-139464042D01*
X165607143Y-139464042D02*
X165678572Y-139749757D01*
X165678572Y-139749757D02*
X165678572Y-140106900D01*
X165678572Y-140106900D02*
X165607143Y-140392614D01*
X165607143Y-140392614D02*
X165535715Y-140535471D01*
X165535715Y-140535471D02*
X165464286Y-140606900D01*
X165464286Y-140606900D02*
X165321429Y-140678328D01*
X165321429Y-140678328D02*
X165178572Y-140678328D01*
X165178572Y-140678328D02*
X165035715Y-140606900D01*
X165035715Y-140606900D02*
X164964286Y-140535471D01*
X164964286Y-140535471D02*
X164892857Y-140392614D01*
X164892857Y-140392614D02*
X164821429Y-140106900D01*
X164821429Y-140106900D02*
X164821429Y-139749757D01*
X164821429Y-139749757D02*
X164892857Y-139464042D01*
X164892857Y-139464042D02*
X164964286Y-139321185D01*
X164964286Y-139321185D02*
X165035715Y-139249757D01*
X165035715Y-139249757D02*
X165178572Y-139178328D01*
X166607143Y-139178328D02*
X166750000Y-139178328D01*
X166750000Y-139178328D02*
X166892857Y-139249757D01*
X166892857Y-139249757D02*
X166964286Y-139321185D01*
X166964286Y-139321185D02*
X167035714Y-139464042D01*
X167035714Y-139464042D02*
X167107143Y-139749757D01*
X167107143Y-139749757D02*
X167107143Y-140106900D01*
X167107143Y-140106900D02*
X167035714Y-140392614D01*
X167035714Y-140392614D02*
X166964286Y-140535471D01*
X166964286Y-140535471D02*
X166892857Y-140606900D01*
X166892857Y-140606900D02*
X166750000Y-140678328D01*
X166750000Y-140678328D02*
X166607143Y-140678328D01*
X166607143Y-140678328D02*
X166464286Y-140606900D01*
X166464286Y-140606900D02*
X166392857Y-140535471D01*
X166392857Y-140535471D02*
X166321428Y-140392614D01*
X166321428Y-140392614D02*
X166250000Y-140106900D01*
X166250000Y-140106900D02*
X166250000Y-139749757D01*
X166250000Y-139749757D02*
X166321428Y-139464042D01*
X166321428Y-139464042D02*
X166392857Y-139321185D01*
X166392857Y-139321185D02*
X166464286Y-139249757D01*
X166464286Y-139249757D02*
X166607143Y-139178328D01*
X168035714Y-139178328D02*
X168178571Y-139178328D01*
X168178571Y-139178328D02*
X168321428Y-139249757D01*
X168321428Y-139249757D02*
X168392857Y-139321185D01*
X168392857Y-139321185D02*
X168464285Y-139464042D01*
X168464285Y-139464042D02*
X168535714Y-139749757D01*
X168535714Y-139749757D02*
X168535714Y-140106900D01*
X168535714Y-140106900D02*
X168464285Y-140392614D01*
X168464285Y-140392614D02*
X168392857Y-140535471D01*
X168392857Y-140535471D02*
X168321428Y-140606900D01*
X168321428Y-140606900D02*
X168178571Y-140678328D01*
X168178571Y-140678328D02*
X168035714Y-140678328D01*
X168035714Y-140678328D02*
X167892857Y-140606900D01*
X167892857Y-140606900D02*
X167821428Y-140535471D01*
X167821428Y-140535471D02*
X167749999Y-140392614D01*
X167749999Y-140392614D02*
X167678571Y-140106900D01*
X167678571Y-140106900D02*
X167678571Y-139749757D01*
X167678571Y-139749757D02*
X167749999Y-139464042D01*
X167749999Y-139464042D02*
X167821428Y-139321185D01*
X167821428Y-139321185D02*
X167892857Y-139249757D01*
X167892857Y-139249757D02*
X168035714Y-139178328D01*
D11*
X135666666Y-146814819D02*
X135666666Y-147529104D01*
X135666666Y-147529104D02*
X135619047Y-147671961D01*
X135619047Y-147671961D02*
X135523809Y-147767200D01*
X135523809Y-147767200D02*
X135380952Y-147814819D01*
X135380952Y-147814819D02*
X135285714Y-147814819D01*
X136666666Y-147814819D02*
X136095238Y-147814819D01*
X136380952Y-147814819D02*
X136380952Y-146814819D01*
X136380952Y-146814819D02*
X136285714Y-146957676D01*
X136285714Y-146957676D02*
X136190476Y-147052914D01*
X136190476Y-147052914D02*
X136095238Y-147100533D01*
X111619523Y-150822295D02*
X111619523Y-150403247D01*
X111619523Y-150403247D02*
X111581428Y-150327057D01*
X111581428Y-150327057D02*
X111505237Y-150288961D01*
X111505237Y-150288961D02*
X111352856Y-150288961D01*
X111352856Y-150288961D02*
X111276666Y-150327057D01*
X111619523Y-150784200D02*
X111543332Y-150822295D01*
X111543332Y-150822295D02*
X111352856Y-150822295D01*
X111352856Y-150822295D02*
X111276666Y-150784200D01*
X111276666Y-150784200D02*
X111238570Y-150708009D01*
X111238570Y-150708009D02*
X111238570Y-150631819D01*
X111238570Y-150631819D02*
X111276666Y-150555628D01*
X111276666Y-150555628D02*
X111352856Y-150517533D01*
X111352856Y-150517533D02*
X111543332Y-150517533D01*
X111543332Y-150517533D02*
X111619523Y-150479438D01*
X112419523Y-150822295D02*
X111962380Y-150822295D01*
X112190952Y-150822295D02*
X112190952Y-150022295D01*
X112190952Y-150022295D02*
X112114761Y-150136580D01*
X112114761Y-150136580D02*
X112038571Y-150212771D01*
X112038571Y-150212771D02*
X111962380Y-150250866D01*
X112876666Y-150365152D02*
X112800476Y-150327057D01*
X112800476Y-150327057D02*
X112762381Y-150288961D01*
X112762381Y-150288961D02*
X112724285Y-150212771D01*
X112724285Y-150212771D02*
X112724285Y-150174676D01*
X112724285Y-150174676D02*
X112762381Y-150098485D01*
X112762381Y-150098485D02*
X112800476Y-150060390D01*
X112800476Y-150060390D02*
X112876666Y-150022295D01*
X112876666Y-150022295D02*
X113029047Y-150022295D01*
X113029047Y-150022295D02*
X113105238Y-150060390D01*
X113105238Y-150060390D02*
X113143333Y-150098485D01*
X113143333Y-150098485D02*
X113181428Y-150174676D01*
X113181428Y-150174676D02*
X113181428Y-150212771D01*
X113181428Y-150212771D02*
X113143333Y-150288961D01*
X113143333Y-150288961D02*
X113105238Y-150327057D01*
X113105238Y-150327057D02*
X113029047Y-150365152D01*
X113029047Y-150365152D02*
X112876666Y-150365152D01*
X112876666Y-150365152D02*
X112800476Y-150403247D01*
X112800476Y-150403247D02*
X112762381Y-150441342D01*
X112762381Y-150441342D02*
X112724285Y-150517533D01*
X112724285Y-150517533D02*
X112724285Y-150669914D01*
X112724285Y-150669914D02*
X112762381Y-150746104D01*
X112762381Y-150746104D02*
X112800476Y-150784200D01*
X112800476Y-150784200D02*
X112876666Y-150822295D01*
X112876666Y-150822295D02*
X113029047Y-150822295D01*
X113029047Y-150822295D02*
X113105238Y-150784200D01*
X113105238Y-150784200D02*
X113143333Y-150746104D01*
X113143333Y-150746104D02*
X113181428Y-150669914D01*
X113181428Y-150669914D02*
X113181428Y-150517533D01*
X113181428Y-150517533D02*
X113143333Y-150441342D01*
X113143333Y-150441342D02*
X113105238Y-150403247D01*
X113105238Y-150403247D02*
X113029047Y-150365152D01*
X111276666Y-155902295D02*
X111276666Y-155102295D01*
X111276666Y-155407057D02*
X111352856Y-155368961D01*
X111352856Y-155368961D02*
X111505237Y-155368961D01*
X111505237Y-155368961D02*
X111581428Y-155407057D01*
X111581428Y-155407057D02*
X111619523Y-155445152D01*
X111619523Y-155445152D02*
X111657618Y-155521342D01*
X111657618Y-155521342D02*
X111657618Y-155749914D01*
X111657618Y-155749914D02*
X111619523Y-155826104D01*
X111619523Y-155826104D02*
X111581428Y-155864200D01*
X111581428Y-155864200D02*
X111505237Y-155902295D01*
X111505237Y-155902295D02*
X111352856Y-155902295D01*
X111352856Y-155902295D02*
X111276666Y-155864200D01*
X112419523Y-155902295D02*
X111962380Y-155902295D01*
X112190952Y-155902295D02*
X112190952Y-155102295D01*
X112190952Y-155102295D02*
X112114761Y-155216580D01*
X112114761Y-155216580D02*
X112038571Y-155292771D01*
X112038571Y-155292771D02*
X111962380Y-155330866D01*
X112876666Y-155445152D02*
X112800476Y-155407057D01*
X112800476Y-155407057D02*
X112762381Y-155368961D01*
X112762381Y-155368961D02*
X112724285Y-155292771D01*
X112724285Y-155292771D02*
X112724285Y-155254676D01*
X112724285Y-155254676D02*
X112762381Y-155178485D01*
X112762381Y-155178485D02*
X112800476Y-155140390D01*
X112800476Y-155140390D02*
X112876666Y-155102295D01*
X112876666Y-155102295D02*
X113029047Y-155102295D01*
X113029047Y-155102295D02*
X113105238Y-155140390D01*
X113105238Y-155140390D02*
X113143333Y-155178485D01*
X113143333Y-155178485D02*
X113181428Y-155254676D01*
X113181428Y-155254676D02*
X113181428Y-155292771D01*
X113181428Y-155292771D02*
X113143333Y-155368961D01*
X113143333Y-155368961D02*
X113105238Y-155407057D01*
X113105238Y-155407057D02*
X113029047Y-155445152D01*
X113029047Y-155445152D02*
X112876666Y-155445152D01*
X112876666Y-155445152D02*
X112800476Y-155483247D01*
X112800476Y-155483247D02*
X112762381Y-155521342D01*
X112762381Y-155521342D02*
X112724285Y-155597533D01*
X112724285Y-155597533D02*
X112724285Y-155749914D01*
X112724285Y-155749914D02*
X112762381Y-155826104D01*
X112762381Y-155826104D02*
X112800476Y-155864200D01*
X112800476Y-155864200D02*
X112876666Y-155902295D01*
X112876666Y-155902295D02*
X113029047Y-155902295D01*
X113029047Y-155902295D02*
X113105238Y-155864200D01*
X113105238Y-155864200D02*
X113143333Y-155826104D01*
X113143333Y-155826104D02*
X113181428Y-155749914D01*
X113181428Y-155749914D02*
X113181428Y-155597533D01*
X113181428Y-155597533D02*
X113143333Y-155521342D01*
X113143333Y-155521342D02*
X113105238Y-155483247D01*
X113105238Y-155483247D02*
X113029047Y-155445152D01*
X159380476Y-150822295D02*
X159380476Y-150403247D01*
X159380476Y-150403247D02*
X159342381Y-150327057D01*
X159342381Y-150327057D02*
X159266190Y-150288961D01*
X159266190Y-150288961D02*
X159113809Y-150288961D01*
X159113809Y-150288961D02*
X159037619Y-150327057D01*
X159380476Y-150784200D02*
X159304285Y-150822295D01*
X159304285Y-150822295D02*
X159113809Y-150822295D01*
X159113809Y-150822295D02*
X159037619Y-150784200D01*
X159037619Y-150784200D02*
X158999523Y-150708009D01*
X158999523Y-150708009D02*
X158999523Y-150631819D01*
X158999523Y-150631819D02*
X159037619Y-150555628D01*
X159037619Y-150555628D02*
X159113809Y-150517533D01*
X159113809Y-150517533D02*
X159304285Y-150517533D01*
X159304285Y-150517533D02*
X159380476Y-150479438D01*
X160180476Y-150822295D02*
X159723333Y-150822295D01*
X159951905Y-150822295D02*
X159951905Y-150022295D01*
X159951905Y-150022295D02*
X159875714Y-150136580D01*
X159875714Y-150136580D02*
X159799524Y-150212771D01*
X159799524Y-150212771D02*
X159723333Y-150250866D01*
X159037619Y-155902295D02*
X159037619Y-155102295D01*
X159037619Y-155407057D02*
X159113809Y-155368961D01*
X159113809Y-155368961D02*
X159266190Y-155368961D01*
X159266190Y-155368961D02*
X159342381Y-155407057D01*
X159342381Y-155407057D02*
X159380476Y-155445152D01*
X159380476Y-155445152D02*
X159418571Y-155521342D01*
X159418571Y-155521342D02*
X159418571Y-155749914D01*
X159418571Y-155749914D02*
X159380476Y-155826104D01*
X159380476Y-155826104D02*
X159342381Y-155864200D01*
X159342381Y-155864200D02*
X159266190Y-155902295D01*
X159266190Y-155902295D02*
X159113809Y-155902295D01*
X159113809Y-155902295D02*
X159037619Y-155864200D01*
X160180476Y-155902295D02*
X159723333Y-155902295D01*
X159951905Y-155902295D02*
X159951905Y-155102295D01*
X159951905Y-155102295D02*
X159875714Y-155216580D01*
X159875714Y-155216580D02*
X159799524Y-155292771D01*
X159799524Y-155292771D02*
X159723333Y-155330866D01*
X105833333Y-141609580D02*
X105785714Y-141657200D01*
X105785714Y-141657200D02*
X105642857Y-141704819D01*
X105642857Y-141704819D02*
X105547619Y-141704819D01*
X105547619Y-141704819D02*
X105404762Y-141657200D01*
X105404762Y-141657200D02*
X105309524Y-141561961D01*
X105309524Y-141561961D02*
X105261905Y-141466723D01*
X105261905Y-141466723D02*
X105214286Y-141276247D01*
X105214286Y-141276247D02*
X105214286Y-141133390D01*
X105214286Y-141133390D02*
X105261905Y-140942914D01*
X105261905Y-140942914D02*
X105309524Y-140847676D01*
X105309524Y-140847676D02*
X105404762Y-140752438D01*
X105404762Y-140752438D02*
X105547619Y-140704819D01*
X105547619Y-140704819D02*
X105642857Y-140704819D01*
X105642857Y-140704819D02*
X105785714Y-140752438D01*
X105785714Y-140752438D02*
X105833333Y-140800057D01*
X106166667Y-140704819D02*
X106785714Y-140704819D01*
X106785714Y-140704819D02*
X106452381Y-141085771D01*
X106452381Y-141085771D02*
X106595238Y-141085771D01*
X106595238Y-141085771D02*
X106690476Y-141133390D01*
X106690476Y-141133390D02*
X106738095Y-141181009D01*
X106738095Y-141181009D02*
X106785714Y-141276247D01*
X106785714Y-141276247D02*
X106785714Y-141514342D01*
X106785714Y-141514342D02*
X106738095Y-141609580D01*
X106738095Y-141609580D02*
X106690476Y-141657200D01*
X106690476Y-141657200D02*
X106595238Y-141704819D01*
X106595238Y-141704819D02*
X106309524Y-141704819D01*
X106309524Y-141704819D02*
X106214286Y-141657200D01*
X106214286Y-141657200D02*
X106166667Y-141609580D01*
X109074819Y-104833333D02*
X109789104Y-104833333D01*
X109789104Y-104833333D02*
X109931961Y-104880952D01*
X109931961Y-104880952D02*
X110027200Y-104976190D01*
X110027200Y-104976190D02*
X110074819Y-105119047D01*
X110074819Y-105119047D02*
X110074819Y-105214285D01*
X109170057Y-104404761D02*
X109122438Y-104357142D01*
X109122438Y-104357142D02*
X109074819Y-104261904D01*
X109074819Y-104261904D02*
X109074819Y-104023809D01*
X109074819Y-104023809D02*
X109122438Y-103928571D01*
X109122438Y-103928571D02*
X109170057Y-103880952D01*
X109170057Y-103880952D02*
X109265295Y-103833333D01*
X109265295Y-103833333D02*
X109360533Y-103833333D01*
X109360533Y-103833333D02*
X109503390Y-103880952D01*
X109503390Y-103880952D02*
X110074819Y-104452380D01*
X110074819Y-104452380D02*
X110074819Y-103833333D01*
X156359580Y-133666666D02*
X156407200Y-133714285D01*
X156407200Y-133714285D02*
X156454819Y-133857142D01*
X156454819Y-133857142D02*
X156454819Y-133952380D01*
X156454819Y-133952380D02*
X156407200Y-134095237D01*
X156407200Y-134095237D02*
X156311961Y-134190475D01*
X156311961Y-134190475D02*
X156216723Y-134238094D01*
X156216723Y-134238094D02*
X156026247Y-134285713D01*
X156026247Y-134285713D02*
X155883390Y-134285713D01*
X155883390Y-134285713D02*
X155692914Y-134238094D01*
X155692914Y-134238094D02*
X155597676Y-134190475D01*
X155597676Y-134190475D02*
X155502438Y-134095237D01*
X155502438Y-134095237D02*
X155454819Y-133952380D01*
X155454819Y-133952380D02*
X155454819Y-133857142D01*
X155454819Y-133857142D02*
X155502438Y-133714285D01*
X155502438Y-133714285D02*
X155550057Y-133666666D01*
X156454819Y-132714285D02*
X156454819Y-133285713D01*
X156454819Y-132999999D02*
X155454819Y-132999999D01*
X155454819Y-132999999D02*
X155597676Y-133095237D01*
X155597676Y-133095237D02*
X155692914Y-133190475D01*
X155692914Y-133190475D02*
X155740533Y-133285713D01*
X157166666Y-113074819D02*
X157166666Y-113789104D01*
X157166666Y-113789104D02*
X157119047Y-113931961D01*
X157119047Y-113931961D02*
X157023809Y-114027200D01*
X157023809Y-114027200D02*
X156880952Y-114074819D01*
X156880952Y-114074819D02*
X156785714Y-114074819D01*
X157642857Y-114074819D02*
X157642857Y-113074819D01*
X157642857Y-113074819D02*
X158023809Y-113074819D01*
X158023809Y-113074819D02*
X158119047Y-113122438D01*
X158119047Y-113122438D02*
X158166666Y-113170057D01*
X158166666Y-113170057D02*
X158214285Y-113265295D01*
X158214285Y-113265295D02*
X158214285Y-113408152D01*
X158214285Y-113408152D02*
X158166666Y-113503390D01*
X158166666Y-113503390D02*
X158119047Y-113551009D01*
X158119047Y-113551009D02*
X158023809Y-113598628D01*
X158023809Y-113598628D02*
X157642857Y-113598628D01*
X158547619Y-113074819D02*
X159166666Y-113074819D01*
X159166666Y-113074819D02*
X158833333Y-113455771D01*
X158833333Y-113455771D02*
X158976190Y-113455771D01*
X158976190Y-113455771D02*
X159071428Y-113503390D01*
X159071428Y-113503390D02*
X159119047Y-113551009D01*
X159119047Y-113551009D02*
X159166666Y-113646247D01*
X159166666Y-113646247D02*
X159166666Y-113884342D01*
X159166666Y-113884342D02*
X159119047Y-113979580D01*
X159119047Y-113979580D02*
X159071428Y-114027200D01*
X159071428Y-114027200D02*
X158976190Y-114074819D01*
X158976190Y-114074819D02*
X158690476Y-114074819D01*
X158690476Y-114074819D02*
X158595238Y-114027200D01*
X158595238Y-114027200D02*
X158547619Y-113979580D01*
X132124819Y-117951904D02*
X132934342Y-117951904D01*
X132934342Y-117951904D02*
X133029580Y-117904285D01*
X133029580Y-117904285D02*
X133077200Y-117856666D01*
X133077200Y-117856666D02*
X133124819Y-117761428D01*
X133124819Y-117761428D02*
X133124819Y-117570952D01*
X133124819Y-117570952D02*
X133077200Y-117475714D01*
X133077200Y-117475714D02*
X133029580Y-117428095D01*
X133029580Y-117428095D02*
X132934342Y-117380476D01*
X132934342Y-117380476D02*
X132124819Y-117380476D01*
X132220057Y-116951904D02*
X132172438Y-116904285D01*
X132172438Y-116904285D02*
X132124819Y-116809047D01*
X132124819Y-116809047D02*
X132124819Y-116570952D01*
X132124819Y-116570952D02*
X132172438Y-116475714D01*
X132172438Y-116475714D02*
X132220057Y-116428095D01*
X132220057Y-116428095D02*
X132315295Y-116380476D01*
X132315295Y-116380476D02*
X132410533Y-116380476D01*
X132410533Y-116380476D02*
X132553390Y-116428095D01*
X132553390Y-116428095D02*
X133124819Y-116999523D01*
X133124819Y-116999523D02*
X133124819Y-116380476D01*
X163084819Y-120356666D02*
X162608628Y-120689999D01*
X163084819Y-120928094D02*
X162084819Y-120928094D01*
X162084819Y-120928094D02*
X162084819Y-120547142D01*
X162084819Y-120547142D02*
X162132438Y-120451904D01*
X162132438Y-120451904D02*
X162180057Y-120404285D01*
X162180057Y-120404285D02*
X162275295Y-120356666D01*
X162275295Y-120356666D02*
X162418152Y-120356666D01*
X162418152Y-120356666D02*
X162513390Y-120404285D01*
X162513390Y-120404285D02*
X162561009Y-120451904D01*
X162561009Y-120451904D02*
X162608628Y-120547142D01*
X162608628Y-120547142D02*
X162608628Y-120928094D01*
X163084819Y-119404285D02*
X163084819Y-119975713D01*
X163084819Y-119689999D02*
X162084819Y-119689999D01*
X162084819Y-119689999D02*
X162227676Y-119785237D01*
X162227676Y-119785237D02*
X162322914Y-119880475D01*
X162322914Y-119880475D02*
X162370533Y-119975713D01*
X104166666Y-128074819D02*
X104166666Y-128789104D01*
X104166666Y-128789104D02*
X104119047Y-128931961D01*
X104119047Y-128931961D02*
X104023809Y-129027200D01*
X104023809Y-129027200D02*
X103880952Y-129074819D01*
X103880952Y-129074819D02*
X103785714Y-129074819D01*
X104642857Y-129074819D02*
X104642857Y-128074819D01*
X104642857Y-128074819D02*
X105023809Y-128074819D01*
X105023809Y-128074819D02*
X105119047Y-128122438D01*
X105119047Y-128122438D02*
X105166666Y-128170057D01*
X105166666Y-128170057D02*
X105214285Y-128265295D01*
X105214285Y-128265295D02*
X105214285Y-128408152D01*
X105214285Y-128408152D02*
X105166666Y-128503390D01*
X105166666Y-128503390D02*
X105119047Y-128551009D01*
X105119047Y-128551009D02*
X105023809Y-128598628D01*
X105023809Y-128598628D02*
X104642857Y-128598628D01*
X106166666Y-129074819D02*
X105595238Y-129074819D01*
X105880952Y-129074819D02*
X105880952Y-128074819D01*
X105880952Y-128074819D02*
X105785714Y-128217676D01*
X105785714Y-128217676D02*
X105690476Y-128312914D01*
X105690476Y-128312914D02*
X105595238Y-128360533D01*
X116624819Y-135141904D02*
X117434342Y-135141904D01*
X117434342Y-135141904D02*
X117529580Y-135094285D01*
X117529580Y-135094285D02*
X117577200Y-135046666D01*
X117577200Y-135046666D02*
X117624819Y-134951428D01*
X117624819Y-134951428D02*
X117624819Y-134760952D01*
X117624819Y-134760952D02*
X117577200Y-134665714D01*
X117577200Y-134665714D02*
X117529580Y-134618095D01*
X117529580Y-134618095D02*
X117434342Y-134570476D01*
X117434342Y-134570476D02*
X116624819Y-134570476D01*
X117624819Y-133570476D02*
X117624819Y-134141904D01*
X117624819Y-133856190D02*
X116624819Y-133856190D01*
X116624819Y-133856190D02*
X116767676Y-133951428D01*
X116767676Y-133951428D02*
X116862914Y-134046666D01*
X116862914Y-134046666D02*
X116910533Y-134141904D01*
X104166666Y-115074819D02*
X104166666Y-115789104D01*
X104166666Y-115789104D02*
X104119047Y-115931961D01*
X104119047Y-115931961D02*
X104023809Y-116027200D01*
X104023809Y-116027200D02*
X103880952Y-116074819D01*
X103880952Y-116074819D02*
X103785714Y-116074819D01*
X104642857Y-116074819D02*
X104642857Y-115074819D01*
X104642857Y-115074819D02*
X105023809Y-115074819D01*
X105023809Y-115074819D02*
X105119047Y-115122438D01*
X105119047Y-115122438D02*
X105166666Y-115170057D01*
X105166666Y-115170057D02*
X105214285Y-115265295D01*
X105214285Y-115265295D02*
X105214285Y-115408152D01*
X105214285Y-115408152D02*
X105166666Y-115503390D01*
X105166666Y-115503390D02*
X105119047Y-115551009D01*
X105119047Y-115551009D02*
X105023809Y-115598628D01*
X105023809Y-115598628D02*
X104642857Y-115598628D01*
X105595238Y-115170057D02*
X105642857Y-115122438D01*
X105642857Y-115122438D02*
X105738095Y-115074819D01*
X105738095Y-115074819D02*
X105976190Y-115074819D01*
X105976190Y-115074819D02*
X106071428Y-115122438D01*
X106071428Y-115122438D02*
X106119047Y-115170057D01*
X106119047Y-115170057D02*
X106166666Y-115265295D01*
X106166666Y-115265295D02*
X106166666Y-115360533D01*
X106166666Y-115360533D02*
X106119047Y-115503390D01*
X106119047Y-115503390D02*
X105547619Y-116074819D01*
X105547619Y-116074819D02*
X106166666Y-116074819D01*
X137333333Y-105859580D02*
X137285714Y-105907200D01*
X137285714Y-105907200D02*
X137142857Y-105954819D01*
X137142857Y-105954819D02*
X137047619Y-105954819D01*
X137047619Y-105954819D02*
X136904762Y-105907200D01*
X136904762Y-105907200D02*
X136809524Y-105811961D01*
X136809524Y-105811961D02*
X136761905Y-105716723D01*
X136761905Y-105716723D02*
X136714286Y-105526247D01*
X136714286Y-105526247D02*
X136714286Y-105383390D01*
X136714286Y-105383390D02*
X136761905Y-105192914D01*
X136761905Y-105192914D02*
X136809524Y-105097676D01*
X136809524Y-105097676D02*
X136904762Y-105002438D01*
X136904762Y-105002438D02*
X137047619Y-104954819D01*
X137047619Y-104954819D02*
X137142857Y-104954819D01*
X137142857Y-104954819D02*
X137285714Y-105002438D01*
X137285714Y-105002438D02*
X137333333Y-105050057D01*
X137714286Y-105050057D02*
X137761905Y-105002438D01*
X137761905Y-105002438D02*
X137857143Y-104954819D01*
X137857143Y-104954819D02*
X138095238Y-104954819D01*
X138095238Y-104954819D02*
X138190476Y-105002438D01*
X138190476Y-105002438D02*
X138238095Y-105050057D01*
X138238095Y-105050057D02*
X138285714Y-105145295D01*
X138285714Y-105145295D02*
X138285714Y-105240533D01*
X138285714Y-105240533D02*
X138238095Y-105383390D01*
X138238095Y-105383390D02*
X137666667Y-105954819D01*
X137666667Y-105954819D02*
X138285714Y-105954819D01*
%TO.C,J1*%
D10*
X111010000Y-148960000D02*
X160990000Y-148960000D01*
X160990000Y-157040000D01*
X111010000Y-157040000D01*
X111010000Y-148960000D01*
%TO.C,C3*%
X103195225Y-143525000D02*
X103695225Y-143525000D01*
X103445225Y-143275000D02*
X103445225Y-143775000D01*
X106000000Y-142420000D02*
X106000000Y-143960000D01*
X106000000Y-146040000D02*
X106000000Y-147580000D01*
X106040000Y-142420000D02*
X106040000Y-143960000D01*
X106040000Y-146040000D02*
X106040000Y-147580000D01*
X106080000Y-142421000D02*
X106080000Y-143960000D01*
X106080000Y-146040000D02*
X106080000Y-147579000D01*
X106120000Y-142423000D02*
X106120000Y-143960000D01*
X106120000Y-146040000D02*
X106120000Y-147577000D01*
X106160000Y-142425000D02*
X106160000Y-143960000D01*
X106160000Y-146040000D02*
X106160000Y-147575000D01*
X106200000Y-142428000D02*
X106200000Y-143960000D01*
X106200000Y-146040000D02*
X106200000Y-147572000D01*
X106240000Y-142431000D02*
X106240000Y-143960000D01*
X106240000Y-146040000D02*
X106240000Y-147569000D01*
X106280000Y-142435000D02*
X106280000Y-143960000D01*
X106280000Y-146040000D02*
X106280000Y-147565000D01*
X106320000Y-142440000D02*
X106320000Y-143960000D01*
X106320000Y-146040000D02*
X106320000Y-147560000D01*
X106360000Y-142445000D02*
X106360000Y-143960000D01*
X106360000Y-146040000D02*
X106360000Y-147555000D01*
X106400000Y-142451000D02*
X106400000Y-143960000D01*
X106400000Y-146040000D02*
X106400000Y-147549000D01*
X106440000Y-142457000D02*
X106440000Y-143960000D01*
X106440000Y-146040000D02*
X106440000Y-147543000D01*
X106480000Y-142464000D02*
X106480000Y-143960000D01*
X106480000Y-146040000D02*
X106480000Y-147536000D01*
X106520000Y-142472000D02*
X106520000Y-143960000D01*
X106520000Y-146040000D02*
X106520000Y-147528000D01*
X106560000Y-142481000D02*
X106560000Y-143960000D01*
X106560000Y-146040000D02*
X106560000Y-147519000D01*
X106600000Y-142490000D02*
X106600000Y-143960000D01*
X106600000Y-146040000D02*
X106600000Y-147510000D01*
X106640000Y-142499000D02*
X106640000Y-143960000D01*
X106640000Y-146040000D02*
X106640000Y-147501000D01*
X106680000Y-142510000D02*
X106680000Y-143960000D01*
X106680000Y-146040000D02*
X106680000Y-147490000D01*
X106720000Y-142521000D02*
X106720000Y-143960000D01*
X106720000Y-146040000D02*
X106720000Y-147479000D01*
X106760000Y-142533000D02*
X106760000Y-143960000D01*
X106760000Y-146040000D02*
X106760000Y-147467000D01*
X106800000Y-142545000D02*
X106800000Y-143960000D01*
X106800000Y-146040000D02*
X106800000Y-147455000D01*
X106840000Y-142558000D02*
X106840000Y-143960000D01*
X106840000Y-146040000D02*
X106840000Y-147442000D01*
X106880000Y-142572000D02*
X106880000Y-143960000D01*
X106880000Y-146040000D02*
X106880000Y-147428000D01*
X106920000Y-142587000D02*
X106920000Y-143960000D01*
X106920000Y-146040000D02*
X106920000Y-147413000D01*
X106960000Y-142602000D02*
X106960000Y-143960000D01*
X106960000Y-146040000D02*
X106960000Y-147398000D01*
X107000000Y-142618000D02*
X107000000Y-143960000D01*
X107000000Y-146040000D02*
X107000000Y-147382000D01*
X107040000Y-142635000D02*
X107040000Y-143960000D01*
X107040000Y-146040000D02*
X107040000Y-147365000D01*
X107080000Y-142653000D02*
X107080000Y-143960000D01*
X107080000Y-146040000D02*
X107080000Y-147347000D01*
X107120000Y-142671000D02*
X107120000Y-143960000D01*
X107120000Y-146040000D02*
X107120000Y-147329000D01*
X107160000Y-142691000D02*
X107160000Y-143960000D01*
X107160000Y-146040000D02*
X107160000Y-147309000D01*
X107200000Y-142711000D02*
X107200000Y-143960000D01*
X107200000Y-146040000D02*
X107200000Y-147289000D01*
X107240000Y-142732000D02*
X107240000Y-143960000D01*
X107240000Y-146040000D02*
X107240000Y-147268000D01*
X107280000Y-142754000D02*
X107280000Y-143960000D01*
X107280000Y-146040000D02*
X107280000Y-147246000D01*
X107320000Y-142777000D02*
X107320000Y-143960000D01*
X107320000Y-146040000D02*
X107320000Y-147223000D01*
X107360000Y-142801000D02*
X107360000Y-143960000D01*
X107360000Y-146040000D02*
X107360000Y-147199000D01*
X107400000Y-142825000D02*
X107400000Y-143960000D01*
X107400000Y-146040000D02*
X107400000Y-147175000D01*
X107440000Y-142851000D02*
X107440000Y-143960000D01*
X107440000Y-146040000D02*
X107440000Y-147149000D01*
X107480000Y-142878000D02*
X107480000Y-143960000D01*
X107480000Y-146040000D02*
X107480000Y-147122000D01*
X107520000Y-142906000D02*
X107520000Y-143960000D01*
X107520000Y-146040000D02*
X107520000Y-147094000D01*
X107560000Y-142935000D02*
X107560000Y-143960000D01*
X107560000Y-146040000D02*
X107560000Y-147065000D01*
X107600000Y-142965000D02*
X107600000Y-143960000D01*
X107600000Y-146040000D02*
X107600000Y-147035000D01*
X107640000Y-142997000D02*
X107640000Y-143960000D01*
X107640000Y-146040000D02*
X107640000Y-147003000D01*
X107680000Y-143030000D02*
X107680000Y-143960000D01*
X107680000Y-146040000D02*
X107680000Y-146970000D01*
X107720000Y-143064000D02*
X107720000Y-143960000D01*
X107720000Y-146040000D02*
X107720000Y-146936000D01*
X107760000Y-143099000D02*
X107760000Y-143960000D01*
X107760000Y-146040000D02*
X107760000Y-146901000D01*
X107800000Y-143136000D02*
X107800000Y-143960000D01*
X107800000Y-146040000D02*
X107800000Y-146864000D01*
X107840000Y-143175000D02*
X107840000Y-143960000D01*
X107840000Y-146040000D02*
X107840000Y-146825000D01*
X107880000Y-143215000D02*
X107880000Y-143960000D01*
X107880000Y-146040000D02*
X107880000Y-146785000D01*
X107920000Y-143257000D02*
X107920000Y-143960000D01*
X107920000Y-146040000D02*
X107920000Y-146743000D01*
X107960000Y-143301000D02*
X107960000Y-143960000D01*
X107960000Y-146040000D02*
X107960000Y-146699000D01*
X108000000Y-143348000D02*
X108000000Y-143960000D01*
X108000000Y-146040000D02*
X108000000Y-146652000D01*
X108040000Y-143396000D02*
X108040000Y-146604000D01*
X108080000Y-143447000D02*
X108080000Y-146553000D01*
X108120000Y-143501000D02*
X108120000Y-146499000D01*
X108160000Y-143557000D02*
X108160000Y-146443000D01*
X108200000Y-143617000D02*
X108200000Y-146383000D01*
X108240000Y-143681000D02*
X108240000Y-146319000D01*
X108280000Y-143749000D02*
X108280000Y-146251000D01*
X108320000Y-143823000D02*
X108320000Y-146177000D01*
X108360000Y-143902000D02*
X108360000Y-146098000D01*
X108400000Y-143989000D02*
X108400000Y-146011000D01*
X108440000Y-144086000D02*
X108440000Y-145914000D01*
X108480000Y-144195000D02*
X108480000Y-145805000D01*
X108520000Y-144323000D02*
X108520000Y-145677000D01*
X108560000Y-144483000D02*
X108560000Y-145517000D01*
X108600000Y-144717000D02*
X108600000Y-145283000D01*
X108620000Y-145000000D02*
G75*
G02*
X103380000Y-145000000I-2620000J0D01*
G01*
X103380000Y-145000000D02*
G75*
G02*
X108620000Y-145000000I2620000J0D01*
G01*
%TO.C,J2*%
X110620000Y-105880000D02*
X110620000Y-104500000D01*
X112000000Y-105880000D02*
X110620000Y-105880000D01*
X113270000Y-103120000D02*
X131160000Y-103120000D01*
X113270000Y-105880000D02*
X113270000Y-103120000D01*
X113270000Y-105880000D02*
X131160000Y-105880000D01*
X131160000Y-105880000D02*
X131160000Y-103120000D01*
%TO.C,C1*%
X157130000Y-130880000D02*
X157467000Y-130880000D01*
X157130000Y-136120000D02*
X157130000Y-130880000D01*
X157467000Y-136120000D02*
X157130000Y-136120000D01*
X159533000Y-130880000D02*
X159870000Y-130880000D01*
X159870000Y-130880000D02*
X159870000Y-136120000D01*
X159870000Y-136120000D02*
X159533000Y-136120000D01*
%TO.C,JP3*%
X156620000Y-114620000D02*
X158000000Y-114620000D01*
X156620000Y-116000000D02*
X156620000Y-114620000D01*
X156620000Y-117270000D02*
X156620000Y-119920000D01*
X156620000Y-117270000D02*
X159380000Y-117270000D01*
X156620000Y-119920000D02*
X159380000Y-119920000D01*
X159380000Y-117270000D02*
X159380000Y-119920000D01*
%TO.C,U2*%
X133670000Y-114540000D02*
X133670000Y-116190000D01*
X133670000Y-118190000D02*
X133670000Y-119840000D01*
X133670000Y-119840000D02*
X151570000Y-119840000D01*
X151570000Y-114540000D02*
X133670000Y-114540000D01*
X151570000Y-119840000D02*
X151570000Y-114540000D01*
X133610000Y-112050000D02*
X151630000Y-112050000D01*
X151630000Y-122330000D01*
X133610000Y-122330000D01*
X133610000Y-112050000D01*
X133670000Y-116190000D02*
G75*
G02*
X133670000Y-118190000I0J-1000000D01*
G01*
%TO.C,R1*%
X163630000Y-116920000D02*
X163960000Y-116920000D01*
X163630000Y-123460000D02*
X163630000Y-116920000D01*
X163960000Y-123460000D02*
X163630000Y-123460000D01*
X166040000Y-123460000D02*
X166370000Y-123460000D01*
X166370000Y-116920000D02*
X166040000Y-116920000D01*
X166370000Y-123460000D02*
X166370000Y-116920000D01*
%TO.C,JP1*%
X103620000Y-129620000D02*
X105000000Y-129620000D01*
X103620000Y-131000000D02*
X103620000Y-129620000D01*
X103620000Y-132270000D02*
X103620000Y-137460000D01*
X103620000Y-132270000D02*
X106380000Y-132270000D01*
X103620000Y-137460000D02*
X106380000Y-137460000D01*
X106380000Y-132270000D02*
X106380000Y-137460000D01*
%TO.C,U1*%
X118170000Y-127920000D02*
X118170000Y-133380000D01*
X118170000Y-135380000D02*
X118170000Y-140840000D01*
X118170000Y-140840000D02*
X153850000Y-140840000D01*
X153850000Y-127920000D02*
X118170000Y-127920000D01*
X153850000Y-140840000D02*
X153850000Y-127920000D01*
X118110000Y-125430000D02*
X153910000Y-125430000D01*
X153910000Y-143330000D01*
X118110000Y-143330000D01*
X118110000Y-125430000D01*
X118170000Y-133380000D02*
G75*
G02*
X118170000Y-135380000I0J-1000000D01*
G01*
%TO.C,JP2*%
X103620000Y-116620000D02*
X105000000Y-116620000D01*
X103620000Y-118000000D02*
X103620000Y-116620000D01*
X103620000Y-119270000D02*
X103620000Y-124460000D01*
X103620000Y-119270000D02*
X106380000Y-119270000D01*
X103620000Y-124460000D02*
X106380000Y-124460000D01*
X106380000Y-119270000D02*
X106380000Y-124460000D01*
%TO.C,C2*%
X134880000Y-106630000D02*
X140120000Y-106630000D01*
X134880000Y-106967000D02*
X134880000Y-106630000D01*
X134880000Y-109370000D02*
X134880000Y-109033000D01*
X140120000Y-106630000D02*
X140120000Y-106967000D01*
X140120000Y-109033000D02*
X140120000Y-109370000D01*
X140120000Y-109370000D02*
X134880000Y-109370000D01*
%TD*%
%LPC*%
D13*
%TO.C,H1*%
X104500000Y-104500000D03*
%TD*%
D14*
%TO.C,J1*%
X157590000Y-150460000D03*
D15*
X155050000Y-150460000D03*
X152510000Y-150460000D03*
X149970000Y-150460000D03*
X147430000Y-150460000D03*
X144890000Y-150460000D03*
X142350000Y-150460000D03*
X139810000Y-150460000D03*
X137270000Y-150460000D03*
X134730000Y-150460000D03*
X132190000Y-150460000D03*
X129650000Y-150460000D03*
X127110000Y-150460000D03*
X124570000Y-150460000D03*
X122030000Y-150460000D03*
X119490000Y-150460000D03*
X116950000Y-150460000D03*
X114410000Y-150460000D03*
D14*
X157590000Y-155540000D03*
D15*
X155050000Y-155540000D03*
X152510000Y-155540000D03*
X149970000Y-155540000D03*
X147430000Y-155540000D03*
X144890000Y-155540000D03*
X142350000Y-155540000D03*
X139810000Y-155540000D03*
X137270000Y-155540000D03*
X134730000Y-155540000D03*
X132190000Y-155540000D03*
X129650000Y-155540000D03*
X127110000Y-155540000D03*
X124570000Y-155540000D03*
X122030000Y-155540000D03*
X119490000Y-155540000D03*
X116950000Y-155540000D03*
X114410000Y-155540000D03*
%TD*%
D16*
%TO.C,C3*%
X105000000Y-145000000D03*
D17*
X107000000Y-145000000D03*
%TD*%
D14*
%TO.C,J2*%
X112000000Y-104500000D03*
D15*
X114540000Y-104500000D03*
X117080000Y-104500000D03*
X119620000Y-104500000D03*
X122160000Y-104500000D03*
X124700000Y-104500000D03*
X127240000Y-104500000D03*
X129780000Y-104500000D03*
%TD*%
D17*
%TO.C,C1*%
X158500000Y-136000000D03*
X158500000Y-131000000D03*
%TD*%
D14*
%TO.C,JP3*%
X158000000Y-116000000D03*
D15*
X158000000Y-118540000D03*
%TD*%
D18*
%TO.C,U2*%
X135000000Y-121000000D03*
D17*
X137540000Y-121000000D03*
X140080000Y-121000000D03*
X142620000Y-121000000D03*
X145160000Y-121000000D03*
X147700000Y-121000000D03*
X150240000Y-121000000D03*
X150240000Y-113380000D03*
X147700000Y-113380000D03*
X145160000Y-113380000D03*
X142620000Y-113380000D03*
X140080000Y-113380000D03*
X137540000Y-113380000D03*
X135000000Y-113380000D03*
%TD*%
%TO.C,R1*%
X165000000Y-124000000D03*
X165000000Y-116380000D03*
%TD*%
D14*
%TO.C,JP1*%
X105000000Y-131000000D03*
D15*
X105000000Y-133540000D03*
X105000000Y-136080000D03*
%TD*%
D13*
%TO.C,H2*%
X167500000Y-104500000D03*
%TD*%
D18*
%TO.C,U1*%
X119500000Y-142000000D03*
D17*
X122040000Y-142000000D03*
X124580000Y-142000000D03*
X127120000Y-142000000D03*
X129660000Y-142000000D03*
X132200000Y-142000000D03*
X134740000Y-142000000D03*
X137280000Y-142000000D03*
X139820000Y-142000000D03*
X142360000Y-142000000D03*
X144900000Y-142000000D03*
X147440000Y-142000000D03*
X149980000Y-142000000D03*
X152520000Y-142000000D03*
X152520000Y-126760000D03*
X149980000Y-126760000D03*
X147440000Y-126760000D03*
X144900000Y-126760000D03*
X142360000Y-126760000D03*
X139820000Y-126760000D03*
X137280000Y-126760000D03*
X134740000Y-126760000D03*
X132200000Y-126760000D03*
X129660000Y-126760000D03*
X127120000Y-126760000D03*
X124580000Y-126760000D03*
X122040000Y-126760000D03*
X119500000Y-126760000D03*
%TD*%
D14*
%TO.C,JP2*%
X105000000Y-118000000D03*
D15*
X105000000Y-120540000D03*
X105000000Y-123080000D03*
%TD*%
D17*
%TO.C,C2*%
X135000000Y-108000000D03*
X140000000Y-108000000D03*
%TD*%
%LPD*%
M02*
