M48
; DRILL file KiCad 10.0.4 date 2026-09-27T01:09:37
; FORMAT={-:-/ absolute / metric / decimal}
; #@! TF.CreationDate,2026-09-27T01:09:37-03:00
; #@! TF.GenerationSoftware,Kicad,Pcbnew,10.0.4
; #@! TF.FileFunction,MixedPlating,1,2
FMAT,2
METRIC
; #@! TA.AperFunction,Plated,PTH,ViaDrill
T1C0.400
; #@! TA.AperFunction,Plated,PTH,ComponentDrill
T2C0.800
; #@! TA.AperFunction,Plated,PTH,ComponentDrill
T3C1.000
; #@! TA.AperFunction,NonPlated,NPTH,ComponentDrill
T4C3.200
%
G90
G05
T1
X114.092Y-133.767
X129.65Y-140.517
X159.061Y-156.73
T2
X105.0Y-145.0
X107.0Y-145.0
X119.5Y-126.76
X119.5Y-142.0
X122.04Y-126.76
X122.04Y-142.0
X124.58Y-126.76
X124.58Y-142.0
X127.12Y-126.76
X127.12Y-142.0
X129.66Y-126.76
X129.66Y-142.0
X132.2Y-126.76
X132.2Y-142.0
X134.74Y-126.76
X134.74Y-142.0
X135.0Y-108.0
X135.0Y-113.38
X135.0Y-121.0
X137.28Y-126.76
X137.28Y-142.0
X137.54Y-113.38
X137.54Y-121.0
X139.82Y-126.76
X139.82Y-142.0
X140.0Y-108.0
X140.08Y-113.38
X140.08Y-121.0
X142.36Y-126.76
X142.36Y-142.0
X142.62Y-113.38
X142.62Y-121.0
X144.9Y-126.76
X144.9Y-142.0
X145.16Y-113.38
X145.16Y-121.0
X147.44Y-126.76
X147.44Y-142.0
X147.7Y-113.38
X147.7Y-121.0
X149.98Y-126.76
X149.98Y-142.0
X150.24Y-113.38
X150.24Y-121.0
X152.52Y-126.76
X152.52Y-142.0
X158.5Y-131.0
X158.5Y-136.0
X165.0Y-116.38
X165.0Y-124.0
T3
X105.0Y-118.0
X105.0Y-120.54
X105.0Y-123.08
X105.0Y-131.0
X105.0Y-133.54
X105.0Y-136.08
X112.0Y-104.5
X114.41Y-150.46
X114.41Y-155.54
X114.54Y-104.5
X116.95Y-150.46
X116.95Y-155.54
X117.08Y-104.5
X119.49Y-150.46
X119.49Y-155.54
X119.62Y-104.5
X122.03Y-150.46
X122.03Y-155.54
X122.16Y-104.5
X124.57Y-150.46
X124.57Y-155.54
X124.7Y-104.5
X127.11Y-150.46
X127.11Y-155.54
X127.24Y-104.5
X129.65Y-150.46
X129.65Y-155.54
X129.78Y-104.5
X132.19Y-150.46
X132.19Y-155.54
X134.73Y-150.46
X134.73Y-155.54
X137.27Y-150.46
X137.27Y-155.54
X139.81Y-150.46
X139.81Y-155.54
X142.35Y-150.46
X142.35Y-155.54
X144.89Y-150.46
X144.89Y-155.54
X147.43Y-150.46
X147.43Y-155.54
X149.97Y-150.46
X149.97Y-155.54
X152.51Y-150.46
X152.51Y-155.54
X155.05Y-150.46
X155.05Y-155.54
X157.59Y-150.46
X157.59Y-155.54
X158.0Y-116.0
X158.0Y-118.54
T4
X104.5Y-104.5
X167.5Y-104.5
M30
