%TF.GenerationSoftware,KiCad,Pcbnew,10.0.4*%
%TF.CreationDate,2026-09-27T12:18:16-03:00*%
%TF.ProjectId,vet3000_cartucho,76657433-3030-4305-9f63-617274756368,1.0*%
%TF.SameCoordinates,Original*%
%TF.FileFunction,Soldermask,Bot*%
%TF.FilePolarity,Negative*%
%FSLAX46Y46*%
G04 Gerber Fmt 4.6, Leading zero omitted, Abs format (unit mm)*
G04 Created by KiCad (PCBNEW 10.0.4) date 2026-09-27 12:18:16*
%MOMM*%
%LPD*%
G01*
G04 APERTURE LIST*
G04 Aperture macros list*
%AMRoundRect*
0 Rectangle with rounded corners*
0 $1 Rounding radius*
0 $2 $3 $4 $5 $6 $7 $8 $9 X,Y pos of 4 corners*
0 Add a 4 corners polygon primitive as box body*
4,1,4,$2,$3,$4,$5,$6,$7,$8,$9,$2,$3,0*
0 Add four circle primitives for the rounded corners*
1,1,$1+$1,$2,$3*
1,1,$1+$1,$4,$5*
1,1,$1+$1,$6,$7*
1,1,$1+$1,$8,$9*
0 Add four rect primitives between the rounded corners*
20,1,$1+$1,$2,$3,$4,$5,0*
20,1,$1+$1,$4,$5,$6,$7,0*
20,1,$1+$1,$6,$7,$8,$9,0*
20,1,$1+$1,$8,$9,$2,$3,0*%
G04 Aperture macros list end*
%ADD10C,3.200000*%
%ADD11R,1.700000X1.700000*%
%ADD12C,1.700000*%
%ADD13RoundRect,0.250000X-0.550000X-0.550000X0.550000X-0.550000X0.550000X0.550000X-0.550000X0.550000X0*%
%ADD14C,1.600000*%
%ADD15RoundRect,0.250000X0.550000X-0.550000X0.550000X0.550000X-0.550000X0.550000X-0.550000X-0.550000X0*%
G04 APERTURE END LIST*
D10*
%TO.C,H1*%
X104500000Y-104500000D03*
%TD*%
D11*
%TO.C,J1*%
X157590000Y-150460000D03*
D12*
X155050000Y-150460000D03*
X152510000Y-150460000D03*
X149970000Y-150460000D03*
X147430000Y-150460000D03*
X144890000Y-150460000D03*
X142350000Y-150460000D03*
X139810000Y-150460000D03*
X137270000Y-150460000D03*
X134730000Y-150460000D03*
X132190000Y-150460000D03*
X129650000Y-150460000D03*
X127110000Y-150460000D03*
X124570000Y-150460000D03*
X122030000Y-150460000D03*
X119490000Y-150460000D03*
X116950000Y-150460000D03*
X114410000Y-150460000D03*
D11*
X157590000Y-155540000D03*
D12*
X155050000Y-155540000D03*
X152510000Y-155540000D03*
X149970000Y-155540000D03*
X147430000Y-155540000D03*
X144890000Y-155540000D03*
X142350000Y-155540000D03*
X139810000Y-155540000D03*
X137270000Y-155540000D03*
X134730000Y-155540000D03*
X132190000Y-155540000D03*
X129650000Y-155540000D03*
X127110000Y-155540000D03*
X124570000Y-155540000D03*
X122030000Y-155540000D03*
X119490000Y-155540000D03*
X116950000Y-155540000D03*
X114410000Y-155540000D03*
%TD*%
D13*
%TO.C,C3*%
X105000000Y-145000000D03*
D14*
X107000000Y-145000000D03*
%TD*%
D11*
%TO.C,J2*%
X112000000Y-104500000D03*
D12*
X114540000Y-104500000D03*
X117080000Y-104500000D03*
X119620000Y-104500000D03*
X122160000Y-104500000D03*
X124700000Y-104500000D03*
X127240000Y-104500000D03*
X129780000Y-104500000D03*
%TD*%
D14*
%TO.C,C1*%
X158500000Y-136000000D03*
X158500000Y-131000000D03*
%TD*%
D11*
%TO.C,JP3*%
X158000000Y-116000000D03*
D12*
X158000000Y-118540000D03*
%TD*%
D15*
%TO.C,U2*%
X135000000Y-121000000D03*
D14*
X137540000Y-121000000D03*
X140080000Y-121000000D03*
X142620000Y-121000000D03*
X145160000Y-121000000D03*
X147700000Y-121000000D03*
X150240000Y-121000000D03*
X150240000Y-113380000D03*
X147700000Y-113380000D03*
X145160000Y-113380000D03*
X142620000Y-113380000D03*
X140080000Y-113380000D03*
X137540000Y-113380000D03*
X135000000Y-113380000D03*
%TD*%
%TO.C,R1*%
X165000000Y-124000000D03*
X165000000Y-116380000D03*
%TD*%
D11*
%TO.C,JP1*%
X105000000Y-131000000D03*
D12*
X105000000Y-133540000D03*
X105000000Y-136080000D03*
%TD*%
D10*
%TO.C,H2*%
X167500000Y-104500000D03*
%TD*%
D15*
%TO.C,U1*%
X119500000Y-142000000D03*
D14*
X122040000Y-142000000D03*
X124580000Y-142000000D03*
X127120000Y-142000000D03*
X129660000Y-142000000D03*
X132200000Y-142000000D03*
X134740000Y-142000000D03*
X137280000Y-142000000D03*
X139820000Y-142000000D03*
X142360000Y-142000000D03*
X144900000Y-142000000D03*
X147440000Y-142000000D03*
X149980000Y-142000000D03*
X152520000Y-142000000D03*
X152520000Y-126760000D03*
X149980000Y-126760000D03*
X147440000Y-126760000D03*
X144900000Y-126760000D03*
X142360000Y-126760000D03*
X139820000Y-126760000D03*
X137280000Y-126760000D03*
X134740000Y-126760000D03*
X132200000Y-126760000D03*
X129660000Y-126760000D03*
X127120000Y-126760000D03*
X124580000Y-126760000D03*
X122040000Y-126760000D03*
X119500000Y-126760000D03*
%TD*%
D11*
%TO.C,JP2*%
X105000000Y-118000000D03*
D12*
X105000000Y-120540000D03*
X105000000Y-123080000D03*
%TD*%
D14*
%TO.C,C2*%
X135000000Y-108000000D03*
X140000000Y-108000000D03*
%TD*%
M02*
