%TF.GenerationSoftware,KiCad,Pcbnew,10.0.4*%
%TF.CreationDate,2026-09-27T01:09:36-03:00*%
%TF.ProjectId,vet3000_cartucho,76657433-3030-4305-9f63-617274756368,rev?*%
%TF.SameCoordinates,Original*%
%TF.FileFunction,Legend,Bot*%
%TF.FilePolarity,Positive*%
%FSLAX46Y46*%
G04 Gerber Fmt 4.6, Leading zero omitted, Abs format (unit mm)*
G04 Created by KiCad (PCBNEW 10.0.4) date 2026-09-27 01:09:36*
%MOMM*%
%LPD*%
G01*
G04 APERTURE LIST*
G04 Aperture macros list*
%AMRoundRect*
0 Rectangle with rounded corners*
0 $1 Rounding radius*
0 $2 $3 $4 $5 $6 $7 $8 $9 X,Y pos of 4 corners*
0 Add a 4 corners polygon primitive as box body*
4,1,4,$2,$3,$4,$5,$6,$7,$8,$9,$2,$3,0*
0 Add four circle primitives for the rounded corners*
1,1,$1+$1,$2,$3*
1,1,$1+$1,$4,$5*
1,1,$1+$1,$6,$7*
1,1,$1+$1,$8,$9*
0 Add four rect primitives between the rounded corners*
20,1,$1+$1,$2,$3,$4,$5,0*
20,1,$1+$1,$4,$5,$6,$7,0*
20,1,$1+$1,$6,$7,$8,$9,0*
20,1,$1+$1,$8,$9,$2,$3,0*%
G04 Aperture macros list end*
%ADD10C,0.120000*%
%ADD11C,0.150000*%
%ADD12C,0.180000*%
%ADD13C,0.240000*%
%ADD14C,0.600000*%
%ADD15C,3.200000*%
%ADD16R,1.700000X1.700000*%
%ADD17C,1.700000*%
%ADD18RoundRect,0.250000X-0.550000X-0.550000X0.550000X-0.550000X0.550000X0.550000X-0.550000X0.550000X0*%
%ADD19C,1.600000*%
%ADD20RoundRect,0.250000X0.550000X-0.550000X0.550000X0.550000X-0.550000X0.550000X-0.550000X-0.550000X0*%
G04 APERTURE END LIST*
D10*
X159485719Y-146968617D02*
X159523814Y-146930521D01*
X159523814Y-146930521D02*
X159600005Y-146816236D01*
X159600005Y-146816236D02*
X159638100Y-146740045D01*
X159638100Y-146740045D02*
X159676195Y-146625760D01*
X159676195Y-146625760D02*
X159714290Y-146435283D01*
X159714290Y-146435283D02*
X159714290Y-146282902D01*
X159714290Y-146282902D02*
X159676195Y-146092426D01*
X159676195Y-146092426D02*
X159638100Y-145978140D01*
X159638100Y-145978140D02*
X159600005Y-145901950D01*
X159600005Y-145901950D02*
X159523814Y-145787664D01*
X159523814Y-145787664D02*
X159485719Y-145749569D01*
X158838100Y-146625760D02*
X158914291Y-146663855D01*
X158914291Y-146663855D02*
X159066672Y-146663855D01*
X159066672Y-146663855D02*
X159142862Y-146625760D01*
X159142862Y-146625760D02*
X159180957Y-146587664D01*
X159180957Y-146587664D02*
X159219053Y-146511474D01*
X159219053Y-146511474D02*
X159219053Y-146282902D01*
X159219053Y-146282902D02*
X159180957Y-146206712D01*
X159180957Y-146206712D02*
X159142862Y-146168617D01*
X159142862Y-146168617D02*
X159066672Y-146130521D01*
X159066672Y-146130521D02*
X158914291Y-146130521D01*
X158914291Y-146130521D02*
X158838100Y-146168617D01*
X158571434Y-146968617D02*
X158533339Y-146930521D01*
X158533339Y-146930521D02*
X158457148Y-146816236D01*
X158457148Y-146816236D02*
X158419053Y-146740045D01*
X158419053Y-146740045D02*
X158380958Y-146625760D01*
X158380958Y-146625760D02*
X158342862Y-146435283D01*
X158342862Y-146435283D02*
X158342862Y-146282902D01*
X158342862Y-146282902D02*
X158380958Y-146092426D01*
X158380958Y-146092426D02*
X158419053Y-145978140D01*
X158419053Y-145978140D02*
X158457148Y-145901950D01*
X158457148Y-145901950D02*
X158533339Y-145787664D01*
X158533339Y-145787664D02*
X158571434Y-145749569D01*
X157390482Y-145940045D02*
X157352386Y-145901950D01*
X157352386Y-145901950D02*
X157276196Y-145863855D01*
X157276196Y-145863855D02*
X157085720Y-145863855D01*
X157085720Y-145863855D02*
X157009529Y-145901950D01*
X157009529Y-145901950D02*
X156971434Y-145940045D01*
X156971434Y-145940045D02*
X156933339Y-146016236D01*
X156933339Y-146016236D02*
X156933339Y-146092426D01*
X156933339Y-146092426D02*
X156971434Y-146206712D01*
X156971434Y-146206712D02*
X157428577Y-146663855D01*
X157428577Y-146663855D02*
X156933339Y-146663855D01*
X156438100Y-145863855D02*
X156361910Y-145863855D01*
X156361910Y-145863855D02*
X156285719Y-145901950D01*
X156285719Y-145901950D02*
X156247624Y-145940045D01*
X156247624Y-145940045D02*
X156209529Y-146016236D01*
X156209529Y-146016236D02*
X156171434Y-146168617D01*
X156171434Y-146168617D02*
X156171434Y-146359093D01*
X156171434Y-146359093D02*
X156209529Y-146511474D01*
X156209529Y-146511474D02*
X156247624Y-146587664D01*
X156247624Y-146587664D02*
X156285719Y-146625760D01*
X156285719Y-146625760D02*
X156361910Y-146663855D01*
X156361910Y-146663855D02*
X156438100Y-146663855D01*
X156438100Y-146663855D02*
X156514291Y-146625760D01*
X156514291Y-146625760D02*
X156552386Y-146587664D01*
X156552386Y-146587664D02*
X156590481Y-146511474D01*
X156590481Y-146511474D02*
X156628577Y-146359093D01*
X156628577Y-146359093D02*
X156628577Y-146168617D01*
X156628577Y-146168617D02*
X156590481Y-146016236D01*
X156590481Y-146016236D02*
X156552386Y-145940045D01*
X156552386Y-145940045D02*
X156514291Y-145901950D01*
X156514291Y-145901950D02*
X156438100Y-145863855D01*
X155866672Y-145940045D02*
X155828576Y-145901950D01*
X155828576Y-145901950D02*
X155752386Y-145863855D01*
X155752386Y-145863855D02*
X155561910Y-145863855D01*
X155561910Y-145863855D02*
X155485719Y-145901950D01*
X155485719Y-145901950D02*
X155447624Y-145940045D01*
X155447624Y-145940045D02*
X155409529Y-146016236D01*
X155409529Y-146016236D02*
X155409529Y-146092426D01*
X155409529Y-146092426D02*
X155447624Y-146206712D01*
X155447624Y-146206712D02*
X155904767Y-146663855D01*
X155904767Y-146663855D02*
X155409529Y-146663855D01*
X154723814Y-145863855D02*
X154876195Y-145863855D01*
X154876195Y-145863855D02*
X154952386Y-145901950D01*
X154952386Y-145901950D02*
X154990481Y-145940045D01*
X154990481Y-145940045D02*
X155066671Y-146054331D01*
X155066671Y-146054331D02*
X155104767Y-146206712D01*
X155104767Y-146206712D02*
X155104767Y-146511474D01*
X155104767Y-146511474D02*
X155066671Y-146587664D01*
X155066671Y-146587664D02*
X155028576Y-146625760D01*
X155028576Y-146625760D02*
X154952386Y-146663855D01*
X154952386Y-146663855D02*
X154800005Y-146663855D01*
X154800005Y-146663855D02*
X154723814Y-146625760D01*
X154723814Y-146625760D02*
X154685719Y-146587664D01*
X154685719Y-146587664D02*
X154647624Y-146511474D01*
X154647624Y-146511474D02*
X154647624Y-146320998D01*
X154647624Y-146320998D02*
X154685719Y-146244807D01*
X154685719Y-146244807D02*
X154723814Y-146206712D01*
X154723814Y-146206712D02*
X154800005Y-146168617D01*
X154800005Y-146168617D02*
X154952386Y-146168617D01*
X154952386Y-146168617D02*
X155028576Y-146206712D01*
X155028576Y-146206712D02*
X155066671Y-146244807D01*
X155066671Y-146244807D02*
X155104767Y-146320998D01*
X153314290Y-146663855D02*
X153695242Y-146663855D01*
X153695242Y-146663855D02*
X153695242Y-145863855D01*
X152742861Y-146625760D02*
X152819052Y-146663855D01*
X152819052Y-146663855D02*
X152971433Y-146663855D01*
X152971433Y-146663855D02*
X153047623Y-146625760D01*
X153047623Y-146625760D02*
X153085719Y-146549569D01*
X153085719Y-146549569D02*
X153085719Y-146244807D01*
X153085719Y-146244807D02*
X153047623Y-146168617D01*
X153047623Y-146168617D02*
X152971433Y-146130521D01*
X152971433Y-146130521D02*
X152819052Y-146130521D01*
X152819052Y-146130521D02*
X152742861Y-146168617D01*
X152742861Y-146168617D02*
X152704766Y-146244807D01*
X152704766Y-146244807D02*
X152704766Y-146320998D01*
X152704766Y-146320998D02*
X153085719Y-146397188D01*
X152247624Y-146663855D02*
X152323814Y-146625760D01*
X152323814Y-146625760D02*
X152361909Y-146587664D01*
X152361909Y-146587664D02*
X152400005Y-146511474D01*
X152400005Y-146511474D02*
X152400005Y-146282902D01*
X152400005Y-146282902D02*
X152361909Y-146206712D01*
X152361909Y-146206712D02*
X152323814Y-146168617D01*
X152323814Y-146168617D02*
X152247624Y-146130521D01*
X152247624Y-146130521D02*
X152133338Y-146130521D01*
X152133338Y-146130521D02*
X152057147Y-146168617D01*
X152057147Y-146168617D02*
X152019052Y-146206712D01*
X152019052Y-146206712D02*
X151980957Y-146282902D01*
X151980957Y-146282902D02*
X151980957Y-146511474D01*
X151980957Y-146511474D02*
X152019052Y-146587664D01*
X152019052Y-146587664D02*
X152057147Y-146625760D01*
X152057147Y-146625760D02*
X152133338Y-146663855D01*
X152133338Y-146663855D02*
X152247624Y-146663855D01*
X151638099Y-146130521D02*
X151638099Y-146663855D01*
X151638099Y-146206712D02*
X151600004Y-146168617D01*
X151600004Y-146168617D02*
X151523814Y-146130521D01*
X151523814Y-146130521D02*
X151409528Y-146130521D01*
X151409528Y-146130521D02*
X151333337Y-146168617D01*
X151333337Y-146168617D02*
X151295242Y-146244807D01*
X151295242Y-146244807D02*
X151295242Y-146663855D01*
X150571432Y-146663855D02*
X150571432Y-146244807D01*
X150571432Y-146244807D02*
X150609527Y-146168617D01*
X150609527Y-146168617D02*
X150685718Y-146130521D01*
X150685718Y-146130521D02*
X150838099Y-146130521D01*
X150838099Y-146130521D02*
X150914289Y-146168617D01*
X150571432Y-146625760D02*
X150647623Y-146663855D01*
X150647623Y-146663855D02*
X150838099Y-146663855D01*
X150838099Y-146663855D02*
X150914289Y-146625760D01*
X150914289Y-146625760D02*
X150952385Y-146549569D01*
X150952385Y-146549569D02*
X150952385Y-146473379D01*
X150952385Y-146473379D02*
X150914289Y-146397188D01*
X150914289Y-146397188D02*
X150838099Y-146359093D01*
X150838099Y-146359093D02*
X150647623Y-146359093D01*
X150647623Y-146359093D02*
X150571432Y-146320998D01*
X150190479Y-146663855D02*
X150190479Y-146130521D01*
X150190479Y-146282902D02*
X150152384Y-146206712D01*
X150152384Y-146206712D02*
X150114289Y-146168617D01*
X150114289Y-146168617D02*
X150038098Y-146130521D01*
X150038098Y-146130521D02*
X149961908Y-146130521D01*
X149352384Y-146663855D02*
X149352384Y-145863855D01*
X149352384Y-146625760D02*
X149428575Y-146663855D01*
X149428575Y-146663855D02*
X149580956Y-146663855D01*
X149580956Y-146663855D02*
X149657146Y-146625760D01*
X149657146Y-146625760D02*
X149695241Y-146587664D01*
X149695241Y-146587664D02*
X149733337Y-146511474D01*
X149733337Y-146511474D02*
X149733337Y-146282902D01*
X149733337Y-146282902D02*
X149695241Y-146206712D01*
X149695241Y-146206712D02*
X149657146Y-146168617D01*
X149657146Y-146168617D02*
X149580956Y-146130521D01*
X149580956Y-146130521D02*
X149428575Y-146130521D01*
X149428575Y-146130521D02*
X149352384Y-146168617D01*
X148857146Y-146663855D02*
X148933336Y-146625760D01*
X148933336Y-146625760D02*
X148971431Y-146587664D01*
X148971431Y-146587664D02*
X149009527Y-146511474D01*
X149009527Y-146511474D02*
X149009527Y-146282902D01*
X149009527Y-146282902D02*
X148971431Y-146206712D01*
X148971431Y-146206712D02*
X148933336Y-146168617D01*
X148933336Y-146168617D02*
X148857146Y-146130521D01*
X148857146Y-146130521D02*
X148742860Y-146130521D01*
X148742860Y-146130521D02*
X148666669Y-146168617D01*
X148666669Y-146168617D02*
X148628574Y-146206712D01*
X148628574Y-146206712D02*
X148590479Y-146282902D01*
X148590479Y-146282902D02*
X148590479Y-146511474D01*
X148590479Y-146511474D02*
X148628574Y-146587664D01*
X148628574Y-146587664D02*
X148666669Y-146625760D01*
X148666669Y-146625760D02*
X148742860Y-146663855D01*
X148742860Y-146663855D02*
X148857146Y-146663855D01*
X147180954Y-146663855D02*
X147447621Y-146282902D01*
X147638097Y-146663855D02*
X147638097Y-145863855D01*
X147638097Y-145863855D02*
X147333335Y-145863855D01*
X147333335Y-145863855D02*
X147257145Y-145901950D01*
X147257145Y-145901950D02*
X147219050Y-145940045D01*
X147219050Y-145940045D02*
X147180954Y-146016236D01*
X147180954Y-146016236D02*
X147180954Y-146130521D01*
X147180954Y-146130521D02*
X147219050Y-146206712D01*
X147219050Y-146206712D02*
X147257145Y-146244807D01*
X147257145Y-146244807D02*
X147333335Y-146282902D01*
X147333335Y-146282902D02*
X147638097Y-146282902D01*
X146723812Y-146663855D02*
X146800002Y-146625760D01*
X146800002Y-146625760D02*
X146838097Y-146587664D01*
X146838097Y-146587664D02*
X146876193Y-146511474D01*
X146876193Y-146511474D02*
X146876193Y-146282902D01*
X146876193Y-146282902D02*
X146838097Y-146206712D01*
X146838097Y-146206712D02*
X146800002Y-146168617D01*
X146800002Y-146168617D02*
X146723812Y-146130521D01*
X146723812Y-146130521D02*
X146609526Y-146130521D01*
X146609526Y-146130521D02*
X146533335Y-146168617D01*
X146533335Y-146168617D02*
X146495240Y-146206712D01*
X146495240Y-146206712D02*
X146457145Y-146282902D01*
X146457145Y-146282902D02*
X146457145Y-146511474D01*
X146457145Y-146511474D02*
X146495240Y-146587664D01*
X146495240Y-146587664D02*
X146533335Y-146625760D01*
X146533335Y-146625760D02*
X146609526Y-146663855D01*
X146609526Y-146663855D02*
X146723812Y-146663855D01*
X146114287Y-146663855D02*
X146114287Y-146130521D01*
X146114287Y-146206712D02*
X146076192Y-146168617D01*
X146076192Y-146168617D02*
X146000002Y-146130521D01*
X146000002Y-146130521D02*
X145885716Y-146130521D01*
X145885716Y-146130521D02*
X145809525Y-146168617D01*
X145809525Y-146168617D02*
X145771430Y-146244807D01*
X145771430Y-146244807D02*
X145771430Y-146663855D01*
X145771430Y-146244807D02*
X145733335Y-146168617D01*
X145733335Y-146168617D02*
X145657144Y-146130521D01*
X145657144Y-146130521D02*
X145542859Y-146130521D01*
X145542859Y-146130521D02*
X145466668Y-146168617D01*
X145466668Y-146168617D02*
X145428573Y-146244807D01*
X145428573Y-146244807D02*
X145428573Y-146663855D01*
X144704763Y-146663855D02*
X144704763Y-146244807D01*
X144704763Y-146244807D02*
X144742858Y-146168617D01*
X144742858Y-146168617D02*
X144819049Y-146130521D01*
X144819049Y-146130521D02*
X144971430Y-146130521D01*
X144971430Y-146130521D02*
X145047620Y-146168617D01*
X144704763Y-146625760D02*
X144780954Y-146663855D01*
X144780954Y-146663855D02*
X144971430Y-146663855D01*
X144971430Y-146663855D02*
X145047620Y-146625760D01*
X145047620Y-146625760D02*
X145085716Y-146549569D01*
X145085716Y-146549569D02*
X145085716Y-146473379D01*
X145085716Y-146473379D02*
X145047620Y-146397188D01*
X145047620Y-146397188D02*
X144971430Y-146359093D01*
X144971430Y-146359093D02*
X144780954Y-146359093D01*
X144780954Y-146359093D02*
X144704763Y-146320998D01*
X144323810Y-146130521D02*
X144323810Y-146663855D01*
X144323810Y-146206712D02*
X144285715Y-146168617D01*
X144285715Y-146168617D02*
X144209525Y-146130521D01*
X144209525Y-146130521D02*
X144095239Y-146130521D01*
X144095239Y-146130521D02*
X144019048Y-146168617D01*
X144019048Y-146168617D02*
X143980953Y-146244807D01*
X143980953Y-146244807D02*
X143980953Y-146663855D01*
X142647619Y-146663855D02*
X142647619Y-145863855D01*
X142647619Y-146625760D02*
X142723810Y-146663855D01*
X142723810Y-146663855D02*
X142876191Y-146663855D01*
X142876191Y-146663855D02*
X142952381Y-146625760D01*
X142952381Y-146625760D02*
X142990476Y-146587664D01*
X142990476Y-146587664D02*
X143028572Y-146511474D01*
X143028572Y-146511474D02*
X143028572Y-146282902D01*
X143028572Y-146282902D02*
X142990476Y-146206712D01*
X142990476Y-146206712D02*
X142952381Y-146168617D01*
X142952381Y-146168617D02*
X142876191Y-146130521D01*
X142876191Y-146130521D02*
X142723810Y-146130521D01*
X142723810Y-146130521D02*
X142647619Y-146168617D01*
X141923809Y-146663855D02*
X141923809Y-146244807D01*
X141923809Y-146244807D02*
X141961904Y-146168617D01*
X141961904Y-146168617D02*
X142038095Y-146130521D01*
X142038095Y-146130521D02*
X142190476Y-146130521D01*
X142190476Y-146130521D02*
X142266666Y-146168617D01*
X141923809Y-146625760D02*
X142000000Y-146663855D01*
X142000000Y-146663855D02*
X142190476Y-146663855D01*
X142190476Y-146663855D02*
X142266666Y-146625760D01*
X142266666Y-146625760D02*
X142304762Y-146549569D01*
X142304762Y-146549569D02*
X142304762Y-146473379D01*
X142304762Y-146473379D02*
X142266666Y-146397188D01*
X142266666Y-146397188D02*
X142190476Y-146359093D01*
X142190476Y-146359093D02*
X142000000Y-146359093D01*
X142000000Y-146359093D02*
X141923809Y-146320998D01*
X140476189Y-146663855D02*
X140742856Y-146282902D01*
X140933332Y-146663855D02*
X140933332Y-145863855D01*
X140933332Y-145863855D02*
X140628570Y-145863855D01*
X140628570Y-145863855D02*
X140552380Y-145901950D01*
X140552380Y-145901950D02*
X140514285Y-145940045D01*
X140514285Y-145940045D02*
X140476189Y-146016236D01*
X140476189Y-146016236D02*
X140476189Y-146130521D01*
X140476189Y-146130521D02*
X140514285Y-146206712D01*
X140514285Y-146206712D02*
X140552380Y-146244807D01*
X140552380Y-146244807D02*
X140628570Y-146282902D01*
X140628570Y-146282902D02*
X140933332Y-146282902D01*
X140019047Y-146663855D02*
X140095237Y-146625760D01*
X140095237Y-146625760D02*
X140133332Y-146587664D01*
X140133332Y-146587664D02*
X140171428Y-146511474D01*
X140171428Y-146511474D02*
X140171428Y-146282902D01*
X140171428Y-146282902D02*
X140133332Y-146206712D01*
X140133332Y-146206712D02*
X140095237Y-146168617D01*
X140095237Y-146168617D02*
X140019047Y-146130521D01*
X140019047Y-146130521D02*
X139904761Y-146130521D01*
X139904761Y-146130521D02*
X139828570Y-146168617D01*
X139828570Y-146168617D02*
X139790475Y-146206712D01*
X139790475Y-146206712D02*
X139752380Y-146282902D01*
X139752380Y-146282902D02*
X139752380Y-146511474D01*
X139752380Y-146511474D02*
X139790475Y-146587664D01*
X139790475Y-146587664D02*
X139828570Y-146625760D01*
X139828570Y-146625760D02*
X139904761Y-146663855D01*
X139904761Y-146663855D02*
X140019047Y-146663855D01*
X139447618Y-146625760D02*
X139371427Y-146663855D01*
X139371427Y-146663855D02*
X139219046Y-146663855D01*
X139219046Y-146663855D02*
X139142856Y-146625760D01*
X139142856Y-146625760D02*
X139104760Y-146549569D01*
X139104760Y-146549569D02*
X139104760Y-146511474D01*
X139104760Y-146511474D02*
X139142856Y-146435283D01*
X139142856Y-146435283D02*
X139219046Y-146397188D01*
X139219046Y-146397188D02*
X139333332Y-146397188D01*
X139333332Y-146397188D02*
X139409522Y-146359093D01*
X139409522Y-146359093D02*
X139447618Y-146282902D01*
X139447618Y-146282902D02*
X139447618Y-146244807D01*
X139447618Y-146244807D02*
X139409522Y-146168617D01*
X139409522Y-146168617D02*
X139333332Y-146130521D01*
X139333332Y-146130521D02*
X139219046Y-146130521D01*
X139219046Y-146130521D02*
X139142856Y-146168617D01*
X138419046Y-146663855D02*
X138419046Y-146244807D01*
X138419046Y-146244807D02*
X138457141Y-146168617D01*
X138457141Y-146168617D02*
X138533332Y-146130521D01*
X138533332Y-146130521D02*
X138685713Y-146130521D01*
X138685713Y-146130521D02*
X138761903Y-146168617D01*
X138419046Y-146625760D02*
X138495237Y-146663855D01*
X138495237Y-146663855D02*
X138685713Y-146663855D01*
X138685713Y-146663855D02*
X138761903Y-146625760D01*
X138761903Y-146625760D02*
X138799999Y-146549569D01*
X138799999Y-146549569D02*
X138799999Y-146473379D01*
X138799999Y-146473379D02*
X138761903Y-146397188D01*
X138761903Y-146397188D02*
X138685713Y-146359093D01*
X138685713Y-146359093D02*
X138495237Y-146359093D01*
X138495237Y-146359093D02*
X138419046Y-146320998D01*
X137428569Y-146359093D02*
X136819046Y-146359093D01*
X135409522Y-145901950D02*
X135485712Y-145863855D01*
X135485712Y-145863855D02*
X135599998Y-145863855D01*
X135599998Y-145863855D02*
X135714284Y-145901950D01*
X135714284Y-145901950D02*
X135790474Y-145978140D01*
X135790474Y-145978140D02*
X135828569Y-146054331D01*
X135828569Y-146054331D02*
X135866665Y-146206712D01*
X135866665Y-146206712D02*
X135866665Y-146320998D01*
X135866665Y-146320998D02*
X135828569Y-146473379D01*
X135828569Y-146473379D02*
X135790474Y-146549569D01*
X135790474Y-146549569D02*
X135714284Y-146625760D01*
X135714284Y-146625760D02*
X135599998Y-146663855D01*
X135599998Y-146663855D02*
X135523807Y-146663855D01*
X135523807Y-146663855D02*
X135409522Y-146625760D01*
X135409522Y-146625760D02*
X135371426Y-146587664D01*
X135371426Y-146587664D02*
X135371426Y-146320998D01*
X135371426Y-146320998D02*
X135523807Y-146320998D01*
X135028569Y-146663855D02*
X135028569Y-145863855D01*
X135028569Y-145863855D02*
X134723807Y-145863855D01*
X134723807Y-145863855D02*
X134647617Y-145901950D01*
X134647617Y-145901950D02*
X134609522Y-145940045D01*
X134609522Y-145940045D02*
X134571426Y-146016236D01*
X134571426Y-146016236D02*
X134571426Y-146130521D01*
X134571426Y-146130521D02*
X134609522Y-146206712D01*
X134609522Y-146206712D02*
X134647617Y-146244807D01*
X134647617Y-146244807D02*
X134723807Y-146282902D01*
X134723807Y-146282902D02*
X135028569Y-146282902D01*
X133847617Y-146663855D02*
X134228569Y-146663855D01*
X134228569Y-146663855D02*
X134228569Y-145863855D01*
X133580950Y-146359093D02*
X132971427Y-146359093D01*
X132666665Y-145863855D02*
X132171427Y-145863855D01*
X132171427Y-145863855D02*
X132438093Y-146168617D01*
X132438093Y-146168617D02*
X132323808Y-146168617D01*
X132323808Y-146168617D02*
X132247617Y-146206712D01*
X132247617Y-146206712D02*
X132209522Y-146244807D01*
X132209522Y-146244807D02*
X132171427Y-146320998D01*
X132171427Y-146320998D02*
X132171427Y-146511474D01*
X132171427Y-146511474D02*
X132209522Y-146587664D01*
X132209522Y-146587664D02*
X132247617Y-146625760D01*
X132247617Y-146625760D02*
X132323808Y-146663855D01*
X132323808Y-146663855D02*
X132552379Y-146663855D01*
X132552379Y-146663855D02*
X132628570Y-146625760D01*
X132628570Y-146625760D02*
X132666665Y-146587664D01*
X131828569Y-146587664D02*
X131790474Y-146625760D01*
X131790474Y-146625760D02*
X131828569Y-146663855D01*
X131828569Y-146663855D02*
X131866665Y-146625760D01*
X131866665Y-146625760D02*
X131828569Y-146587664D01*
X131828569Y-146587664D02*
X131828569Y-146663855D01*
X131295236Y-145863855D02*
X131219046Y-145863855D01*
X131219046Y-145863855D02*
X131142855Y-145901950D01*
X131142855Y-145901950D02*
X131104760Y-145940045D01*
X131104760Y-145940045D02*
X131066665Y-146016236D01*
X131066665Y-146016236D02*
X131028570Y-146168617D01*
X131028570Y-146168617D02*
X131028570Y-146359093D01*
X131028570Y-146359093D02*
X131066665Y-146511474D01*
X131066665Y-146511474D02*
X131104760Y-146587664D01*
X131104760Y-146587664D02*
X131142855Y-146625760D01*
X131142855Y-146625760D02*
X131219046Y-146663855D01*
X131219046Y-146663855D02*
X131295236Y-146663855D01*
X131295236Y-146663855D02*
X131371427Y-146625760D01*
X131371427Y-146625760D02*
X131409522Y-146587664D01*
X131409522Y-146587664D02*
X131447617Y-146511474D01*
X131447617Y-146511474D02*
X131485713Y-146359093D01*
X131485713Y-146359093D02*
X131485713Y-146168617D01*
X131485713Y-146168617D02*
X131447617Y-146016236D01*
X131447617Y-146016236D02*
X131409522Y-145940045D01*
X131409522Y-145940045D02*
X131371427Y-145901950D01*
X131371427Y-145901950D02*
X131295236Y-145863855D01*
X130076188Y-146359093D02*
X129466665Y-146359093D01*
X128133331Y-146130521D02*
X128133331Y-146778140D01*
X128133331Y-146778140D02*
X128171426Y-146854331D01*
X128171426Y-146854331D02*
X128209522Y-146892426D01*
X128209522Y-146892426D02*
X128285712Y-146930521D01*
X128285712Y-146930521D02*
X128399998Y-146930521D01*
X128399998Y-146930521D02*
X128476188Y-146892426D01*
X128133331Y-146625760D02*
X128209522Y-146663855D01*
X128209522Y-146663855D02*
X128361903Y-146663855D01*
X128361903Y-146663855D02*
X128438093Y-146625760D01*
X128438093Y-146625760D02*
X128476188Y-146587664D01*
X128476188Y-146587664D02*
X128514284Y-146511474D01*
X128514284Y-146511474D02*
X128514284Y-146282902D01*
X128514284Y-146282902D02*
X128476188Y-146206712D01*
X128476188Y-146206712D02*
X128438093Y-146168617D01*
X128438093Y-146168617D02*
X128361903Y-146130521D01*
X128361903Y-146130521D02*
X128209522Y-146130521D01*
X128209522Y-146130521D02*
X128133331Y-146168617D01*
X127752378Y-146663855D02*
X127752378Y-146130521D01*
X127752378Y-145863855D02*
X127790474Y-145901950D01*
X127790474Y-145901950D02*
X127752378Y-145940045D01*
X127752378Y-145940045D02*
X127714283Y-145901950D01*
X127714283Y-145901950D02*
X127752378Y-145863855D01*
X127752378Y-145863855D02*
X127752378Y-145940045D01*
X127485712Y-146130521D02*
X127180950Y-146130521D01*
X127371426Y-145863855D02*
X127371426Y-146549569D01*
X127371426Y-146549569D02*
X127333331Y-146625760D01*
X127333331Y-146625760D02*
X127257141Y-146663855D01*
X127257141Y-146663855D02*
X127180950Y-146663855D01*
X126914283Y-146663855D02*
X126914283Y-145863855D01*
X126571426Y-146663855D02*
X126571426Y-146244807D01*
X126571426Y-146244807D02*
X126609521Y-146168617D01*
X126609521Y-146168617D02*
X126685712Y-146130521D01*
X126685712Y-146130521D02*
X126799998Y-146130521D01*
X126799998Y-146130521D02*
X126876188Y-146168617D01*
X126876188Y-146168617D02*
X126914283Y-146206712D01*
X125847616Y-146130521D02*
X125847616Y-146663855D01*
X126190473Y-146130521D02*
X126190473Y-146549569D01*
X126190473Y-146549569D02*
X126152378Y-146625760D01*
X126152378Y-146625760D02*
X126076188Y-146663855D01*
X126076188Y-146663855D02*
X125961902Y-146663855D01*
X125961902Y-146663855D02*
X125885711Y-146625760D01*
X125885711Y-146625760D02*
X125847616Y-146587664D01*
X125466663Y-146663855D02*
X125466663Y-145863855D01*
X125466663Y-146168617D02*
X125390473Y-146130521D01*
X125390473Y-146130521D02*
X125238092Y-146130521D01*
X125238092Y-146130521D02*
X125161901Y-146168617D01*
X125161901Y-146168617D02*
X125123806Y-146206712D01*
X125123806Y-146206712D02*
X125085711Y-146282902D01*
X125085711Y-146282902D02*
X125085711Y-146511474D01*
X125085711Y-146511474D02*
X125123806Y-146587664D01*
X125123806Y-146587664D02*
X125161901Y-146625760D01*
X125161901Y-146625760D02*
X125238092Y-146663855D01*
X125238092Y-146663855D02*
X125390473Y-146663855D01*
X125390473Y-146663855D02*
X125466663Y-146625760D01*
X124742853Y-146587664D02*
X124704758Y-146625760D01*
X124704758Y-146625760D02*
X124742853Y-146663855D01*
X124742853Y-146663855D02*
X124780949Y-146625760D01*
X124780949Y-146625760D02*
X124742853Y-146587664D01*
X124742853Y-146587664D02*
X124742853Y-146663855D01*
X124019044Y-146625760D02*
X124095235Y-146663855D01*
X124095235Y-146663855D02*
X124247616Y-146663855D01*
X124247616Y-146663855D02*
X124323806Y-146625760D01*
X124323806Y-146625760D02*
X124361901Y-146587664D01*
X124361901Y-146587664D02*
X124399997Y-146511474D01*
X124399997Y-146511474D02*
X124399997Y-146282902D01*
X124399997Y-146282902D02*
X124361901Y-146206712D01*
X124361901Y-146206712D02*
X124323806Y-146168617D01*
X124323806Y-146168617D02*
X124247616Y-146130521D01*
X124247616Y-146130521D02*
X124095235Y-146130521D01*
X124095235Y-146130521D02*
X124019044Y-146168617D01*
X123561902Y-146663855D02*
X123638092Y-146625760D01*
X123638092Y-146625760D02*
X123676187Y-146587664D01*
X123676187Y-146587664D02*
X123714283Y-146511474D01*
X123714283Y-146511474D02*
X123714283Y-146282902D01*
X123714283Y-146282902D02*
X123676187Y-146206712D01*
X123676187Y-146206712D02*
X123638092Y-146168617D01*
X123638092Y-146168617D02*
X123561902Y-146130521D01*
X123561902Y-146130521D02*
X123447616Y-146130521D01*
X123447616Y-146130521D02*
X123371425Y-146168617D01*
X123371425Y-146168617D02*
X123333330Y-146206712D01*
X123333330Y-146206712D02*
X123295235Y-146282902D01*
X123295235Y-146282902D02*
X123295235Y-146511474D01*
X123295235Y-146511474D02*
X123333330Y-146587664D01*
X123333330Y-146587664D02*
X123371425Y-146625760D01*
X123371425Y-146625760D02*
X123447616Y-146663855D01*
X123447616Y-146663855D02*
X123561902Y-146663855D01*
X122952377Y-146663855D02*
X122952377Y-146130521D01*
X122952377Y-146206712D02*
X122914282Y-146168617D01*
X122914282Y-146168617D02*
X122838092Y-146130521D01*
X122838092Y-146130521D02*
X122723806Y-146130521D01*
X122723806Y-146130521D02*
X122647615Y-146168617D01*
X122647615Y-146168617D02*
X122609520Y-146244807D01*
X122609520Y-146244807D02*
X122609520Y-146663855D01*
X122609520Y-146244807D02*
X122571425Y-146168617D01*
X122571425Y-146168617D02*
X122495234Y-146130521D01*
X122495234Y-146130521D02*
X122380949Y-146130521D01*
X122380949Y-146130521D02*
X122304758Y-146168617D01*
X122304758Y-146168617D02*
X122266663Y-146244807D01*
X122266663Y-146244807D02*
X122266663Y-146663855D01*
X121314282Y-145825760D02*
X121999996Y-146854331D01*
X120933330Y-146663855D02*
X121009520Y-146625760D01*
X121009520Y-146625760D02*
X121047615Y-146549569D01*
X121047615Y-146549569D02*
X121047615Y-145863855D01*
X120628567Y-146663855D02*
X120628567Y-146130521D01*
X120628567Y-146282902D02*
X120590472Y-146206712D01*
X120590472Y-146206712D02*
X120552377Y-146168617D01*
X120552377Y-146168617D02*
X120476186Y-146130521D01*
X120476186Y-146130521D02*
X120399996Y-146130521D01*
X120133329Y-146663855D02*
X120133329Y-146130521D01*
X120133329Y-146282902D02*
X120095234Y-146206712D01*
X120095234Y-146206712D02*
X120057139Y-146168617D01*
X120057139Y-146168617D02*
X119980948Y-146130521D01*
X119980948Y-146130521D02*
X119904758Y-146130521D01*
X119523806Y-146663855D02*
X119599996Y-146625760D01*
X119599996Y-146625760D02*
X119638091Y-146587664D01*
X119638091Y-146587664D02*
X119676187Y-146511474D01*
X119676187Y-146511474D02*
X119676187Y-146282902D01*
X119676187Y-146282902D02*
X119638091Y-146206712D01*
X119638091Y-146206712D02*
X119599996Y-146168617D01*
X119599996Y-146168617D02*
X119523806Y-146130521D01*
X119523806Y-146130521D02*
X119409520Y-146130521D01*
X119409520Y-146130521D02*
X119333329Y-146168617D01*
X119333329Y-146168617D02*
X119295234Y-146206712D01*
X119295234Y-146206712D02*
X119257139Y-146282902D01*
X119257139Y-146282902D02*
X119257139Y-146511474D01*
X119257139Y-146511474D02*
X119295234Y-146587664D01*
X119295234Y-146587664D02*
X119333329Y-146625760D01*
X119333329Y-146625760D02*
X119409520Y-146663855D01*
X119409520Y-146663855D02*
X119523806Y-146663855D01*
X118952377Y-146625760D02*
X118876186Y-146663855D01*
X118876186Y-146663855D02*
X118723805Y-146663855D01*
X118723805Y-146663855D02*
X118647615Y-146625760D01*
X118647615Y-146625760D02*
X118609519Y-146549569D01*
X118609519Y-146549569D02*
X118609519Y-146511474D01*
X118609519Y-146511474D02*
X118647615Y-146435283D01*
X118647615Y-146435283D02*
X118723805Y-146397188D01*
X118723805Y-146397188D02*
X118838091Y-146397188D01*
X118838091Y-146397188D02*
X118914281Y-146359093D01*
X118914281Y-146359093D02*
X118952377Y-146282902D01*
X118952377Y-146282902D02*
X118952377Y-146244807D01*
X118952377Y-146244807D02*
X118914281Y-146168617D01*
X118914281Y-146168617D02*
X118838091Y-146130521D01*
X118838091Y-146130521D02*
X118723805Y-146130521D01*
X118723805Y-146130521D02*
X118647615Y-146168617D01*
X117923805Y-146663855D02*
X117923805Y-146244807D01*
X117923805Y-146244807D02*
X117961900Y-146168617D01*
X117961900Y-146168617D02*
X118038091Y-146130521D01*
X118038091Y-146130521D02*
X118190472Y-146130521D01*
X118190472Y-146130521D02*
X118266662Y-146168617D01*
X117923805Y-146625760D02*
X117999996Y-146663855D01*
X117999996Y-146663855D02*
X118190472Y-146663855D01*
X118190472Y-146663855D02*
X118266662Y-146625760D01*
X118266662Y-146625760D02*
X118304758Y-146549569D01*
X118304758Y-146549569D02*
X118304758Y-146473379D01*
X118304758Y-146473379D02*
X118266662Y-146397188D01*
X118266662Y-146397188D02*
X118190472Y-146359093D01*
X118190472Y-146359093D02*
X117999996Y-146359093D01*
X117999996Y-146359093D02*
X117923805Y-146320998D01*
X116971424Y-145825760D02*
X117657138Y-146854331D01*
X116780948Y-146130521D02*
X116590472Y-146663855D01*
X116590472Y-146663855D02*
X116399995Y-146130521D01*
X115790471Y-146625760D02*
X115866662Y-146663855D01*
X115866662Y-146663855D02*
X116019043Y-146663855D01*
X116019043Y-146663855D02*
X116095233Y-146625760D01*
X116095233Y-146625760D02*
X116133329Y-146549569D01*
X116133329Y-146549569D02*
X116133329Y-146244807D01*
X116133329Y-146244807D02*
X116095233Y-146168617D01*
X116095233Y-146168617D02*
X116019043Y-146130521D01*
X116019043Y-146130521D02*
X115866662Y-146130521D01*
X115866662Y-146130521D02*
X115790471Y-146168617D01*
X115790471Y-146168617D02*
X115752376Y-146244807D01*
X115752376Y-146244807D02*
X115752376Y-146320998D01*
X115752376Y-146320998D02*
X116133329Y-146397188D01*
X115523805Y-146130521D02*
X115219043Y-146130521D01*
X115409519Y-145863855D02*
X115409519Y-146549569D01*
X115409519Y-146549569D02*
X115371424Y-146625760D01*
X115371424Y-146625760D02*
X115295234Y-146663855D01*
X115295234Y-146663855D02*
X115219043Y-146663855D01*
X115028567Y-145863855D02*
X114533329Y-145863855D01*
X114533329Y-145863855D02*
X114799995Y-146168617D01*
X114799995Y-146168617D02*
X114685710Y-146168617D01*
X114685710Y-146168617D02*
X114609519Y-146206712D01*
X114609519Y-146206712D02*
X114571424Y-146244807D01*
X114571424Y-146244807D02*
X114533329Y-146320998D01*
X114533329Y-146320998D02*
X114533329Y-146511474D01*
X114533329Y-146511474D02*
X114571424Y-146587664D01*
X114571424Y-146587664D02*
X114609519Y-146625760D01*
X114609519Y-146625760D02*
X114685710Y-146663855D01*
X114685710Y-146663855D02*
X114914281Y-146663855D01*
X114914281Y-146663855D02*
X114990472Y-146625760D01*
X114990472Y-146625760D02*
X115028567Y-146587664D01*
X114038090Y-145863855D02*
X113961900Y-145863855D01*
X113961900Y-145863855D02*
X113885709Y-145901950D01*
X113885709Y-145901950D02*
X113847614Y-145940045D01*
X113847614Y-145940045D02*
X113809519Y-146016236D01*
X113809519Y-146016236D02*
X113771424Y-146168617D01*
X113771424Y-146168617D02*
X113771424Y-146359093D01*
X113771424Y-146359093D02*
X113809519Y-146511474D01*
X113809519Y-146511474D02*
X113847614Y-146587664D01*
X113847614Y-146587664D02*
X113885709Y-146625760D01*
X113885709Y-146625760D02*
X113961900Y-146663855D01*
X113961900Y-146663855D02*
X114038090Y-146663855D01*
X114038090Y-146663855D02*
X114114281Y-146625760D01*
X114114281Y-146625760D02*
X114152376Y-146587664D01*
X114152376Y-146587664D02*
X114190471Y-146511474D01*
X114190471Y-146511474D02*
X114228567Y-146359093D01*
X114228567Y-146359093D02*
X114228567Y-146168617D01*
X114228567Y-146168617D02*
X114190471Y-146016236D01*
X114190471Y-146016236D02*
X114152376Y-145940045D01*
X114152376Y-145940045D02*
X114114281Y-145901950D01*
X114114281Y-145901950D02*
X114038090Y-145863855D01*
X113276185Y-145863855D02*
X113199995Y-145863855D01*
X113199995Y-145863855D02*
X113123804Y-145901950D01*
X113123804Y-145901950D02*
X113085709Y-145940045D01*
X113085709Y-145940045D02*
X113047614Y-146016236D01*
X113047614Y-146016236D02*
X113009519Y-146168617D01*
X113009519Y-146168617D02*
X113009519Y-146359093D01*
X113009519Y-146359093D02*
X113047614Y-146511474D01*
X113047614Y-146511474D02*
X113085709Y-146587664D01*
X113085709Y-146587664D02*
X113123804Y-146625760D01*
X113123804Y-146625760D02*
X113199995Y-146663855D01*
X113199995Y-146663855D02*
X113276185Y-146663855D01*
X113276185Y-146663855D02*
X113352376Y-146625760D01*
X113352376Y-146625760D02*
X113390471Y-146587664D01*
X113390471Y-146587664D02*
X113428566Y-146511474D01*
X113428566Y-146511474D02*
X113466662Y-146359093D01*
X113466662Y-146359093D02*
X113466662Y-146168617D01*
X113466662Y-146168617D02*
X113428566Y-146016236D01*
X113428566Y-146016236D02*
X113390471Y-145940045D01*
X113390471Y-145940045D02*
X113352376Y-145901950D01*
X113352376Y-145901950D02*
X113276185Y-145863855D01*
X112514280Y-145863855D02*
X112438090Y-145863855D01*
X112438090Y-145863855D02*
X112361899Y-145901950D01*
X112361899Y-145901950D02*
X112323804Y-145940045D01*
X112323804Y-145940045D02*
X112285709Y-146016236D01*
X112285709Y-146016236D02*
X112247614Y-146168617D01*
X112247614Y-146168617D02*
X112247614Y-146359093D01*
X112247614Y-146359093D02*
X112285709Y-146511474D01*
X112285709Y-146511474D02*
X112323804Y-146587664D01*
X112323804Y-146587664D02*
X112361899Y-146625760D01*
X112361899Y-146625760D02*
X112438090Y-146663855D01*
X112438090Y-146663855D02*
X112514280Y-146663855D01*
X112514280Y-146663855D02*
X112590471Y-146625760D01*
X112590471Y-146625760D02*
X112628566Y-146587664D01*
X112628566Y-146587664D02*
X112666661Y-146511474D01*
X112666661Y-146511474D02*
X112704757Y-146359093D01*
X112704757Y-146359093D02*
X112704757Y-146168617D01*
X112704757Y-146168617D02*
X112666661Y-146016236D01*
X112666661Y-146016236D02*
X112628566Y-145940045D01*
X112628566Y-145940045D02*
X112590471Y-145901950D01*
X112590471Y-145901950D02*
X112514280Y-145863855D01*
X156304762Y-158430521D02*
X156304762Y-159230521D01*
X156304762Y-158468617D02*
X156228572Y-158430521D01*
X156228572Y-158430521D02*
X156076191Y-158430521D01*
X156076191Y-158430521D02*
X156000000Y-158468617D01*
X156000000Y-158468617D02*
X155961905Y-158506712D01*
X155961905Y-158506712D02*
X155923810Y-158582902D01*
X155923810Y-158582902D02*
X155923810Y-158811474D01*
X155923810Y-158811474D02*
X155961905Y-158887664D01*
X155961905Y-158887664D02*
X156000000Y-158925760D01*
X156000000Y-158925760D02*
X156076191Y-158963855D01*
X156076191Y-158963855D02*
X156228572Y-158963855D01*
X156228572Y-158963855D02*
X156304762Y-158925760D01*
X155580952Y-158963855D02*
X155580952Y-158430521D01*
X155580952Y-158163855D02*
X155619048Y-158201950D01*
X155619048Y-158201950D02*
X155580952Y-158240045D01*
X155580952Y-158240045D02*
X155542857Y-158201950D01*
X155542857Y-158201950D02*
X155580952Y-158163855D01*
X155580952Y-158163855D02*
X155580952Y-158240045D01*
X155200000Y-158430521D02*
X155200000Y-158963855D01*
X155200000Y-158506712D02*
X155161905Y-158468617D01*
X155161905Y-158468617D02*
X155085715Y-158430521D01*
X155085715Y-158430521D02*
X154971429Y-158430521D01*
X154971429Y-158430521D02*
X154895238Y-158468617D01*
X154895238Y-158468617D02*
X154857143Y-158544807D01*
X154857143Y-158544807D02*
X154857143Y-158963855D01*
X154361905Y-158963855D02*
X154438095Y-158925760D01*
X154438095Y-158925760D02*
X154476190Y-158887664D01*
X154476190Y-158887664D02*
X154514286Y-158811474D01*
X154514286Y-158811474D02*
X154514286Y-158582902D01*
X154514286Y-158582902D02*
X154476190Y-158506712D01*
X154476190Y-158506712D02*
X154438095Y-158468617D01*
X154438095Y-158468617D02*
X154361905Y-158430521D01*
X154361905Y-158430521D02*
X154247619Y-158430521D01*
X154247619Y-158430521D02*
X154171428Y-158468617D01*
X154171428Y-158468617D02*
X154133333Y-158506712D01*
X154133333Y-158506712D02*
X154095238Y-158582902D01*
X154095238Y-158582902D02*
X154095238Y-158811474D01*
X154095238Y-158811474D02*
X154133333Y-158887664D01*
X154133333Y-158887664D02*
X154171428Y-158925760D01*
X154171428Y-158925760D02*
X154247619Y-158963855D01*
X154247619Y-158963855D02*
X154361905Y-158963855D01*
X152723809Y-158963855D02*
X153180952Y-158963855D01*
X152952380Y-158963855D02*
X152952380Y-158163855D01*
X152952380Y-158163855D02*
X153028571Y-158278140D01*
X153028571Y-158278140D02*
X153104761Y-158354331D01*
X153104761Y-158354331D02*
X153180952Y-158392426D01*
X151428570Y-158963855D02*
X151428570Y-158163855D01*
X151428570Y-158925760D02*
X151504761Y-158963855D01*
X151504761Y-158963855D02*
X151657142Y-158963855D01*
X151657142Y-158963855D02*
X151733332Y-158925760D01*
X151733332Y-158925760D02*
X151771427Y-158887664D01*
X151771427Y-158887664D02*
X151809523Y-158811474D01*
X151809523Y-158811474D02*
X151809523Y-158582902D01*
X151809523Y-158582902D02*
X151771427Y-158506712D01*
X151771427Y-158506712D02*
X151733332Y-158468617D01*
X151733332Y-158468617D02*
X151657142Y-158430521D01*
X151657142Y-158430521D02*
X151504761Y-158430521D01*
X151504761Y-158430521D02*
X151428570Y-158468617D01*
X150933332Y-158963855D02*
X151009522Y-158925760D01*
X151009522Y-158925760D02*
X151047617Y-158887664D01*
X151047617Y-158887664D02*
X151085713Y-158811474D01*
X151085713Y-158811474D02*
X151085713Y-158582902D01*
X151085713Y-158582902D02*
X151047617Y-158506712D01*
X151047617Y-158506712D02*
X151009522Y-158468617D01*
X151009522Y-158468617D02*
X150933332Y-158430521D01*
X150933332Y-158430521D02*
X150819046Y-158430521D01*
X150819046Y-158430521D02*
X150742855Y-158468617D01*
X150742855Y-158468617D02*
X150704760Y-158506712D01*
X150704760Y-158506712D02*
X150666665Y-158582902D01*
X150666665Y-158582902D02*
X150666665Y-158811474D01*
X150666665Y-158811474D02*
X150704760Y-158887664D01*
X150704760Y-158887664D02*
X150742855Y-158925760D01*
X150742855Y-158925760D02*
X150819046Y-158963855D01*
X150819046Y-158963855D02*
X150933332Y-158963855D01*
X149257140Y-158887664D02*
X149295236Y-158925760D01*
X149295236Y-158925760D02*
X149409521Y-158963855D01*
X149409521Y-158963855D02*
X149485712Y-158963855D01*
X149485712Y-158963855D02*
X149599998Y-158925760D01*
X149599998Y-158925760D02*
X149676188Y-158849569D01*
X149676188Y-158849569D02*
X149714283Y-158773379D01*
X149714283Y-158773379D02*
X149752379Y-158620998D01*
X149752379Y-158620998D02*
X149752379Y-158506712D01*
X149752379Y-158506712D02*
X149714283Y-158354331D01*
X149714283Y-158354331D02*
X149676188Y-158278140D01*
X149676188Y-158278140D02*
X149599998Y-158201950D01*
X149599998Y-158201950D02*
X149485712Y-158163855D01*
X149485712Y-158163855D02*
X149409521Y-158163855D01*
X149409521Y-158163855D02*
X149295236Y-158201950D01*
X149295236Y-158201950D02*
X149257140Y-158240045D01*
X148914283Y-158963855D02*
X148914283Y-158163855D01*
X148914283Y-158163855D02*
X148457140Y-158963855D01*
X148457140Y-158963855D02*
X148457140Y-158163855D01*
X147657141Y-158963855D02*
X148114284Y-158963855D01*
X147885712Y-158963855D02*
X147885712Y-158163855D01*
X147885712Y-158163855D02*
X147961903Y-158278140D01*
X147961903Y-158278140D02*
X148038093Y-158354331D01*
X148038093Y-158354331D02*
X148114284Y-158392426D01*
D11*
X155047619Y-123450057D02*
X155000000Y-123402438D01*
X155000000Y-123402438D02*
X154904762Y-123354819D01*
X154904762Y-123354819D02*
X154666667Y-123354819D01*
X154666667Y-123354819D02*
X154571429Y-123402438D01*
X154571429Y-123402438D02*
X154523810Y-123450057D01*
X154523810Y-123450057D02*
X154476191Y-123545295D01*
X154476191Y-123545295D02*
X154476191Y-123640533D01*
X154476191Y-123640533D02*
X154523810Y-123783390D01*
X154523810Y-123783390D02*
X155095238Y-124354819D01*
X155095238Y-124354819D02*
X154476191Y-124354819D01*
X154142857Y-123354819D02*
X153476191Y-123354819D01*
X153476191Y-123354819D02*
X153904762Y-124354819D01*
X152523810Y-124259580D02*
X152571429Y-124307200D01*
X152571429Y-124307200D02*
X152714286Y-124354819D01*
X152714286Y-124354819D02*
X152809524Y-124354819D01*
X152809524Y-124354819D02*
X152952381Y-124307200D01*
X152952381Y-124307200D02*
X153047619Y-124211961D01*
X153047619Y-124211961D02*
X153095238Y-124116723D01*
X153095238Y-124116723D02*
X153142857Y-123926247D01*
X153142857Y-123926247D02*
X153142857Y-123783390D01*
X153142857Y-123783390D02*
X153095238Y-123592914D01*
X153095238Y-123592914D02*
X153047619Y-123497676D01*
X153047619Y-123497676D02*
X152952381Y-123402438D01*
X152952381Y-123402438D02*
X152809524Y-123354819D01*
X152809524Y-123354819D02*
X152714286Y-123354819D01*
X152714286Y-123354819D02*
X152571429Y-123402438D01*
X152571429Y-123402438D02*
X152523810Y-123450057D01*
X151571429Y-124354819D02*
X152142857Y-124354819D01*
X151857143Y-124354819D02*
X151857143Y-123354819D01*
X151857143Y-123354819D02*
X151952381Y-123497676D01*
X151952381Y-123497676D02*
X152047619Y-123592914D01*
X152047619Y-123592914D02*
X152142857Y-123640533D01*
X151190476Y-123450057D02*
X151142857Y-123402438D01*
X151142857Y-123402438D02*
X151047619Y-123354819D01*
X151047619Y-123354819D02*
X150809524Y-123354819D01*
X150809524Y-123354819D02*
X150714286Y-123402438D01*
X150714286Y-123402438D02*
X150666667Y-123450057D01*
X150666667Y-123450057D02*
X150619048Y-123545295D01*
X150619048Y-123545295D02*
X150619048Y-123640533D01*
X150619048Y-123640533D02*
X150666667Y-123783390D01*
X150666667Y-123783390D02*
X151238095Y-124354819D01*
X151238095Y-124354819D02*
X150619048Y-124354819D01*
X150047619Y-123783390D02*
X150142857Y-123735771D01*
X150142857Y-123735771D02*
X150190476Y-123688152D01*
X150190476Y-123688152D02*
X150238095Y-123592914D01*
X150238095Y-123592914D02*
X150238095Y-123545295D01*
X150238095Y-123545295D02*
X150190476Y-123450057D01*
X150190476Y-123450057D02*
X150142857Y-123402438D01*
X150142857Y-123402438D02*
X150047619Y-123354819D01*
X150047619Y-123354819D02*
X149857143Y-123354819D01*
X149857143Y-123354819D02*
X149761905Y-123402438D01*
X149761905Y-123402438D02*
X149714286Y-123450057D01*
X149714286Y-123450057D02*
X149666667Y-123545295D01*
X149666667Y-123545295D02*
X149666667Y-123592914D01*
X149666667Y-123592914D02*
X149714286Y-123688152D01*
X149714286Y-123688152D02*
X149761905Y-123735771D01*
X149761905Y-123735771D02*
X149857143Y-123783390D01*
X149857143Y-123783390D02*
X150047619Y-123783390D01*
X150047619Y-123783390D02*
X150142857Y-123831009D01*
X150142857Y-123831009D02*
X150190476Y-123878628D01*
X150190476Y-123878628D02*
X150238095Y-123973866D01*
X150238095Y-123973866D02*
X150238095Y-124164342D01*
X150238095Y-124164342D02*
X150190476Y-124259580D01*
X150190476Y-124259580D02*
X150142857Y-124307200D01*
X150142857Y-124307200D02*
X150047619Y-124354819D01*
X150047619Y-124354819D02*
X149857143Y-124354819D01*
X149857143Y-124354819D02*
X149761905Y-124307200D01*
X149761905Y-124307200D02*
X149714286Y-124259580D01*
X149714286Y-124259580D02*
X149666667Y-124164342D01*
X149666667Y-124164342D02*
X149666667Y-123973866D01*
X149666667Y-123973866D02*
X149714286Y-123878628D01*
X149714286Y-123878628D02*
X149761905Y-123831009D01*
X149761905Y-123831009D02*
X149857143Y-123783390D01*
X149238095Y-124259580D02*
X149190476Y-124307200D01*
X149190476Y-124307200D02*
X149238095Y-124354819D01*
X149238095Y-124354819D02*
X149285714Y-124307200D01*
X149285714Y-124307200D02*
X149238095Y-124259580D01*
X149238095Y-124259580D02*
X149238095Y-124354819D01*
X149238095Y-123735771D02*
X149190476Y-123783390D01*
X149190476Y-123783390D02*
X149238095Y-123831009D01*
X149238095Y-123831009D02*
X149285714Y-123783390D01*
X149285714Y-123783390D02*
X149238095Y-123735771D01*
X149238095Y-123735771D02*
X149238095Y-123831009D01*
X147714286Y-123354819D02*
X147714286Y-124069104D01*
X147714286Y-124069104D02*
X147761905Y-124211961D01*
X147761905Y-124211961D02*
X147857143Y-124307200D01*
X147857143Y-124307200D02*
X148000000Y-124354819D01*
X148000000Y-124354819D02*
X148095238Y-124354819D01*
X147238095Y-124354819D02*
X147238095Y-123354819D01*
X147238095Y-123354819D02*
X146857143Y-123354819D01*
X146857143Y-123354819D02*
X146761905Y-123402438D01*
X146761905Y-123402438D02*
X146714286Y-123450057D01*
X146714286Y-123450057D02*
X146666667Y-123545295D01*
X146666667Y-123545295D02*
X146666667Y-123688152D01*
X146666667Y-123688152D02*
X146714286Y-123783390D01*
X146714286Y-123783390D02*
X146761905Y-123831009D01*
X146761905Y-123831009D02*
X146857143Y-123878628D01*
X146857143Y-123878628D02*
X147238095Y-123878628D01*
X145714286Y-124354819D02*
X146285714Y-124354819D01*
X146000000Y-124354819D02*
X146000000Y-123354819D01*
X146000000Y-123354819D02*
X146095238Y-123497676D01*
X146095238Y-123497676D02*
X146190476Y-123592914D01*
X146190476Y-123592914D02*
X146285714Y-123640533D01*
X144571428Y-123450057D02*
X144523809Y-123402438D01*
X144523809Y-123402438D02*
X144428571Y-123354819D01*
X144428571Y-123354819D02*
X144190476Y-123354819D01*
X144190476Y-123354819D02*
X144095238Y-123402438D01*
X144095238Y-123402438D02*
X144047619Y-123450057D01*
X144047619Y-123450057D02*
X144000000Y-123545295D01*
X144000000Y-123545295D02*
X144000000Y-123640533D01*
X144000000Y-123640533D02*
X144047619Y-123783390D01*
X144047619Y-123783390D02*
X144619047Y-124354819D01*
X144619047Y-124354819D02*
X144000000Y-124354819D01*
X143571428Y-123973866D02*
X142809524Y-123973866D01*
X142428571Y-123354819D02*
X141809524Y-123354819D01*
X141809524Y-123354819D02*
X142142857Y-123735771D01*
X142142857Y-123735771D02*
X142000000Y-123735771D01*
X142000000Y-123735771D02*
X141904762Y-123783390D01*
X141904762Y-123783390D02*
X141857143Y-123831009D01*
X141857143Y-123831009D02*
X141809524Y-123926247D01*
X141809524Y-123926247D02*
X141809524Y-124164342D01*
X141809524Y-124164342D02*
X141857143Y-124259580D01*
X141857143Y-124259580D02*
X141904762Y-124307200D01*
X141904762Y-124307200D02*
X142000000Y-124354819D01*
X142000000Y-124354819D02*
X142285714Y-124354819D01*
X142285714Y-124354819D02*
X142380952Y-124307200D01*
X142380952Y-124307200D02*
X142428571Y-124259580D01*
X141333333Y-124307200D02*
X141333333Y-124354819D01*
X141333333Y-124354819D02*
X141380952Y-124450057D01*
X141380952Y-124450057D02*
X141428571Y-124497676D01*
X139857143Y-123354819D02*
X139857143Y-124069104D01*
X139857143Y-124069104D02*
X139904762Y-124211961D01*
X139904762Y-124211961D02*
X140000000Y-124307200D01*
X140000000Y-124307200D02*
X140142857Y-124354819D01*
X140142857Y-124354819D02*
X140238095Y-124354819D01*
X139380952Y-124354819D02*
X139380952Y-123354819D01*
X139380952Y-123354819D02*
X139000000Y-123354819D01*
X139000000Y-123354819D02*
X138904762Y-123402438D01*
X138904762Y-123402438D02*
X138857143Y-123450057D01*
X138857143Y-123450057D02*
X138809524Y-123545295D01*
X138809524Y-123545295D02*
X138809524Y-123688152D01*
X138809524Y-123688152D02*
X138857143Y-123783390D01*
X138857143Y-123783390D02*
X138904762Y-123831009D01*
X138904762Y-123831009D02*
X139000000Y-123878628D01*
X139000000Y-123878628D02*
X139380952Y-123878628D01*
X138428571Y-123450057D02*
X138380952Y-123402438D01*
X138380952Y-123402438D02*
X138285714Y-123354819D01*
X138285714Y-123354819D02*
X138047619Y-123354819D01*
X138047619Y-123354819D02*
X137952381Y-123402438D01*
X137952381Y-123402438D02*
X137904762Y-123450057D01*
X137904762Y-123450057D02*
X137857143Y-123545295D01*
X137857143Y-123545295D02*
X137857143Y-123640533D01*
X137857143Y-123640533D02*
X137904762Y-123783390D01*
X137904762Y-123783390D02*
X138476190Y-124354819D01*
X138476190Y-124354819D02*
X137857143Y-124354819D01*
X136714285Y-123450057D02*
X136666666Y-123402438D01*
X136666666Y-123402438D02*
X136571428Y-123354819D01*
X136571428Y-123354819D02*
X136333333Y-123354819D01*
X136333333Y-123354819D02*
X136238095Y-123402438D01*
X136238095Y-123402438D02*
X136190476Y-123450057D01*
X136190476Y-123450057D02*
X136142857Y-123545295D01*
X136142857Y-123545295D02*
X136142857Y-123640533D01*
X136142857Y-123640533D02*
X136190476Y-123783390D01*
X136190476Y-123783390D02*
X136761904Y-124354819D01*
X136761904Y-124354819D02*
X136142857Y-124354819D01*
X135714285Y-123973866D02*
X134952381Y-123973866D01*
X134571428Y-123354819D02*
X133952381Y-123354819D01*
X133952381Y-123354819D02*
X134285714Y-123735771D01*
X134285714Y-123735771D02*
X134142857Y-123735771D01*
X134142857Y-123735771D02*
X134047619Y-123783390D01*
X134047619Y-123783390D02*
X134000000Y-123831009D01*
X134000000Y-123831009D02*
X133952381Y-123926247D01*
X133952381Y-123926247D02*
X133952381Y-124164342D01*
X133952381Y-124164342D02*
X134000000Y-124259580D01*
X134000000Y-124259580D02*
X134047619Y-124307200D01*
X134047619Y-124307200D02*
X134142857Y-124354819D01*
X134142857Y-124354819D02*
X134428571Y-124354819D01*
X134428571Y-124354819D02*
X134523809Y-124307200D01*
X134523809Y-124307200D02*
X134571428Y-124259580D01*
X133476190Y-124307200D02*
X133476190Y-124354819D01*
X133476190Y-124354819D02*
X133523809Y-124450057D01*
X133523809Y-124450057D02*
X133571428Y-124497676D01*
X133523809Y-123735771D02*
X133476190Y-123783390D01*
X133476190Y-123783390D02*
X133523809Y-123831009D01*
X133523809Y-123831009D02*
X133571428Y-123783390D01*
X133571428Y-123783390D02*
X133523809Y-123735771D01*
X133523809Y-123735771D02*
X133523809Y-123831009D01*
X132000000Y-123354819D02*
X132000000Y-124069104D01*
X132000000Y-124069104D02*
X132047619Y-124211961D01*
X132047619Y-124211961D02*
X132142857Y-124307200D01*
X132142857Y-124307200D02*
X132285714Y-124354819D01*
X132285714Y-124354819D02*
X132380952Y-124354819D01*
X131523809Y-124354819D02*
X131523809Y-123354819D01*
X131523809Y-123354819D02*
X131142857Y-123354819D01*
X131142857Y-123354819D02*
X131047619Y-123402438D01*
X131047619Y-123402438D02*
X131000000Y-123450057D01*
X131000000Y-123450057D02*
X130952381Y-123545295D01*
X130952381Y-123545295D02*
X130952381Y-123688152D01*
X130952381Y-123688152D02*
X131000000Y-123783390D01*
X131000000Y-123783390D02*
X131047619Y-123831009D01*
X131047619Y-123831009D02*
X131142857Y-123878628D01*
X131142857Y-123878628D02*
X131523809Y-123878628D01*
X130619047Y-123354819D02*
X130000000Y-123354819D01*
X130000000Y-123354819D02*
X130333333Y-123735771D01*
X130333333Y-123735771D02*
X130190476Y-123735771D01*
X130190476Y-123735771D02*
X130095238Y-123783390D01*
X130095238Y-123783390D02*
X130047619Y-123831009D01*
X130047619Y-123831009D02*
X130000000Y-123926247D01*
X130000000Y-123926247D02*
X130000000Y-124164342D01*
X130000000Y-124164342D02*
X130047619Y-124259580D01*
X130047619Y-124259580D02*
X130095238Y-124307200D01*
X130095238Y-124307200D02*
X130190476Y-124354819D01*
X130190476Y-124354819D02*
X130476190Y-124354819D01*
X130476190Y-124354819D02*
X130571428Y-124307200D01*
X130571428Y-124307200D02*
X130619047Y-124259580D01*
X128952380Y-123688152D02*
X128571428Y-123688152D01*
X128809523Y-124354819D02*
X128809523Y-123497676D01*
X128809523Y-123497676D02*
X128761904Y-123402438D01*
X128761904Y-123402438D02*
X128666666Y-123354819D01*
X128666666Y-123354819D02*
X128571428Y-123354819D01*
X127857142Y-124307200D02*
X127952380Y-124354819D01*
X127952380Y-124354819D02*
X128142856Y-124354819D01*
X128142856Y-124354819D02*
X128238094Y-124307200D01*
X128238094Y-124307200D02*
X128285713Y-124211961D01*
X128285713Y-124211961D02*
X128285713Y-123831009D01*
X128285713Y-123831009D02*
X128238094Y-123735771D01*
X128238094Y-123735771D02*
X128142856Y-123688152D01*
X128142856Y-123688152D02*
X127952380Y-123688152D01*
X127952380Y-123688152D02*
X127857142Y-123735771D01*
X127857142Y-123735771D02*
X127809523Y-123831009D01*
X127809523Y-123831009D02*
X127809523Y-123926247D01*
X127809523Y-123926247D02*
X128285713Y-124021485D01*
X126952380Y-124307200D02*
X127047618Y-124354819D01*
X127047618Y-124354819D02*
X127238094Y-124354819D01*
X127238094Y-124354819D02*
X127333332Y-124307200D01*
X127333332Y-124307200D02*
X127380951Y-124259580D01*
X127380951Y-124259580D02*
X127428570Y-124164342D01*
X127428570Y-124164342D02*
X127428570Y-123878628D01*
X127428570Y-123878628D02*
X127380951Y-123783390D01*
X127380951Y-123783390D02*
X127333332Y-123735771D01*
X127333332Y-123735771D02*
X127238094Y-123688152D01*
X127238094Y-123688152D02*
X127047618Y-123688152D01*
X127047618Y-123688152D02*
X126952380Y-123735771D01*
X126523808Y-124354819D02*
X126523808Y-123354819D01*
X126095237Y-124354819D02*
X126095237Y-123831009D01*
X126095237Y-123831009D02*
X126142856Y-123735771D01*
X126142856Y-123735771D02*
X126238094Y-123688152D01*
X126238094Y-123688152D02*
X126380951Y-123688152D01*
X126380951Y-123688152D02*
X126476189Y-123735771D01*
X126476189Y-123735771D02*
X126523808Y-123783390D01*
X125190475Y-124354819D02*
X125190475Y-123831009D01*
X125190475Y-123831009D02*
X125238094Y-123735771D01*
X125238094Y-123735771D02*
X125333332Y-123688152D01*
X125333332Y-123688152D02*
X125523808Y-123688152D01*
X125523808Y-123688152D02*
X125619046Y-123735771D01*
X125190475Y-124307200D02*
X125285713Y-124354819D01*
X125285713Y-124354819D02*
X125523808Y-124354819D01*
X125523808Y-124354819D02*
X125619046Y-124307200D01*
X125619046Y-124307200D02*
X125666665Y-124211961D01*
X125666665Y-124211961D02*
X125666665Y-124116723D01*
X125666665Y-124116723D02*
X125619046Y-124021485D01*
X125619046Y-124021485D02*
X125523808Y-123973866D01*
X125523808Y-123973866D02*
X125285713Y-123973866D01*
X125285713Y-123973866D02*
X125190475Y-123926247D01*
X124285713Y-124354819D02*
X124285713Y-123354819D01*
X124285713Y-124307200D02*
X124380951Y-124354819D01*
X124380951Y-124354819D02*
X124571427Y-124354819D01*
X124571427Y-124354819D02*
X124666665Y-124307200D01*
X124666665Y-124307200D02*
X124714284Y-124259580D01*
X124714284Y-124259580D02*
X124761903Y-124164342D01*
X124761903Y-124164342D02*
X124761903Y-123878628D01*
X124761903Y-123878628D02*
X124714284Y-123783390D01*
X124714284Y-123783390D02*
X124666665Y-123735771D01*
X124666665Y-123735771D02*
X124571427Y-123688152D01*
X124571427Y-123688152D02*
X124380951Y-123688152D01*
X124380951Y-123688152D02*
X124285713Y-123735771D01*
X123666665Y-124354819D02*
X123761903Y-124307200D01*
X123761903Y-124307200D02*
X123809522Y-124259580D01*
X123809522Y-124259580D02*
X123857141Y-124164342D01*
X123857141Y-124164342D02*
X123857141Y-123878628D01*
X123857141Y-123878628D02*
X123809522Y-123783390D01*
X123809522Y-123783390D02*
X123761903Y-123735771D01*
X123761903Y-123735771D02*
X123666665Y-123688152D01*
X123666665Y-123688152D02*
X123523808Y-123688152D01*
X123523808Y-123688152D02*
X123428570Y-123735771D01*
X123428570Y-123735771D02*
X123380951Y-123783390D01*
X123380951Y-123783390D02*
X123333332Y-123878628D01*
X123333332Y-123878628D02*
X123333332Y-124164342D01*
X123333332Y-124164342D02*
X123380951Y-124259580D01*
X123380951Y-124259580D02*
X123428570Y-124307200D01*
X123428570Y-124307200D02*
X123523808Y-124354819D01*
X123523808Y-124354819D02*
X123666665Y-124354819D01*
X122142855Y-123831009D02*
X121380951Y-123831009D01*
X121380951Y-124116723D02*
X122142855Y-124116723D01*
X119714284Y-124354819D02*
X119714284Y-123831009D01*
X119714284Y-123831009D02*
X119761903Y-123735771D01*
X119761903Y-123735771D02*
X119857141Y-123688152D01*
X119857141Y-123688152D02*
X120047617Y-123688152D01*
X120047617Y-123688152D02*
X120142855Y-123735771D01*
X119714284Y-124307200D02*
X119809522Y-124354819D01*
X119809522Y-124354819D02*
X120047617Y-124354819D01*
X120047617Y-124354819D02*
X120142855Y-124307200D01*
X120142855Y-124307200D02*
X120190474Y-124211961D01*
X120190474Y-124211961D02*
X120190474Y-124116723D01*
X120190474Y-124116723D02*
X120142855Y-124021485D01*
X120142855Y-124021485D02*
X120047617Y-123973866D01*
X120047617Y-123973866D02*
X119809522Y-123973866D01*
X119809522Y-123973866D02*
X119714284Y-123926247D01*
X119380950Y-123688152D02*
X118999998Y-123688152D01*
X119238093Y-123354819D02*
X119238093Y-124211961D01*
X119238093Y-124211961D02*
X119190474Y-124307200D01*
X119190474Y-124307200D02*
X119095236Y-124354819D01*
X119095236Y-124354819D02*
X118999998Y-124354819D01*
X118666664Y-124354819D02*
X118666664Y-123688152D01*
X118666664Y-123354819D02*
X118714283Y-123402438D01*
X118714283Y-123402438D02*
X118666664Y-123450057D01*
X118666664Y-123450057D02*
X118619045Y-123402438D01*
X118619045Y-123402438D02*
X118666664Y-123354819D01*
X118666664Y-123354819D02*
X118666664Y-123450057D01*
X118285712Y-123688152D02*
X118047617Y-124354819D01*
X118047617Y-124354819D02*
X117809522Y-123688152D01*
X117285712Y-124354819D02*
X117380950Y-124307200D01*
X117380950Y-124307200D02*
X117428569Y-124259580D01*
X117428569Y-124259580D02*
X117476188Y-124164342D01*
X117476188Y-124164342D02*
X117476188Y-123878628D01*
X117476188Y-123878628D02*
X117428569Y-123783390D01*
X117428569Y-123783390D02*
X117380950Y-123735771D01*
X117380950Y-123735771D02*
X117285712Y-123688152D01*
X117285712Y-123688152D02*
X117142855Y-123688152D01*
X117142855Y-123688152D02*
X117047617Y-123735771D01*
X117047617Y-123735771D02*
X116999998Y-123783390D01*
X116999998Y-123783390D02*
X116952379Y-123878628D01*
X116952379Y-123878628D02*
X116952379Y-124164342D01*
X116952379Y-124164342D02*
X116999998Y-124259580D01*
X116999998Y-124259580D02*
X117047617Y-124307200D01*
X117047617Y-124307200D02*
X117142855Y-124354819D01*
X117142855Y-124354819D02*
X117285712Y-124354819D01*
D12*
X150799998Y-136088640D02*
X150914283Y-136145782D01*
X150914283Y-136145782D02*
X151142855Y-136145782D01*
X151142855Y-136145782D02*
X151257140Y-136088640D01*
X151257140Y-136088640D02*
X151314283Y-136031497D01*
X151314283Y-136031497D02*
X151371426Y-135917211D01*
X151371426Y-135917211D02*
X151371426Y-135574354D01*
X151371426Y-135574354D02*
X151314283Y-135460068D01*
X151314283Y-135460068D02*
X151257140Y-135402925D01*
X151257140Y-135402925D02*
X151142855Y-135345782D01*
X151142855Y-135345782D02*
X150914283Y-135345782D01*
X150914283Y-135345782D02*
X150799998Y-135402925D01*
X149771427Y-136145782D02*
X149771427Y-135517211D01*
X149771427Y-135517211D02*
X149828569Y-135402925D01*
X149828569Y-135402925D02*
X149942855Y-135345782D01*
X149942855Y-135345782D02*
X150171427Y-135345782D01*
X150171427Y-135345782D02*
X150285712Y-135402925D01*
X149771427Y-136088640D02*
X149885712Y-136145782D01*
X149885712Y-136145782D02*
X150171427Y-136145782D01*
X150171427Y-136145782D02*
X150285712Y-136088640D01*
X150285712Y-136088640D02*
X150342855Y-135974354D01*
X150342855Y-135974354D02*
X150342855Y-135860068D01*
X150342855Y-135860068D02*
X150285712Y-135745782D01*
X150285712Y-135745782D02*
X150171427Y-135688640D01*
X150171427Y-135688640D02*
X149885712Y-135688640D01*
X149885712Y-135688640D02*
X149771427Y-135631497D01*
X149199998Y-136145782D02*
X149199998Y-135345782D01*
X149199998Y-135574354D02*
X149142855Y-135460068D01*
X149142855Y-135460068D02*
X149085713Y-135402925D01*
X149085713Y-135402925D02*
X148971427Y-135345782D01*
X148971427Y-135345782D02*
X148857141Y-135345782D01*
X148628570Y-135345782D02*
X148171427Y-135345782D01*
X148457141Y-134945782D02*
X148457141Y-135974354D01*
X148457141Y-135974354D02*
X148399998Y-136088640D01*
X148399998Y-136088640D02*
X148285713Y-136145782D01*
X148285713Y-136145782D02*
X148171427Y-136145782D01*
X147257142Y-135345782D02*
X147257142Y-136145782D01*
X147771427Y-135345782D02*
X147771427Y-135974354D01*
X147771427Y-135974354D02*
X147714284Y-136088640D01*
X147714284Y-136088640D02*
X147599999Y-136145782D01*
X147599999Y-136145782D02*
X147428570Y-136145782D01*
X147428570Y-136145782D02*
X147314284Y-136088640D01*
X147314284Y-136088640D02*
X147257142Y-136031497D01*
X146171428Y-136088640D02*
X146285713Y-136145782D01*
X146285713Y-136145782D02*
X146514285Y-136145782D01*
X146514285Y-136145782D02*
X146628570Y-136088640D01*
X146628570Y-136088640D02*
X146685713Y-136031497D01*
X146685713Y-136031497D02*
X146742856Y-135917211D01*
X146742856Y-135917211D02*
X146742856Y-135574354D01*
X146742856Y-135574354D02*
X146685713Y-135460068D01*
X146685713Y-135460068D02*
X146628570Y-135402925D01*
X146628570Y-135402925D02*
X146514285Y-135345782D01*
X146514285Y-135345782D02*
X146285713Y-135345782D01*
X146285713Y-135345782D02*
X146171428Y-135402925D01*
X145657142Y-136145782D02*
X145657142Y-134945782D01*
X145142857Y-136145782D02*
X145142857Y-135517211D01*
X145142857Y-135517211D02*
X145199999Y-135402925D01*
X145199999Y-135402925D02*
X145314285Y-135345782D01*
X145314285Y-135345782D02*
X145485714Y-135345782D01*
X145485714Y-135345782D02*
X145599999Y-135402925D01*
X145599999Y-135402925D02*
X145657142Y-135460068D01*
X144400000Y-136145782D02*
X144514285Y-136088640D01*
X144514285Y-136088640D02*
X144571428Y-136031497D01*
X144571428Y-136031497D02*
X144628571Y-135917211D01*
X144628571Y-135917211D02*
X144628571Y-135574354D01*
X144628571Y-135574354D02*
X144571428Y-135460068D01*
X144571428Y-135460068D02*
X144514285Y-135402925D01*
X144514285Y-135402925D02*
X144400000Y-135345782D01*
X144400000Y-135345782D02*
X144228571Y-135345782D01*
X144228571Y-135345782D02*
X144114285Y-135402925D01*
X144114285Y-135402925D02*
X144057143Y-135460068D01*
X144057143Y-135460068D02*
X144000000Y-135574354D01*
X144000000Y-135574354D02*
X144000000Y-135917211D01*
X144000000Y-135917211D02*
X144057143Y-136031497D01*
X144057143Y-136031497D02*
X144114285Y-136088640D01*
X144114285Y-136088640D02*
X144228571Y-136145782D01*
X144228571Y-136145782D02*
X144400000Y-136145782D01*
X142057143Y-136145782D02*
X142057143Y-134945782D01*
X142057143Y-136088640D02*
X142171428Y-136145782D01*
X142171428Y-136145782D02*
X142400000Y-136145782D01*
X142400000Y-136145782D02*
X142514285Y-136088640D01*
X142514285Y-136088640D02*
X142571428Y-136031497D01*
X142571428Y-136031497D02*
X142628571Y-135917211D01*
X142628571Y-135917211D02*
X142628571Y-135574354D01*
X142628571Y-135574354D02*
X142571428Y-135460068D01*
X142571428Y-135460068D02*
X142514285Y-135402925D01*
X142514285Y-135402925D02*
X142400000Y-135345782D01*
X142400000Y-135345782D02*
X142171428Y-135345782D01*
X142171428Y-135345782D02*
X142057143Y-135402925D01*
X141028571Y-136088640D02*
X141142857Y-136145782D01*
X141142857Y-136145782D02*
X141371429Y-136145782D01*
X141371429Y-136145782D02*
X141485714Y-136088640D01*
X141485714Y-136088640D02*
X141542857Y-135974354D01*
X141542857Y-135974354D02*
X141542857Y-135517211D01*
X141542857Y-135517211D02*
X141485714Y-135402925D01*
X141485714Y-135402925D02*
X141371429Y-135345782D01*
X141371429Y-135345782D02*
X141142857Y-135345782D01*
X141142857Y-135345782D02*
X141028571Y-135402925D01*
X141028571Y-135402925D02*
X140971429Y-135517211D01*
X140971429Y-135517211D02*
X140971429Y-135631497D01*
X140971429Y-135631497D02*
X141542857Y-135745782D01*
X138857143Y-136145782D02*
X139257143Y-135574354D01*
X139542857Y-136145782D02*
X139542857Y-134945782D01*
X139542857Y-134945782D02*
X139085714Y-134945782D01*
X139085714Y-134945782D02*
X138971429Y-135002925D01*
X138971429Y-135002925D02*
X138914286Y-135060068D01*
X138914286Y-135060068D02*
X138857143Y-135174354D01*
X138857143Y-135174354D02*
X138857143Y-135345782D01*
X138857143Y-135345782D02*
X138914286Y-135460068D01*
X138914286Y-135460068D02*
X138971429Y-135517211D01*
X138971429Y-135517211D02*
X139085714Y-135574354D01*
X139085714Y-135574354D02*
X139542857Y-135574354D01*
X138114286Y-134945782D02*
X137885714Y-134945782D01*
X137885714Y-134945782D02*
X137771429Y-135002925D01*
X137771429Y-135002925D02*
X137657143Y-135117211D01*
X137657143Y-135117211D02*
X137600000Y-135345782D01*
X137600000Y-135345782D02*
X137600000Y-135745782D01*
X137600000Y-135745782D02*
X137657143Y-135974354D01*
X137657143Y-135974354D02*
X137771429Y-136088640D01*
X137771429Y-136088640D02*
X137885714Y-136145782D01*
X137885714Y-136145782D02*
X138114286Y-136145782D01*
X138114286Y-136145782D02*
X138228572Y-136088640D01*
X138228572Y-136088640D02*
X138342857Y-135974354D01*
X138342857Y-135974354D02*
X138400000Y-135745782D01*
X138400000Y-135745782D02*
X138400000Y-135345782D01*
X138400000Y-135345782D02*
X138342857Y-135117211D01*
X138342857Y-135117211D02*
X138228572Y-135002925D01*
X138228572Y-135002925D02*
X138114286Y-134945782D01*
X137085714Y-136145782D02*
X137085714Y-134945782D01*
X137085714Y-134945782D02*
X136685714Y-135802925D01*
X136685714Y-135802925D02*
X136285714Y-134945782D01*
X136285714Y-134945782D02*
X136285714Y-136145782D01*
X134799999Y-135688640D02*
X133885714Y-135688640D01*
X131885714Y-136088640D02*
X131999999Y-136145782D01*
X131999999Y-136145782D02*
X132228571Y-136145782D01*
X132228571Y-136145782D02*
X132342856Y-136088640D01*
X132342856Y-136088640D02*
X132399999Y-136031497D01*
X132399999Y-136031497D02*
X132457142Y-135917211D01*
X132457142Y-135917211D02*
X132457142Y-135574354D01*
X132457142Y-135574354D02*
X132399999Y-135460068D01*
X132399999Y-135460068D02*
X132342856Y-135402925D01*
X132342856Y-135402925D02*
X132228571Y-135345782D01*
X132228571Y-135345782D02*
X131999999Y-135345782D01*
X131999999Y-135345782D02*
X131885714Y-135402925D01*
X131200000Y-136145782D02*
X131314285Y-136088640D01*
X131314285Y-136088640D02*
X131371428Y-136031497D01*
X131371428Y-136031497D02*
X131428571Y-135917211D01*
X131428571Y-135917211D02*
X131428571Y-135574354D01*
X131428571Y-135574354D02*
X131371428Y-135460068D01*
X131371428Y-135460068D02*
X131314285Y-135402925D01*
X131314285Y-135402925D02*
X131200000Y-135345782D01*
X131200000Y-135345782D02*
X131028571Y-135345782D01*
X131028571Y-135345782D02*
X130914285Y-135402925D01*
X130914285Y-135402925D02*
X130857143Y-135460068D01*
X130857143Y-135460068D02*
X130800000Y-135574354D01*
X130800000Y-135574354D02*
X130800000Y-135917211D01*
X130800000Y-135917211D02*
X130857143Y-136031497D01*
X130857143Y-136031497D02*
X130914285Y-136088640D01*
X130914285Y-136088640D02*
X131028571Y-136145782D01*
X131028571Y-136145782D02*
X131200000Y-136145782D01*
X130285714Y-135345782D02*
X130285714Y-136145782D01*
X130285714Y-135460068D02*
X130228571Y-135402925D01*
X130228571Y-135402925D02*
X130114286Y-135345782D01*
X130114286Y-135345782D02*
X129942857Y-135345782D01*
X129942857Y-135345782D02*
X129828571Y-135402925D01*
X129828571Y-135402925D02*
X129771429Y-135517211D01*
X129771429Y-135517211D02*
X129771429Y-136145782D01*
X128742857Y-136088640D02*
X128857143Y-136145782D01*
X128857143Y-136145782D02*
X129085715Y-136145782D01*
X129085715Y-136145782D02*
X129200000Y-136088640D01*
X129200000Y-136088640D02*
X129257143Y-135974354D01*
X129257143Y-135974354D02*
X129257143Y-135517211D01*
X129257143Y-135517211D02*
X129200000Y-135402925D01*
X129200000Y-135402925D02*
X129085715Y-135345782D01*
X129085715Y-135345782D02*
X128857143Y-135345782D01*
X128857143Y-135345782D02*
X128742857Y-135402925D01*
X128742857Y-135402925D02*
X128685715Y-135517211D01*
X128685715Y-135517211D02*
X128685715Y-135631497D01*
X128685715Y-135631497D02*
X129257143Y-135745782D01*
X127657144Y-136088640D02*
X127771429Y-136145782D01*
X127771429Y-136145782D02*
X128000001Y-136145782D01*
X128000001Y-136145782D02*
X128114286Y-136088640D01*
X128114286Y-136088640D02*
X128171429Y-136031497D01*
X128171429Y-136031497D02*
X128228572Y-135917211D01*
X128228572Y-135917211D02*
X128228572Y-135574354D01*
X128228572Y-135574354D02*
X128171429Y-135460068D01*
X128171429Y-135460068D02*
X128114286Y-135402925D01*
X128114286Y-135402925D02*
X128000001Y-135345782D01*
X128000001Y-135345782D02*
X127771429Y-135345782D01*
X127771429Y-135345782D02*
X127657144Y-135402925D01*
X127314287Y-135345782D02*
X126857144Y-135345782D01*
X127142858Y-134945782D02*
X127142858Y-135974354D01*
X127142858Y-135974354D02*
X127085715Y-136088640D01*
X127085715Y-136088640D02*
X126971430Y-136145782D01*
X126971430Y-136145782D02*
X126857144Y-136145782D01*
X126285716Y-136145782D02*
X126400001Y-136088640D01*
X126400001Y-136088640D02*
X126457144Y-136031497D01*
X126457144Y-136031497D02*
X126514287Y-135917211D01*
X126514287Y-135917211D02*
X126514287Y-135574354D01*
X126514287Y-135574354D02*
X126457144Y-135460068D01*
X126457144Y-135460068D02*
X126400001Y-135402925D01*
X126400001Y-135402925D02*
X126285716Y-135345782D01*
X126285716Y-135345782D02*
X126114287Y-135345782D01*
X126114287Y-135345782D02*
X126000001Y-135402925D01*
X126000001Y-135402925D02*
X125942859Y-135460068D01*
X125942859Y-135460068D02*
X125885716Y-135574354D01*
X125885716Y-135574354D02*
X125885716Y-135917211D01*
X125885716Y-135917211D02*
X125942859Y-136031497D01*
X125942859Y-136031497D02*
X126000001Y-136088640D01*
X126000001Y-136088640D02*
X126114287Y-136145782D01*
X126114287Y-136145782D02*
X126285716Y-136145782D01*
X125371430Y-136145782D02*
X125371430Y-135345782D01*
X125371430Y-135574354D02*
X125314287Y-135460068D01*
X125314287Y-135460068D02*
X125257145Y-135402925D01*
X125257145Y-135402925D02*
X125142859Y-135345782D01*
X125142859Y-135345782D02*
X125028573Y-135345782D01*
X123028573Y-136031497D02*
X123085716Y-136088640D01*
X123085716Y-136088640D02*
X123257144Y-136145782D01*
X123257144Y-136145782D02*
X123371430Y-136145782D01*
X123371430Y-136145782D02*
X123542859Y-136088640D01*
X123542859Y-136088640D02*
X123657144Y-135974354D01*
X123657144Y-135974354D02*
X123714287Y-135860068D01*
X123714287Y-135860068D02*
X123771430Y-135631497D01*
X123771430Y-135631497D02*
X123771430Y-135460068D01*
X123771430Y-135460068D02*
X123714287Y-135231497D01*
X123714287Y-135231497D02*
X123657144Y-135117211D01*
X123657144Y-135117211D02*
X123542859Y-135002925D01*
X123542859Y-135002925D02*
X123371430Y-134945782D01*
X123371430Y-134945782D02*
X123257144Y-134945782D01*
X123257144Y-134945782D02*
X123085716Y-135002925D01*
X123085716Y-135002925D02*
X123028573Y-135060068D01*
X122514287Y-136145782D02*
X122514287Y-134945782D01*
X122514287Y-134945782D02*
X121828573Y-136145782D01*
X121828573Y-136145782D02*
X121828573Y-134945782D01*
X120628573Y-136145782D02*
X121314287Y-136145782D01*
X120971430Y-136145782D02*
X120971430Y-134945782D01*
X120971430Y-134945782D02*
X121085716Y-135117211D01*
X121085716Y-135117211D02*
X121200001Y-135231497D01*
X121200001Y-135231497D02*
X121314287Y-135288640D01*
D13*
X145914284Y-138814091D02*
X145514284Y-138814091D01*
X145342856Y-139442662D02*
X145914284Y-139442662D01*
X145914284Y-139442662D02*
X145914284Y-138242662D01*
X145914284Y-138242662D02*
X145342856Y-138242662D01*
X144885713Y-139385520D02*
X144714285Y-139442662D01*
X144714285Y-139442662D02*
X144428570Y-139442662D01*
X144428570Y-139442662D02*
X144314285Y-139385520D01*
X144314285Y-139385520D02*
X144257142Y-139328377D01*
X144257142Y-139328377D02*
X144199999Y-139214091D01*
X144199999Y-139214091D02*
X144199999Y-139099805D01*
X144199999Y-139099805D02*
X144257142Y-138985520D01*
X144257142Y-138985520D02*
X144314285Y-138928377D01*
X144314285Y-138928377D02*
X144428570Y-138871234D01*
X144428570Y-138871234D02*
X144657142Y-138814091D01*
X144657142Y-138814091D02*
X144771427Y-138756948D01*
X144771427Y-138756948D02*
X144828570Y-138699805D01*
X144828570Y-138699805D02*
X144885713Y-138585520D01*
X144885713Y-138585520D02*
X144885713Y-138471234D01*
X144885713Y-138471234D02*
X144828570Y-138356948D01*
X144828570Y-138356948D02*
X144771427Y-138299805D01*
X144771427Y-138299805D02*
X144657142Y-138242662D01*
X144657142Y-138242662D02*
X144371427Y-138242662D01*
X144371427Y-138242662D02*
X144199999Y-138299805D01*
X143857142Y-138242662D02*
X143171428Y-138242662D01*
X143514285Y-139442662D02*
X143514285Y-138242662D01*
X142771427Y-138814091D02*
X142371427Y-138814091D01*
X142199999Y-139442662D02*
X142771427Y-139442662D01*
X142771427Y-139442662D02*
X142771427Y-138242662D01*
X142771427Y-138242662D02*
X142199999Y-138242662D01*
X140199999Y-139442662D02*
X140771427Y-139442662D01*
X140771427Y-139442662D02*
X140771427Y-138242662D01*
X139857141Y-139099805D02*
X139285713Y-139099805D01*
X139971427Y-139442662D02*
X139571427Y-138242662D01*
X139571427Y-138242662D02*
X139171427Y-139442662D01*
X138771427Y-139442662D02*
X138771427Y-138242662D01*
X138771427Y-138242662D02*
X138485713Y-138242662D01*
X138485713Y-138242662D02*
X138314284Y-138299805D01*
X138314284Y-138299805D02*
X138199999Y-138414091D01*
X138199999Y-138414091D02*
X138142856Y-138528377D01*
X138142856Y-138528377D02*
X138085713Y-138756948D01*
X138085713Y-138756948D02*
X138085713Y-138928377D01*
X138085713Y-138928377D02*
X138142856Y-139156948D01*
X138142856Y-139156948D02*
X138199999Y-139271234D01*
X138199999Y-139271234D02*
X138314284Y-139385520D01*
X138314284Y-139385520D02*
X138485713Y-139442662D01*
X138485713Y-139442662D02*
X138771427Y-139442662D01*
X137342856Y-138242662D02*
X137114284Y-138242662D01*
X137114284Y-138242662D02*
X136999999Y-138299805D01*
X136999999Y-138299805D02*
X136885713Y-138414091D01*
X136885713Y-138414091D02*
X136828570Y-138642662D01*
X136828570Y-138642662D02*
X136828570Y-139042662D01*
X136828570Y-139042662D02*
X136885713Y-139271234D01*
X136885713Y-139271234D02*
X136999999Y-139385520D01*
X136999999Y-139385520D02*
X137114284Y-139442662D01*
X137114284Y-139442662D02*
X137342856Y-139442662D01*
X137342856Y-139442662D02*
X137457142Y-139385520D01*
X137457142Y-139385520D02*
X137571427Y-139271234D01*
X137571427Y-139271234D02*
X137628570Y-139042662D01*
X137628570Y-139042662D02*
X137628570Y-138642662D01*
X137628570Y-138642662D02*
X137571427Y-138414091D01*
X137571427Y-138414091D02*
X137457142Y-138299805D01*
X137457142Y-138299805D02*
X137342856Y-138242662D01*
X135399998Y-139442662D02*
X135399998Y-138242662D01*
X135399998Y-138242662D02*
X134942855Y-138242662D01*
X134942855Y-138242662D02*
X134828570Y-138299805D01*
X134828570Y-138299805D02*
X134771427Y-138356948D01*
X134771427Y-138356948D02*
X134714284Y-138471234D01*
X134714284Y-138471234D02*
X134714284Y-138642662D01*
X134714284Y-138642662D02*
X134771427Y-138756948D01*
X134771427Y-138756948D02*
X134828570Y-138814091D01*
X134828570Y-138814091D02*
X134942855Y-138871234D01*
X134942855Y-138871234D02*
X135399998Y-138871234D01*
X134257141Y-139099805D02*
X133685713Y-139099805D01*
X134371427Y-139442662D02*
X133971427Y-138242662D01*
X133971427Y-138242662D02*
X133571427Y-139442662D01*
X132485713Y-139442662D02*
X132885713Y-138871234D01*
X133171427Y-139442662D02*
X133171427Y-138242662D01*
X133171427Y-138242662D02*
X132714284Y-138242662D01*
X132714284Y-138242662D02*
X132599999Y-138299805D01*
X132599999Y-138299805D02*
X132542856Y-138356948D01*
X132542856Y-138356948D02*
X132485713Y-138471234D01*
X132485713Y-138471234D02*
X132485713Y-138642662D01*
X132485713Y-138642662D02*
X132542856Y-138756948D01*
X132542856Y-138756948D02*
X132599999Y-138814091D01*
X132599999Y-138814091D02*
X132714284Y-138871234D01*
X132714284Y-138871234D02*
X133171427Y-138871234D01*
X132028570Y-139099805D02*
X131457142Y-139099805D01*
X132142856Y-139442662D02*
X131742856Y-138242662D01*
X131742856Y-138242662D02*
X131342856Y-139442662D01*
X129628570Y-138814091D02*
X130028570Y-138814091D01*
X130028570Y-139442662D02*
X130028570Y-138242662D01*
X130028570Y-138242662D02*
X129457142Y-138242662D01*
X128771428Y-138242662D02*
X128542856Y-138242662D01*
X128542856Y-138242662D02*
X128428571Y-138299805D01*
X128428571Y-138299805D02*
X128314285Y-138414091D01*
X128314285Y-138414091D02*
X128257142Y-138642662D01*
X128257142Y-138642662D02*
X128257142Y-139042662D01*
X128257142Y-139042662D02*
X128314285Y-139271234D01*
X128314285Y-139271234D02*
X128428571Y-139385520D01*
X128428571Y-139385520D02*
X128542856Y-139442662D01*
X128542856Y-139442662D02*
X128771428Y-139442662D01*
X128771428Y-139442662D02*
X128885714Y-139385520D01*
X128885714Y-139385520D02*
X128999999Y-139271234D01*
X128999999Y-139271234D02*
X129057142Y-139042662D01*
X129057142Y-139042662D02*
X129057142Y-138642662D01*
X129057142Y-138642662D02*
X128999999Y-138414091D01*
X128999999Y-138414091D02*
X128885714Y-138299805D01*
X128885714Y-138299805D02*
X128771428Y-138242662D01*
X127057142Y-139442662D02*
X127457142Y-138871234D01*
X127742856Y-139442662D02*
X127742856Y-138242662D01*
X127742856Y-138242662D02*
X127285713Y-138242662D01*
X127285713Y-138242662D02*
X127171428Y-138299805D01*
X127171428Y-138299805D02*
X127114285Y-138356948D01*
X127114285Y-138356948D02*
X127057142Y-138471234D01*
X127057142Y-138471234D02*
X127057142Y-138642662D01*
X127057142Y-138642662D02*
X127114285Y-138756948D01*
X127114285Y-138756948D02*
X127171428Y-138814091D01*
X127171428Y-138814091D02*
X127285713Y-138871234D01*
X127285713Y-138871234D02*
X127742856Y-138871234D01*
X126599999Y-139099805D02*
X126028571Y-139099805D01*
X126714285Y-139442662D02*
X126314285Y-138242662D01*
X126314285Y-138242662D02*
X125914285Y-139442662D01*
D14*
X146357142Y-129856657D02*
X145357142Y-132856657D01*
X145357142Y-132856657D02*
X144357142Y-129856657D01*
X143357142Y-131285228D02*
X142357142Y-131285228D01*
X141928570Y-132856657D02*
X143357142Y-132856657D01*
X143357142Y-132856657D02*
X143357142Y-129856657D01*
X143357142Y-129856657D02*
X141928570Y-129856657D01*
X141071427Y-129856657D02*
X139357142Y-129856657D01*
X140214284Y-132856657D02*
X140214284Y-129856657D01*
X136357142Y-129856657D02*
X134499999Y-129856657D01*
X134499999Y-129856657D02*
X135499999Y-130999514D01*
X135499999Y-130999514D02*
X135071428Y-130999514D01*
X135071428Y-130999514D02*
X134785714Y-131142371D01*
X134785714Y-131142371D02*
X134642856Y-131285228D01*
X134642856Y-131285228D02*
X134499999Y-131570942D01*
X134499999Y-131570942D02*
X134499999Y-132285228D01*
X134499999Y-132285228D02*
X134642856Y-132570942D01*
X134642856Y-132570942D02*
X134785714Y-132713800D01*
X134785714Y-132713800D02*
X135071428Y-132856657D01*
X135071428Y-132856657D02*
X135928571Y-132856657D01*
X135928571Y-132856657D02*
X136214285Y-132713800D01*
X136214285Y-132713800D02*
X136357142Y-132570942D01*
X132642856Y-129856657D02*
X132357142Y-129856657D01*
X132357142Y-129856657D02*
X132071428Y-129999514D01*
X132071428Y-129999514D02*
X131928571Y-130142371D01*
X131928571Y-130142371D02*
X131785713Y-130428085D01*
X131785713Y-130428085D02*
X131642856Y-130999514D01*
X131642856Y-130999514D02*
X131642856Y-131713800D01*
X131642856Y-131713800D02*
X131785713Y-132285228D01*
X131785713Y-132285228D02*
X131928571Y-132570942D01*
X131928571Y-132570942D02*
X132071428Y-132713800D01*
X132071428Y-132713800D02*
X132357142Y-132856657D01*
X132357142Y-132856657D02*
X132642856Y-132856657D01*
X132642856Y-132856657D02*
X132928571Y-132713800D01*
X132928571Y-132713800D02*
X133071428Y-132570942D01*
X133071428Y-132570942D02*
X133214285Y-132285228D01*
X133214285Y-132285228D02*
X133357142Y-131713800D01*
X133357142Y-131713800D02*
X133357142Y-130999514D01*
X133357142Y-130999514D02*
X133214285Y-130428085D01*
X133214285Y-130428085D02*
X133071428Y-130142371D01*
X133071428Y-130142371D02*
X132928571Y-129999514D01*
X132928571Y-129999514D02*
X132642856Y-129856657D01*
X129785713Y-129856657D02*
X129499999Y-129856657D01*
X129499999Y-129856657D02*
X129214285Y-129999514D01*
X129214285Y-129999514D02*
X129071428Y-130142371D01*
X129071428Y-130142371D02*
X128928570Y-130428085D01*
X128928570Y-130428085D02*
X128785713Y-130999514D01*
X128785713Y-130999514D02*
X128785713Y-131713800D01*
X128785713Y-131713800D02*
X128928570Y-132285228D01*
X128928570Y-132285228D02*
X129071428Y-132570942D01*
X129071428Y-132570942D02*
X129214285Y-132713800D01*
X129214285Y-132713800D02*
X129499999Y-132856657D01*
X129499999Y-132856657D02*
X129785713Y-132856657D01*
X129785713Y-132856657D02*
X130071428Y-132713800D01*
X130071428Y-132713800D02*
X130214285Y-132570942D01*
X130214285Y-132570942D02*
X130357142Y-132285228D01*
X130357142Y-132285228D02*
X130499999Y-131713800D01*
X130499999Y-131713800D02*
X130499999Y-130999514D01*
X130499999Y-130999514D02*
X130357142Y-130428085D01*
X130357142Y-130428085D02*
X130214285Y-130142371D01*
X130214285Y-130142371D02*
X130071428Y-129999514D01*
X130071428Y-129999514D02*
X129785713Y-129856657D01*
X126928570Y-129856657D02*
X126642856Y-129856657D01*
X126642856Y-129856657D02*
X126357142Y-129999514D01*
X126357142Y-129999514D02*
X126214285Y-130142371D01*
X126214285Y-130142371D02*
X126071427Y-130428085D01*
X126071427Y-130428085D02*
X125928570Y-130999514D01*
X125928570Y-130999514D02*
X125928570Y-131713800D01*
X125928570Y-131713800D02*
X126071427Y-132285228D01*
X126071427Y-132285228D02*
X126214285Y-132570942D01*
X126214285Y-132570942D02*
X126357142Y-132713800D01*
X126357142Y-132713800D02*
X126642856Y-132856657D01*
X126642856Y-132856657D02*
X126928570Y-132856657D01*
X126928570Y-132856657D02*
X127214285Y-132713800D01*
X127214285Y-132713800D02*
X127357142Y-132570942D01*
X127357142Y-132570942D02*
X127499999Y-132285228D01*
X127499999Y-132285228D02*
X127642856Y-131713800D01*
X127642856Y-131713800D02*
X127642856Y-130999514D01*
X127642856Y-130999514D02*
X127499999Y-130428085D01*
X127499999Y-130428085D02*
X127357142Y-130142371D01*
X127357142Y-130142371D02*
X127214285Y-129999514D01*
X127214285Y-129999514D02*
X126928570Y-129856657D01*
%LPC*%
D15*
%TO.C,H1*%
X104500000Y-104500000D03*
%TD*%
D16*
%TO.C,J1*%
X157590000Y-150460000D03*
D17*
X155050000Y-150460000D03*
X152510000Y-150460000D03*
X149970000Y-150460000D03*
X147430000Y-150460000D03*
X144890000Y-150460000D03*
X142350000Y-150460000D03*
X139810000Y-150460000D03*
X137270000Y-150460000D03*
X134730000Y-150460000D03*
X132190000Y-150460000D03*
X129650000Y-150460000D03*
X127110000Y-150460000D03*
X124570000Y-150460000D03*
X122030000Y-150460000D03*
X119490000Y-150460000D03*
X116950000Y-150460000D03*
X114410000Y-150460000D03*
D16*
X157590000Y-155540000D03*
D17*
X155050000Y-155540000D03*
X152510000Y-155540000D03*
X149970000Y-155540000D03*
X147430000Y-155540000D03*
X144890000Y-155540000D03*
X142350000Y-155540000D03*
X139810000Y-155540000D03*
X137270000Y-155540000D03*
X134730000Y-155540000D03*
X132190000Y-155540000D03*
X129650000Y-155540000D03*
X127110000Y-155540000D03*
X124570000Y-155540000D03*
X122030000Y-155540000D03*
X119490000Y-155540000D03*
X116950000Y-155540000D03*
X114410000Y-155540000D03*
%TD*%
D18*
%TO.C,C3*%
X105000000Y-145000000D03*
D19*
X107000000Y-145000000D03*
%TD*%
D16*
%TO.C,J2*%
X112000000Y-104500000D03*
D17*
X114540000Y-104500000D03*
X117080000Y-104500000D03*
X119620000Y-104500000D03*
X122160000Y-104500000D03*
X124700000Y-104500000D03*
X127240000Y-104500000D03*
X129780000Y-104500000D03*
%TD*%
D19*
%TO.C,C1*%
X158500000Y-136000000D03*
X158500000Y-131000000D03*
%TD*%
D16*
%TO.C,JP3*%
X158000000Y-116000000D03*
D17*
X158000000Y-118540000D03*
%TD*%
D20*
%TO.C,U2*%
X135000000Y-121000000D03*
D19*
X137540000Y-121000000D03*
X140080000Y-121000000D03*
X142620000Y-121000000D03*
X145160000Y-121000000D03*
X147700000Y-121000000D03*
X150240000Y-121000000D03*
X150240000Y-113380000D03*
X147700000Y-113380000D03*
X145160000Y-113380000D03*
X142620000Y-113380000D03*
X140080000Y-113380000D03*
X137540000Y-113380000D03*
X135000000Y-113380000D03*
%TD*%
%TO.C,R1*%
X165000000Y-124000000D03*
X165000000Y-116380000D03*
%TD*%
D16*
%TO.C,JP1*%
X105000000Y-131000000D03*
D17*
X105000000Y-133540000D03*
X105000000Y-136080000D03*
%TD*%
D15*
%TO.C,H2*%
X167500000Y-104500000D03*
%TD*%
D20*
%TO.C,U1*%
X119500000Y-142000000D03*
D19*
X122040000Y-142000000D03*
X124580000Y-142000000D03*
X127120000Y-142000000D03*
X129660000Y-142000000D03*
X132200000Y-142000000D03*
X134740000Y-142000000D03*
X137280000Y-142000000D03*
X139820000Y-142000000D03*
X142360000Y-142000000D03*
X144900000Y-142000000D03*
X147440000Y-142000000D03*
X149980000Y-142000000D03*
X152520000Y-142000000D03*
X152520000Y-126760000D03*
X149980000Y-126760000D03*
X147440000Y-126760000D03*
X144900000Y-126760000D03*
X142360000Y-126760000D03*
X139820000Y-126760000D03*
X137280000Y-126760000D03*
X134740000Y-126760000D03*
X132200000Y-126760000D03*
X129660000Y-126760000D03*
X127120000Y-126760000D03*
X124580000Y-126760000D03*
X122040000Y-126760000D03*
X119500000Y-126760000D03*
%TD*%
D16*
%TO.C,JP2*%
X105000000Y-118000000D03*
D17*
X105000000Y-120540000D03*
X105000000Y-123080000D03*
%TD*%
D19*
%TO.C,C2*%
X135000000Y-108000000D03*
X140000000Y-108000000D03*
%TD*%
%LPD*%
M02*
