%TF.GenerationSoftware,KiCad,Pcbnew,10.0.4*%
%TF.CreationDate,2026-09-27T12:18:16-03:00*%
%TF.ProjectId,vet3000_cartucho,76657433-3030-4305-9f63-617274756368,1.0*%
%TF.SameCoordinates,Original*%
%TF.FileFunction,Legend,Bot*%
%TF.FilePolarity,Positive*%
%FSLAX46Y46*%
G04 Gerber Fmt 4.6, Leading zero omitted, Abs format (unit mm)*
G04 Created by KiCad (PCBNEW 10.0.4) date 2026-09-27 12:18:16*
%MOMM*%
%LPD*%
G01*
G04 APERTURE LIST*
G04 Aperture macros list*
%AMRoundRect*
0 Rectangle with rounded corners*
0 $1 Rounding radius*
0 $2 $3 $4 $5 $6 $7 $8 $9 X,Y pos of 4 corners*
0 Add a 4 corners polygon primitive as box body*
4,1,4,$2,$3,$4,$5,$6,$7,$8,$9,$2,$3,0*
0 Add four circle primitives for the rounded corners*
1,1,$1+$1,$2,$3*
1,1,$1+$1,$4,$5*
1,1,$1+$1,$6,$7*
1,1,$1+$1,$8,$9*
0 Add four rect primitives between the rounded corners*
20,1,$1+$1,$2,$3,$4,$5,0*
20,1,$1+$1,$4,$5,$6,$7,0*
20,1,$1+$1,$6,$7,$8,$9,0*
20,1,$1+$1,$8,$9,$2,$3,0*%
G04 Aperture macros list end*
%ADD10C,0.120000*%
%ADD11C,0.150000*%
%ADD12C,0.180000*%
%ADD13C,0.240000*%
%ADD14C,0.520000*%
%ADD15C,3.200000*%
%ADD16R,1.700000X1.700000*%
%ADD17C,1.700000*%
%ADD18RoundRect,0.250000X-0.550000X-0.550000X0.550000X-0.550000X0.550000X0.550000X-0.550000X0.550000X0*%
%ADD19C,1.600000*%
%ADD20RoundRect,0.250000X0.550000X-0.550000X0.550000X0.550000X-0.550000X0.550000X-0.550000X-0.550000X0*%
G04 APERTURE END LIST*
D10*
X143752382Y-128530520D02*
X143752382Y-129178139D01*
X143752382Y-129178139D02*
X143790477Y-129254330D01*
X143790477Y-129254330D02*
X143828573Y-129292425D01*
X143828573Y-129292425D02*
X143904763Y-129330520D01*
X143904763Y-129330520D02*
X144019049Y-129330520D01*
X144019049Y-129330520D02*
X144095239Y-129292425D01*
X143752382Y-129025759D02*
X143828573Y-129063854D01*
X143828573Y-129063854D02*
X143980954Y-129063854D01*
X143980954Y-129063854D02*
X144057144Y-129025759D01*
X144057144Y-129025759D02*
X144095239Y-128987663D01*
X144095239Y-128987663D02*
X144133335Y-128911473D01*
X144133335Y-128911473D02*
X144133335Y-128682901D01*
X144133335Y-128682901D02*
X144095239Y-128606711D01*
X144095239Y-128606711D02*
X144057144Y-128568616D01*
X144057144Y-128568616D02*
X143980954Y-128530520D01*
X143980954Y-128530520D02*
X143828573Y-128530520D01*
X143828573Y-128530520D02*
X143752382Y-128568616D01*
X143371429Y-129063854D02*
X143371429Y-128530520D01*
X143371429Y-128263854D02*
X143409525Y-128301949D01*
X143409525Y-128301949D02*
X143371429Y-128340044D01*
X143371429Y-128340044D02*
X143333334Y-128301949D01*
X143333334Y-128301949D02*
X143371429Y-128263854D01*
X143371429Y-128263854D02*
X143371429Y-128340044D01*
X143104763Y-128530520D02*
X142800001Y-128530520D01*
X142990477Y-128263854D02*
X142990477Y-128949568D01*
X142990477Y-128949568D02*
X142952382Y-129025759D01*
X142952382Y-129025759D02*
X142876192Y-129063854D01*
X142876192Y-129063854D02*
X142800001Y-129063854D01*
X142533334Y-129063854D02*
X142533334Y-128263854D01*
X142190477Y-129063854D02*
X142190477Y-128644806D01*
X142190477Y-128644806D02*
X142228572Y-128568616D01*
X142228572Y-128568616D02*
X142304763Y-128530520D01*
X142304763Y-128530520D02*
X142419049Y-128530520D01*
X142419049Y-128530520D02*
X142495239Y-128568616D01*
X142495239Y-128568616D02*
X142533334Y-128606711D01*
X141466667Y-128530520D02*
X141466667Y-129063854D01*
X141809524Y-128530520D02*
X141809524Y-128949568D01*
X141809524Y-128949568D02*
X141771429Y-129025759D01*
X141771429Y-129025759D02*
X141695239Y-129063854D01*
X141695239Y-129063854D02*
X141580953Y-129063854D01*
X141580953Y-129063854D02*
X141504762Y-129025759D01*
X141504762Y-129025759D02*
X141466667Y-128987663D01*
X141085714Y-129063854D02*
X141085714Y-128263854D01*
X141085714Y-128568616D02*
X141009524Y-128530520D01*
X141009524Y-128530520D02*
X140857143Y-128530520D01*
X140857143Y-128530520D02*
X140780952Y-128568616D01*
X140780952Y-128568616D02*
X140742857Y-128606711D01*
X140742857Y-128606711D02*
X140704762Y-128682901D01*
X140704762Y-128682901D02*
X140704762Y-128911473D01*
X140704762Y-128911473D02*
X140742857Y-128987663D01*
X140742857Y-128987663D02*
X140780952Y-129025759D01*
X140780952Y-129025759D02*
X140857143Y-129063854D01*
X140857143Y-129063854D02*
X141009524Y-129063854D01*
X141009524Y-129063854D02*
X141085714Y-129025759D01*
X140361904Y-128987663D02*
X140323809Y-129025759D01*
X140323809Y-129025759D02*
X140361904Y-129063854D01*
X140361904Y-129063854D02*
X140400000Y-129025759D01*
X140400000Y-129025759D02*
X140361904Y-128987663D01*
X140361904Y-128987663D02*
X140361904Y-129063854D01*
X139638095Y-129025759D02*
X139714286Y-129063854D01*
X139714286Y-129063854D02*
X139866667Y-129063854D01*
X139866667Y-129063854D02*
X139942857Y-129025759D01*
X139942857Y-129025759D02*
X139980952Y-128987663D01*
X139980952Y-128987663D02*
X140019048Y-128911473D01*
X140019048Y-128911473D02*
X140019048Y-128682901D01*
X140019048Y-128682901D02*
X139980952Y-128606711D01*
X139980952Y-128606711D02*
X139942857Y-128568616D01*
X139942857Y-128568616D02*
X139866667Y-128530520D01*
X139866667Y-128530520D02*
X139714286Y-128530520D01*
X139714286Y-128530520D02*
X139638095Y-128568616D01*
X139180953Y-129063854D02*
X139257143Y-129025759D01*
X139257143Y-129025759D02*
X139295238Y-128987663D01*
X139295238Y-128987663D02*
X139333334Y-128911473D01*
X139333334Y-128911473D02*
X139333334Y-128682901D01*
X139333334Y-128682901D02*
X139295238Y-128606711D01*
X139295238Y-128606711D02*
X139257143Y-128568616D01*
X139257143Y-128568616D02*
X139180953Y-128530520D01*
X139180953Y-128530520D02*
X139066667Y-128530520D01*
X139066667Y-128530520D02*
X138990476Y-128568616D01*
X138990476Y-128568616D02*
X138952381Y-128606711D01*
X138952381Y-128606711D02*
X138914286Y-128682901D01*
X138914286Y-128682901D02*
X138914286Y-128911473D01*
X138914286Y-128911473D02*
X138952381Y-128987663D01*
X138952381Y-128987663D02*
X138990476Y-129025759D01*
X138990476Y-129025759D02*
X139066667Y-129063854D01*
X139066667Y-129063854D02*
X139180953Y-129063854D01*
X138571428Y-129063854D02*
X138571428Y-128530520D01*
X138571428Y-128606711D02*
X138533333Y-128568616D01*
X138533333Y-128568616D02*
X138457143Y-128530520D01*
X138457143Y-128530520D02*
X138342857Y-128530520D01*
X138342857Y-128530520D02*
X138266666Y-128568616D01*
X138266666Y-128568616D02*
X138228571Y-128644806D01*
X138228571Y-128644806D02*
X138228571Y-129063854D01*
X138228571Y-128644806D02*
X138190476Y-128568616D01*
X138190476Y-128568616D02*
X138114285Y-128530520D01*
X138114285Y-128530520D02*
X138000000Y-128530520D01*
X138000000Y-128530520D02*
X137923809Y-128568616D01*
X137923809Y-128568616D02*
X137885714Y-128644806D01*
X137885714Y-128644806D02*
X137885714Y-129063854D01*
X136933333Y-128225759D02*
X137619047Y-129254330D01*
X136552381Y-129063854D02*
X136628571Y-129025759D01*
X136628571Y-129025759D02*
X136666666Y-128949568D01*
X136666666Y-128949568D02*
X136666666Y-128263854D01*
X136247618Y-129063854D02*
X136247618Y-128530520D01*
X136247618Y-128682901D02*
X136209523Y-128606711D01*
X136209523Y-128606711D02*
X136171428Y-128568616D01*
X136171428Y-128568616D02*
X136095237Y-128530520D01*
X136095237Y-128530520D02*
X136019047Y-128530520D01*
X135752380Y-129063854D02*
X135752380Y-128530520D01*
X135752380Y-128682901D02*
X135714285Y-128606711D01*
X135714285Y-128606711D02*
X135676190Y-128568616D01*
X135676190Y-128568616D02*
X135599999Y-128530520D01*
X135599999Y-128530520D02*
X135523809Y-128530520D01*
X135142857Y-129063854D02*
X135219047Y-129025759D01*
X135219047Y-129025759D02*
X135257142Y-128987663D01*
X135257142Y-128987663D02*
X135295238Y-128911473D01*
X135295238Y-128911473D02*
X135295238Y-128682901D01*
X135295238Y-128682901D02*
X135257142Y-128606711D01*
X135257142Y-128606711D02*
X135219047Y-128568616D01*
X135219047Y-128568616D02*
X135142857Y-128530520D01*
X135142857Y-128530520D02*
X135028571Y-128530520D01*
X135028571Y-128530520D02*
X134952380Y-128568616D01*
X134952380Y-128568616D02*
X134914285Y-128606711D01*
X134914285Y-128606711D02*
X134876190Y-128682901D01*
X134876190Y-128682901D02*
X134876190Y-128911473D01*
X134876190Y-128911473D02*
X134914285Y-128987663D01*
X134914285Y-128987663D02*
X134952380Y-129025759D01*
X134952380Y-129025759D02*
X135028571Y-129063854D01*
X135028571Y-129063854D02*
X135142857Y-129063854D01*
X134571428Y-129025759D02*
X134495237Y-129063854D01*
X134495237Y-129063854D02*
X134342856Y-129063854D01*
X134342856Y-129063854D02*
X134266666Y-129025759D01*
X134266666Y-129025759D02*
X134228570Y-128949568D01*
X134228570Y-128949568D02*
X134228570Y-128911473D01*
X134228570Y-128911473D02*
X134266666Y-128835282D01*
X134266666Y-128835282D02*
X134342856Y-128797187D01*
X134342856Y-128797187D02*
X134457142Y-128797187D01*
X134457142Y-128797187D02*
X134533332Y-128759092D01*
X134533332Y-128759092D02*
X134571428Y-128682901D01*
X134571428Y-128682901D02*
X134571428Y-128644806D01*
X134571428Y-128644806D02*
X134533332Y-128568616D01*
X134533332Y-128568616D02*
X134457142Y-128530520D01*
X134457142Y-128530520D02*
X134342856Y-128530520D01*
X134342856Y-128530520D02*
X134266666Y-128568616D01*
X133542856Y-129063854D02*
X133542856Y-128644806D01*
X133542856Y-128644806D02*
X133580951Y-128568616D01*
X133580951Y-128568616D02*
X133657142Y-128530520D01*
X133657142Y-128530520D02*
X133809523Y-128530520D01*
X133809523Y-128530520D02*
X133885713Y-128568616D01*
X133542856Y-129025759D02*
X133619047Y-129063854D01*
X133619047Y-129063854D02*
X133809523Y-129063854D01*
X133809523Y-129063854D02*
X133885713Y-129025759D01*
X133885713Y-129025759D02*
X133923809Y-128949568D01*
X133923809Y-128949568D02*
X133923809Y-128873378D01*
X133923809Y-128873378D02*
X133885713Y-128797187D01*
X133885713Y-128797187D02*
X133809523Y-128759092D01*
X133809523Y-128759092D02*
X133619047Y-128759092D01*
X133619047Y-128759092D02*
X133542856Y-128720997D01*
X132590475Y-128225759D02*
X133276189Y-129254330D01*
X132399999Y-128530520D02*
X132209523Y-129063854D01*
X132209523Y-129063854D02*
X132019046Y-128530520D01*
X131409522Y-129025759D02*
X131485713Y-129063854D01*
X131485713Y-129063854D02*
X131638094Y-129063854D01*
X131638094Y-129063854D02*
X131714284Y-129025759D01*
X131714284Y-129025759D02*
X131752380Y-128949568D01*
X131752380Y-128949568D02*
X131752380Y-128644806D01*
X131752380Y-128644806D02*
X131714284Y-128568616D01*
X131714284Y-128568616D02*
X131638094Y-128530520D01*
X131638094Y-128530520D02*
X131485713Y-128530520D01*
X131485713Y-128530520D02*
X131409522Y-128568616D01*
X131409522Y-128568616D02*
X131371427Y-128644806D01*
X131371427Y-128644806D02*
X131371427Y-128720997D01*
X131371427Y-128720997D02*
X131752380Y-128797187D01*
X131142856Y-128530520D02*
X130838094Y-128530520D01*
X131028570Y-128263854D02*
X131028570Y-128949568D01*
X131028570Y-128949568D02*
X130990475Y-129025759D01*
X130990475Y-129025759D02*
X130914285Y-129063854D01*
X130914285Y-129063854D02*
X130838094Y-129063854D01*
X130647618Y-128263854D02*
X130152380Y-128263854D01*
X130152380Y-128263854D02*
X130419046Y-128568616D01*
X130419046Y-128568616D02*
X130304761Y-128568616D01*
X130304761Y-128568616D02*
X130228570Y-128606711D01*
X130228570Y-128606711D02*
X130190475Y-128644806D01*
X130190475Y-128644806D02*
X130152380Y-128720997D01*
X130152380Y-128720997D02*
X130152380Y-128911473D01*
X130152380Y-128911473D02*
X130190475Y-128987663D01*
X130190475Y-128987663D02*
X130228570Y-129025759D01*
X130228570Y-129025759D02*
X130304761Y-129063854D01*
X130304761Y-129063854D02*
X130533332Y-129063854D01*
X130533332Y-129063854D02*
X130609523Y-129025759D01*
X130609523Y-129025759D02*
X130647618Y-128987663D01*
X129657141Y-128263854D02*
X129580951Y-128263854D01*
X129580951Y-128263854D02*
X129504760Y-128301949D01*
X129504760Y-128301949D02*
X129466665Y-128340044D01*
X129466665Y-128340044D02*
X129428570Y-128416235D01*
X129428570Y-128416235D02*
X129390475Y-128568616D01*
X129390475Y-128568616D02*
X129390475Y-128759092D01*
X129390475Y-128759092D02*
X129428570Y-128911473D01*
X129428570Y-128911473D02*
X129466665Y-128987663D01*
X129466665Y-128987663D02*
X129504760Y-129025759D01*
X129504760Y-129025759D02*
X129580951Y-129063854D01*
X129580951Y-129063854D02*
X129657141Y-129063854D01*
X129657141Y-129063854D02*
X129733332Y-129025759D01*
X129733332Y-129025759D02*
X129771427Y-128987663D01*
X129771427Y-128987663D02*
X129809522Y-128911473D01*
X129809522Y-128911473D02*
X129847618Y-128759092D01*
X129847618Y-128759092D02*
X129847618Y-128568616D01*
X129847618Y-128568616D02*
X129809522Y-128416235D01*
X129809522Y-128416235D02*
X129771427Y-128340044D01*
X129771427Y-128340044D02*
X129733332Y-128301949D01*
X129733332Y-128301949D02*
X129657141Y-128263854D01*
X128895236Y-128263854D02*
X128819046Y-128263854D01*
X128819046Y-128263854D02*
X128742855Y-128301949D01*
X128742855Y-128301949D02*
X128704760Y-128340044D01*
X128704760Y-128340044D02*
X128666665Y-128416235D01*
X128666665Y-128416235D02*
X128628570Y-128568616D01*
X128628570Y-128568616D02*
X128628570Y-128759092D01*
X128628570Y-128759092D02*
X128666665Y-128911473D01*
X128666665Y-128911473D02*
X128704760Y-128987663D01*
X128704760Y-128987663D02*
X128742855Y-129025759D01*
X128742855Y-129025759D02*
X128819046Y-129063854D01*
X128819046Y-129063854D02*
X128895236Y-129063854D01*
X128895236Y-129063854D02*
X128971427Y-129025759D01*
X128971427Y-129025759D02*
X129009522Y-128987663D01*
X129009522Y-128987663D02*
X129047617Y-128911473D01*
X129047617Y-128911473D02*
X129085713Y-128759092D01*
X129085713Y-128759092D02*
X129085713Y-128568616D01*
X129085713Y-128568616D02*
X129047617Y-128416235D01*
X129047617Y-128416235D02*
X129009522Y-128340044D01*
X129009522Y-128340044D02*
X128971427Y-128301949D01*
X128971427Y-128301949D02*
X128895236Y-128263854D01*
X128133331Y-128263854D02*
X128057141Y-128263854D01*
X128057141Y-128263854D02*
X127980950Y-128301949D01*
X127980950Y-128301949D02*
X127942855Y-128340044D01*
X127942855Y-128340044D02*
X127904760Y-128416235D01*
X127904760Y-128416235D02*
X127866665Y-128568616D01*
X127866665Y-128568616D02*
X127866665Y-128759092D01*
X127866665Y-128759092D02*
X127904760Y-128911473D01*
X127904760Y-128911473D02*
X127942855Y-128987663D01*
X127942855Y-128987663D02*
X127980950Y-129025759D01*
X127980950Y-129025759D02*
X128057141Y-129063854D01*
X128057141Y-129063854D02*
X128133331Y-129063854D01*
X128133331Y-129063854D02*
X128209522Y-129025759D01*
X128209522Y-129025759D02*
X128247617Y-128987663D01*
X128247617Y-128987663D02*
X128285712Y-128911473D01*
X128285712Y-128911473D02*
X128323808Y-128759092D01*
X128323808Y-128759092D02*
X128323808Y-128568616D01*
X128323808Y-128568616D02*
X128285712Y-128416235D01*
X128285712Y-128416235D02*
X128247617Y-128340044D01*
X128247617Y-128340044D02*
X128209522Y-128301949D01*
X128209522Y-128301949D02*
X128133331Y-128263854D01*
X153085717Y-146968617D02*
X153123812Y-146930521D01*
X153123812Y-146930521D02*
X153200003Y-146816236D01*
X153200003Y-146816236D02*
X153238098Y-146740045D01*
X153238098Y-146740045D02*
X153276193Y-146625760D01*
X153276193Y-146625760D02*
X153314288Y-146435283D01*
X153314288Y-146435283D02*
X153314288Y-146282902D01*
X153314288Y-146282902D02*
X153276193Y-146092426D01*
X153276193Y-146092426D02*
X153238098Y-145978140D01*
X153238098Y-145978140D02*
X153200003Y-145901950D01*
X153200003Y-145901950D02*
X153123812Y-145787664D01*
X153123812Y-145787664D02*
X153085717Y-145749569D01*
X152438098Y-146625760D02*
X152514289Y-146663855D01*
X152514289Y-146663855D02*
X152666670Y-146663855D01*
X152666670Y-146663855D02*
X152742860Y-146625760D01*
X152742860Y-146625760D02*
X152780955Y-146587664D01*
X152780955Y-146587664D02*
X152819051Y-146511474D01*
X152819051Y-146511474D02*
X152819051Y-146282902D01*
X152819051Y-146282902D02*
X152780955Y-146206712D01*
X152780955Y-146206712D02*
X152742860Y-146168617D01*
X152742860Y-146168617D02*
X152666670Y-146130521D01*
X152666670Y-146130521D02*
X152514289Y-146130521D01*
X152514289Y-146130521D02*
X152438098Y-146168617D01*
X152171432Y-146968617D02*
X152133337Y-146930521D01*
X152133337Y-146930521D02*
X152057146Y-146816236D01*
X152057146Y-146816236D02*
X152019051Y-146740045D01*
X152019051Y-146740045D02*
X151980956Y-146625760D01*
X151980956Y-146625760D02*
X151942860Y-146435283D01*
X151942860Y-146435283D02*
X151942860Y-146282902D01*
X151942860Y-146282902D02*
X151980956Y-146092426D01*
X151980956Y-146092426D02*
X152019051Y-145978140D01*
X152019051Y-145978140D02*
X152057146Y-145901950D01*
X152057146Y-145901950D02*
X152133337Y-145787664D01*
X152133337Y-145787664D02*
X152171432Y-145749569D01*
X150990480Y-145940045D02*
X150952384Y-145901950D01*
X150952384Y-145901950D02*
X150876194Y-145863855D01*
X150876194Y-145863855D02*
X150685718Y-145863855D01*
X150685718Y-145863855D02*
X150609527Y-145901950D01*
X150609527Y-145901950D02*
X150571432Y-145940045D01*
X150571432Y-145940045D02*
X150533337Y-146016236D01*
X150533337Y-146016236D02*
X150533337Y-146092426D01*
X150533337Y-146092426D02*
X150571432Y-146206712D01*
X150571432Y-146206712D02*
X151028575Y-146663855D01*
X151028575Y-146663855D02*
X150533337Y-146663855D01*
X150038098Y-145863855D02*
X149961908Y-145863855D01*
X149961908Y-145863855D02*
X149885717Y-145901950D01*
X149885717Y-145901950D02*
X149847622Y-145940045D01*
X149847622Y-145940045D02*
X149809527Y-146016236D01*
X149809527Y-146016236D02*
X149771432Y-146168617D01*
X149771432Y-146168617D02*
X149771432Y-146359093D01*
X149771432Y-146359093D02*
X149809527Y-146511474D01*
X149809527Y-146511474D02*
X149847622Y-146587664D01*
X149847622Y-146587664D02*
X149885717Y-146625760D01*
X149885717Y-146625760D02*
X149961908Y-146663855D01*
X149961908Y-146663855D02*
X150038098Y-146663855D01*
X150038098Y-146663855D02*
X150114289Y-146625760D01*
X150114289Y-146625760D02*
X150152384Y-146587664D01*
X150152384Y-146587664D02*
X150190479Y-146511474D01*
X150190479Y-146511474D02*
X150228575Y-146359093D01*
X150228575Y-146359093D02*
X150228575Y-146168617D01*
X150228575Y-146168617D02*
X150190479Y-146016236D01*
X150190479Y-146016236D02*
X150152384Y-145940045D01*
X150152384Y-145940045D02*
X150114289Y-145901950D01*
X150114289Y-145901950D02*
X150038098Y-145863855D01*
X149466670Y-145940045D02*
X149428574Y-145901950D01*
X149428574Y-145901950D02*
X149352384Y-145863855D01*
X149352384Y-145863855D02*
X149161908Y-145863855D01*
X149161908Y-145863855D02*
X149085717Y-145901950D01*
X149085717Y-145901950D02*
X149047622Y-145940045D01*
X149047622Y-145940045D02*
X149009527Y-146016236D01*
X149009527Y-146016236D02*
X149009527Y-146092426D01*
X149009527Y-146092426D02*
X149047622Y-146206712D01*
X149047622Y-146206712D02*
X149504765Y-146663855D01*
X149504765Y-146663855D02*
X149009527Y-146663855D01*
X148323812Y-145863855D02*
X148476193Y-145863855D01*
X148476193Y-145863855D02*
X148552384Y-145901950D01*
X148552384Y-145901950D02*
X148590479Y-145940045D01*
X148590479Y-145940045D02*
X148666669Y-146054331D01*
X148666669Y-146054331D02*
X148704765Y-146206712D01*
X148704765Y-146206712D02*
X148704765Y-146511474D01*
X148704765Y-146511474D02*
X148666669Y-146587664D01*
X148666669Y-146587664D02*
X148628574Y-146625760D01*
X148628574Y-146625760D02*
X148552384Y-146663855D01*
X148552384Y-146663855D02*
X148400003Y-146663855D01*
X148400003Y-146663855D02*
X148323812Y-146625760D01*
X148323812Y-146625760D02*
X148285717Y-146587664D01*
X148285717Y-146587664D02*
X148247622Y-146511474D01*
X148247622Y-146511474D02*
X148247622Y-146320998D01*
X148247622Y-146320998D02*
X148285717Y-146244807D01*
X148285717Y-146244807D02*
X148323812Y-146206712D01*
X148323812Y-146206712D02*
X148400003Y-146168617D01*
X148400003Y-146168617D02*
X148552384Y-146168617D01*
X148552384Y-146168617D02*
X148628574Y-146206712D01*
X148628574Y-146206712D02*
X148666669Y-146244807D01*
X148666669Y-146244807D02*
X148704765Y-146320998D01*
X146914288Y-146663855D02*
X147295240Y-146663855D01*
X147295240Y-146663855D02*
X147295240Y-145863855D01*
X146342859Y-146625760D02*
X146419050Y-146663855D01*
X146419050Y-146663855D02*
X146571431Y-146663855D01*
X146571431Y-146663855D02*
X146647621Y-146625760D01*
X146647621Y-146625760D02*
X146685717Y-146549569D01*
X146685717Y-146549569D02*
X146685717Y-146244807D01*
X146685717Y-146244807D02*
X146647621Y-146168617D01*
X146647621Y-146168617D02*
X146571431Y-146130521D01*
X146571431Y-146130521D02*
X146419050Y-146130521D01*
X146419050Y-146130521D02*
X146342859Y-146168617D01*
X146342859Y-146168617D02*
X146304764Y-146244807D01*
X146304764Y-146244807D02*
X146304764Y-146320998D01*
X146304764Y-146320998D02*
X146685717Y-146397188D01*
X145847622Y-146663855D02*
X145923812Y-146625760D01*
X145923812Y-146625760D02*
X145961907Y-146587664D01*
X145961907Y-146587664D02*
X146000003Y-146511474D01*
X146000003Y-146511474D02*
X146000003Y-146282902D01*
X146000003Y-146282902D02*
X145961907Y-146206712D01*
X145961907Y-146206712D02*
X145923812Y-146168617D01*
X145923812Y-146168617D02*
X145847622Y-146130521D01*
X145847622Y-146130521D02*
X145733336Y-146130521D01*
X145733336Y-146130521D02*
X145657145Y-146168617D01*
X145657145Y-146168617D02*
X145619050Y-146206712D01*
X145619050Y-146206712D02*
X145580955Y-146282902D01*
X145580955Y-146282902D02*
X145580955Y-146511474D01*
X145580955Y-146511474D02*
X145619050Y-146587664D01*
X145619050Y-146587664D02*
X145657145Y-146625760D01*
X145657145Y-146625760D02*
X145733336Y-146663855D01*
X145733336Y-146663855D02*
X145847622Y-146663855D01*
X145238097Y-146130521D02*
X145238097Y-146663855D01*
X145238097Y-146206712D02*
X145200002Y-146168617D01*
X145200002Y-146168617D02*
X145123812Y-146130521D01*
X145123812Y-146130521D02*
X145009526Y-146130521D01*
X145009526Y-146130521D02*
X144933335Y-146168617D01*
X144933335Y-146168617D02*
X144895240Y-146244807D01*
X144895240Y-146244807D02*
X144895240Y-146663855D01*
X144171430Y-146663855D02*
X144171430Y-146244807D01*
X144171430Y-146244807D02*
X144209525Y-146168617D01*
X144209525Y-146168617D02*
X144285716Y-146130521D01*
X144285716Y-146130521D02*
X144438097Y-146130521D01*
X144438097Y-146130521D02*
X144514287Y-146168617D01*
X144171430Y-146625760D02*
X144247621Y-146663855D01*
X144247621Y-146663855D02*
X144438097Y-146663855D01*
X144438097Y-146663855D02*
X144514287Y-146625760D01*
X144514287Y-146625760D02*
X144552383Y-146549569D01*
X144552383Y-146549569D02*
X144552383Y-146473379D01*
X144552383Y-146473379D02*
X144514287Y-146397188D01*
X144514287Y-146397188D02*
X144438097Y-146359093D01*
X144438097Y-146359093D02*
X144247621Y-146359093D01*
X144247621Y-146359093D02*
X144171430Y-146320998D01*
X143790477Y-146663855D02*
X143790477Y-146130521D01*
X143790477Y-146282902D02*
X143752382Y-146206712D01*
X143752382Y-146206712D02*
X143714287Y-146168617D01*
X143714287Y-146168617D02*
X143638096Y-146130521D01*
X143638096Y-146130521D02*
X143561906Y-146130521D01*
X142952382Y-146663855D02*
X142952382Y-145863855D01*
X142952382Y-146625760D02*
X143028573Y-146663855D01*
X143028573Y-146663855D02*
X143180954Y-146663855D01*
X143180954Y-146663855D02*
X143257144Y-146625760D01*
X143257144Y-146625760D02*
X143295239Y-146587664D01*
X143295239Y-146587664D02*
X143333335Y-146511474D01*
X143333335Y-146511474D02*
X143333335Y-146282902D01*
X143333335Y-146282902D02*
X143295239Y-146206712D01*
X143295239Y-146206712D02*
X143257144Y-146168617D01*
X143257144Y-146168617D02*
X143180954Y-146130521D01*
X143180954Y-146130521D02*
X143028573Y-146130521D01*
X143028573Y-146130521D02*
X142952382Y-146168617D01*
X142457144Y-146663855D02*
X142533334Y-146625760D01*
X142533334Y-146625760D02*
X142571429Y-146587664D01*
X142571429Y-146587664D02*
X142609525Y-146511474D01*
X142609525Y-146511474D02*
X142609525Y-146282902D01*
X142609525Y-146282902D02*
X142571429Y-146206712D01*
X142571429Y-146206712D02*
X142533334Y-146168617D01*
X142533334Y-146168617D02*
X142457144Y-146130521D01*
X142457144Y-146130521D02*
X142342858Y-146130521D01*
X142342858Y-146130521D02*
X142266667Y-146168617D01*
X142266667Y-146168617D02*
X142228572Y-146206712D01*
X142228572Y-146206712D02*
X142190477Y-146282902D01*
X142190477Y-146282902D02*
X142190477Y-146511474D01*
X142190477Y-146511474D02*
X142228572Y-146587664D01*
X142228572Y-146587664D02*
X142266667Y-146625760D01*
X142266667Y-146625760D02*
X142342858Y-146663855D01*
X142342858Y-146663855D02*
X142457144Y-146663855D01*
X140780952Y-146663855D02*
X141047619Y-146282902D01*
X141238095Y-146663855D02*
X141238095Y-145863855D01*
X141238095Y-145863855D02*
X140933333Y-145863855D01*
X140933333Y-145863855D02*
X140857143Y-145901950D01*
X140857143Y-145901950D02*
X140819048Y-145940045D01*
X140819048Y-145940045D02*
X140780952Y-146016236D01*
X140780952Y-146016236D02*
X140780952Y-146130521D01*
X140780952Y-146130521D02*
X140819048Y-146206712D01*
X140819048Y-146206712D02*
X140857143Y-146244807D01*
X140857143Y-146244807D02*
X140933333Y-146282902D01*
X140933333Y-146282902D02*
X141238095Y-146282902D01*
X140323810Y-146663855D02*
X140400000Y-146625760D01*
X140400000Y-146625760D02*
X140438095Y-146587664D01*
X140438095Y-146587664D02*
X140476191Y-146511474D01*
X140476191Y-146511474D02*
X140476191Y-146282902D01*
X140476191Y-146282902D02*
X140438095Y-146206712D01*
X140438095Y-146206712D02*
X140400000Y-146168617D01*
X140400000Y-146168617D02*
X140323810Y-146130521D01*
X140323810Y-146130521D02*
X140209524Y-146130521D01*
X140209524Y-146130521D02*
X140133333Y-146168617D01*
X140133333Y-146168617D02*
X140095238Y-146206712D01*
X140095238Y-146206712D02*
X140057143Y-146282902D01*
X140057143Y-146282902D02*
X140057143Y-146511474D01*
X140057143Y-146511474D02*
X140095238Y-146587664D01*
X140095238Y-146587664D02*
X140133333Y-146625760D01*
X140133333Y-146625760D02*
X140209524Y-146663855D01*
X140209524Y-146663855D02*
X140323810Y-146663855D01*
X139714285Y-146663855D02*
X139714285Y-146130521D01*
X139714285Y-146206712D02*
X139676190Y-146168617D01*
X139676190Y-146168617D02*
X139600000Y-146130521D01*
X139600000Y-146130521D02*
X139485714Y-146130521D01*
X139485714Y-146130521D02*
X139409523Y-146168617D01*
X139409523Y-146168617D02*
X139371428Y-146244807D01*
X139371428Y-146244807D02*
X139371428Y-146663855D01*
X139371428Y-146244807D02*
X139333333Y-146168617D01*
X139333333Y-146168617D02*
X139257142Y-146130521D01*
X139257142Y-146130521D02*
X139142857Y-146130521D01*
X139142857Y-146130521D02*
X139066666Y-146168617D01*
X139066666Y-146168617D02*
X139028571Y-146244807D01*
X139028571Y-146244807D02*
X139028571Y-146663855D01*
X138304761Y-146663855D02*
X138304761Y-146244807D01*
X138304761Y-146244807D02*
X138342856Y-146168617D01*
X138342856Y-146168617D02*
X138419047Y-146130521D01*
X138419047Y-146130521D02*
X138571428Y-146130521D01*
X138571428Y-146130521D02*
X138647618Y-146168617D01*
X138304761Y-146625760D02*
X138380952Y-146663855D01*
X138380952Y-146663855D02*
X138571428Y-146663855D01*
X138571428Y-146663855D02*
X138647618Y-146625760D01*
X138647618Y-146625760D02*
X138685714Y-146549569D01*
X138685714Y-146549569D02*
X138685714Y-146473379D01*
X138685714Y-146473379D02*
X138647618Y-146397188D01*
X138647618Y-146397188D02*
X138571428Y-146359093D01*
X138571428Y-146359093D02*
X138380952Y-146359093D01*
X138380952Y-146359093D02*
X138304761Y-146320998D01*
X137923808Y-146130521D02*
X137923808Y-146663855D01*
X137923808Y-146206712D02*
X137885713Y-146168617D01*
X137885713Y-146168617D02*
X137809523Y-146130521D01*
X137809523Y-146130521D02*
X137695237Y-146130521D01*
X137695237Y-146130521D02*
X137619046Y-146168617D01*
X137619046Y-146168617D02*
X137580951Y-146244807D01*
X137580951Y-146244807D02*
X137580951Y-146663855D01*
X136247617Y-146663855D02*
X136247617Y-145863855D01*
X136247617Y-146625760D02*
X136323808Y-146663855D01*
X136323808Y-146663855D02*
X136476189Y-146663855D01*
X136476189Y-146663855D02*
X136552379Y-146625760D01*
X136552379Y-146625760D02*
X136590474Y-146587664D01*
X136590474Y-146587664D02*
X136628570Y-146511474D01*
X136628570Y-146511474D02*
X136628570Y-146282902D01*
X136628570Y-146282902D02*
X136590474Y-146206712D01*
X136590474Y-146206712D02*
X136552379Y-146168617D01*
X136552379Y-146168617D02*
X136476189Y-146130521D01*
X136476189Y-146130521D02*
X136323808Y-146130521D01*
X136323808Y-146130521D02*
X136247617Y-146168617D01*
X135523807Y-146663855D02*
X135523807Y-146244807D01*
X135523807Y-146244807D02*
X135561902Y-146168617D01*
X135561902Y-146168617D02*
X135638093Y-146130521D01*
X135638093Y-146130521D02*
X135790474Y-146130521D01*
X135790474Y-146130521D02*
X135866664Y-146168617D01*
X135523807Y-146625760D02*
X135599998Y-146663855D01*
X135599998Y-146663855D02*
X135790474Y-146663855D01*
X135790474Y-146663855D02*
X135866664Y-146625760D01*
X135866664Y-146625760D02*
X135904760Y-146549569D01*
X135904760Y-146549569D02*
X135904760Y-146473379D01*
X135904760Y-146473379D02*
X135866664Y-146397188D01*
X135866664Y-146397188D02*
X135790474Y-146359093D01*
X135790474Y-146359093D02*
X135599998Y-146359093D01*
X135599998Y-146359093D02*
X135523807Y-146320998D01*
X134076187Y-146663855D02*
X134342854Y-146282902D01*
X134533330Y-146663855D02*
X134533330Y-145863855D01*
X134533330Y-145863855D02*
X134228568Y-145863855D01*
X134228568Y-145863855D02*
X134152378Y-145901950D01*
X134152378Y-145901950D02*
X134114283Y-145940045D01*
X134114283Y-145940045D02*
X134076187Y-146016236D01*
X134076187Y-146016236D02*
X134076187Y-146130521D01*
X134076187Y-146130521D02*
X134114283Y-146206712D01*
X134114283Y-146206712D02*
X134152378Y-146244807D01*
X134152378Y-146244807D02*
X134228568Y-146282902D01*
X134228568Y-146282902D02*
X134533330Y-146282902D01*
X133619045Y-146663855D02*
X133695235Y-146625760D01*
X133695235Y-146625760D02*
X133733330Y-146587664D01*
X133733330Y-146587664D02*
X133771426Y-146511474D01*
X133771426Y-146511474D02*
X133771426Y-146282902D01*
X133771426Y-146282902D02*
X133733330Y-146206712D01*
X133733330Y-146206712D02*
X133695235Y-146168617D01*
X133695235Y-146168617D02*
X133619045Y-146130521D01*
X133619045Y-146130521D02*
X133504759Y-146130521D01*
X133504759Y-146130521D02*
X133428568Y-146168617D01*
X133428568Y-146168617D02*
X133390473Y-146206712D01*
X133390473Y-146206712D02*
X133352378Y-146282902D01*
X133352378Y-146282902D02*
X133352378Y-146511474D01*
X133352378Y-146511474D02*
X133390473Y-146587664D01*
X133390473Y-146587664D02*
X133428568Y-146625760D01*
X133428568Y-146625760D02*
X133504759Y-146663855D01*
X133504759Y-146663855D02*
X133619045Y-146663855D01*
X133047616Y-146625760D02*
X132971425Y-146663855D01*
X132971425Y-146663855D02*
X132819044Y-146663855D01*
X132819044Y-146663855D02*
X132742854Y-146625760D01*
X132742854Y-146625760D02*
X132704758Y-146549569D01*
X132704758Y-146549569D02*
X132704758Y-146511474D01*
X132704758Y-146511474D02*
X132742854Y-146435283D01*
X132742854Y-146435283D02*
X132819044Y-146397188D01*
X132819044Y-146397188D02*
X132933330Y-146397188D01*
X132933330Y-146397188D02*
X133009520Y-146359093D01*
X133009520Y-146359093D02*
X133047616Y-146282902D01*
X133047616Y-146282902D02*
X133047616Y-146244807D01*
X133047616Y-146244807D02*
X133009520Y-146168617D01*
X133009520Y-146168617D02*
X132933330Y-146130521D01*
X132933330Y-146130521D02*
X132819044Y-146130521D01*
X132819044Y-146130521D02*
X132742854Y-146168617D01*
X132019044Y-146663855D02*
X132019044Y-146244807D01*
X132019044Y-146244807D02*
X132057139Y-146168617D01*
X132057139Y-146168617D02*
X132133330Y-146130521D01*
X132133330Y-146130521D02*
X132285711Y-146130521D01*
X132285711Y-146130521D02*
X132361901Y-146168617D01*
X132019044Y-146625760D02*
X132095235Y-146663855D01*
X132095235Y-146663855D02*
X132285711Y-146663855D01*
X132285711Y-146663855D02*
X132361901Y-146625760D01*
X132361901Y-146625760D02*
X132399997Y-146549569D01*
X132399997Y-146549569D02*
X132399997Y-146473379D01*
X132399997Y-146473379D02*
X132361901Y-146397188D01*
X132361901Y-146397188D02*
X132285711Y-146359093D01*
X132285711Y-146359093D02*
X132095235Y-146359093D01*
X132095235Y-146359093D02*
X132019044Y-146320998D01*
X131028567Y-146359093D02*
X130419044Y-146359093D01*
X128971424Y-146587664D02*
X129009520Y-146625760D01*
X129009520Y-146625760D02*
X129123805Y-146663855D01*
X129123805Y-146663855D02*
X129199996Y-146663855D01*
X129199996Y-146663855D02*
X129314282Y-146625760D01*
X129314282Y-146625760D02*
X129390472Y-146549569D01*
X129390472Y-146549569D02*
X129428567Y-146473379D01*
X129428567Y-146473379D02*
X129466663Y-146320998D01*
X129466663Y-146320998D02*
X129466663Y-146206712D01*
X129466663Y-146206712D02*
X129428567Y-146054331D01*
X129428567Y-146054331D02*
X129390472Y-145978140D01*
X129390472Y-145978140D02*
X129314282Y-145901950D01*
X129314282Y-145901950D02*
X129199996Y-145863855D01*
X129199996Y-145863855D02*
X129123805Y-145863855D01*
X129123805Y-145863855D02*
X129009520Y-145901950D01*
X129009520Y-145901950D02*
X128971424Y-145940045D01*
X128628567Y-146244807D02*
X128361901Y-146244807D01*
X128247615Y-146663855D02*
X128628567Y-146663855D01*
X128628567Y-146663855D02*
X128628567Y-145863855D01*
X128628567Y-145863855D02*
X128247615Y-145863855D01*
X127447614Y-146663855D02*
X127714281Y-146282902D01*
X127904757Y-146663855D02*
X127904757Y-145863855D01*
X127904757Y-145863855D02*
X127599995Y-145863855D01*
X127599995Y-145863855D02*
X127523805Y-145901950D01*
X127523805Y-145901950D02*
X127485710Y-145940045D01*
X127485710Y-145940045D02*
X127447614Y-146016236D01*
X127447614Y-146016236D02*
X127447614Y-146130521D01*
X127447614Y-146130521D02*
X127485710Y-146206712D01*
X127485710Y-146206712D02*
X127523805Y-146244807D01*
X127523805Y-146244807D02*
X127599995Y-146282902D01*
X127599995Y-146282902D02*
X127904757Y-146282902D01*
X127104757Y-146663855D02*
X127104757Y-145863855D01*
X127104757Y-145863855D02*
X126647614Y-146663855D01*
X126647614Y-146663855D02*
X126647614Y-145863855D01*
X126266662Y-146359093D02*
X125657139Y-146359093D01*
X125123805Y-145863855D02*
X124971424Y-145863855D01*
X124971424Y-145863855D02*
X124895234Y-145901950D01*
X124895234Y-145901950D02*
X124819043Y-145978140D01*
X124819043Y-145978140D02*
X124780948Y-146130521D01*
X124780948Y-146130521D02*
X124780948Y-146397188D01*
X124780948Y-146397188D02*
X124819043Y-146549569D01*
X124819043Y-146549569D02*
X124895234Y-146625760D01*
X124895234Y-146625760D02*
X124971424Y-146663855D01*
X124971424Y-146663855D02*
X125123805Y-146663855D01*
X125123805Y-146663855D02*
X125199996Y-146625760D01*
X125199996Y-146625760D02*
X125276186Y-146549569D01*
X125276186Y-146549569D02*
X125314282Y-146397188D01*
X125314282Y-146397188D02*
X125314282Y-146130521D01*
X125314282Y-146130521D02*
X125276186Y-145978140D01*
X125276186Y-145978140D02*
X125199996Y-145901950D01*
X125199996Y-145901950D02*
X125123805Y-145863855D01*
X124438091Y-146663855D02*
X124438091Y-145863855D01*
X124438091Y-146244807D02*
X123980948Y-146244807D01*
X123980948Y-146663855D02*
X123980948Y-145863855D01*
X123219044Y-146663855D02*
X123599996Y-146663855D01*
X123599996Y-146663855D02*
X123599996Y-145863855D01*
X122952377Y-146359093D02*
X122342854Y-146359093D01*
X121999997Y-146625760D02*
X121885711Y-146663855D01*
X121885711Y-146663855D02*
X121695235Y-146663855D01*
X121695235Y-146663855D02*
X121619044Y-146625760D01*
X121619044Y-146625760D02*
X121580949Y-146587664D01*
X121580949Y-146587664D02*
X121542854Y-146511474D01*
X121542854Y-146511474D02*
X121542854Y-146435283D01*
X121542854Y-146435283D02*
X121580949Y-146359093D01*
X121580949Y-146359093D02*
X121619044Y-146320998D01*
X121619044Y-146320998D02*
X121695235Y-146282902D01*
X121695235Y-146282902D02*
X121847616Y-146244807D01*
X121847616Y-146244807D02*
X121923806Y-146206712D01*
X121923806Y-146206712D02*
X121961901Y-146168617D01*
X121961901Y-146168617D02*
X121999997Y-146092426D01*
X121999997Y-146092426D02*
X121999997Y-146016236D01*
X121999997Y-146016236D02*
X121961901Y-145940045D01*
X121961901Y-145940045D02*
X121923806Y-145901950D01*
X121923806Y-145901950D02*
X121847616Y-145863855D01*
X121847616Y-145863855D02*
X121657139Y-145863855D01*
X121657139Y-145863855D02*
X121542854Y-145901950D01*
X121199996Y-146359093D02*
X120590473Y-146359093D01*
X120247616Y-145940045D02*
X120209520Y-145901950D01*
X120209520Y-145901950D02*
X120133330Y-145863855D01*
X120133330Y-145863855D02*
X119942854Y-145863855D01*
X119942854Y-145863855D02*
X119866663Y-145901950D01*
X119866663Y-145901950D02*
X119828568Y-145940045D01*
X119828568Y-145940045D02*
X119790473Y-146016236D01*
X119790473Y-146016236D02*
X119790473Y-146092426D01*
X119790473Y-146092426D02*
X119828568Y-146206712D01*
X119828568Y-146206712D02*
X120285711Y-146663855D01*
X120285711Y-146663855D02*
X119790473Y-146663855D01*
X119447615Y-146587664D02*
X119409520Y-146625760D01*
X119409520Y-146625760D02*
X119447615Y-146663855D01*
X119447615Y-146663855D02*
X119485711Y-146625760D01*
X119485711Y-146625760D02*
X119447615Y-146587664D01*
X119447615Y-146587664D02*
X119447615Y-146663855D01*
X118914282Y-145863855D02*
X118838092Y-145863855D01*
X118838092Y-145863855D02*
X118761901Y-145901950D01*
X118761901Y-145901950D02*
X118723806Y-145940045D01*
X118723806Y-145940045D02*
X118685711Y-146016236D01*
X118685711Y-146016236D02*
X118647616Y-146168617D01*
X118647616Y-146168617D02*
X118647616Y-146359093D01*
X118647616Y-146359093D02*
X118685711Y-146511474D01*
X118685711Y-146511474D02*
X118723806Y-146587664D01*
X118723806Y-146587664D02*
X118761901Y-146625760D01*
X118761901Y-146625760D02*
X118838092Y-146663855D01*
X118838092Y-146663855D02*
X118914282Y-146663855D01*
X118914282Y-146663855D02*
X118990473Y-146625760D01*
X118990473Y-146625760D02*
X119028568Y-146587664D01*
X119028568Y-146587664D02*
X119066663Y-146511474D01*
X119066663Y-146511474D02*
X119104759Y-146359093D01*
X119104759Y-146359093D02*
X119104759Y-146168617D01*
X119104759Y-146168617D02*
X119066663Y-146016236D01*
X119066663Y-146016236D02*
X119028568Y-145940045D01*
X119028568Y-145940045D02*
X118990473Y-145901950D01*
X118990473Y-145901950D02*
X118914282Y-145863855D01*
X156304762Y-158430521D02*
X156304762Y-159230521D01*
X156304762Y-158468617D02*
X156228572Y-158430521D01*
X156228572Y-158430521D02*
X156076191Y-158430521D01*
X156076191Y-158430521D02*
X156000000Y-158468617D01*
X156000000Y-158468617D02*
X155961905Y-158506712D01*
X155961905Y-158506712D02*
X155923810Y-158582902D01*
X155923810Y-158582902D02*
X155923810Y-158811474D01*
X155923810Y-158811474D02*
X155961905Y-158887664D01*
X155961905Y-158887664D02*
X156000000Y-158925760D01*
X156000000Y-158925760D02*
X156076191Y-158963855D01*
X156076191Y-158963855D02*
X156228572Y-158963855D01*
X156228572Y-158963855D02*
X156304762Y-158925760D01*
X155580952Y-158963855D02*
X155580952Y-158430521D01*
X155580952Y-158163855D02*
X155619048Y-158201950D01*
X155619048Y-158201950D02*
X155580952Y-158240045D01*
X155580952Y-158240045D02*
X155542857Y-158201950D01*
X155542857Y-158201950D02*
X155580952Y-158163855D01*
X155580952Y-158163855D02*
X155580952Y-158240045D01*
X155200000Y-158430521D02*
X155200000Y-158963855D01*
X155200000Y-158506712D02*
X155161905Y-158468617D01*
X155161905Y-158468617D02*
X155085715Y-158430521D01*
X155085715Y-158430521D02*
X154971429Y-158430521D01*
X154971429Y-158430521D02*
X154895238Y-158468617D01*
X154895238Y-158468617D02*
X154857143Y-158544807D01*
X154857143Y-158544807D02*
X154857143Y-158963855D01*
X154361905Y-158963855D02*
X154438095Y-158925760D01*
X154438095Y-158925760D02*
X154476190Y-158887664D01*
X154476190Y-158887664D02*
X154514286Y-158811474D01*
X154514286Y-158811474D02*
X154514286Y-158582902D01*
X154514286Y-158582902D02*
X154476190Y-158506712D01*
X154476190Y-158506712D02*
X154438095Y-158468617D01*
X154438095Y-158468617D02*
X154361905Y-158430521D01*
X154361905Y-158430521D02*
X154247619Y-158430521D01*
X154247619Y-158430521D02*
X154171428Y-158468617D01*
X154171428Y-158468617D02*
X154133333Y-158506712D01*
X154133333Y-158506712D02*
X154095238Y-158582902D01*
X154095238Y-158582902D02*
X154095238Y-158811474D01*
X154095238Y-158811474D02*
X154133333Y-158887664D01*
X154133333Y-158887664D02*
X154171428Y-158925760D01*
X154171428Y-158925760D02*
X154247619Y-158963855D01*
X154247619Y-158963855D02*
X154361905Y-158963855D01*
X152723809Y-158963855D02*
X153180952Y-158963855D01*
X152952380Y-158963855D02*
X152952380Y-158163855D01*
X152952380Y-158163855D02*
X153028571Y-158278140D01*
X153028571Y-158278140D02*
X153104761Y-158354331D01*
X153104761Y-158354331D02*
X153180952Y-158392426D01*
X151428570Y-158963855D02*
X151428570Y-158163855D01*
X151428570Y-158925760D02*
X151504761Y-158963855D01*
X151504761Y-158963855D02*
X151657142Y-158963855D01*
X151657142Y-158963855D02*
X151733332Y-158925760D01*
X151733332Y-158925760D02*
X151771427Y-158887664D01*
X151771427Y-158887664D02*
X151809523Y-158811474D01*
X151809523Y-158811474D02*
X151809523Y-158582902D01*
X151809523Y-158582902D02*
X151771427Y-158506712D01*
X151771427Y-158506712D02*
X151733332Y-158468617D01*
X151733332Y-158468617D02*
X151657142Y-158430521D01*
X151657142Y-158430521D02*
X151504761Y-158430521D01*
X151504761Y-158430521D02*
X151428570Y-158468617D01*
X150933332Y-158963855D02*
X151009522Y-158925760D01*
X151009522Y-158925760D02*
X151047617Y-158887664D01*
X151047617Y-158887664D02*
X151085713Y-158811474D01*
X151085713Y-158811474D02*
X151085713Y-158582902D01*
X151085713Y-158582902D02*
X151047617Y-158506712D01*
X151047617Y-158506712D02*
X151009522Y-158468617D01*
X151009522Y-158468617D02*
X150933332Y-158430521D01*
X150933332Y-158430521D02*
X150819046Y-158430521D01*
X150819046Y-158430521D02*
X150742855Y-158468617D01*
X150742855Y-158468617D02*
X150704760Y-158506712D01*
X150704760Y-158506712D02*
X150666665Y-158582902D01*
X150666665Y-158582902D02*
X150666665Y-158811474D01*
X150666665Y-158811474D02*
X150704760Y-158887664D01*
X150704760Y-158887664D02*
X150742855Y-158925760D01*
X150742855Y-158925760D02*
X150819046Y-158963855D01*
X150819046Y-158963855D02*
X150933332Y-158963855D01*
X149257140Y-158887664D02*
X149295236Y-158925760D01*
X149295236Y-158925760D02*
X149409521Y-158963855D01*
X149409521Y-158963855D02*
X149485712Y-158963855D01*
X149485712Y-158963855D02*
X149599998Y-158925760D01*
X149599998Y-158925760D02*
X149676188Y-158849569D01*
X149676188Y-158849569D02*
X149714283Y-158773379D01*
X149714283Y-158773379D02*
X149752379Y-158620998D01*
X149752379Y-158620998D02*
X149752379Y-158506712D01*
X149752379Y-158506712D02*
X149714283Y-158354331D01*
X149714283Y-158354331D02*
X149676188Y-158278140D01*
X149676188Y-158278140D02*
X149599998Y-158201950D01*
X149599998Y-158201950D02*
X149485712Y-158163855D01*
X149485712Y-158163855D02*
X149409521Y-158163855D01*
X149409521Y-158163855D02*
X149295236Y-158201950D01*
X149295236Y-158201950D02*
X149257140Y-158240045D01*
X148914283Y-158963855D02*
X148914283Y-158163855D01*
X148914283Y-158163855D02*
X148457140Y-158963855D01*
X148457140Y-158963855D02*
X148457140Y-158163855D01*
X147657141Y-158963855D02*
X148114284Y-158963855D01*
X147885712Y-158963855D02*
X147885712Y-158163855D01*
X147885712Y-158163855D02*
X147961903Y-158278140D01*
X147961903Y-158278140D02*
X148038093Y-158354331D01*
X148038093Y-158354331D02*
X148114284Y-158392426D01*
D11*
X155047619Y-123450057D02*
X155000000Y-123402438D01*
X155000000Y-123402438D02*
X154904762Y-123354819D01*
X154904762Y-123354819D02*
X154666667Y-123354819D01*
X154666667Y-123354819D02*
X154571429Y-123402438D01*
X154571429Y-123402438D02*
X154523810Y-123450057D01*
X154523810Y-123450057D02*
X154476191Y-123545295D01*
X154476191Y-123545295D02*
X154476191Y-123640533D01*
X154476191Y-123640533D02*
X154523810Y-123783390D01*
X154523810Y-123783390D02*
X155095238Y-124354819D01*
X155095238Y-124354819D02*
X154476191Y-124354819D01*
X154142857Y-123354819D02*
X153476191Y-123354819D01*
X153476191Y-123354819D02*
X153904762Y-124354819D01*
X152523810Y-124259580D02*
X152571429Y-124307200D01*
X152571429Y-124307200D02*
X152714286Y-124354819D01*
X152714286Y-124354819D02*
X152809524Y-124354819D01*
X152809524Y-124354819D02*
X152952381Y-124307200D01*
X152952381Y-124307200D02*
X153047619Y-124211961D01*
X153047619Y-124211961D02*
X153095238Y-124116723D01*
X153095238Y-124116723D02*
X153142857Y-123926247D01*
X153142857Y-123926247D02*
X153142857Y-123783390D01*
X153142857Y-123783390D02*
X153095238Y-123592914D01*
X153095238Y-123592914D02*
X153047619Y-123497676D01*
X153047619Y-123497676D02*
X152952381Y-123402438D01*
X152952381Y-123402438D02*
X152809524Y-123354819D01*
X152809524Y-123354819D02*
X152714286Y-123354819D01*
X152714286Y-123354819D02*
X152571429Y-123402438D01*
X152571429Y-123402438D02*
X152523810Y-123450057D01*
X151571429Y-124354819D02*
X152142857Y-124354819D01*
X151857143Y-124354819D02*
X151857143Y-123354819D01*
X151857143Y-123354819D02*
X151952381Y-123497676D01*
X151952381Y-123497676D02*
X152047619Y-123592914D01*
X152047619Y-123592914D02*
X152142857Y-123640533D01*
X151190476Y-123450057D02*
X151142857Y-123402438D01*
X151142857Y-123402438D02*
X151047619Y-123354819D01*
X151047619Y-123354819D02*
X150809524Y-123354819D01*
X150809524Y-123354819D02*
X150714286Y-123402438D01*
X150714286Y-123402438D02*
X150666667Y-123450057D01*
X150666667Y-123450057D02*
X150619048Y-123545295D01*
X150619048Y-123545295D02*
X150619048Y-123640533D01*
X150619048Y-123640533D02*
X150666667Y-123783390D01*
X150666667Y-123783390D02*
X151238095Y-124354819D01*
X151238095Y-124354819D02*
X150619048Y-124354819D01*
X150047619Y-123783390D02*
X150142857Y-123735771D01*
X150142857Y-123735771D02*
X150190476Y-123688152D01*
X150190476Y-123688152D02*
X150238095Y-123592914D01*
X150238095Y-123592914D02*
X150238095Y-123545295D01*
X150238095Y-123545295D02*
X150190476Y-123450057D01*
X150190476Y-123450057D02*
X150142857Y-123402438D01*
X150142857Y-123402438D02*
X150047619Y-123354819D01*
X150047619Y-123354819D02*
X149857143Y-123354819D01*
X149857143Y-123354819D02*
X149761905Y-123402438D01*
X149761905Y-123402438D02*
X149714286Y-123450057D01*
X149714286Y-123450057D02*
X149666667Y-123545295D01*
X149666667Y-123545295D02*
X149666667Y-123592914D01*
X149666667Y-123592914D02*
X149714286Y-123688152D01*
X149714286Y-123688152D02*
X149761905Y-123735771D01*
X149761905Y-123735771D02*
X149857143Y-123783390D01*
X149857143Y-123783390D02*
X150047619Y-123783390D01*
X150047619Y-123783390D02*
X150142857Y-123831009D01*
X150142857Y-123831009D02*
X150190476Y-123878628D01*
X150190476Y-123878628D02*
X150238095Y-123973866D01*
X150238095Y-123973866D02*
X150238095Y-124164342D01*
X150238095Y-124164342D02*
X150190476Y-124259580D01*
X150190476Y-124259580D02*
X150142857Y-124307200D01*
X150142857Y-124307200D02*
X150047619Y-124354819D01*
X150047619Y-124354819D02*
X149857143Y-124354819D01*
X149857143Y-124354819D02*
X149761905Y-124307200D01*
X149761905Y-124307200D02*
X149714286Y-124259580D01*
X149714286Y-124259580D02*
X149666667Y-124164342D01*
X149666667Y-124164342D02*
X149666667Y-123973866D01*
X149666667Y-123973866D02*
X149714286Y-123878628D01*
X149714286Y-123878628D02*
X149761905Y-123831009D01*
X149761905Y-123831009D02*
X149857143Y-123783390D01*
X149238095Y-124259580D02*
X149190476Y-124307200D01*
X149190476Y-124307200D02*
X149238095Y-124354819D01*
X149238095Y-124354819D02*
X149285714Y-124307200D01*
X149285714Y-124307200D02*
X149238095Y-124259580D01*
X149238095Y-124259580D02*
X149238095Y-124354819D01*
X149238095Y-123735771D02*
X149190476Y-123783390D01*
X149190476Y-123783390D02*
X149238095Y-123831009D01*
X149238095Y-123831009D02*
X149285714Y-123783390D01*
X149285714Y-123783390D02*
X149238095Y-123735771D01*
X149238095Y-123735771D02*
X149238095Y-123831009D01*
X147714286Y-123354819D02*
X147714286Y-124069104D01*
X147714286Y-124069104D02*
X147761905Y-124211961D01*
X147761905Y-124211961D02*
X147857143Y-124307200D01*
X147857143Y-124307200D02*
X148000000Y-124354819D01*
X148000000Y-124354819D02*
X148095238Y-124354819D01*
X147238095Y-124354819D02*
X147238095Y-123354819D01*
X147238095Y-123354819D02*
X146857143Y-123354819D01*
X146857143Y-123354819D02*
X146761905Y-123402438D01*
X146761905Y-123402438D02*
X146714286Y-123450057D01*
X146714286Y-123450057D02*
X146666667Y-123545295D01*
X146666667Y-123545295D02*
X146666667Y-123688152D01*
X146666667Y-123688152D02*
X146714286Y-123783390D01*
X146714286Y-123783390D02*
X146761905Y-123831009D01*
X146761905Y-123831009D02*
X146857143Y-123878628D01*
X146857143Y-123878628D02*
X147238095Y-123878628D01*
X145714286Y-124354819D02*
X146285714Y-124354819D01*
X146000000Y-124354819D02*
X146000000Y-123354819D01*
X146000000Y-123354819D02*
X146095238Y-123497676D01*
X146095238Y-123497676D02*
X146190476Y-123592914D01*
X146190476Y-123592914D02*
X146285714Y-123640533D01*
X144571428Y-123450057D02*
X144523809Y-123402438D01*
X144523809Y-123402438D02*
X144428571Y-123354819D01*
X144428571Y-123354819D02*
X144190476Y-123354819D01*
X144190476Y-123354819D02*
X144095238Y-123402438D01*
X144095238Y-123402438D02*
X144047619Y-123450057D01*
X144047619Y-123450057D02*
X144000000Y-123545295D01*
X144000000Y-123545295D02*
X144000000Y-123640533D01*
X144000000Y-123640533D02*
X144047619Y-123783390D01*
X144047619Y-123783390D02*
X144619047Y-124354819D01*
X144619047Y-124354819D02*
X144000000Y-124354819D01*
X143571428Y-123973866D02*
X142809524Y-123973866D01*
X142428571Y-123354819D02*
X141809524Y-123354819D01*
X141809524Y-123354819D02*
X142142857Y-123735771D01*
X142142857Y-123735771D02*
X142000000Y-123735771D01*
X142000000Y-123735771D02*
X141904762Y-123783390D01*
X141904762Y-123783390D02*
X141857143Y-123831009D01*
X141857143Y-123831009D02*
X141809524Y-123926247D01*
X141809524Y-123926247D02*
X141809524Y-124164342D01*
X141809524Y-124164342D02*
X141857143Y-124259580D01*
X141857143Y-124259580D02*
X141904762Y-124307200D01*
X141904762Y-124307200D02*
X142000000Y-124354819D01*
X142000000Y-124354819D02*
X142285714Y-124354819D01*
X142285714Y-124354819D02*
X142380952Y-124307200D01*
X142380952Y-124307200D02*
X142428571Y-124259580D01*
X141333333Y-124307200D02*
X141333333Y-124354819D01*
X141333333Y-124354819D02*
X141380952Y-124450057D01*
X141380952Y-124450057D02*
X141428571Y-124497676D01*
X139857143Y-123354819D02*
X139857143Y-124069104D01*
X139857143Y-124069104D02*
X139904762Y-124211961D01*
X139904762Y-124211961D02*
X140000000Y-124307200D01*
X140000000Y-124307200D02*
X140142857Y-124354819D01*
X140142857Y-124354819D02*
X140238095Y-124354819D01*
X139380952Y-124354819D02*
X139380952Y-123354819D01*
X139380952Y-123354819D02*
X139000000Y-123354819D01*
X139000000Y-123354819D02*
X138904762Y-123402438D01*
X138904762Y-123402438D02*
X138857143Y-123450057D01*
X138857143Y-123450057D02*
X138809524Y-123545295D01*
X138809524Y-123545295D02*
X138809524Y-123688152D01*
X138809524Y-123688152D02*
X138857143Y-123783390D01*
X138857143Y-123783390D02*
X138904762Y-123831009D01*
X138904762Y-123831009D02*
X139000000Y-123878628D01*
X139000000Y-123878628D02*
X139380952Y-123878628D01*
X138428571Y-123450057D02*
X138380952Y-123402438D01*
X138380952Y-123402438D02*
X138285714Y-123354819D01*
X138285714Y-123354819D02*
X138047619Y-123354819D01*
X138047619Y-123354819D02*
X137952381Y-123402438D01*
X137952381Y-123402438D02*
X137904762Y-123450057D01*
X137904762Y-123450057D02*
X137857143Y-123545295D01*
X137857143Y-123545295D02*
X137857143Y-123640533D01*
X137857143Y-123640533D02*
X137904762Y-123783390D01*
X137904762Y-123783390D02*
X138476190Y-124354819D01*
X138476190Y-124354819D02*
X137857143Y-124354819D01*
X136714285Y-123450057D02*
X136666666Y-123402438D01*
X136666666Y-123402438D02*
X136571428Y-123354819D01*
X136571428Y-123354819D02*
X136333333Y-123354819D01*
X136333333Y-123354819D02*
X136238095Y-123402438D01*
X136238095Y-123402438D02*
X136190476Y-123450057D01*
X136190476Y-123450057D02*
X136142857Y-123545295D01*
X136142857Y-123545295D02*
X136142857Y-123640533D01*
X136142857Y-123640533D02*
X136190476Y-123783390D01*
X136190476Y-123783390D02*
X136761904Y-124354819D01*
X136761904Y-124354819D02*
X136142857Y-124354819D01*
X135714285Y-123973866D02*
X134952381Y-123973866D01*
X134571428Y-123354819D02*
X133952381Y-123354819D01*
X133952381Y-123354819D02*
X134285714Y-123735771D01*
X134285714Y-123735771D02*
X134142857Y-123735771D01*
X134142857Y-123735771D02*
X134047619Y-123783390D01*
X134047619Y-123783390D02*
X134000000Y-123831009D01*
X134000000Y-123831009D02*
X133952381Y-123926247D01*
X133952381Y-123926247D02*
X133952381Y-124164342D01*
X133952381Y-124164342D02*
X134000000Y-124259580D01*
X134000000Y-124259580D02*
X134047619Y-124307200D01*
X134047619Y-124307200D02*
X134142857Y-124354819D01*
X134142857Y-124354819D02*
X134428571Y-124354819D01*
X134428571Y-124354819D02*
X134523809Y-124307200D01*
X134523809Y-124307200D02*
X134571428Y-124259580D01*
X133476190Y-124307200D02*
X133476190Y-124354819D01*
X133476190Y-124354819D02*
X133523809Y-124450057D01*
X133523809Y-124450057D02*
X133571428Y-124497676D01*
X133523809Y-123735771D02*
X133476190Y-123783390D01*
X133476190Y-123783390D02*
X133523809Y-123831009D01*
X133523809Y-123831009D02*
X133571428Y-123783390D01*
X133571428Y-123783390D02*
X133523809Y-123735771D01*
X133523809Y-123735771D02*
X133523809Y-123831009D01*
X132000000Y-123354819D02*
X132000000Y-124069104D01*
X132000000Y-124069104D02*
X132047619Y-124211961D01*
X132047619Y-124211961D02*
X132142857Y-124307200D01*
X132142857Y-124307200D02*
X132285714Y-124354819D01*
X132285714Y-124354819D02*
X132380952Y-124354819D01*
X131523809Y-124354819D02*
X131523809Y-123354819D01*
X131523809Y-123354819D02*
X131142857Y-123354819D01*
X131142857Y-123354819D02*
X131047619Y-123402438D01*
X131047619Y-123402438D02*
X131000000Y-123450057D01*
X131000000Y-123450057D02*
X130952381Y-123545295D01*
X130952381Y-123545295D02*
X130952381Y-123688152D01*
X130952381Y-123688152D02*
X131000000Y-123783390D01*
X131000000Y-123783390D02*
X131047619Y-123831009D01*
X131047619Y-123831009D02*
X131142857Y-123878628D01*
X131142857Y-123878628D02*
X131523809Y-123878628D01*
X130619047Y-123354819D02*
X130000000Y-123354819D01*
X130000000Y-123354819D02*
X130333333Y-123735771D01*
X130333333Y-123735771D02*
X130190476Y-123735771D01*
X130190476Y-123735771D02*
X130095238Y-123783390D01*
X130095238Y-123783390D02*
X130047619Y-123831009D01*
X130047619Y-123831009D02*
X130000000Y-123926247D01*
X130000000Y-123926247D02*
X130000000Y-124164342D01*
X130000000Y-124164342D02*
X130047619Y-124259580D01*
X130047619Y-124259580D02*
X130095238Y-124307200D01*
X130095238Y-124307200D02*
X130190476Y-124354819D01*
X130190476Y-124354819D02*
X130476190Y-124354819D01*
X130476190Y-124354819D02*
X130571428Y-124307200D01*
X130571428Y-124307200D02*
X130619047Y-124259580D01*
X128952380Y-123688152D02*
X128571428Y-123688152D01*
X128809523Y-124354819D02*
X128809523Y-123497676D01*
X128809523Y-123497676D02*
X128761904Y-123402438D01*
X128761904Y-123402438D02*
X128666666Y-123354819D01*
X128666666Y-123354819D02*
X128571428Y-123354819D01*
X127857142Y-124307200D02*
X127952380Y-124354819D01*
X127952380Y-124354819D02*
X128142856Y-124354819D01*
X128142856Y-124354819D02*
X128238094Y-124307200D01*
X128238094Y-124307200D02*
X128285713Y-124211961D01*
X128285713Y-124211961D02*
X128285713Y-123831009D01*
X128285713Y-123831009D02*
X128238094Y-123735771D01*
X128238094Y-123735771D02*
X128142856Y-123688152D01*
X128142856Y-123688152D02*
X127952380Y-123688152D01*
X127952380Y-123688152D02*
X127857142Y-123735771D01*
X127857142Y-123735771D02*
X127809523Y-123831009D01*
X127809523Y-123831009D02*
X127809523Y-123926247D01*
X127809523Y-123926247D02*
X128285713Y-124021485D01*
X126952380Y-124307200D02*
X127047618Y-124354819D01*
X127047618Y-124354819D02*
X127238094Y-124354819D01*
X127238094Y-124354819D02*
X127333332Y-124307200D01*
X127333332Y-124307200D02*
X127380951Y-124259580D01*
X127380951Y-124259580D02*
X127428570Y-124164342D01*
X127428570Y-124164342D02*
X127428570Y-123878628D01*
X127428570Y-123878628D02*
X127380951Y-123783390D01*
X127380951Y-123783390D02*
X127333332Y-123735771D01*
X127333332Y-123735771D02*
X127238094Y-123688152D01*
X127238094Y-123688152D02*
X127047618Y-123688152D01*
X127047618Y-123688152D02*
X126952380Y-123735771D01*
X126523808Y-124354819D02*
X126523808Y-123354819D01*
X126095237Y-124354819D02*
X126095237Y-123831009D01*
X126095237Y-123831009D02*
X126142856Y-123735771D01*
X126142856Y-123735771D02*
X126238094Y-123688152D01*
X126238094Y-123688152D02*
X126380951Y-123688152D01*
X126380951Y-123688152D02*
X126476189Y-123735771D01*
X126476189Y-123735771D02*
X126523808Y-123783390D01*
X125190475Y-124354819D02*
X125190475Y-123831009D01*
X125190475Y-123831009D02*
X125238094Y-123735771D01*
X125238094Y-123735771D02*
X125333332Y-123688152D01*
X125333332Y-123688152D02*
X125523808Y-123688152D01*
X125523808Y-123688152D02*
X125619046Y-123735771D01*
X125190475Y-124307200D02*
X125285713Y-124354819D01*
X125285713Y-124354819D02*
X125523808Y-124354819D01*
X125523808Y-124354819D02*
X125619046Y-124307200D01*
X125619046Y-124307200D02*
X125666665Y-124211961D01*
X125666665Y-124211961D02*
X125666665Y-124116723D01*
X125666665Y-124116723D02*
X125619046Y-124021485D01*
X125619046Y-124021485D02*
X125523808Y-123973866D01*
X125523808Y-123973866D02*
X125285713Y-123973866D01*
X125285713Y-123973866D02*
X125190475Y-123926247D01*
X124285713Y-124354819D02*
X124285713Y-123354819D01*
X124285713Y-124307200D02*
X124380951Y-124354819D01*
X124380951Y-124354819D02*
X124571427Y-124354819D01*
X124571427Y-124354819D02*
X124666665Y-124307200D01*
X124666665Y-124307200D02*
X124714284Y-124259580D01*
X124714284Y-124259580D02*
X124761903Y-124164342D01*
X124761903Y-124164342D02*
X124761903Y-123878628D01*
X124761903Y-123878628D02*
X124714284Y-123783390D01*
X124714284Y-123783390D02*
X124666665Y-123735771D01*
X124666665Y-123735771D02*
X124571427Y-123688152D01*
X124571427Y-123688152D02*
X124380951Y-123688152D01*
X124380951Y-123688152D02*
X124285713Y-123735771D01*
X123666665Y-124354819D02*
X123761903Y-124307200D01*
X123761903Y-124307200D02*
X123809522Y-124259580D01*
X123809522Y-124259580D02*
X123857141Y-124164342D01*
X123857141Y-124164342D02*
X123857141Y-123878628D01*
X123857141Y-123878628D02*
X123809522Y-123783390D01*
X123809522Y-123783390D02*
X123761903Y-123735771D01*
X123761903Y-123735771D02*
X123666665Y-123688152D01*
X123666665Y-123688152D02*
X123523808Y-123688152D01*
X123523808Y-123688152D02*
X123428570Y-123735771D01*
X123428570Y-123735771D02*
X123380951Y-123783390D01*
X123380951Y-123783390D02*
X123333332Y-123878628D01*
X123333332Y-123878628D02*
X123333332Y-124164342D01*
X123333332Y-124164342D02*
X123380951Y-124259580D01*
X123380951Y-124259580D02*
X123428570Y-124307200D01*
X123428570Y-124307200D02*
X123523808Y-124354819D01*
X123523808Y-124354819D02*
X123666665Y-124354819D01*
X122142855Y-123831009D02*
X121380951Y-123831009D01*
X121380951Y-124116723D02*
X122142855Y-124116723D01*
X119714284Y-124354819D02*
X119714284Y-123831009D01*
X119714284Y-123831009D02*
X119761903Y-123735771D01*
X119761903Y-123735771D02*
X119857141Y-123688152D01*
X119857141Y-123688152D02*
X120047617Y-123688152D01*
X120047617Y-123688152D02*
X120142855Y-123735771D01*
X119714284Y-124307200D02*
X119809522Y-124354819D01*
X119809522Y-124354819D02*
X120047617Y-124354819D01*
X120047617Y-124354819D02*
X120142855Y-124307200D01*
X120142855Y-124307200D02*
X120190474Y-124211961D01*
X120190474Y-124211961D02*
X120190474Y-124116723D01*
X120190474Y-124116723D02*
X120142855Y-124021485D01*
X120142855Y-124021485D02*
X120047617Y-123973866D01*
X120047617Y-123973866D02*
X119809522Y-123973866D01*
X119809522Y-123973866D02*
X119714284Y-123926247D01*
X119380950Y-123688152D02*
X118999998Y-123688152D01*
X119238093Y-123354819D02*
X119238093Y-124211961D01*
X119238093Y-124211961D02*
X119190474Y-124307200D01*
X119190474Y-124307200D02*
X119095236Y-124354819D01*
X119095236Y-124354819D02*
X118999998Y-124354819D01*
X118666664Y-124354819D02*
X118666664Y-123688152D01*
X118666664Y-123354819D02*
X118714283Y-123402438D01*
X118714283Y-123402438D02*
X118666664Y-123450057D01*
X118666664Y-123450057D02*
X118619045Y-123402438D01*
X118619045Y-123402438D02*
X118666664Y-123354819D01*
X118666664Y-123354819D02*
X118666664Y-123450057D01*
X118285712Y-123688152D02*
X118047617Y-124354819D01*
X118047617Y-124354819D02*
X117809522Y-123688152D01*
X117285712Y-124354819D02*
X117380950Y-124307200D01*
X117380950Y-124307200D02*
X117428569Y-124259580D01*
X117428569Y-124259580D02*
X117476188Y-124164342D01*
X117476188Y-124164342D02*
X117476188Y-123878628D01*
X117476188Y-123878628D02*
X117428569Y-123783390D01*
X117428569Y-123783390D02*
X117380950Y-123735771D01*
X117380950Y-123735771D02*
X117285712Y-123688152D01*
X117285712Y-123688152D02*
X117142855Y-123688152D01*
X117142855Y-123688152D02*
X117047617Y-123735771D01*
X117047617Y-123735771D02*
X116999998Y-123783390D01*
X116999998Y-123783390D02*
X116952379Y-123878628D01*
X116952379Y-123878628D02*
X116952379Y-124164342D01*
X116952379Y-124164342D02*
X116999998Y-124259580D01*
X116999998Y-124259580D02*
X117047617Y-124307200D01*
X117047617Y-124307200D02*
X117142855Y-124354819D01*
X117142855Y-124354819D02*
X117285712Y-124354819D01*
D12*
X150799998Y-136188640D02*
X150914283Y-136245782D01*
X150914283Y-136245782D02*
X151142855Y-136245782D01*
X151142855Y-136245782D02*
X151257140Y-136188640D01*
X151257140Y-136188640D02*
X151314283Y-136131497D01*
X151314283Y-136131497D02*
X151371426Y-136017211D01*
X151371426Y-136017211D02*
X151371426Y-135674354D01*
X151371426Y-135674354D02*
X151314283Y-135560068D01*
X151314283Y-135560068D02*
X151257140Y-135502925D01*
X151257140Y-135502925D02*
X151142855Y-135445782D01*
X151142855Y-135445782D02*
X150914283Y-135445782D01*
X150914283Y-135445782D02*
X150799998Y-135502925D01*
X149771427Y-136245782D02*
X149771427Y-135617211D01*
X149771427Y-135617211D02*
X149828569Y-135502925D01*
X149828569Y-135502925D02*
X149942855Y-135445782D01*
X149942855Y-135445782D02*
X150171427Y-135445782D01*
X150171427Y-135445782D02*
X150285712Y-135502925D01*
X149771427Y-136188640D02*
X149885712Y-136245782D01*
X149885712Y-136245782D02*
X150171427Y-136245782D01*
X150171427Y-136245782D02*
X150285712Y-136188640D01*
X150285712Y-136188640D02*
X150342855Y-136074354D01*
X150342855Y-136074354D02*
X150342855Y-135960068D01*
X150342855Y-135960068D02*
X150285712Y-135845782D01*
X150285712Y-135845782D02*
X150171427Y-135788640D01*
X150171427Y-135788640D02*
X149885712Y-135788640D01*
X149885712Y-135788640D02*
X149771427Y-135731497D01*
X149199998Y-136245782D02*
X149199998Y-135445782D01*
X149199998Y-135674354D02*
X149142855Y-135560068D01*
X149142855Y-135560068D02*
X149085713Y-135502925D01*
X149085713Y-135502925D02*
X148971427Y-135445782D01*
X148971427Y-135445782D02*
X148857141Y-135445782D01*
X148628570Y-135445782D02*
X148171427Y-135445782D01*
X148457141Y-135045782D02*
X148457141Y-136074354D01*
X148457141Y-136074354D02*
X148399998Y-136188640D01*
X148399998Y-136188640D02*
X148285713Y-136245782D01*
X148285713Y-136245782D02*
X148171427Y-136245782D01*
X147257142Y-135445782D02*
X147257142Y-136245782D01*
X147771427Y-135445782D02*
X147771427Y-136074354D01*
X147771427Y-136074354D02*
X147714284Y-136188640D01*
X147714284Y-136188640D02*
X147599999Y-136245782D01*
X147599999Y-136245782D02*
X147428570Y-136245782D01*
X147428570Y-136245782D02*
X147314284Y-136188640D01*
X147314284Y-136188640D02*
X147257142Y-136131497D01*
X146171428Y-136188640D02*
X146285713Y-136245782D01*
X146285713Y-136245782D02*
X146514285Y-136245782D01*
X146514285Y-136245782D02*
X146628570Y-136188640D01*
X146628570Y-136188640D02*
X146685713Y-136131497D01*
X146685713Y-136131497D02*
X146742856Y-136017211D01*
X146742856Y-136017211D02*
X146742856Y-135674354D01*
X146742856Y-135674354D02*
X146685713Y-135560068D01*
X146685713Y-135560068D02*
X146628570Y-135502925D01*
X146628570Y-135502925D02*
X146514285Y-135445782D01*
X146514285Y-135445782D02*
X146285713Y-135445782D01*
X146285713Y-135445782D02*
X146171428Y-135502925D01*
X145657142Y-136245782D02*
X145657142Y-135045782D01*
X145142857Y-136245782D02*
X145142857Y-135617211D01*
X145142857Y-135617211D02*
X145199999Y-135502925D01*
X145199999Y-135502925D02*
X145314285Y-135445782D01*
X145314285Y-135445782D02*
X145485714Y-135445782D01*
X145485714Y-135445782D02*
X145599999Y-135502925D01*
X145599999Y-135502925D02*
X145657142Y-135560068D01*
X144400000Y-136245782D02*
X144514285Y-136188640D01*
X144514285Y-136188640D02*
X144571428Y-136131497D01*
X144571428Y-136131497D02*
X144628571Y-136017211D01*
X144628571Y-136017211D02*
X144628571Y-135674354D01*
X144628571Y-135674354D02*
X144571428Y-135560068D01*
X144571428Y-135560068D02*
X144514285Y-135502925D01*
X144514285Y-135502925D02*
X144400000Y-135445782D01*
X144400000Y-135445782D02*
X144228571Y-135445782D01*
X144228571Y-135445782D02*
X144114285Y-135502925D01*
X144114285Y-135502925D02*
X144057143Y-135560068D01*
X144057143Y-135560068D02*
X144000000Y-135674354D01*
X144000000Y-135674354D02*
X144000000Y-136017211D01*
X144000000Y-136017211D02*
X144057143Y-136131497D01*
X144057143Y-136131497D02*
X144114285Y-136188640D01*
X144114285Y-136188640D02*
X144228571Y-136245782D01*
X144228571Y-136245782D02*
X144400000Y-136245782D01*
X142057143Y-136245782D02*
X142057143Y-135045782D01*
X142057143Y-136188640D02*
X142171428Y-136245782D01*
X142171428Y-136245782D02*
X142400000Y-136245782D01*
X142400000Y-136245782D02*
X142514285Y-136188640D01*
X142514285Y-136188640D02*
X142571428Y-136131497D01*
X142571428Y-136131497D02*
X142628571Y-136017211D01*
X142628571Y-136017211D02*
X142628571Y-135674354D01*
X142628571Y-135674354D02*
X142571428Y-135560068D01*
X142571428Y-135560068D02*
X142514285Y-135502925D01*
X142514285Y-135502925D02*
X142400000Y-135445782D01*
X142400000Y-135445782D02*
X142171428Y-135445782D01*
X142171428Y-135445782D02*
X142057143Y-135502925D01*
X141028571Y-136188640D02*
X141142857Y-136245782D01*
X141142857Y-136245782D02*
X141371429Y-136245782D01*
X141371429Y-136245782D02*
X141485714Y-136188640D01*
X141485714Y-136188640D02*
X141542857Y-136074354D01*
X141542857Y-136074354D02*
X141542857Y-135617211D01*
X141542857Y-135617211D02*
X141485714Y-135502925D01*
X141485714Y-135502925D02*
X141371429Y-135445782D01*
X141371429Y-135445782D02*
X141142857Y-135445782D01*
X141142857Y-135445782D02*
X141028571Y-135502925D01*
X141028571Y-135502925D02*
X140971429Y-135617211D01*
X140971429Y-135617211D02*
X140971429Y-135731497D01*
X140971429Y-135731497D02*
X141542857Y-135845782D01*
X138857143Y-136245782D02*
X139257143Y-135674354D01*
X139542857Y-136245782D02*
X139542857Y-135045782D01*
X139542857Y-135045782D02*
X139085714Y-135045782D01*
X139085714Y-135045782D02*
X138971429Y-135102925D01*
X138971429Y-135102925D02*
X138914286Y-135160068D01*
X138914286Y-135160068D02*
X138857143Y-135274354D01*
X138857143Y-135274354D02*
X138857143Y-135445782D01*
X138857143Y-135445782D02*
X138914286Y-135560068D01*
X138914286Y-135560068D02*
X138971429Y-135617211D01*
X138971429Y-135617211D02*
X139085714Y-135674354D01*
X139085714Y-135674354D02*
X139542857Y-135674354D01*
X138114286Y-135045782D02*
X137885714Y-135045782D01*
X137885714Y-135045782D02*
X137771429Y-135102925D01*
X137771429Y-135102925D02*
X137657143Y-135217211D01*
X137657143Y-135217211D02*
X137600000Y-135445782D01*
X137600000Y-135445782D02*
X137600000Y-135845782D01*
X137600000Y-135845782D02*
X137657143Y-136074354D01*
X137657143Y-136074354D02*
X137771429Y-136188640D01*
X137771429Y-136188640D02*
X137885714Y-136245782D01*
X137885714Y-136245782D02*
X138114286Y-136245782D01*
X138114286Y-136245782D02*
X138228572Y-136188640D01*
X138228572Y-136188640D02*
X138342857Y-136074354D01*
X138342857Y-136074354D02*
X138400000Y-135845782D01*
X138400000Y-135845782D02*
X138400000Y-135445782D01*
X138400000Y-135445782D02*
X138342857Y-135217211D01*
X138342857Y-135217211D02*
X138228572Y-135102925D01*
X138228572Y-135102925D02*
X138114286Y-135045782D01*
X137085714Y-136245782D02*
X137085714Y-135045782D01*
X137085714Y-135045782D02*
X136685714Y-135902925D01*
X136685714Y-135902925D02*
X136285714Y-135045782D01*
X136285714Y-135045782D02*
X136285714Y-136245782D01*
X134799999Y-135788640D02*
X133885714Y-135788640D01*
X131885714Y-136188640D02*
X131999999Y-136245782D01*
X131999999Y-136245782D02*
X132228571Y-136245782D01*
X132228571Y-136245782D02*
X132342856Y-136188640D01*
X132342856Y-136188640D02*
X132399999Y-136131497D01*
X132399999Y-136131497D02*
X132457142Y-136017211D01*
X132457142Y-136017211D02*
X132457142Y-135674354D01*
X132457142Y-135674354D02*
X132399999Y-135560068D01*
X132399999Y-135560068D02*
X132342856Y-135502925D01*
X132342856Y-135502925D02*
X132228571Y-135445782D01*
X132228571Y-135445782D02*
X131999999Y-135445782D01*
X131999999Y-135445782D02*
X131885714Y-135502925D01*
X131200000Y-136245782D02*
X131314285Y-136188640D01*
X131314285Y-136188640D02*
X131371428Y-136131497D01*
X131371428Y-136131497D02*
X131428571Y-136017211D01*
X131428571Y-136017211D02*
X131428571Y-135674354D01*
X131428571Y-135674354D02*
X131371428Y-135560068D01*
X131371428Y-135560068D02*
X131314285Y-135502925D01*
X131314285Y-135502925D02*
X131200000Y-135445782D01*
X131200000Y-135445782D02*
X131028571Y-135445782D01*
X131028571Y-135445782D02*
X130914285Y-135502925D01*
X130914285Y-135502925D02*
X130857143Y-135560068D01*
X130857143Y-135560068D02*
X130800000Y-135674354D01*
X130800000Y-135674354D02*
X130800000Y-136017211D01*
X130800000Y-136017211D02*
X130857143Y-136131497D01*
X130857143Y-136131497D02*
X130914285Y-136188640D01*
X130914285Y-136188640D02*
X131028571Y-136245782D01*
X131028571Y-136245782D02*
X131200000Y-136245782D01*
X130285714Y-135445782D02*
X130285714Y-136245782D01*
X130285714Y-135560068D02*
X130228571Y-135502925D01*
X130228571Y-135502925D02*
X130114286Y-135445782D01*
X130114286Y-135445782D02*
X129942857Y-135445782D01*
X129942857Y-135445782D02*
X129828571Y-135502925D01*
X129828571Y-135502925D02*
X129771429Y-135617211D01*
X129771429Y-135617211D02*
X129771429Y-136245782D01*
X128742857Y-136188640D02*
X128857143Y-136245782D01*
X128857143Y-136245782D02*
X129085715Y-136245782D01*
X129085715Y-136245782D02*
X129200000Y-136188640D01*
X129200000Y-136188640D02*
X129257143Y-136074354D01*
X129257143Y-136074354D02*
X129257143Y-135617211D01*
X129257143Y-135617211D02*
X129200000Y-135502925D01*
X129200000Y-135502925D02*
X129085715Y-135445782D01*
X129085715Y-135445782D02*
X128857143Y-135445782D01*
X128857143Y-135445782D02*
X128742857Y-135502925D01*
X128742857Y-135502925D02*
X128685715Y-135617211D01*
X128685715Y-135617211D02*
X128685715Y-135731497D01*
X128685715Y-135731497D02*
X129257143Y-135845782D01*
X127657144Y-136188640D02*
X127771429Y-136245782D01*
X127771429Y-136245782D02*
X128000001Y-136245782D01*
X128000001Y-136245782D02*
X128114286Y-136188640D01*
X128114286Y-136188640D02*
X128171429Y-136131497D01*
X128171429Y-136131497D02*
X128228572Y-136017211D01*
X128228572Y-136017211D02*
X128228572Y-135674354D01*
X128228572Y-135674354D02*
X128171429Y-135560068D01*
X128171429Y-135560068D02*
X128114286Y-135502925D01*
X128114286Y-135502925D02*
X128000001Y-135445782D01*
X128000001Y-135445782D02*
X127771429Y-135445782D01*
X127771429Y-135445782D02*
X127657144Y-135502925D01*
X127314287Y-135445782D02*
X126857144Y-135445782D01*
X127142858Y-135045782D02*
X127142858Y-136074354D01*
X127142858Y-136074354D02*
X127085715Y-136188640D01*
X127085715Y-136188640D02*
X126971430Y-136245782D01*
X126971430Y-136245782D02*
X126857144Y-136245782D01*
X126285716Y-136245782D02*
X126400001Y-136188640D01*
X126400001Y-136188640D02*
X126457144Y-136131497D01*
X126457144Y-136131497D02*
X126514287Y-136017211D01*
X126514287Y-136017211D02*
X126514287Y-135674354D01*
X126514287Y-135674354D02*
X126457144Y-135560068D01*
X126457144Y-135560068D02*
X126400001Y-135502925D01*
X126400001Y-135502925D02*
X126285716Y-135445782D01*
X126285716Y-135445782D02*
X126114287Y-135445782D01*
X126114287Y-135445782D02*
X126000001Y-135502925D01*
X126000001Y-135502925D02*
X125942859Y-135560068D01*
X125942859Y-135560068D02*
X125885716Y-135674354D01*
X125885716Y-135674354D02*
X125885716Y-136017211D01*
X125885716Y-136017211D02*
X125942859Y-136131497D01*
X125942859Y-136131497D02*
X126000001Y-136188640D01*
X126000001Y-136188640D02*
X126114287Y-136245782D01*
X126114287Y-136245782D02*
X126285716Y-136245782D01*
X125371430Y-136245782D02*
X125371430Y-135445782D01*
X125371430Y-135674354D02*
X125314287Y-135560068D01*
X125314287Y-135560068D02*
X125257145Y-135502925D01*
X125257145Y-135502925D02*
X125142859Y-135445782D01*
X125142859Y-135445782D02*
X125028573Y-135445782D01*
X123028573Y-136131497D02*
X123085716Y-136188640D01*
X123085716Y-136188640D02*
X123257144Y-136245782D01*
X123257144Y-136245782D02*
X123371430Y-136245782D01*
X123371430Y-136245782D02*
X123542859Y-136188640D01*
X123542859Y-136188640D02*
X123657144Y-136074354D01*
X123657144Y-136074354D02*
X123714287Y-135960068D01*
X123714287Y-135960068D02*
X123771430Y-135731497D01*
X123771430Y-135731497D02*
X123771430Y-135560068D01*
X123771430Y-135560068D02*
X123714287Y-135331497D01*
X123714287Y-135331497D02*
X123657144Y-135217211D01*
X123657144Y-135217211D02*
X123542859Y-135102925D01*
X123542859Y-135102925D02*
X123371430Y-135045782D01*
X123371430Y-135045782D02*
X123257144Y-135045782D01*
X123257144Y-135045782D02*
X123085716Y-135102925D01*
X123085716Y-135102925D02*
X123028573Y-135160068D01*
X122514287Y-136245782D02*
X122514287Y-135045782D01*
X122514287Y-135045782D02*
X121828573Y-136245782D01*
X121828573Y-136245782D02*
X121828573Y-135045782D01*
X120628573Y-136245782D02*
X121314287Y-136245782D01*
X120971430Y-136245782D02*
X120971430Y-135045782D01*
X120971430Y-135045782D02*
X121085716Y-135217211D01*
X121085716Y-135217211D02*
X121200001Y-135331497D01*
X121200001Y-135331497D02*
X121314287Y-135388640D01*
D13*
X145914284Y-138914091D02*
X145514284Y-138914091D01*
X145342856Y-139542662D02*
X145914284Y-139542662D01*
X145914284Y-139542662D02*
X145914284Y-138342662D01*
X145914284Y-138342662D02*
X145342856Y-138342662D01*
X144885713Y-139485520D02*
X144714285Y-139542662D01*
X144714285Y-139542662D02*
X144428570Y-139542662D01*
X144428570Y-139542662D02*
X144314285Y-139485520D01*
X144314285Y-139485520D02*
X144257142Y-139428377D01*
X144257142Y-139428377D02*
X144199999Y-139314091D01*
X144199999Y-139314091D02*
X144199999Y-139199805D01*
X144199999Y-139199805D02*
X144257142Y-139085520D01*
X144257142Y-139085520D02*
X144314285Y-139028377D01*
X144314285Y-139028377D02*
X144428570Y-138971234D01*
X144428570Y-138971234D02*
X144657142Y-138914091D01*
X144657142Y-138914091D02*
X144771427Y-138856948D01*
X144771427Y-138856948D02*
X144828570Y-138799805D01*
X144828570Y-138799805D02*
X144885713Y-138685520D01*
X144885713Y-138685520D02*
X144885713Y-138571234D01*
X144885713Y-138571234D02*
X144828570Y-138456948D01*
X144828570Y-138456948D02*
X144771427Y-138399805D01*
X144771427Y-138399805D02*
X144657142Y-138342662D01*
X144657142Y-138342662D02*
X144371427Y-138342662D01*
X144371427Y-138342662D02*
X144199999Y-138399805D01*
X143857142Y-138342662D02*
X143171428Y-138342662D01*
X143514285Y-139542662D02*
X143514285Y-138342662D01*
X142771427Y-138914091D02*
X142371427Y-138914091D01*
X142199999Y-139542662D02*
X142771427Y-139542662D01*
X142771427Y-139542662D02*
X142771427Y-138342662D01*
X142771427Y-138342662D02*
X142199999Y-138342662D01*
X140199999Y-139542662D02*
X140771427Y-139542662D01*
X140771427Y-139542662D02*
X140771427Y-138342662D01*
X139857141Y-139199805D02*
X139285713Y-139199805D01*
X139971427Y-139542662D02*
X139571427Y-138342662D01*
X139571427Y-138342662D02*
X139171427Y-139542662D01*
X138771427Y-139542662D02*
X138771427Y-138342662D01*
X138771427Y-138342662D02*
X138485713Y-138342662D01*
X138485713Y-138342662D02*
X138314284Y-138399805D01*
X138314284Y-138399805D02*
X138199999Y-138514091D01*
X138199999Y-138514091D02*
X138142856Y-138628377D01*
X138142856Y-138628377D02*
X138085713Y-138856948D01*
X138085713Y-138856948D02*
X138085713Y-139028377D01*
X138085713Y-139028377D02*
X138142856Y-139256948D01*
X138142856Y-139256948D02*
X138199999Y-139371234D01*
X138199999Y-139371234D02*
X138314284Y-139485520D01*
X138314284Y-139485520D02*
X138485713Y-139542662D01*
X138485713Y-139542662D02*
X138771427Y-139542662D01*
X137342856Y-138342662D02*
X137114284Y-138342662D01*
X137114284Y-138342662D02*
X136999999Y-138399805D01*
X136999999Y-138399805D02*
X136885713Y-138514091D01*
X136885713Y-138514091D02*
X136828570Y-138742662D01*
X136828570Y-138742662D02*
X136828570Y-139142662D01*
X136828570Y-139142662D02*
X136885713Y-139371234D01*
X136885713Y-139371234D02*
X136999999Y-139485520D01*
X136999999Y-139485520D02*
X137114284Y-139542662D01*
X137114284Y-139542662D02*
X137342856Y-139542662D01*
X137342856Y-139542662D02*
X137457142Y-139485520D01*
X137457142Y-139485520D02*
X137571427Y-139371234D01*
X137571427Y-139371234D02*
X137628570Y-139142662D01*
X137628570Y-139142662D02*
X137628570Y-138742662D01*
X137628570Y-138742662D02*
X137571427Y-138514091D01*
X137571427Y-138514091D02*
X137457142Y-138399805D01*
X137457142Y-138399805D02*
X137342856Y-138342662D01*
X135399998Y-139542662D02*
X135399998Y-138342662D01*
X135399998Y-138342662D02*
X134942855Y-138342662D01*
X134942855Y-138342662D02*
X134828570Y-138399805D01*
X134828570Y-138399805D02*
X134771427Y-138456948D01*
X134771427Y-138456948D02*
X134714284Y-138571234D01*
X134714284Y-138571234D02*
X134714284Y-138742662D01*
X134714284Y-138742662D02*
X134771427Y-138856948D01*
X134771427Y-138856948D02*
X134828570Y-138914091D01*
X134828570Y-138914091D02*
X134942855Y-138971234D01*
X134942855Y-138971234D02*
X135399998Y-138971234D01*
X134257141Y-139199805D02*
X133685713Y-139199805D01*
X134371427Y-139542662D02*
X133971427Y-138342662D01*
X133971427Y-138342662D02*
X133571427Y-139542662D01*
X132485713Y-139542662D02*
X132885713Y-138971234D01*
X133171427Y-139542662D02*
X133171427Y-138342662D01*
X133171427Y-138342662D02*
X132714284Y-138342662D01*
X132714284Y-138342662D02*
X132599999Y-138399805D01*
X132599999Y-138399805D02*
X132542856Y-138456948D01*
X132542856Y-138456948D02*
X132485713Y-138571234D01*
X132485713Y-138571234D02*
X132485713Y-138742662D01*
X132485713Y-138742662D02*
X132542856Y-138856948D01*
X132542856Y-138856948D02*
X132599999Y-138914091D01*
X132599999Y-138914091D02*
X132714284Y-138971234D01*
X132714284Y-138971234D02*
X133171427Y-138971234D01*
X132028570Y-139199805D02*
X131457142Y-139199805D01*
X132142856Y-139542662D02*
X131742856Y-138342662D01*
X131742856Y-138342662D02*
X131342856Y-139542662D01*
X129628570Y-138914091D02*
X130028570Y-138914091D01*
X130028570Y-139542662D02*
X130028570Y-138342662D01*
X130028570Y-138342662D02*
X129457142Y-138342662D01*
X128771428Y-138342662D02*
X128542856Y-138342662D01*
X128542856Y-138342662D02*
X128428571Y-138399805D01*
X128428571Y-138399805D02*
X128314285Y-138514091D01*
X128314285Y-138514091D02*
X128257142Y-138742662D01*
X128257142Y-138742662D02*
X128257142Y-139142662D01*
X128257142Y-139142662D02*
X128314285Y-139371234D01*
X128314285Y-139371234D02*
X128428571Y-139485520D01*
X128428571Y-139485520D02*
X128542856Y-139542662D01*
X128542856Y-139542662D02*
X128771428Y-139542662D01*
X128771428Y-139542662D02*
X128885714Y-139485520D01*
X128885714Y-139485520D02*
X128999999Y-139371234D01*
X128999999Y-139371234D02*
X129057142Y-139142662D01*
X129057142Y-139142662D02*
X129057142Y-138742662D01*
X129057142Y-138742662D02*
X128999999Y-138514091D01*
X128999999Y-138514091D02*
X128885714Y-138399805D01*
X128885714Y-138399805D02*
X128771428Y-138342662D01*
X127057142Y-139542662D02*
X127457142Y-138971234D01*
X127742856Y-139542662D02*
X127742856Y-138342662D01*
X127742856Y-138342662D02*
X127285713Y-138342662D01*
X127285713Y-138342662D02*
X127171428Y-138399805D01*
X127171428Y-138399805D02*
X127114285Y-138456948D01*
X127114285Y-138456948D02*
X127057142Y-138571234D01*
X127057142Y-138571234D02*
X127057142Y-138742662D01*
X127057142Y-138742662D02*
X127114285Y-138856948D01*
X127114285Y-138856948D02*
X127171428Y-138914091D01*
X127171428Y-138914091D02*
X127285713Y-138971234D01*
X127285713Y-138971234D02*
X127742856Y-138971234D01*
X126599999Y-139199805D02*
X126028571Y-139199805D01*
X126714285Y-139542662D02*
X126314285Y-138342662D01*
X126314285Y-138342662D02*
X125914285Y-139542662D01*
D14*
X144976188Y-130575769D02*
X144109522Y-133175769D01*
X144109522Y-133175769D02*
X143242855Y-130575769D01*
X142376189Y-131813864D02*
X141509522Y-131813864D01*
X141138094Y-133175769D02*
X142376189Y-133175769D01*
X142376189Y-133175769D02*
X142376189Y-130575769D01*
X142376189Y-130575769D02*
X141138094Y-130575769D01*
X140395236Y-130575769D02*
X138909522Y-130575769D01*
X139652379Y-133175769D02*
X139652379Y-130575769D01*
X136309523Y-130575769D02*
X134699999Y-130575769D01*
X134699999Y-130575769D02*
X135566666Y-131566245D01*
X135566666Y-131566245D02*
X135195237Y-131566245D01*
X135195237Y-131566245D02*
X134947618Y-131690055D01*
X134947618Y-131690055D02*
X134823809Y-131813864D01*
X134823809Y-131813864D02*
X134699999Y-132061483D01*
X134699999Y-132061483D02*
X134699999Y-132680531D01*
X134699999Y-132680531D02*
X134823809Y-132928150D01*
X134823809Y-132928150D02*
X134947618Y-133051960D01*
X134947618Y-133051960D02*
X135195237Y-133175769D01*
X135195237Y-133175769D02*
X135938094Y-133175769D01*
X135938094Y-133175769D02*
X136185713Y-133051960D01*
X136185713Y-133051960D02*
X136309523Y-132928150D01*
X133090476Y-130575769D02*
X132842857Y-130575769D01*
X132842857Y-130575769D02*
X132595238Y-130699579D01*
X132595238Y-130699579D02*
X132471428Y-130823388D01*
X132471428Y-130823388D02*
X132347619Y-131071007D01*
X132347619Y-131071007D02*
X132223809Y-131566245D01*
X132223809Y-131566245D02*
X132223809Y-132185293D01*
X132223809Y-132185293D02*
X132347619Y-132680531D01*
X132347619Y-132680531D02*
X132471428Y-132928150D01*
X132471428Y-132928150D02*
X132595238Y-133051960D01*
X132595238Y-133051960D02*
X132842857Y-133175769D01*
X132842857Y-133175769D02*
X133090476Y-133175769D01*
X133090476Y-133175769D02*
X133338095Y-133051960D01*
X133338095Y-133051960D02*
X133461904Y-132928150D01*
X133461904Y-132928150D02*
X133585714Y-132680531D01*
X133585714Y-132680531D02*
X133709523Y-132185293D01*
X133709523Y-132185293D02*
X133709523Y-131566245D01*
X133709523Y-131566245D02*
X133585714Y-131071007D01*
X133585714Y-131071007D02*
X133461904Y-130823388D01*
X133461904Y-130823388D02*
X133338095Y-130699579D01*
X133338095Y-130699579D02*
X133090476Y-130575769D01*
X130614286Y-130575769D02*
X130366667Y-130575769D01*
X130366667Y-130575769D02*
X130119048Y-130699579D01*
X130119048Y-130699579D02*
X129995238Y-130823388D01*
X129995238Y-130823388D02*
X129871429Y-131071007D01*
X129871429Y-131071007D02*
X129747619Y-131566245D01*
X129747619Y-131566245D02*
X129747619Y-132185293D01*
X129747619Y-132185293D02*
X129871429Y-132680531D01*
X129871429Y-132680531D02*
X129995238Y-132928150D01*
X129995238Y-132928150D02*
X130119048Y-133051960D01*
X130119048Y-133051960D02*
X130366667Y-133175769D01*
X130366667Y-133175769D02*
X130614286Y-133175769D01*
X130614286Y-133175769D02*
X130861905Y-133051960D01*
X130861905Y-133051960D02*
X130985714Y-132928150D01*
X130985714Y-132928150D02*
X131109524Y-132680531D01*
X131109524Y-132680531D02*
X131233333Y-132185293D01*
X131233333Y-132185293D02*
X131233333Y-131566245D01*
X131233333Y-131566245D02*
X131109524Y-131071007D01*
X131109524Y-131071007D02*
X130985714Y-130823388D01*
X130985714Y-130823388D02*
X130861905Y-130699579D01*
X130861905Y-130699579D02*
X130614286Y-130575769D01*
X128138096Y-130575769D02*
X127890477Y-130575769D01*
X127890477Y-130575769D02*
X127642858Y-130699579D01*
X127642858Y-130699579D02*
X127519048Y-130823388D01*
X127519048Y-130823388D02*
X127395239Y-131071007D01*
X127395239Y-131071007D02*
X127271429Y-131566245D01*
X127271429Y-131566245D02*
X127271429Y-132185293D01*
X127271429Y-132185293D02*
X127395239Y-132680531D01*
X127395239Y-132680531D02*
X127519048Y-132928150D01*
X127519048Y-132928150D02*
X127642858Y-133051960D01*
X127642858Y-133051960D02*
X127890477Y-133175769D01*
X127890477Y-133175769D02*
X128138096Y-133175769D01*
X128138096Y-133175769D02*
X128385715Y-133051960D01*
X128385715Y-133051960D02*
X128509524Y-132928150D01*
X128509524Y-132928150D02*
X128633334Y-132680531D01*
X128633334Y-132680531D02*
X128757143Y-132185293D01*
X128757143Y-132185293D02*
X128757143Y-131566245D01*
X128757143Y-131566245D02*
X128633334Y-131071007D01*
X128633334Y-131071007D02*
X128509524Y-130823388D01*
X128509524Y-130823388D02*
X128385715Y-130699579D01*
X128385715Y-130699579D02*
X128138096Y-130575769D01*
%LPC*%
D15*
%TO.C,H1*%
X104500000Y-104500000D03*
%TD*%
D16*
%TO.C,J1*%
X157590000Y-150460000D03*
D17*
X155050000Y-150460000D03*
X152510000Y-150460000D03*
X149970000Y-150460000D03*
X147430000Y-150460000D03*
X144890000Y-150460000D03*
X142350000Y-150460000D03*
X139810000Y-150460000D03*
X137270000Y-150460000D03*
X134730000Y-150460000D03*
X132190000Y-150460000D03*
X129650000Y-150460000D03*
X127110000Y-150460000D03*
X124570000Y-150460000D03*
X122030000Y-150460000D03*
X119490000Y-150460000D03*
X116950000Y-150460000D03*
X114410000Y-150460000D03*
D16*
X157590000Y-155540000D03*
D17*
X155050000Y-155540000D03*
X152510000Y-155540000D03*
X149970000Y-155540000D03*
X147430000Y-155540000D03*
X144890000Y-155540000D03*
X142350000Y-155540000D03*
X139810000Y-155540000D03*
X137270000Y-155540000D03*
X134730000Y-155540000D03*
X132190000Y-155540000D03*
X129650000Y-155540000D03*
X127110000Y-155540000D03*
X124570000Y-155540000D03*
X122030000Y-155540000D03*
X119490000Y-155540000D03*
X116950000Y-155540000D03*
X114410000Y-155540000D03*
%TD*%
D18*
%TO.C,C3*%
X105000000Y-145000000D03*
D19*
X107000000Y-145000000D03*
%TD*%
D16*
%TO.C,J2*%
X112000000Y-104500000D03*
D17*
X114540000Y-104500000D03*
X117080000Y-104500000D03*
X119620000Y-104500000D03*
X122160000Y-104500000D03*
X124700000Y-104500000D03*
X127240000Y-104500000D03*
X129780000Y-104500000D03*
%TD*%
D19*
%TO.C,C1*%
X158500000Y-136000000D03*
X158500000Y-131000000D03*
%TD*%
D16*
%TO.C,JP3*%
X158000000Y-116000000D03*
D17*
X158000000Y-118540000D03*
%TD*%
D20*
%TO.C,U2*%
X135000000Y-121000000D03*
D19*
X137540000Y-121000000D03*
X140080000Y-121000000D03*
X142620000Y-121000000D03*
X145160000Y-121000000D03*
X147700000Y-121000000D03*
X150240000Y-121000000D03*
X150240000Y-113380000D03*
X147700000Y-113380000D03*
X145160000Y-113380000D03*
X142620000Y-113380000D03*
X140080000Y-113380000D03*
X137540000Y-113380000D03*
X135000000Y-113380000D03*
%TD*%
%TO.C,R1*%
X165000000Y-124000000D03*
X165000000Y-116380000D03*
%TD*%
D16*
%TO.C,JP1*%
X105000000Y-131000000D03*
D17*
X105000000Y-133540000D03*
X105000000Y-136080000D03*
%TD*%
D15*
%TO.C,H2*%
X167500000Y-104500000D03*
%TD*%
D20*
%TO.C,U1*%
X119500000Y-142000000D03*
D19*
X122040000Y-142000000D03*
X124580000Y-142000000D03*
X127120000Y-142000000D03*
X129660000Y-142000000D03*
X132200000Y-142000000D03*
X134740000Y-142000000D03*
X137280000Y-142000000D03*
X139820000Y-142000000D03*
X142360000Y-142000000D03*
X144900000Y-142000000D03*
X147440000Y-142000000D03*
X149980000Y-142000000D03*
X152520000Y-142000000D03*
X152520000Y-126760000D03*
X149980000Y-126760000D03*
X147440000Y-126760000D03*
X144900000Y-126760000D03*
X142360000Y-126760000D03*
X139820000Y-126760000D03*
X137280000Y-126760000D03*
X134740000Y-126760000D03*
X132200000Y-126760000D03*
X129660000Y-126760000D03*
X127120000Y-126760000D03*
X124580000Y-126760000D03*
X122040000Y-126760000D03*
X119500000Y-126760000D03*
%TD*%
D16*
%TO.C,JP2*%
X105000000Y-118000000D03*
D17*
X105000000Y-120540000D03*
X105000000Y-123080000D03*
%TD*%
D19*
%TO.C,C2*%
X135000000Y-108000000D03*
X140000000Y-108000000D03*
%TD*%
%LPD*%
M02*
