%TF.GenerationSoftware,KiCad,Pcbnew,10.0.4*%
%TF.CreationDate,2026-09-27T12:18:16-03:00*%
%TF.ProjectId,vet3000_cartucho,76657433-3030-4305-9f63-617274756368,1.0*%
%TF.SameCoordinates,Original*%
%TF.FileFunction,Copper,L1,Top*%
%TF.FilePolarity,Positive*%
%FSLAX46Y46*%
G04 Gerber Fmt 4.6, Leading zero omitted, Abs format (unit mm)*
G04 Created by KiCad (PCBNEW 10.0.4) date 2026-09-27 12:18:16*
%MOMM*%
%LPD*%
G01*
G04 APERTURE LIST*
G04 Aperture macros list*
%AMRoundRect*
0 Rectangle with rounded corners*
0 $1 Rounding radius*
0 $2 $3 $4 $5 $6 $7 $8 $9 X,Y pos of 4 corners*
0 Add a 4 corners polygon primitive as box body*
4,1,4,$2,$3,$4,$5,$6,$7,$8,$9,$2,$3,0*
0 Add four circle primitives for the rounded corners*
1,1,$1+$1,$2,$3*
1,1,$1+$1,$4,$5*
1,1,$1+$1,$6,$7*
1,1,$1+$1,$8,$9*
0 Add four rect primitives between the rounded corners*
20,1,$1+$1,$2,$3,$4,$5,0*
20,1,$1+$1,$4,$5,$6,$7,0*
20,1,$1+$1,$6,$7,$8,$9,0*
20,1,$1+$1,$8,$9,$2,$3,0*%
G04 Aperture macros list end*
%TA.AperFunction,ComponentPad*%
%ADD10R,1.700000X1.700000*%
%TD*%
%TA.AperFunction,ComponentPad*%
%ADD11C,1.700000*%
%TD*%
%TA.AperFunction,ComponentPad*%
%ADD12RoundRect,0.250000X-0.550000X-0.550000X0.550000X-0.550000X0.550000X0.550000X-0.550000X0.550000X0*%
%TD*%
%TA.AperFunction,ComponentPad*%
%ADD13C,1.600000*%
%TD*%
%TA.AperFunction,ComponentPad*%
%ADD14RoundRect,0.250000X0.550000X-0.550000X0.550000X0.550000X-0.550000X0.550000X-0.550000X-0.550000X0*%
%TD*%
%TA.AperFunction,ViaPad*%
%ADD15C,0.800000*%
%TD*%
%TA.AperFunction,Conductor*%
%ADD16C,0.250000*%
%TD*%
G04 APERTURE END LIST*
D10*
%TO.P,J1,a1*%
%TO.N,/IRQ*%
X157590000Y-150460000D03*
D11*
%TO.P,J1,a2*%
%TO.N,/D0*%
X155050000Y-150460000D03*
%TO.P,J1,a3*%
%TO.N,/D1*%
X152510000Y-150460000D03*
%TO.P,J1,a4*%
%TO.N,/D2*%
X149970000Y-150460000D03*
%TO.P,J1,a5*%
%TO.N,/D3*%
X147430000Y-150460000D03*
%TO.P,J1,a6*%
%TO.N,/D4*%
X144890000Y-150460000D03*
%TO.P,J1,a7*%
%TO.N,/D5*%
X142350000Y-150460000D03*
%TO.P,J1,a8*%
%TO.N,/D6*%
X139810000Y-150460000D03*
%TO.P,J1,a9*%
%TO.N,/D7*%
X137270000Y-150460000D03*
%TO.P,J1,a10*%
%TO.N,/ROM_E*%
X134730000Y-150460000D03*
%TO.P,J1,a11*%
%TO.N,/IO_SEL*%
X132190000Y-150460000D03*
%TO.P,J1,a12*%
%TO.N,/R_W*%
X129650000Y-150460000D03*
%TO.P,J1,a13*%
%TO.N,/HALT*%
X127110000Y-150460000D03*
%TO.P,J1,a14*%
%TO.N,/CART_SEL*%
X124570000Y-150460000D03*
%TO.P,J1,a15*%
%TO.N,+5V*%
X122030000Y-150460000D03*
%TO.P,J1,a16*%
%TO.N,/DEC_EN*%
X119490000Y-150460000D03*
%TO.P,J1,a17*%
%TO.N,GND*%
X116950000Y-150460000D03*
%TO.P,J1,a18*%
%TO.N,unconnected-(J1-Pin_a18-Pada18)*%
X114410000Y-150460000D03*
D10*
%TO.P,J1,b1*%
%TO.N,unconnected-(J1-Pin_b1-Padb1)*%
X157590000Y-155540000D03*
D11*
%TO.P,J1,b2*%
%TO.N,/A0*%
X155050000Y-155540000D03*
%TO.P,J1,b3*%
%TO.N,/A1*%
X152510000Y-155540000D03*
%TO.P,J1,b4*%
%TO.N,/A2*%
X149970000Y-155540000D03*
%TO.P,J1,b5*%
%TO.N,/A3*%
X147430000Y-155540000D03*
%TO.P,J1,b6*%
%TO.N,/A4*%
X144890000Y-155540000D03*
%TO.P,J1,b7*%
%TO.N,/A5*%
X142350000Y-155540000D03*
%TO.P,J1,b8*%
%TO.N,/A6*%
X139810000Y-155540000D03*
%TO.P,J1,b9*%
%TO.N,/A7*%
X137270000Y-155540000D03*
%TO.P,J1,b10*%
%TO.N,/A8*%
X134730000Y-155540000D03*
%TO.P,J1,b11*%
%TO.N,/A9*%
X132190000Y-155540000D03*
%TO.P,J1,b12*%
%TO.N,/A10*%
X129650000Y-155540000D03*
%TO.P,J1,b13*%
%TO.N,/A11*%
X127110000Y-155540000D03*
%TO.P,J1,b14*%
%TO.N,/A12*%
X124570000Y-155540000D03*
%TO.P,J1,b15*%
%TO.N,/A13*%
X122030000Y-155540000D03*
%TO.P,J1,b16*%
%TO.N,unconnected-(J1-Pin_b16-Padb16)*%
X119490000Y-155540000D03*
%TO.P,J1,b17*%
%TO.N,GND*%
X116950000Y-155540000D03*
%TO.P,J1,b18*%
%TO.N,unconnected-(J1-Pin_b18-Padb18)*%
X114410000Y-155540000D03*
%TD*%
D12*
%TO.P,C3,1*%
%TO.N,+5V*%
X105000000Y-145000000D03*
D13*
%TO.P,C3,2*%
%TO.N,GND*%
X107000000Y-145000000D03*
%TD*%
D10*
%TO.P,J2,1*%
%TO.N,+5V*%
X112000000Y-104500000D03*
D11*
%TO.P,J2,2*%
%TO.N,/IRQ*%
X114540000Y-104500000D03*
%TO.P,J2,3*%
%TO.N,/HALT*%
X117080000Y-104500000D03*
%TO.P,J2,4*%
%TO.N,/R_W*%
X119620000Y-104500000D03*
%TO.P,J2,5*%
%TO.N,/IO_SEL*%
X122160000Y-104500000D03*
%TO.P,J2,6*%
%TO.N,/ROM_E*%
X124700000Y-104500000D03*
%TO.P,J2,7*%
%TO.N,/DEC_EN*%
X127240000Y-104500000D03*
%TO.P,J2,8*%
%TO.N,GND*%
X129780000Y-104500000D03*
%TD*%
D13*
%TO.P,C1,1*%
%TO.N,+5V*%
X158500000Y-136000000D03*
%TO.P,C1,2*%
%TO.N,GND*%
X158500000Y-131000000D03*
%TD*%
D10*
%TO.P,JP3,1*%
%TO.N,/CART_SEL*%
X158000000Y-116000000D03*
D11*
%TO.P,JP3,2*%
%TO.N,/CE_N*%
X158000000Y-118540000D03*
%TD*%
D14*
%TO.P,U2,1*%
%TO.N,/R_W*%
X135000000Y-121000000D03*
D13*
%TO.P,U2,2*%
X137540000Y-121000000D03*
%TO.P,U2,3*%
%TO.N,/OE_N*%
X140080000Y-121000000D03*
%TO.P,U2,4*%
%TO.N,GND*%
X142620000Y-121000000D03*
%TO.P,U2,5*%
X145160000Y-121000000D03*
%TO.P,U2,6*%
%TO.N,unconnected-(U2-Pad6)*%
X147700000Y-121000000D03*
%TO.P,U2,7*%
%TO.N,GND*%
X150240000Y-121000000D03*
%TO.P,U2,8*%
%TO.N,unconnected-(U2-Pad8)*%
X150240000Y-113380000D03*
%TO.P,U2,9*%
%TO.N,GND*%
X147700000Y-113380000D03*
%TO.P,U2,10*%
X145160000Y-113380000D03*
%TO.P,U2,11*%
%TO.N,unconnected-(U2-Pad11)*%
X142620000Y-113380000D03*
%TO.P,U2,12*%
%TO.N,GND*%
X140080000Y-113380000D03*
%TO.P,U2,13*%
X137540000Y-113380000D03*
%TO.P,U2,14*%
%TO.N,+5V*%
X135000000Y-113380000D03*
%TD*%
%TO.P,R1,1*%
%TO.N,+5V*%
X165000000Y-124000000D03*
%TO.P,R1,2*%
%TO.N,/CE_N*%
X165000000Y-116380000D03*
%TD*%
D10*
%TO.P,JP1,1*%
%TO.N,GND*%
X105000000Y-131000000D03*
D11*
%TO.P,JP1,2*%
%TO.N,/EP_PIN1*%
X105000000Y-133540000D03*
%TO.P,JP1,3*%
%TO.N,+5V*%
X105000000Y-136080000D03*
%TD*%
D14*
%TO.P,U1,1*%
%TO.N,/EP_PIN1*%
X119500000Y-142000000D03*
D13*
%TO.P,U1,2*%
%TO.N,/A12*%
X122040000Y-142000000D03*
%TO.P,U1,3*%
%TO.N,/A7*%
X124580000Y-142000000D03*
%TO.P,U1,4*%
%TO.N,/A6*%
X127120000Y-142000000D03*
%TO.P,U1,5*%
%TO.N,/A5*%
X129660000Y-142000000D03*
%TO.P,U1,6*%
%TO.N,/A4*%
X132200000Y-142000000D03*
%TO.P,U1,7*%
%TO.N,/A3*%
X134740000Y-142000000D03*
%TO.P,U1,8*%
%TO.N,/A2*%
X137280000Y-142000000D03*
%TO.P,U1,9*%
%TO.N,/A1*%
X139820000Y-142000000D03*
%TO.P,U1,10*%
%TO.N,/A0*%
X142360000Y-142000000D03*
%TO.P,U1,11*%
%TO.N,/D0*%
X144900000Y-142000000D03*
%TO.P,U1,12*%
%TO.N,/D1*%
X147440000Y-142000000D03*
%TO.P,U1,13*%
%TO.N,/D2*%
X149980000Y-142000000D03*
%TO.P,U1,14*%
%TO.N,GND*%
X152520000Y-142000000D03*
%TO.P,U1,15*%
%TO.N,/D3*%
X152520000Y-126760000D03*
%TO.P,U1,16*%
%TO.N,/D4*%
X149980000Y-126760000D03*
%TO.P,U1,17*%
%TO.N,/D5*%
X147440000Y-126760000D03*
%TO.P,U1,18*%
%TO.N,/D6*%
X144900000Y-126760000D03*
%TO.P,U1,19*%
%TO.N,/D7*%
X142360000Y-126760000D03*
%TO.P,U1,20*%
%TO.N,/CE_N*%
X139820000Y-126760000D03*
%TO.P,U1,21*%
%TO.N,/A10*%
X137280000Y-126760000D03*
%TO.P,U1,22*%
%TO.N,/OE_N*%
X134740000Y-126760000D03*
%TO.P,U1,23*%
%TO.N,/A11*%
X132200000Y-126760000D03*
%TO.P,U1,24*%
%TO.N,/A9*%
X129660000Y-126760000D03*
%TO.P,U1,25*%
%TO.N,/A8*%
X127120000Y-126760000D03*
%TO.P,U1,26*%
%TO.N,/A13*%
X124580000Y-126760000D03*
%TO.P,U1,27*%
%TO.N,/EP_PIN27*%
X122040000Y-126760000D03*
%TO.P,U1,28*%
%TO.N,+5V*%
X119500000Y-126760000D03*
%TD*%
D10*
%TO.P,JP2,1*%
%TO.N,GND*%
X105000000Y-118000000D03*
D11*
%TO.P,JP2,2*%
%TO.N,/EP_PIN27*%
X105000000Y-120540000D03*
%TO.P,JP2,3*%
%TO.N,+5V*%
X105000000Y-123080000D03*
%TD*%
D13*
%TO.P,C2,1*%
%TO.N,+5V*%
X135000000Y-108000000D03*
%TO.P,C2,2*%
%TO.N,GND*%
X140000000Y-108000000D03*
%TD*%
D15*
%TO.N,/ROM_E*%
X129650100Y-140516500D03*
%TO.N,/CART_SEL*%
X159060800Y-156729500D03*
%TO.N,/A8*%
X114092100Y-133767300D03*
%TD*%
%TO.N,/D0*%
D16*
X146044500Y-140855500D02*
X147975100Y-140855500D01*
X148853300Y-142533400D02*
X155050000Y-148730100D01*
X144900000Y-142000000D02*
X146044500Y-140855500D01*
X148853300Y-141733700D02*
X148853300Y-142533400D01*
X147975100Y-140855500D02*
X148853300Y-141733700D01*
X155050000Y-148730100D02*
X155050000Y-150460000D01*
%TO.N,/D1*%
X152510000Y-147070000D02*
X152510000Y-150460000D01*
X147440000Y-142000000D02*
X152510000Y-147070000D01*
%TO.N,/ROM_E*%
X129650100Y-140516500D02*
X126934200Y-140516500D01*
X126934200Y-140516500D02*
X125986000Y-141464700D01*
X127821900Y-143551900D02*
X134730000Y-150460000D01*
X125986000Y-142505800D02*
X127032100Y-143551900D01*
X127032100Y-143551900D02*
X127821900Y-143551900D01*
X125986000Y-141464700D02*
X125986000Y-142505800D01*
%TO.N,/R_W*%
X137540000Y-121000000D02*
X135000000Y-121000000D01*
%TO.N,/CART_SEL*%
X129158400Y-156729500D02*
X159060800Y-156729500D01*
X128380000Y-155951100D02*
X129158400Y-156729500D01*
X124570000Y-150460000D02*
X128380000Y-154270000D01*
X128380000Y-154270000D02*
X128380000Y-155951100D01*
%TO.N,+5V*%
X166157600Y-115882100D02*
X165098800Y-114823300D01*
X136443300Y-114823300D02*
X135000000Y-113380000D01*
X135000000Y-108000000D02*
X116309000Y-108000000D01*
X165098800Y-114823300D02*
X136443300Y-114823300D01*
X166157600Y-122842400D02*
X166157600Y-115882100D01*
X165000000Y-124000000D02*
X166157600Y-122842400D01*
X112000000Y-104500000D02*
X113176700Y-104500000D01*
X113176700Y-104867700D02*
X113176700Y-104500000D01*
X116309000Y-108000000D02*
X113176700Y-104867700D01*
X119500000Y-126760000D02*
X108680000Y-126760000D01*
X108680000Y-126760000D02*
X105000000Y-123080000D01*
%TO.N,GND*%
X145160000Y-121000000D02*
X142620000Y-121000000D01*
X140000000Y-108000000D02*
X136500000Y-104500000D01*
X146296700Y-122136700D02*
X145160000Y-121000000D01*
X149103300Y-122136700D02*
X146296700Y-122136700D01*
X150240000Y-121000000D02*
X149103300Y-122136700D01*
X142620000Y-121000000D02*
X139620000Y-118000000D01*
X136500000Y-104500000D02*
X129780000Y-104500000D01*
X111490000Y-145000000D02*
X116950000Y-150460000D01*
X107000000Y-145000000D02*
X111490000Y-145000000D01*
X137540000Y-113380000D02*
X140080000Y-113380000D01*
X145160000Y-113380000D02*
X147700000Y-113380000D01*
X139620000Y-118000000D02*
X105000000Y-118000000D01*
%TO.N,/A0*%
X143239100Y-142000000D02*
X151240000Y-150000900D01*
X142360000Y-142000000D02*
X143239100Y-142000000D01*
X151240000Y-150000900D02*
X151240000Y-151730000D01*
X151240000Y-151730000D02*
X155050000Y-155540000D01*
%TO.N,/A1*%
X140645100Y-142000000D02*
X148700000Y-150054900D01*
X148700000Y-150054900D02*
X148700000Y-151730000D01*
X148700000Y-151730000D02*
X152510000Y-155540000D01*
X139820000Y-142000000D02*
X140645100Y-142000000D01*
%TO.N,/A2*%
X146160000Y-151730000D02*
X149970000Y-155540000D01*
X137280000Y-142000000D02*
X138137600Y-142000000D01*
X146160000Y-150022400D02*
X146160000Y-151730000D01*
X138137600Y-142000000D02*
X146160000Y-150022400D01*
%TO.N,/A3*%
X143620000Y-150058900D02*
X143620000Y-151730000D01*
X134740000Y-142000000D02*
X135561100Y-142000000D01*
X135561100Y-142000000D02*
X143620000Y-150058900D01*
X143620000Y-151730000D02*
X147430000Y-155540000D01*
%TO.N,/A4*%
X141080000Y-150024600D02*
X141080000Y-151730000D01*
X132200000Y-142000000D02*
X133055400Y-142000000D01*
X133055400Y-142000000D02*
X141080000Y-150024600D01*
X141080000Y-151730000D02*
X144890000Y-155540000D01*
%TO.N,/A5*%
X142350000Y-155540000D02*
X138540000Y-151730000D01*
X130484000Y-142000000D02*
X129660000Y-142000000D01*
X138540000Y-151730000D02*
X138540000Y-150056000D01*
X138540000Y-150056000D02*
X130484000Y-142000000D01*
%TO.N,/A6*%
X127120000Y-142000000D02*
X127975200Y-142000000D01*
X136000000Y-151730000D02*
X139810000Y-155540000D01*
X127975200Y-142000000D02*
X136000000Y-150024800D01*
X136000000Y-150024800D02*
X136000000Y-151730000D01*
%TO.N,/A7*%
X133460000Y-150059300D02*
X133460000Y-151730000D01*
X124580000Y-142000000D02*
X131800700Y-149220700D01*
X133460000Y-151730000D02*
X137270000Y-155540000D01*
X132621400Y-149220700D02*
X133460000Y-150059300D01*
X131800700Y-149220700D02*
X132621400Y-149220700D01*
%TO.N,/A8*%
X124038600Y-125624900D02*
X123166700Y-126496800D01*
X123166700Y-127270100D02*
X116669500Y-133767300D01*
X123166700Y-126496800D02*
X123166700Y-127270100D01*
X116669500Y-133767300D02*
X114092100Y-133767300D01*
X127120000Y-126760000D02*
X125984900Y-125624900D01*
X125984900Y-125624900D02*
X124038600Y-125624900D01*
%TO.N,/A9*%
X123398600Y-144848600D02*
X128380000Y-149830000D01*
X129660000Y-126760000D02*
X123398600Y-133021400D01*
X128380000Y-149830000D02*
X128380000Y-151730000D01*
X128380000Y-151730000D02*
X132190000Y-155540000D01*
X123398600Y-133021400D02*
X123398600Y-144848600D01*
%TO.N,/A13*%
X122030000Y-155540000D02*
X120853300Y-154363300D01*
X120853300Y-154363300D02*
X120853300Y-130486700D01*
X120853300Y-130486700D02*
X124580000Y-126760000D01*
%TO.N,/CE_N*%
X142570000Y-124010000D02*
X152530000Y-124010000D01*
X160160000Y-116380000D02*
X158000000Y-118540000D01*
X139820000Y-126760000D02*
X142570000Y-124010000D01*
X152530000Y-124010000D02*
X158000000Y-118540000D01*
X165000000Y-116380000D02*
X160160000Y-116380000D01*
%TO.N,/EP_PIN1*%
X111040000Y-133540000D02*
X105000000Y-133540000D01*
X119500000Y-142000000D02*
X111040000Y-133540000D01*
%TO.N,/EP_PIN27*%
X115820000Y-120540000D02*
X105000000Y-120540000D01*
X122040000Y-126760000D02*
X115820000Y-120540000D01*
%TD*%
%TA.AperFunction,Conductor*%
%TO.N,GND*%
G36*
X139680000Y-113432661D02*
G01*
X139707259Y-113534394D01*
X139759920Y-113625606D01*
X139834394Y-113700080D01*
X139925606Y-113752741D01*
X140027339Y-113780000D01*
X140033554Y-113780000D01*
X139452072Y-114361481D01*
X139390749Y-114394966D01*
X139364391Y-114397800D01*
X138255608Y-114397800D01*
X138188569Y-114378115D01*
X138167927Y-114361481D01*
X137586446Y-113780000D01*
X137592661Y-113780000D01*
X137694394Y-113752741D01*
X137785606Y-113700080D01*
X137860080Y-113625606D01*
X137912741Y-113534394D01*
X137940000Y-113432661D01*
X137940000Y-113426446D01*
X138547882Y-114034328D01*
X138547883Y-114034328D01*
X138566331Y-114008937D01*
X138652085Y-113840637D01*
X138692069Y-113717579D01*
X138731506Y-113659904D01*
X138795865Y-113632705D01*
X138864711Y-113644619D01*
X138916187Y-113691863D01*
X138927931Y-113717579D01*
X138967914Y-113840637D01*
X139053666Y-114008933D01*
X139072116Y-114034328D01*
X139680000Y-113426445D01*
X139680000Y-113432661D01*
G37*
%TD.AperFunction*%
%TA.AperFunction,Conductor*%
G36*
X141437000Y-113388653D02*
G01*
X141495233Y-113427263D01*
X141522843Y-113487721D01*
X141546597Y-113637694D01*
X141546598Y-113637701D01*
X141600127Y-113802445D01*
X141678768Y-113956788D01*
X141780586Y-114096928D01*
X141780588Y-114096930D01*
X141869777Y-114186119D01*
X141903262Y-114247442D01*
X141898278Y-114317134D01*
X141856406Y-114373067D01*
X141790942Y-114397484D01*
X141782096Y-114397800D01*
X140795608Y-114397800D01*
X140728569Y-114378115D01*
X140707927Y-114361481D01*
X140126447Y-113780000D01*
X140132661Y-113780000D01*
X140234394Y-113752741D01*
X140325606Y-113700080D01*
X140400080Y-113625606D01*
X140452741Y-113534394D01*
X140480000Y-113432661D01*
X140480000Y-113426446D01*
X141087882Y-114034328D01*
X141087883Y-114034328D01*
X141106331Y-114008937D01*
X141192085Y-113840637D01*
X141250451Y-113661002D01*
X141277897Y-113487721D01*
X141307826Y-113424586D01*
X141367138Y-113387655D01*
X141437000Y-113388653D01*
G37*
%TD.AperFunction*%
%TA.AperFunction,Conductor*%
G36*
X143876259Y-113388653D02*
G01*
X143934492Y-113427262D01*
X143962102Y-113487720D01*
X143989548Y-113661002D01*
X144047914Y-113840637D01*
X144133666Y-114008933D01*
X144152116Y-114034328D01*
X144760000Y-113426445D01*
X144760000Y-113432661D01*
X144787259Y-113534394D01*
X144839920Y-113625606D01*
X144914394Y-113700080D01*
X145005606Y-113752741D01*
X145107339Y-113780000D01*
X145113554Y-113780000D01*
X144532072Y-114361481D01*
X144470749Y-114394966D01*
X144444391Y-114397800D01*
X143457904Y-114397800D01*
X143390865Y-114378115D01*
X143345110Y-114325311D01*
X143335166Y-114256153D01*
X143364191Y-114192597D01*
X143370223Y-114186119D01*
X143459414Y-114096928D01*
X143561232Y-113956788D01*
X143639873Y-113802445D01*
X143693402Y-113637701D01*
X143717156Y-113487720D01*
X143747085Y-113424587D01*
X143806396Y-113387655D01*
X143876259Y-113388653D01*
G37*
%TD.AperFunction*%
%TA.AperFunction,Conductor*%
G36*
X147300000Y-113432661D02*
G01*
X147327259Y-113534394D01*
X147379920Y-113625606D01*
X147454394Y-113700080D01*
X147545606Y-113752741D01*
X147647339Y-113780000D01*
X147653554Y-113780000D01*
X147072072Y-114361481D01*
X147010749Y-114394966D01*
X146984391Y-114397800D01*
X145875608Y-114397800D01*
X145808569Y-114378115D01*
X145787927Y-114361481D01*
X145206447Y-113780000D01*
X145212661Y-113780000D01*
X145314394Y-113752741D01*
X145405606Y-113700080D01*
X145480080Y-113625606D01*
X145532741Y-113534394D01*
X145560000Y-113432661D01*
X145560000Y-113426446D01*
X146167882Y-114034328D01*
X146167883Y-114034328D01*
X146186331Y-114008937D01*
X146272085Y-113840637D01*
X146312069Y-113717579D01*
X146351506Y-113659904D01*
X146415865Y-113632705D01*
X146484711Y-113644619D01*
X146536187Y-113691863D01*
X146547931Y-113717579D01*
X146587914Y-113840637D01*
X146673666Y-114008933D01*
X146692116Y-114034328D01*
X147300000Y-113426445D01*
X147300000Y-113432661D01*
G37*
%TD.AperFunction*%
%TA.AperFunction,Conductor*%
G36*
X149057000Y-113388653D02*
G01*
X149115233Y-113427263D01*
X149142843Y-113487721D01*
X149166597Y-113637694D01*
X149166598Y-113637701D01*
X149220127Y-113802445D01*
X149298768Y-113956788D01*
X149400586Y-114096928D01*
X149400588Y-114096930D01*
X149489777Y-114186119D01*
X149523262Y-114247442D01*
X149518278Y-114317134D01*
X149476406Y-114373067D01*
X149410942Y-114397484D01*
X149402096Y-114397800D01*
X148415608Y-114397800D01*
X148348569Y-114378115D01*
X148327927Y-114361481D01*
X147746447Y-113780000D01*
X147752661Y-113780000D01*
X147854394Y-113752741D01*
X147945606Y-113700080D01*
X148020080Y-113625606D01*
X148072741Y-113534394D01*
X148100000Y-113432661D01*
X148100000Y-113426446D01*
X148707882Y-114034328D01*
X148707883Y-114034328D01*
X148726331Y-114008937D01*
X148812085Y-113840637D01*
X148870451Y-113661002D01*
X148897897Y-113487721D01*
X148927826Y-113424586D01*
X148987138Y-113387655D01*
X149057000Y-113388653D01*
G37*
%TD.AperFunction*%
%TA.AperFunction,Conductor*%
G36*
X169003736Y-100500726D02*
G01*
X169293797Y-100518271D01*
X169308660Y-100520076D01*
X169590798Y-100571780D01*
X169605335Y-100575363D01*
X169879172Y-100660695D01*
X169893163Y-100666000D01*
X170154743Y-100783727D01*
X170167989Y-100790680D01*
X170413465Y-100939075D01*
X170425776Y-100947573D01*
X170651573Y-101124473D01*
X170662781Y-101134403D01*
X170865596Y-101337218D01*
X170875525Y-101348425D01*
X170995481Y-101501538D01*
X171052422Y-101574217D01*
X171060928Y-101586540D01*
X171209316Y-101832004D01*
X171216275Y-101845263D01*
X171333997Y-102106831D01*
X171339306Y-102120832D01*
X171424635Y-102394663D01*
X171428219Y-102409201D01*
X171479923Y-102691339D01*
X171481728Y-102706204D01*
X171499274Y-102996263D01*
X171499500Y-103003750D01*
X171499500Y-156996249D01*
X171499274Y-157003736D01*
X171481728Y-157293794D01*
X171479923Y-157308659D01*
X171428219Y-157590797D01*
X171424635Y-157605335D01*
X171339304Y-157879174D01*
X171333994Y-157893176D01*
X171216277Y-158154730D01*
X171209319Y-158167987D01*
X171060928Y-158413458D01*
X171052422Y-158425782D01*
X170875525Y-158651573D01*
X170865595Y-158662781D01*
X170662781Y-158865595D01*
X170651573Y-158875525D01*
X170425782Y-159052422D01*
X170413458Y-159060928D01*
X170167987Y-159209319D01*
X170154730Y-159216277D01*
X169893176Y-159333994D01*
X169879174Y-159339304D01*
X169605335Y-159424635D01*
X169590797Y-159428219D01*
X169308659Y-159479923D01*
X169293794Y-159481728D01*
X169003736Y-159499274D01*
X168996249Y-159499500D01*
X103003751Y-159499500D01*
X102996264Y-159499274D01*
X102706204Y-159481728D01*
X102691339Y-159479923D01*
X102409201Y-159428219D01*
X102394663Y-159424635D01*
X102120832Y-159339306D01*
X102106831Y-159333997D01*
X101845263Y-159216275D01*
X101832004Y-159209316D01*
X101586537Y-159060926D01*
X101574217Y-159052422D01*
X101348426Y-158875526D01*
X101337218Y-158865596D01*
X101134403Y-158662781D01*
X101124473Y-158651573D01*
X100947573Y-158425776D01*
X100939075Y-158413465D01*
X100790679Y-158167987D01*
X100783727Y-158154743D01*
X100666000Y-157893163D01*
X100660693Y-157879167D01*
X100575364Y-157605336D01*
X100571780Y-157590798D01*
X100520076Y-157308660D01*
X100518271Y-157293795D01*
X100512072Y-157191319D01*
X100500726Y-157003736D01*
X100500500Y-156996249D01*
X100500500Y-144406898D01*
X103899500Y-144406898D01*
X103899500Y-145593102D01*
X103903803Y-145628937D01*
X103910122Y-145681561D01*
X103965639Y-145822343D01*
X104057077Y-145942922D01*
X104177656Y-146034360D01*
X104177657Y-146034360D01*
X104177658Y-146034361D01*
X104318436Y-146089877D01*
X104406898Y-146100500D01*
X104406903Y-146100500D01*
X105593097Y-146100500D01*
X105593102Y-146100500D01*
X105681564Y-146089877D01*
X105822342Y-146034361D01*
X105942922Y-145942922D01*
X105986317Y-145885698D01*
X106034360Y-145822343D01*
X106034359Y-145822343D01*
X106034361Y-145822342D01*
X106089877Y-145681564D01*
X106100500Y-145593102D01*
X106100500Y-145593085D01*
X106100689Y-145589932D01*
X106124344Y-145524188D01*
X106136787Y-145509658D01*
X106600000Y-145046444D01*
X106600000Y-145052661D01*
X106627259Y-145154394D01*
X106679920Y-145245606D01*
X106754394Y-145320080D01*
X106845606Y-145372741D01*
X106947339Y-145400000D01*
X106953554Y-145400000D01*
X106345669Y-146007882D01*
X106345670Y-146007883D01*
X106371059Y-146026329D01*
X106539362Y-146112085D01*
X106718997Y-146170451D01*
X106905553Y-146200000D01*
X107094447Y-146200000D01*
X107281002Y-146170451D01*
X107460637Y-146112085D01*
X107628937Y-146026331D01*
X107654328Y-146007883D01*
X107654328Y-146007882D01*
X107046447Y-145400000D01*
X107052661Y-145400000D01*
X107154394Y-145372741D01*
X107245606Y-145320080D01*
X107320080Y-145245606D01*
X107372741Y-145154394D01*
X107400000Y-145052661D01*
X107400000Y-145046446D01*
X108007882Y-145654328D01*
X108007883Y-145654328D01*
X108026331Y-145628937D01*
X108112085Y-145460637D01*
X108170451Y-145281002D01*
X108200000Y-145094447D01*
X108200000Y-144905552D01*
X108170451Y-144718997D01*
X108112085Y-144539362D01*
X108026329Y-144371059D01*
X108007883Y-144345670D01*
X108007882Y-144345669D01*
X107400000Y-144953552D01*
X107400000Y-144947339D01*
X107372741Y-144845606D01*
X107320080Y-144754394D01*
X107245606Y-144679920D01*
X107154394Y-144627259D01*
X107052661Y-144600000D01*
X107046447Y-144600000D01*
X107654328Y-143992116D01*
X107628933Y-143973666D01*
X107460637Y-143887914D01*
X107281002Y-143829548D01*
X107094447Y-143800000D01*
X106905553Y-143800000D01*
X106718997Y-143829548D01*
X106539362Y-143887914D01*
X106371060Y-143973669D01*
X106345670Y-143992116D01*
X106345669Y-143992116D01*
X106953554Y-144600000D01*
X106947339Y-144600000D01*
X106845606Y-144627259D01*
X106754394Y-144679920D01*
X106679920Y-144754394D01*
X106627259Y-144845606D01*
X106600000Y-144947339D01*
X106600000Y-144953554D01*
X106136787Y-144490341D01*
X106103302Y-144429018D01*
X106100690Y-144410068D01*
X106100501Y-144406913D01*
X106100500Y-144406903D01*
X106100500Y-144406898D01*
X106089877Y-144318436D01*
X106034361Y-144177658D01*
X105986314Y-144114299D01*
X105986314Y-144114298D01*
X105942922Y-144057077D01*
X105822343Y-143965639D01*
X105681561Y-143910122D01*
X105635926Y-143904642D01*
X105593102Y-143899500D01*
X104406898Y-143899500D01*
X104367853Y-143904188D01*
X104318438Y-143910122D01*
X104177656Y-143965639D01*
X104057077Y-144057077D01*
X103965639Y-144177656D01*
X103910122Y-144318438D01*
X103904188Y-144367853D01*
X103899500Y-144406898D01*
X100500500Y-144406898D01*
X100500500Y-117118513D01*
X103750000Y-117118513D01*
X103750000Y-117750000D01*
X104566988Y-117750000D01*
X104534075Y-117807007D01*
X104500000Y-117934174D01*
X104500000Y-118065826D01*
X104534075Y-118192993D01*
X104566988Y-118250000D01*
X103750001Y-118250000D01*
X103750001Y-118881479D01*
X103764835Y-118975149D01*
X103764837Y-118975155D01*
X103822356Y-119088041D01*
X103822363Y-119088050D01*
X103911949Y-119177636D01*
X103911953Y-119177639D01*
X104024855Y-119235166D01*
X104118514Y-119249999D01*
X104481074Y-119249999D01*
X104548113Y-119269683D01*
X104593868Y-119322487D01*
X104603812Y-119391646D01*
X104574787Y-119455201D01*
X104537370Y-119484483D01*
X104397004Y-119556004D01*
X104250505Y-119662441D01*
X104250500Y-119662445D01*
X104122445Y-119790500D01*
X104122441Y-119790505D01*
X104016006Y-119937002D01*
X103933788Y-120098360D01*
X103933787Y-120098363D01*
X103877829Y-120270589D01*
X103849500Y-120449448D01*
X103849500Y-120630551D01*
X103877829Y-120809410D01*
X103933787Y-120981636D01*
X103933788Y-120981639D01*
X103987275Y-121086610D01*
X103998031Y-121107721D01*
X104016006Y-121142997D01*
X104122441Y-121289494D01*
X104122445Y-121289499D01*
X104250500Y-121417554D01*
X104250505Y-121417558D01*
X104378287Y-121510396D01*
X104397006Y-121523996D01*
X104500623Y-121576792D01*
X104558360Y-121606211D01*
X104558363Y-121606212D01*
X104644476Y-121634191D01*
X104730591Y-121662171D01*
X104803639Y-121673740D01*
X104890678Y-121687527D01*
X104953813Y-121717456D01*
X104990744Y-121776768D01*
X104989746Y-121846631D01*
X104951136Y-121904863D01*
X104890678Y-121932473D01*
X104730589Y-121957829D01*
X104558363Y-122013787D01*
X104558360Y-122013788D01*
X104397002Y-122096006D01*
X104250505Y-122202441D01*
X104250500Y-122202445D01*
X104122445Y-122330500D01*
X104122441Y-122330505D01*
X104016006Y-122477002D01*
X103933788Y-122638360D01*
X103933787Y-122638363D01*
X103877829Y-122810589D01*
X103849500Y-122989448D01*
X103849500Y-123170551D01*
X103877829Y-123349410D01*
X103933787Y-123521636D01*
X103933788Y-123521639D01*
X104016006Y-123682997D01*
X104122441Y-123829494D01*
X104122445Y-123829499D01*
X104250500Y-123957554D01*
X104250505Y-123957558D01*
X104378287Y-124050396D01*
X104397006Y-124063996D01*
X104502484Y-124117740D01*
X104558360Y-124146211D01*
X104558363Y-124146212D01*
X104607260Y-124162099D01*
X104730591Y-124202171D01*
X104813429Y-124215291D01*
X104909449Y-124230500D01*
X104909454Y-124230500D01*
X105090551Y-124230500D01*
X105218305Y-124210265D01*
X105269409Y-124202171D01*
X105386600Y-124164093D01*
X105456438Y-124162099D01*
X105512596Y-124194344D01*
X108339515Y-127021263D01*
X108418737Y-127100485D01*
X108515763Y-127156503D01*
X108623982Y-127185500D01*
X118405697Y-127185500D01*
X118472736Y-127205185D01*
X118516180Y-127253204D01*
X118558766Y-127336784D01*
X118558770Y-127336792D01*
X118601100Y-127395053D01*
X118660586Y-127476928D01*
X118783072Y-127599414D01*
X118923212Y-127701232D01*
X119077555Y-127779873D01*
X119242299Y-127833402D01*
X119413389Y-127860500D01*
X119413390Y-127860500D01*
X119586610Y-127860500D01*
X119586611Y-127860500D01*
X119757701Y-127833402D01*
X119922445Y-127779873D01*
X120076788Y-127701232D01*
X120216928Y-127599414D01*
X120339414Y-127476928D01*
X120441232Y-127336788D01*
X120519873Y-127182445D01*
X120573402Y-127017701D01*
X120600500Y-126846611D01*
X120600500Y-126673389D01*
X120573402Y-126502299D01*
X120519873Y-126337555D01*
X120441232Y-126183212D01*
X120339414Y-126043072D01*
X120216928Y-125920586D01*
X120076788Y-125818768D01*
X119922445Y-125740127D01*
X119757701Y-125686598D01*
X119757699Y-125686597D01*
X119757698Y-125686597D01*
X119626271Y-125665781D01*
X119586611Y-125659500D01*
X119413389Y-125659500D01*
X119373728Y-125665781D01*
X119242302Y-125686597D01*
X119077552Y-125740128D01*
X118923211Y-125818768D01*
X118843256Y-125876859D01*
X118783072Y-125920586D01*
X118783070Y-125920588D01*
X118783069Y-125920588D01*
X118660588Y-126043069D01*
X118660588Y-126043070D01*
X118660586Y-126043072D01*
X118649371Y-126058508D01*
X118558770Y-126183207D01*
X118558768Y-126183212D01*
X118516180Y-126266795D01*
X118468208Y-126317590D01*
X118405697Y-126334500D01*
X108907610Y-126334500D01*
X108840571Y-126314815D01*
X108819929Y-126298181D01*
X106114344Y-123592596D01*
X106080859Y-123531273D01*
X106084093Y-123466600D01*
X106122171Y-123349409D01*
X106132678Y-123283069D01*
X106150500Y-123170551D01*
X106150500Y-122989448D01*
X106134019Y-122885397D01*
X106122171Y-122810591D01*
X106066211Y-122638361D01*
X106066211Y-122638360D01*
X106037740Y-122582484D01*
X105983996Y-122477006D01*
X105970396Y-122458287D01*
X105877558Y-122330505D01*
X105877554Y-122330500D01*
X105749499Y-122202445D01*
X105749494Y-122202441D01*
X105602997Y-122096006D01*
X105602996Y-122096005D01*
X105602994Y-122096004D01*
X105551300Y-122069664D01*
X105441639Y-122013788D01*
X105441636Y-122013787D01*
X105269410Y-121957829D01*
X105109321Y-121932473D01*
X105046186Y-121902544D01*
X105009255Y-121843232D01*
X105010253Y-121773370D01*
X105048863Y-121715137D01*
X105109321Y-121687527D01*
X105179425Y-121676422D01*
X105269409Y-121662171D01*
X105441639Y-121606211D01*
X105602994Y-121523996D01*
X105749501Y-121417553D01*
X105877553Y-121289501D01*
X105983996Y-121142994D01*
X106039937Y-121033203D01*
X106087910Y-120982409D01*
X106150421Y-120965500D01*
X115592390Y-120965500D01*
X115659429Y-120985185D01*
X115680071Y-121001819D01*
X118331334Y-123653082D01*
X120965335Y-126287082D01*
X120998820Y-126348405D01*
X120995586Y-126413080D01*
X120966597Y-126502301D01*
X120939500Y-126673389D01*
X120939500Y-126846611D01*
X120966598Y-127017701D01*
X121019067Y-127179184D01*
X121020128Y-127182447D01*
X121045843Y-127232915D01*
X121098768Y-127336788D01*
X121200586Y-127476928D01*
X121323072Y-127599414D01*
X121463212Y-127701232D01*
X121617555Y-127779873D01*
X121755414Y-127824666D01*
X121813087Y-127864102D01*
X121840286Y-127928461D01*
X121828371Y-127997307D01*
X121804775Y-128030277D01*
X116529571Y-133305481D01*
X116468248Y-133338966D01*
X116441890Y-133341800D01*
X114708619Y-133341800D01*
X114641580Y-133322115D01*
X114620938Y-133305481D01*
X114538645Y-133223188D01*
X114538641Y-133223185D01*
X114423917Y-133146528D01*
X114423904Y-133146521D01*
X114296432Y-133093721D01*
X114296422Y-133093718D01*
X114161095Y-133066800D01*
X114161093Y-133066800D01*
X114023107Y-133066800D01*
X114023105Y-133066800D01*
X113887777Y-133093718D01*
X113887767Y-133093721D01*
X113760295Y-133146521D01*
X113760282Y-133146528D01*
X113645558Y-133223185D01*
X113645554Y-133223188D01*
X113547988Y-133320754D01*
X113547985Y-133320758D01*
X113471328Y-133435482D01*
X113471321Y-133435495D01*
X113418521Y-133562967D01*
X113418518Y-133562977D01*
X113391600Y-133698304D01*
X113391600Y-133698307D01*
X113391600Y-133836293D01*
X113391600Y-133836295D01*
X113391599Y-133836295D01*
X113418518Y-133971622D01*
X113418521Y-133971632D01*
X113471321Y-134099104D01*
X113471328Y-134099117D01*
X113547985Y-134213841D01*
X113547988Y-134213845D01*
X113645554Y-134311411D01*
X113645558Y-134311414D01*
X113760282Y-134388071D01*
X113760295Y-134388078D01*
X113887767Y-134440878D01*
X113887772Y-134440880D01*
X113887776Y-134440880D01*
X113887777Y-134440881D01*
X114023104Y-134467800D01*
X114023107Y-134467800D01*
X114161095Y-134467800D01*
X114252141Y-134449689D01*
X114296428Y-134440880D01*
X114423911Y-134388075D01*
X114538642Y-134311414D01*
X114560562Y-134289494D01*
X114620938Y-134229119D01*
X114682261Y-134195634D01*
X114708619Y-134192800D01*
X116725516Y-134192800D01*
X116725518Y-134192800D01*
X116833737Y-134163803D01*
X116930763Y-134107785D01*
X120216119Y-130822427D01*
X120277442Y-130788943D01*
X120347134Y-130793927D01*
X120403067Y-130835799D01*
X120427484Y-130901263D01*
X120427800Y-130910109D01*
X120427800Y-140825033D01*
X120408115Y-140892072D01*
X120355311Y-140937827D01*
X120286153Y-140947771D01*
X120258310Y-140940388D01*
X120223339Y-140926597D01*
X120181564Y-140910123D01*
X120181563Y-140910122D01*
X120181561Y-140910122D01*
X120135926Y-140904642D01*
X120093102Y-140899500D01*
X120093097Y-140899500D01*
X119052610Y-140899500D01*
X118985571Y-140879815D01*
X118964929Y-140863181D01*
X111301265Y-133199517D01*
X111301263Y-133199515D01*
X111204237Y-133143497D01*
X111096018Y-133114500D01*
X111096017Y-133114500D01*
X106150421Y-133114500D01*
X106083382Y-133094815D01*
X106039937Y-133046796D01*
X105983996Y-132937006D01*
X105983994Y-132937003D01*
X105983993Y-132937001D01*
X105877558Y-132790505D01*
X105877554Y-132790500D01*
X105749499Y-132662445D01*
X105749494Y-132662441D01*
X105602997Y-132556006D01*
X105602996Y-132556005D01*
X105602994Y-132556004D01*
X105462629Y-132484484D01*
X105411833Y-132436509D01*
X105395038Y-132368688D01*
X105417576Y-132302553D01*
X105472291Y-132259102D01*
X105518924Y-132249999D01*
X105881479Y-132249999D01*
X105975149Y-132235164D01*
X105975155Y-132235162D01*
X106088041Y-132177643D01*
X106088050Y-132177636D01*
X106177636Y-132088050D01*
X106177639Y-132088046D01*
X106235166Y-131975144D01*
X106250000Y-131881486D01*
X106250000Y-131250000D01*
X105433012Y-131250000D01*
X105465925Y-131192993D01*
X105500000Y-131065826D01*
X105500000Y-130934174D01*
X105465925Y-130807007D01*
X105433012Y-130750000D01*
X106249999Y-130750000D01*
X106249999Y-130118520D01*
X106235164Y-130024850D01*
X106235162Y-130024844D01*
X106177643Y-129911958D01*
X106177636Y-129911949D01*
X106088050Y-129822363D01*
X106088046Y-129822360D01*
X105975144Y-129764833D01*
X105881486Y-129750000D01*
X105250000Y-129750000D01*
X105250000Y-130566988D01*
X105192993Y-130534075D01*
X105065826Y-130500000D01*
X104934174Y-130500000D01*
X104807007Y-130534075D01*
X104750000Y-130566988D01*
X104750000Y-129750000D01*
X104118520Y-129750000D01*
X104024850Y-129764835D01*
X104024844Y-129764837D01*
X103911958Y-129822356D01*
X103911949Y-129822363D01*
X103822363Y-129911949D01*
X103822360Y-129911953D01*
X103764833Y-130024855D01*
X103750000Y-130118513D01*
X103750000Y-130750000D01*
X104566988Y-130750000D01*
X104534075Y-130807007D01*
X104500000Y-130934174D01*
X104500000Y-131065826D01*
X104534075Y-131192993D01*
X104566988Y-131250000D01*
X103750001Y-131250000D01*
X103750001Y-131881479D01*
X103764835Y-131975149D01*
X103764837Y-131975155D01*
X103822356Y-132088041D01*
X103822363Y-132088050D01*
X103911949Y-132177636D01*
X103911953Y-132177639D01*
X104024855Y-132235166D01*
X104118514Y-132249999D01*
X104481074Y-132249999D01*
X104548113Y-132269683D01*
X104593868Y-132322487D01*
X104603812Y-132391646D01*
X104574787Y-132455201D01*
X104537370Y-132484483D01*
X104397004Y-132556004D01*
X104250505Y-132662441D01*
X104250500Y-132662445D01*
X104122445Y-132790500D01*
X104122441Y-132790505D01*
X104016006Y-132937002D01*
X103933788Y-133098360D01*
X103933787Y-133098363D01*
X103877829Y-133270589D01*
X103849500Y-133449448D01*
X103849500Y-133630551D01*
X103877829Y-133809410D01*
X103933787Y-133981636D01*
X103933788Y-133981639D01*
X103960063Y-134033205D01*
X103998062Y-134107782D01*
X104016006Y-134142997D01*
X104122441Y-134289494D01*
X104122445Y-134289499D01*
X104250500Y-134417554D01*
X104250505Y-134417558D01*
X104282607Y-134440881D01*
X104397006Y-134523996D01*
X104502484Y-134577740D01*
X104558360Y-134606211D01*
X104558363Y-134606212D01*
X104644476Y-134634191D01*
X104730591Y-134662171D01*
X104803639Y-134673740D01*
X104890678Y-134687527D01*
X104953813Y-134717456D01*
X104990744Y-134776768D01*
X104989746Y-134846631D01*
X104951136Y-134904863D01*
X104890678Y-134932473D01*
X104730589Y-134957829D01*
X104558363Y-135013787D01*
X104558360Y-135013788D01*
X104397002Y-135096006D01*
X104250505Y-135202441D01*
X104250500Y-135202445D01*
X104122445Y-135330500D01*
X104122441Y-135330505D01*
X104016006Y-135477002D01*
X103933788Y-135638360D01*
X103933787Y-135638363D01*
X103877829Y-135810589D01*
X103849500Y-135989448D01*
X103849500Y-136170551D01*
X103877829Y-136349410D01*
X103933787Y-136521636D01*
X103933788Y-136521639D01*
X104016006Y-136682997D01*
X104122441Y-136829494D01*
X104122445Y-136829499D01*
X104250500Y-136957554D01*
X104250505Y-136957558D01*
X104378287Y-137050396D01*
X104397006Y-137063996D01*
X104468649Y-137100500D01*
X104558360Y-137146211D01*
X104558363Y-137146212D01*
X104644476Y-137174191D01*
X104730591Y-137202171D01*
X104813429Y-137215291D01*
X104909449Y-137230500D01*
X104909454Y-137230500D01*
X105090551Y-137230500D01*
X105177259Y-137216765D01*
X105269409Y-137202171D01*
X105441639Y-137146211D01*
X105602994Y-137063996D01*
X105749501Y-136957553D01*
X105877553Y-136829501D01*
X105983996Y-136682994D01*
X106066211Y-136521639D01*
X106122171Y-136349409D01*
X106136765Y-136257259D01*
X106150500Y-136170551D01*
X106150500Y-135989448D01*
X106134019Y-135885397D01*
X106122171Y-135810591D01*
X106066211Y-135638361D01*
X106066211Y-135638360D01*
X106035227Y-135577552D01*
X105983996Y-135477006D01*
X105944912Y-135423211D01*
X105877558Y-135330505D01*
X105877554Y-135330500D01*
X105749499Y-135202445D01*
X105749494Y-135202441D01*
X105602997Y-135096006D01*
X105602996Y-135096005D01*
X105602994Y-135096004D01*
X105529915Y-135058768D01*
X105441639Y-135013788D01*
X105441636Y-135013787D01*
X105269410Y-134957829D01*
X105109321Y-134932473D01*
X105046186Y-134902544D01*
X105009255Y-134843232D01*
X105010253Y-134773370D01*
X105048863Y-134715137D01*
X105109321Y-134687527D01*
X105179425Y-134676422D01*
X105269409Y-134662171D01*
X105441639Y-134606211D01*
X105602994Y-134523996D01*
X105749501Y-134417553D01*
X105877553Y-134289501D01*
X105983996Y-134142994D01*
X106039937Y-134033203D01*
X106087910Y-133982409D01*
X106150421Y-133965500D01*
X110812390Y-133965500D01*
X110879429Y-133985185D01*
X110900071Y-134001819D01*
X118363181Y-141464929D01*
X118396666Y-141526252D01*
X118399500Y-141552610D01*
X118399500Y-142593102D01*
X118403598Y-142627230D01*
X118410122Y-142681561D01*
X118410122Y-142681563D01*
X118410123Y-142681564D01*
X118427518Y-142725675D01*
X118465639Y-142822343D01*
X118557077Y-142942922D01*
X118677656Y-143034360D01*
X118677657Y-143034360D01*
X118677658Y-143034361D01*
X118818436Y-143089877D01*
X118906898Y-143100500D01*
X118906903Y-143100500D01*
X120093097Y-143100500D01*
X120093102Y-143100500D01*
X120181564Y-143089877D01*
X120258310Y-143059611D01*
X120327896Y-143053330D01*
X120389832Y-143085666D01*
X120424454Y-143146355D01*
X120427800Y-143174966D01*
X120427800Y-149475889D01*
X120408115Y-149542928D01*
X120355311Y-149588683D01*
X120286153Y-149598627D01*
X120230915Y-149576208D01*
X120092993Y-149476003D01*
X119931639Y-149393788D01*
X119931636Y-149393787D01*
X119759410Y-149337829D01*
X119580551Y-149309500D01*
X119580546Y-149309500D01*
X119399454Y-149309500D01*
X119399449Y-149309500D01*
X119220589Y-149337829D01*
X119048363Y-149393787D01*
X119048360Y-149393788D01*
X118887002Y-149476006D01*
X118740505Y-149582441D01*
X118740500Y-149582445D01*
X118612445Y-149710500D01*
X118612441Y-149710505D01*
X118506006Y-149857002D01*
X118423788Y-150018360D01*
X118423787Y-150018363D01*
X118390240Y-150121612D01*
X118350802Y-150179288D01*
X118286444Y-150206486D01*
X118217597Y-150194571D01*
X118166122Y-150147327D01*
X118154378Y-150121612D01*
X118108418Y-149980164D01*
X118019096Y-149804858D01*
X117993678Y-149769873D01*
X117993677Y-149769873D01*
X117432962Y-150330589D01*
X117415925Y-150267007D01*
X117350099Y-150152993D01*
X117257007Y-150059901D01*
X117142993Y-149994075D01*
X117079409Y-149977037D01*
X117640125Y-149416320D01*
X117640125Y-149416319D01*
X117605145Y-149390905D01*
X117429835Y-149301581D01*
X117242705Y-149240778D01*
X117048382Y-149210000D01*
X116851618Y-149210000D01*
X116657294Y-149240778D01*
X116470161Y-149301582D01*
X116294863Y-149390899D01*
X116294859Y-149390902D01*
X116259873Y-149416320D01*
X116259872Y-149416320D01*
X116820590Y-149977037D01*
X116757007Y-149994075D01*
X116642993Y-150059901D01*
X116549901Y-150152993D01*
X116484075Y-150267007D01*
X116467037Y-150330590D01*
X115906320Y-149769872D01*
X115906320Y-149769873D01*
X115880902Y-149804859D01*
X115880899Y-149804863D01*
X115791582Y-149980159D01*
X115745621Y-150121613D01*
X115706183Y-150179288D01*
X115641824Y-150206486D01*
X115572978Y-150194571D01*
X115521502Y-150147327D01*
X115509759Y-150121611D01*
X115476213Y-150018366D01*
X115476211Y-150018360D01*
X115446474Y-149960000D01*
X115393996Y-149857006D01*
X115356109Y-149804859D01*
X115287558Y-149710505D01*
X115287554Y-149710500D01*
X115159501Y-149582447D01*
X115148541Y-149574484D01*
X115133969Y-149563897D01*
X115133968Y-149563895D01*
X115012997Y-149476006D01*
X115012996Y-149476005D01*
X115012994Y-149476004D01*
X114936906Y-149437235D01*
X114851639Y-149393788D01*
X114851636Y-149393787D01*
X114679410Y-149337829D01*
X114500551Y-149309500D01*
X114500546Y-149309500D01*
X114319454Y-149309500D01*
X114319449Y-149309500D01*
X114140589Y-149337829D01*
X113968363Y-149393787D01*
X113968360Y-149393788D01*
X113807002Y-149476006D01*
X113660505Y-149582441D01*
X113660500Y-149582445D01*
X113532445Y-149710500D01*
X113532441Y-149710505D01*
X113426006Y-149857002D01*
X113343788Y-150018360D01*
X113343787Y-150018363D01*
X113287829Y-150190589D01*
X113259500Y-150369448D01*
X113259500Y-150550551D01*
X113287829Y-150729410D01*
X113343787Y-150901636D01*
X113343788Y-150901639D01*
X113426006Y-151062997D01*
X113532441Y-151209494D01*
X113532445Y-151209499D01*
X113660500Y-151337554D01*
X113660505Y-151337558D01*
X113762386Y-151411578D01*
X113807006Y-151443996D01*
X113883094Y-151482765D01*
X113968360Y-151526211D01*
X113968363Y-151526212D01*
X114017260Y-151542099D01*
X114140591Y-151582171D01*
X114223429Y-151595291D01*
X114319449Y-151610500D01*
X114319454Y-151610500D01*
X114500551Y-151610500D01*
X114587259Y-151596765D01*
X114679409Y-151582171D01*
X114851639Y-151526211D01*
X115012994Y-151443996D01*
X115089933Y-151388097D01*
X115133973Y-151356101D01*
X115159495Y-151337558D01*
X115159497Y-151337555D01*
X115159501Y-151337553D01*
X115287553Y-151209501D01*
X115393996Y-151062994D01*
X115476211Y-150901639D01*
X115494095Y-150846596D01*
X115509759Y-150798388D01*
X115549196Y-150740712D01*
X115613554Y-150713513D01*
X115682401Y-150725427D01*
X115733877Y-150772671D01*
X115745621Y-150798386D01*
X115791581Y-150939837D01*
X115880905Y-151115145D01*
X115906319Y-151150125D01*
X115906320Y-151150125D01*
X116467037Y-150589408D01*
X116484075Y-150652993D01*
X116549901Y-150767007D01*
X116642993Y-150860099D01*
X116757007Y-150925925D01*
X116820590Y-150942962D01*
X116259873Y-151503677D01*
X116259873Y-151503678D01*
X116294858Y-151529096D01*
X116470164Y-151618418D01*
X116657294Y-151679221D01*
X116851618Y-151710000D01*
X117048382Y-151710000D01*
X117242705Y-151679221D01*
X117429835Y-151618418D01*
X117605143Y-151529095D01*
X117640125Y-151503678D01*
X117640126Y-151503678D01*
X117079410Y-150942962D01*
X117142993Y-150925925D01*
X117257007Y-150860099D01*
X117350099Y-150767007D01*
X117415925Y-150652993D01*
X117432962Y-150589410D01*
X117993678Y-151150126D01*
X117993678Y-151150125D01*
X118019095Y-151115143D01*
X118108418Y-150939835D01*
X118154378Y-150798387D01*
X118193815Y-150740712D01*
X118258174Y-150713513D01*
X118327020Y-150725428D01*
X118378496Y-150772672D01*
X118390240Y-150798387D01*
X118423787Y-150901636D01*
X118423788Y-150901639D01*
X118506006Y-151062997D01*
X118612441Y-151209494D01*
X118612445Y-151209499D01*
X118740500Y-151337554D01*
X118740505Y-151337558D01*
X118842386Y-151411578D01*
X118887006Y-151443996D01*
X118963094Y-151482765D01*
X119048360Y-151526211D01*
X119048363Y-151526212D01*
X119097260Y-151542099D01*
X119220591Y-151582171D01*
X119303429Y-151595291D01*
X119399449Y-151610500D01*
X119399454Y-151610500D01*
X119580551Y-151610500D01*
X119667259Y-151596765D01*
X119759409Y-151582171D01*
X119931639Y-151526211D01*
X120092994Y-151443996D01*
X120181090Y-151379991D01*
X120230915Y-151343792D01*
X120296721Y-151320312D01*
X120364775Y-151336138D01*
X120413470Y-151386244D01*
X120427800Y-151444110D01*
X120427800Y-154307282D01*
X120427800Y-154419318D01*
X120454037Y-154517234D01*
X120456797Y-154527536D01*
X120456800Y-154527543D01*
X120466983Y-154545181D01*
X120483456Y-154613081D01*
X120460603Y-154679108D01*
X120405682Y-154722298D01*
X120336128Y-154728939D01*
X120274026Y-154696923D01*
X120271915Y-154694861D01*
X120239499Y-154662445D01*
X120239494Y-154662441D01*
X120092997Y-154556006D01*
X120092996Y-154556005D01*
X120092994Y-154556004D01*
X120041300Y-154529664D01*
X119931639Y-154473788D01*
X119931636Y-154473787D01*
X119759410Y-154417829D01*
X119580551Y-154389500D01*
X119580546Y-154389500D01*
X119399454Y-154389500D01*
X119399449Y-154389500D01*
X119220589Y-154417829D01*
X119048363Y-154473787D01*
X119048360Y-154473788D01*
X118887002Y-154556006D01*
X118740505Y-154662441D01*
X118740500Y-154662445D01*
X118612445Y-154790500D01*
X118612441Y-154790505D01*
X118506006Y-154937002D01*
X118423788Y-155098360D01*
X118423787Y-155098363D01*
X118390240Y-155201612D01*
X118350802Y-155259288D01*
X118286444Y-155286486D01*
X118217597Y-155274571D01*
X118166122Y-155227327D01*
X118154378Y-155201612D01*
X118108418Y-155060164D01*
X118019096Y-154884858D01*
X117993678Y-154849873D01*
X117993677Y-154849873D01*
X117432962Y-155410589D01*
X117415925Y-155347007D01*
X117350099Y-155232993D01*
X117257007Y-155139901D01*
X117142993Y-155074075D01*
X117079409Y-155057037D01*
X117640125Y-154496320D01*
X117640125Y-154496319D01*
X117605145Y-154470905D01*
X117429835Y-154381581D01*
X117242705Y-154320778D01*
X117048382Y-154290000D01*
X116851618Y-154290000D01*
X116657294Y-154320778D01*
X116470161Y-154381582D01*
X116294863Y-154470899D01*
X116294859Y-154470902D01*
X116259873Y-154496320D01*
X116259872Y-154496320D01*
X116820590Y-155057037D01*
X116757007Y-155074075D01*
X116642993Y-155139901D01*
X116549901Y-155232993D01*
X116484075Y-155347007D01*
X116467037Y-155410590D01*
X115906320Y-154849872D01*
X115906320Y-154849873D01*
X115880902Y-154884859D01*
X115880899Y-154884863D01*
X115791582Y-155060159D01*
X115745621Y-155201613D01*
X115706183Y-155259288D01*
X115641824Y-155286486D01*
X115572978Y-155274571D01*
X115521502Y-155227327D01*
X115509759Y-155201611D01*
X115476213Y-155098366D01*
X115476211Y-155098360D01*
X115440056Y-155027403D01*
X115393996Y-154937006D01*
X115356109Y-154884859D01*
X115287558Y-154790505D01*
X115287554Y-154790500D01*
X115159501Y-154662447D01*
X115133970Y-154643898D01*
X115133968Y-154643895D01*
X115012997Y-154556006D01*
X115012996Y-154556005D01*
X115012994Y-154556004D01*
X114961300Y-154529664D01*
X114851639Y-154473788D01*
X114851636Y-154473787D01*
X114679410Y-154417829D01*
X114500551Y-154389500D01*
X114500546Y-154389500D01*
X114319454Y-154389500D01*
X114319449Y-154389500D01*
X114140589Y-154417829D01*
X113968363Y-154473787D01*
X113968360Y-154473788D01*
X113807002Y-154556006D01*
X113660505Y-154662441D01*
X113660500Y-154662445D01*
X113532445Y-154790500D01*
X113532441Y-154790505D01*
X113426006Y-154937002D01*
X113343788Y-155098360D01*
X113343787Y-155098363D01*
X113287829Y-155270589D01*
X113259500Y-155449448D01*
X113259500Y-155630551D01*
X113287829Y-155809410D01*
X113343787Y-155981636D01*
X113343788Y-155981639D01*
X113399664Y-156091300D01*
X113408544Y-156108728D01*
X113426006Y-156142997D01*
X113532441Y-156289494D01*
X113532445Y-156289499D01*
X113660500Y-156417554D01*
X113660505Y-156417558D01*
X113686028Y-156436101D01*
X113807006Y-156523996D01*
X113912484Y-156577740D01*
X113968360Y-156606211D01*
X113968363Y-156606212D01*
X114054476Y-156634191D01*
X114140591Y-156662171D01*
X114223429Y-156675291D01*
X114319449Y-156690500D01*
X114319454Y-156690500D01*
X114500551Y-156690500D01*
X114587259Y-156676765D01*
X114679409Y-156662171D01*
X114851639Y-156606211D01*
X115012994Y-156523996D01*
X115069990Y-156482586D01*
X115133973Y-156436101D01*
X115159495Y-156417558D01*
X115159497Y-156417555D01*
X115159501Y-156417553D01*
X115287553Y-156289501D01*
X115393996Y-156142994D01*
X115476211Y-155981639D01*
X115493674Y-155927893D01*
X115509759Y-155878388D01*
X115549196Y-155820712D01*
X115613554Y-155793513D01*
X115682401Y-155805427D01*
X115733877Y-155852671D01*
X115745621Y-155878386D01*
X115791581Y-156019837D01*
X115880905Y-156195145D01*
X115906319Y-156230125D01*
X115906320Y-156230125D01*
X116467037Y-155669408D01*
X116484075Y-155732993D01*
X116549901Y-155847007D01*
X116642993Y-155940099D01*
X116757007Y-156005925D01*
X116820590Y-156022962D01*
X116259873Y-156583677D01*
X116259873Y-156583678D01*
X116294858Y-156609096D01*
X116470164Y-156698418D01*
X116657294Y-156759221D01*
X116851618Y-156790000D01*
X117048382Y-156790000D01*
X117242705Y-156759221D01*
X117429835Y-156698418D01*
X117605143Y-156609095D01*
X117640125Y-156583678D01*
X117640126Y-156583678D01*
X117079410Y-156022962D01*
X117142993Y-156005925D01*
X117257007Y-155940099D01*
X117350099Y-155847007D01*
X117415925Y-155732993D01*
X117432962Y-155669410D01*
X117993678Y-156230126D01*
X117993678Y-156230125D01*
X118019095Y-156195143D01*
X118108418Y-156019835D01*
X118154378Y-155878387D01*
X118193815Y-155820712D01*
X118258174Y-155793513D01*
X118327020Y-155805428D01*
X118378496Y-155852672D01*
X118390240Y-155878387D01*
X118423787Y-155981636D01*
X118423788Y-155981639D01*
X118479664Y-156091300D01*
X118488544Y-156108728D01*
X118506006Y-156142997D01*
X118612441Y-156289494D01*
X118612445Y-156289499D01*
X118740500Y-156417554D01*
X118740505Y-156417558D01*
X118766028Y-156436101D01*
X118887006Y-156523996D01*
X118992484Y-156577740D01*
X119048360Y-156606211D01*
X119048363Y-156606212D01*
X119134476Y-156634191D01*
X119220591Y-156662171D01*
X119303429Y-156675291D01*
X119399449Y-156690500D01*
X119399454Y-156690500D01*
X119580551Y-156690500D01*
X119667259Y-156676765D01*
X119759409Y-156662171D01*
X119931639Y-156606211D01*
X120092994Y-156523996D01*
X120239501Y-156417553D01*
X120367553Y-156289501D01*
X120473996Y-156142994D01*
X120556211Y-155981639D01*
X120612171Y-155809409D01*
X120633027Y-155677729D01*
X120637527Y-155649321D01*
X120667456Y-155586186D01*
X120726768Y-155549255D01*
X120796630Y-155550253D01*
X120854863Y-155588863D01*
X120882473Y-155649321D01*
X120907829Y-155809410D01*
X120963787Y-155981636D01*
X120963788Y-155981639D01*
X121019664Y-156091300D01*
X121028544Y-156108728D01*
X121046006Y-156142997D01*
X121152441Y-156289494D01*
X121152445Y-156289499D01*
X121280500Y-156417554D01*
X121280505Y-156417558D01*
X121306028Y-156436101D01*
X121427006Y-156523996D01*
X121532484Y-156577740D01*
X121588360Y-156606211D01*
X121588363Y-156606212D01*
X121674476Y-156634191D01*
X121760591Y-156662171D01*
X121843429Y-156675291D01*
X121939449Y-156690500D01*
X121939454Y-156690500D01*
X122120551Y-156690500D01*
X122207259Y-156676765D01*
X122299409Y-156662171D01*
X122471639Y-156606211D01*
X122632994Y-156523996D01*
X122779501Y-156417553D01*
X122907553Y-156289501D01*
X123013996Y-156142994D01*
X123096211Y-155981639D01*
X123152171Y-155809409D01*
X123173027Y-155677729D01*
X123177527Y-155649321D01*
X123207456Y-155586186D01*
X123266768Y-155549255D01*
X123336630Y-155550253D01*
X123394863Y-155588863D01*
X123422473Y-155649321D01*
X123447829Y-155809410D01*
X123503787Y-155981636D01*
X123503788Y-155981639D01*
X123559664Y-156091300D01*
X123568544Y-156108728D01*
X123586006Y-156142997D01*
X123692441Y-156289494D01*
X123692445Y-156289499D01*
X123820500Y-156417554D01*
X123820505Y-156417558D01*
X123846028Y-156436101D01*
X123967006Y-156523996D01*
X124072484Y-156577740D01*
X124128360Y-156606211D01*
X124128363Y-156606212D01*
X124214476Y-156634191D01*
X124300591Y-156662171D01*
X124383429Y-156675291D01*
X124479449Y-156690500D01*
X124479454Y-156690500D01*
X124660551Y-156690500D01*
X124747259Y-156676765D01*
X124839409Y-156662171D01*
X125011639Y-156606211D01*
X125172994Y-156523996D01*
X125319501Y-156417553D01*
X125447553Y-156289501D01*
X125553996Y-156142994D01*
X125636211Y-155981639D01*
X125692171Y-155809409D01*
X125713027Y-155677729D01*
X125717527Y-155649321D01*
X125747456Y-155586186D01*
X125806768Y-155549255D01*
X125876630Y-155550253D01*
X125934863Y-155588863D01*
X125962473Y-155649321D01*
X125987829Y-155809410D01*
X126043787Y-155981636D01*
X126043788Y-155981639D01*
X126099664Y-156091300D01*
X126108544Y-156108728D01*
X126126006Y-156142997D01*
X126232441Y-156289494D01*
X126232445Y-156289499D01*
X126360500Y-156417554D01*
X126360505Y-156417558D01*
X126386028Y-156436101D01*
X126507006Y-156523996D01*
X126612484Y-156577740D01*
X126668360Y-156606211D01*
X126668363Y-156606212D01*
X126754476Y-156634191D01*
X126840591Y-156662171D01*
X126923429Y-156675291D01*
X127019449Y-156690500D01*
X127019454Y-156690500D01*
X127200551Y-156690500D01*
X127287259Y-156676765D01*
X127379409Y-156662171D01*
X127551639Y-156606211D01*
X127712994Y-156523996D01*
X127859501Y-156417553D01*
X127964422Y-156312632D01*
X128025745Y-156279147D01*
X128095437Y-156284131D01*
X128139784Y-156312632D01*
X128897137Y-157069985D01*
X128994163Y-157126003D01*
X129102382Y-157155000D01*
X129214419Y-157155000D01*
X158444281Y-157155000D01*
X158511320Y-157174685D01*
X158531962Y-157191319D01*
X158614254Y-157273611D01*
X158614258Y-157273614D01*
X158728982Y-157350271D01*
X158728995Y-157350278D01*
X158856467Y-157403078D01*
X158856472Y-157403080D01*
X158856476Y-157403080D01*
X158856477Y-157403081D01*
X158991804Y-157430000D01*
X158991807Y-157430000D01*
X159129795Y-157430000D01*
X159220841Y-157411889D01*
X159265128Y-157403080D01*
X159392611Y-157350275D01*
X159507342Y-157273614D01*
X159604914Y-157176042D01*
X159681575Y-157061311D01*
X159734380Y-156933828D01*
X159761300Y-156798493D01*
X159761300Y-156660507D01*
X159761300Y-156660504D01*
X159734381Y-156525177D01*
X159734380Y-156525176D01*
X159734380Y-156525172D01*
X159689805Y-156417558D01*
X159681578Y-156397695D01*
X159681571Y-156397682D01*
X159604914Y-156282958D01*
X159604911Y-156282954D01*
X159507345Y-156185388D01*
X159507341Y-156185385D01*
X159392617Y-156108728D01*
X159392604Y-156108721D01*
X159265132Y-156055921D01*
X159265122Y-156055918D01*
X159129795Y-156029000D01*
X159129793Y-156029000D01*
X158991807Y-156029000D01*
X158991802Y-156029000D01*
X158888690Y-156049510D01*
X158819098Y-156043283D01*
X158763921Y-156000419D01*
X158740677Y-155934529D01*
X158740499Y-155927893D01*
X158740499Y-154645143D01*
X158740499Y-154645136D01*
X158740497Y-154645117D01*
X158737586Y-154620012D01*
X158737585Y-154620010D01*
X158737585Y-154620009D01*
X158692206Y-154517235D01*
X158612765Y-154437794D01*
X158570921Y-154419318D01*
X158509992Y-154392415D01*
X158484865Y-154389500D01*
X156695143Y-154389500D01*
X156695117Y-154389502D01*
X156670012Y-154392413D01*
X156670008Y-154392415D01*
X156567235Y-154437793D01*
X156487794Y-154517234D01*
X156442415Y-154620006D01*
X156442415Y-154620008D01*
X156439500Y-154645131D01*
X156439500Y-155382871D01*
X156419815Y-155449910D01*
X156367011Y-155495665D01*
X156297853Y-155505609D01*
X156234297Y-155476584D01*
X156196523Y-155417806D01*
X156193027Y-155402269D01*
X156184274Y-155347007D01*
X156172171Y-155270591D01*
X156116211Y-155098361D01*
X156116211Y-155098360D01*
X156080056Y-155027403D01*
X156033996Y-154937006D01*
X155996109Y-154884859D01*
X155927558Y-154790505D01*
X155927554Y-154790500D01*
X155799499Y-154662445D01*
X155799494Y-154662441D01*
X155652997Y-154556006D01*
X155652996Y-154556005D01*
X155652994Y-154556004D01*
X155601300Y-154529664D01*
X155491639Y-154473788D01*
X155491636Y-154473787D01*
X155319410Y-154417829D01*
X155140551Y-154389500D01*
X155140546Y-154389500D01*
X154959454Y-154389500D01*
X154959449Y-154389500D01*
X154780589Y-154417829D01*
X154663402Y-154455905D01*
X154593560Y-154457900D01*
X154537403Y-154425655D01*
X151736580Y-151624832D01*
X151703095Y-151563509D01*
X151708079Y-151493817D01*
X151749951Y-151437884D01*
X151815415Y-151413467D01*
X151883688Y-151428319D01*
X151897146Y-151436833D01*
X151905793Y-151443114D01*
X151907006Y-151443996D01*
X151983094Y-151482765D01*
X152068360Y-151526211D01*
X152068363Y-151526212D01*
X152117260Y-151542099D01*
X152240591Y-151582171D01*
X152323429Y-151595291D01*
X152419449Y-151610500D01*
X152419454Y-151610500D01*
X152600551Y-151610500D01*
X152687259Y-151596765D01*
X152779409Y-151582171D01*
X152951639Y-151526211D01*
X153112994Y-151443996D01*
X153259501Y-151337553D01*
X153387553Y-151209501D01*
X153493996Y-151062994D01*
X153576211Y-150901639D01*
X153632171Y-150729409D01*
X153653027Y-150597729D01*
X153657527Y-150569321D01*
X153687456Y-150506186D01*
X153746768Y-150469255D01*
X153816630Y-150470253D01*
X153874863Y-150508863D01*
X153902473Y-150569321D01*
X153927829Y-150729410D01*
X153983787Y-150901636D01*
X153983788Y-150901639D01*
X154066006Y-151062997D01*
X154172441Y-151209494D01*
X154172445Y-151209499D01*
X154300500Y-151337554D01*
X154300505Y-151337558D01*
X154402386Y-151411578D01*
X154447006Y-151443996D01*
X154523094Y-151482765D01*
X154608360Y-151526211D01*
X154608363Y-151526212D01*
X154657260Y-151542099D01*
X154780591Y-151582171D01*
X154863429Y-151595291D01*
X154959449Y-151610500D01*
X154959454Y-151610500D01*
X155140551Y-151610500D01*
X155227259Y-151596765D01*
X155319409Y-151582171D01*
X155491639Y-151526211D01*
X155652994Y-151443996D01*
X155799501Y-151337553D01*
X155927553Y-151209501D01*
X156033996Y-151062994D01*
X156116211Y-150901639D01*
X156172171Y-150729409D01*
X156193027Y-150597729D01*
X156222956Y-150534595D01*
X156282267Y-150497663D01*
X156352130Y-150498661D01*
X156410363Y-150537271D01*
X156438477Y-150601234D01*
X156439500Y-150617127D01*
X156439500Y-151354856D01*
X156439502Y-151354882D01*
X156442413Y-151379987D01*
X156442415Y-151379991D01*
X156487793Y-151482764D01*
X156487794Y-151482765D01*
X156567235Y-151562206D01*
X156670009Y-151607585D01*
X156695135Y-151610500D01*
X158484864Y-151610499D01*
X158484879Y-151610497D01*
X158484882Y-151610497D01*
X158509987Y-151607586D01*
X158509988Y-151607585D01*
X158509991Y-151607585D01*
X158612765Y-151562206D01*
X158692206Y-151482765D01*
X158737585Y-151379991D01*
X158740500Y-151354865D01*
X158740499Y-149565136D01*
X158740497Y-149565117D01*
X158737586Y-149540012D01*
X158737585Y-149540010D01*
X158737585Y-149540009D01*
X158692206Y-149437235D01*
X158612765Y-149357794D01*
X158588867Y-149347242D01*
X158509992Y-149312415D01*
X158484865Y-149309500D01*
X156695143Y-149309500D01*
X156695117Y-149309502D01*
X156670012Y-149312413D01*
X156670008Y-149312415D01*
X156567235Y-149357793D01*
X156487794Y-149437234D01*
X156442415Y-149540006D01*
X156442415Y-149540008D01*
X156439500Y-149565131D01*
X156439500Y-150302871D01*
X156419815Y-150369910D01*
X156367011Y-150415665D01*
X156297853Y-150425609D01*
X156234297Y-150396584D01*
X156196523Y-150337806D01*
X156193027Y-150322269D01*
X156184274Y-150267007D01*
X156172171Y-150190591D01*
X156116211Y-150018361D01*
X156116211Y-150018360D01*
X156086474Y-149960000D01*
X156033996Y-149857006D01*
X155996109Y-149804859D01*
X155927558Y-149710505D01*
X155927554Y-149710500D01*
X155799499Y-149582445D01*
X155799494Y-149582441D01*
X155652993Y-149476003D01*
X155652992Y-149476002D01*
X155543205Y-149420062D01*
X155492409Y-149372088D01*
X155475500Y-149309578D01*
X155475500Y-148674084D01*
X155475500Y-148674082D01*
X155446503Y-148565863D01*
X155390485Y-148468837D01*
X155311263Y-148389615D01*
X150197639Y-143275991D01*
X150164154Y-143214668D01*
X150169138Y-143144976D01*
X150211010Y-143089043D01*
X150246997Y-143070381D01*
X150402445Y-143019873D01*
X150556788Y-142941232D01*
X150696928Y-142839414D01*
X150819414Y-142716928D01*
X150921232Y-142576788D01*
X150999873Y-142422445D01*
X151053402Y-142257701D01*
X151077156Y-142107720D01*
X151107085Y-142044587D01*
X151166396Y-142007655D01*
X151236259Y-142008653D01*
X151294492Y-142047262D01*
X151322102Y-142107720D01*
X151349548Y-142281002D01*
X151407914Y-142460637D01*
X151493666Y-142628933D01*
X151512116Y-142654328D01*
X152120000Y-142046445D01*
X152120000Y-142052661D01*
X152147259Y-142154394D01*
X152199920Y-142245606D01*
X152274394Y-142320080D01*
X152365606Y-142372741D01*
X152467339Y-142400000D01*
X152473554Y-142400000D01*
X151865669Y-143007882D01*
X151865670Y-143007883D01*
X151891059Y-143026329D01*
X152059362Y-143112085D01*
X152238997Y-143170451D01*
X152425553Y-143200000D01*
X152614447Y-143200000D01*
X152801002Y-143170451D01*
X152980637Y-143112085D01*
X153148937Y-143026331D01*
X153174328Y-143007883D01*
X153174328Y-143007882D01*
X152566447Y-142400000D01*
X152572661Y-142400000D01*
X152674394Y-142372741D01*
X152765606Y-142320080D01*
X152840080Y-142245606D01*
X152892741Y-142154394D01*
X152920000Y-142052661D01*
X152920000Y-142046446D01*
X153527882Y-142654328D01*
X153527883Y-142654328D01*
X153546331Y-142628937D01*
X153632085Y-142460637D01*
X153690451Y-142281002D01*
X153720000Y-142094447D01*
X153720000Y-141905552D01*
X153690451Y-141718997D01*
X153632085Y-141539362D01*
X153546329Y-141371059D01*
X153527883Y-141345670D01*
X153527882Y-141345669D01*
X152920000Y-141953552D01*
X152920000Y-141947339D01*
X152892741Y-141845606D01*
X152840080Y-141754394D01*
X152765606Y-141679920D01*
X152674394Y-141627259D01*
X152572661Y-141600000D01*
X152566447Y-141600000D01*
X153174328Y-140992116D01*
X153148933Y-140973666D01*
X152980637Y-140887914D01*
X152801002Y-140829548D01*
X152614447Y-140800000D01*
X152425553Y-140800000D01*
X152238997Y-140829548D01*
X152059362Y-140887914D01*
X151891060Y-140973669D01*
X151865670Y-140992116D01*
X151865669Y-140992116D01*
X152473554Y-141600000D01*
X152467339Y-141600000D01*
X152365606Y-141627259D01*
X152274394Y-141679920D01*
X152199920Y-141754394D01*
X152147259Y-141845606D01*
X152120000Y-141947339D01*
X152120000Y-141953553D01*
X151512116Y-141345669D01*
X151512116Y-141345670D01*
X151493669Y-141371060D01*
X151407914Y-141539362D01*
X151349548Y-141718997D01*
X151322102Y-141892279D01*
X151292172Y-141955413D01*
X151232861Y-141992344D01*
X151162998Y-141991346D01*
X151104766Y-141952736D01*
X151077156Y-141892277D01*
X151071692Y-141857781D01*
X151062751Y-141801325D01*
X151053403Y-141742303D01*
X151053402Y-141742302D01*
X151053402Y-141742301D01*
X151053402Y-141742299D01*
X150999873Y-141577555D01*
X150921232Y-141423212D01*
X150819414Y-141283072D01*
X150696928Y-141160586D01*
X150695325Y-141159421D01*
X150668194Y-141139708D01*
X150668171Y-141139693D01*
X150646867Y-141124215D01*
X150556788Y-141058768D01*
X150402445Y-140980127D01*
X150237701Y-140926598D01*
X150237699Y-140926597D01*
X150237698Y-140926597D01*
X150106271Y-140905781D01*
X150066611Y-140899500D01*
X149893389Y-140899500D01*
X149853728Y-140905781D01*
X149722302Y-140926597D01*
X149557552Y-140980128D01*
X149403211Y-141058768D01*
X149263073Y-141160585D01*
X149160183Y-141263475D01*
X149098860Y-141296959D01*
X149029168Y-141291975D01*
X148984821Y-141263474D01*
X148659174Y-140937827D01*
X148236363Y-140515015D01*
X148139337Y-140458997D01*
X148031118Y-140430000D01*
X146100518Y-140430000D01*
X145988481Y-140430000D01*
X145911570Y-140450608D01*
X145911569Y-140450607D01*
X145880264Y-140458996D01*
X145880259Y-140458998D01*
X145783240Y-140515012D01*
X145783234Y-140515017D01*
X145372915Y-140925335D01*
X145311592Y-140958820D01*
X145246916Y-140955585D01*
X145157704Y-140926598D01*
X145029383Y-140906274D01*
X144986611Y-140899500D01*
X144813389Y-140899500D01*
X144773728Y-140905781D01*
X144642302Y-140926597D01*
X144477552Y-140980128D01*
X144323211Y-141058768D01*
X144288969Y-141083647D01*
X144183072Y-141160586D01*
X144183070Y-141160588D01*
X144183069Y-141160588D01*
X144060588Y-141283069D01*
X144060588Y-141283070D01*
X144060586Y-141283072D01*
X144016859Y-141343256D01*
X143958768Y-141423211D01*
X143880128Y-141577550D01*
X143829424Y-141733602D01*
X143789986Y-141791277D01*
X143725627Y-141818475D01*
X143656781Y-141806560D01*
X143623812Y-141782964D01*
X143500365Y-141659517D01*
X143500363Y-141659515D01*
X143444494Y-141627259D01*
X143420629Y-141613480D01*
X143372414Y-141562912D01*
X143372145Y-141562387D01*
X143301233Y-141423213D01*
X143263341Y-141371060D01*
X143199414Y-141283072D01*
X143076928Y-141160586D01*
X142936788Y-141058768D01*
X142782445Y-140980127D01*
X142617701Y-140926598D01*
X142617699Y-140926597D01*
X142617698Y-140926597D01*
X142486271Y-140905781D01*
X142446611Y-140899500D01*
X142273389Y-140899500D01*
X142233728Y-140905781D01*
X142102302Y-140926597D01*
X141937552Y-140980128D01*
X141783211Y-141058768D01*
X141748969Y-141083647D01*
X141643072Y-141160586D01*
X141643070Y-141160588D01*
X141643069Y-141160588D01*
X141520588Y-141283069D01*
X141520588Y-141283070D01*
X141520586Y-141283072D01*
X141476859Y-141343256D01*
X141418768Y-141423211D01*
X141340128Y-141577552D01*
X141340127Y-141577554D01*
X141340127Y-141577555D01*
X141337411Y-141585913D01*
X141286597Y-141742301D01*
X141283998Y-141758714D01*
X141254068Y-141821848D01*
X141194757Y-141858779D01*
X141124894Y-141857781D01*
X141073844Y-141826996D01*
X140906364Y-141659516D01*
X140906359Y-141659512D01*
X140898521Y-141654987D01*
X140850305Y-141604420D01*
X140842590Y-141585919D01*
X140839873Y-141577555D01*
X140761232Y-141423212D01*
X140761231Y-141423211D01*
X140723341Y-141371060D01*
X140659414Y-141283072D01*
X140536928Y-141160586D01*
X140396788Y-141058768D01*
X140242445Y-140980127D01*
X140077701Y-140926598D01*
X140077699Y-140926597D01*
X140077698Y-140926597D01*
X139946271Y-140905781D01*
X139906611Y-140899500D01*
X139733389Y-140899500D01*
X139693728Y-140905781D01*
X139562302Y-140926597D01*
X139397552Y-140980128D01*
X139243211Y-141058768D01*
X139208969Y-141083647D01*
X139103072Y-141160586D01*
X139103070Y-141160588D01*
X139103069Y-141160588D01*
X138980588Y-141283069D01*
X138980588Y-141283070D01*
X138980586Y-141283072D01*
X138936859Y-141343256D01*
X138878768Y-141423211D01*
X138800128Y-141577552D01*
X138800127Y-141577554D01*
X138800127Y-141577555D01*
X138754170Y-141718997D01*
X138745093Y-141746932D01*
X138743665Y-141746468D01*
X138712168Y-141801278D01*
X138650130Y-141833420D01*
X138580564Y-141826918D01*
X138538737Y-141799389D01*
X138398865Y-141659517D01*
X138398863Y-141659515D01*
X138392366Y-141655764D01*
X138349590Y-141631066D01*
X138301375Y-141580499D01*
X138301106Y-141579975D01*
X138292412Y-141562912D01*
X138221232Y-141423212D01*
X138119414Y-141283072D01*
X137996928Y-141160586D01*
X137856788Y-141058768D01*
X137702445Y-140980127D01*
X137537701Y-140926598D01*
X137537699Y-140926597D01*
X137537698Y-140926597D01*
X137406271Y-140905781D01*
X137366611Y-140899500D01*
X137193389Y-140899500D01*
X137153728Y-140905781D01*
X137022302Y-140926597D01*
X136857552Y-140980128D01*
X136703211Y-141058768D01*
X136668969Y-141083647D01*
X136563072Y-141160586D01*
X136563070Y-141160588D01*
X136563069Y-141160588D01*
X136440588Y-141283069D01*
X136440588Y-141283070D01*
X136440586Y-141283072D01*
X136396859Y-141343256D01*
X136338768Y-141423211D01*
X136260128Y-141577552D01*
X136206597Y-141742300D01*
X136203451Y-141762167D01*
X136173521Y-141825301D01*
X136114209Y-141862231D01*
X136044346Y-141861233D01*
X135993297Y-141830448D01*
X135822366Y-141659517D01*
X135822357Y-141659510D01*
X135819443Y-141657828D01*
X135817475Y-141655764D01*
X135815915Y-141654567D01*
X135816101Y-141654323D01*
X135771228Y-141607261D01*
X135763515Y-141588765D01*
X135759873Y-141577555D01*
X135681232Y-141423212D01*
X135579414Y-141283072D01*
X135456928Y-141160586D01*
X135316788Y-141058768D01*
X135162445Y-140980127D01*
X134997701Y-140926598D01*
X134997699Y-140926597D01*
X134997698Y-140926597D01*
X134866271Y-140905781D01*
X134826611Y-140899500D01*
X134653389Y-140899500D01*
X134613728Y-140905781D01*
X134482302Y-140926597D01*
X134317552Y-140980128D01*
X134163211Y-141058768D01*
X134128969Y-141083647D01*
X134023072Y-141160586D01*
X134023070Y-141160588D01*
X134023069Y-141160588D01*
X133900588Y-141283069D01*
X133900588Y-141283070D01*
X133900586Y-141283072D01*
X133856859Y-141343256D01*
X133798768Y-141423211D01*
X133720128Y-141577552D01*
X133666595Y-141742306D01*
X133666559Y-141742460D01*
X133666529Y-141742511D01*
X133665093Y-141746932D01*
X133664163Y-141746629D01*
X133631753Y-141803043D01*
X133569718Y-141835191D01*
X133500151Y-141828697D01*
X133458311Y-141801163D01*
X133316665Y-141659517D01*
X133316663Y-141659515D01*
X133270506Y-141632866D01*
X133222292Y-141582299D01*
X133222023Y-141581774D01*
X133141233Y-141423213D01*
X133103341Y-141371060D01*
X133039414Y-141283072D01*
X132916928Y-141160586D01*
X132776788Y-141058768D01*
X132622445Y-140980127D01*
X132457701Y-140926598D01*
X132457699Y-140926597D01*
X132457698Y-140926597D01*
X132326271Y-140905781D01*
X132286611Y-140899500D01*
X132113389Y-140899500D01*
X132073728Y-140905781D01*
X131942302Y-140926597D01*
X131777552Y-140980128D01*
X131623211Y-141058768D01*
X131588969Y-141083647D01*
X131483072Y-141160586D01*
X131483070Y-141160588D01*
X131483069Y-141160588D01*
X131360588Y-141283069D01*
X131360588Y-141283070D01*
X131360586Y-141283072D01*
X131316859Y-141343256D01*
X131258768Y-141423211D01*
X131180128Y-141577552D01*
X131180127Y-141577554D01*
X131180127Y-141577555D01*
X131177411Y-141585913D01*
X131126598Y-141742299D01*
X131123847Y-141759666D01*
X131093915Y-141822800D01*
X131034602Y-141859729D01*
X130964739Y-141858729D01*
X130913693Y-141827945D01*
X130745266Y-141659517D01*
X130745263Y-141659515D01*
X130738772Y-141655767D01*
X130690559Y-141605201D01*
X130682842Y-141586694D01*
X130679873Y-141577555D01*
X130601232Y-141423212D01*
X130601231Y-141423211D01*
X130563341Y-141371060D01*
X130499414Y-141283072D01*
X130376928Y-141160586D01*
X130271031Y-141083647D01*
X130261522Y-141076738D01*
X130218857Y-141021407D01*
X130212878Y-140951794D01*
X130231307Y-140907528D01*
X130236672Y-140899500D01*
X130270875Y-140848311D01*
X130323680Y-140720828D01*
X130350600Y-140585493D01*
X130350600Y-140447507D01*
X130350600Y-140447504D01*
X130323681Y-140312177D01*
X130323680Y-140312176D01*
X130323680Y-140312172D01*
X130300097Y-140255237D01*
X130270878Y-140184695D01*
X130270871Y-140184682D01*
X130194214Y-140069958D01*
X130194211Y-140069954D01*
X130096645Y-139972388D01*
X130096641Y-139972385D01*
X129981917Y-139895728D01*
X129981904Y-139895721D01*
X129854432Y-139842921D01*
X129854422Y-139842918D01*
X129719095Y-139816000D01*
X129719093Y-139816000D01*
X129581107Y-139816000D01*
X129581105Y-139816000D01*
X129445777Y-139842918D01*
X129445767Y-139842921D01*
X129318295Y-139895721D01*
X129318282Y-139895728D01*
X129203558Y-139972385D01*
X129203554Y-139972388D01*
X129121262Y-140054681D01*
X129059939Y-140088166D01*
X129033581Y-140091000D01*
X126878181Y-140091000D01*
X126784882Y-140115998D01*
X126784883Y-140115999D01*
X126769964Y-140119996D01*
X126769960Y-140119998D01*
X126672940Y-140176013D01*
X126672934Y-140176017D01*
X126593713Y-140255239D01*
X125707296Y-141141655D01*
X125707295Y-141141655D01*
X125707296Y-141141656D01*
X125645514Y-141203438D01*
X125645510Y-141203443D01*
X125614406Y-141257317D01*
X125563839Y-141305532D01*
X125495232Y-141318754D01*
X125430367Y-141292786D01*
X125419339Y-141282997D01*
X125296930Y-141160588D01*
X125296929Y-141160587D01*
X125296928Y-141160586D01*
X125156788Y-141058768D01*
X125002445Y-140980127D01*
X124837701Y-140926598D01*
X124837699Y-140926597D01*
X124837698Y-140926597D01*
X124706271Y-140905781D01*
X124666611Y-140899500D01*
X124493389Y-140899500D01*
X124453728Y-140905781D01*
X124322302Y-140926597D01*
X124157549Y-140980129D01*
X124004394Y-141058165D01*
X123935725Y-141071061D01*
X123870985Y-141044784D01*
X123830728Y-140987678D01*
X123824100Y-140947680D01*
X123824100Y-135913389D01*
X157399500Y-135913389D01*
X157399500Y-136086611D01*
X157426598Y-136257701D01*
X157480127Y-136422445D01*
X157558768Y-136576788D01*
X157660586Y-136716928D01*
X157783072Y-136839414D01*
X157923212Y-136941232D01*
X158077555Y-137019873D01*
X158242299Y-137073402D01*
X158413389Y-137100500D01*
X158413390Y-137100500D01*
X158586610Y-137100500D01*
X158586611Y-137100500D01*
X158757701Y-137073402D01*
X158922445Y-137019873D01*
X159076788Y-136941232D01*
X159216928Y-136839414D01*
X159339414Y-136716928D01*
X159441232Y-136576788D01*
X159519873Y-136422445D01*
X159573402Y-136257701D01*
X159600500Y-136086611D01*
X159600500Y-135913389D01*
X159573402Y-135742299D01*
X159519873Y-135577555D01*
X159441232Y-135423212D01*
X159339414Y-135283072D01*
X159216928Y-135160586D01*
X159076788Y-135058768D01*
X158922445Y-134980127D01*
X158757701Y-134926598D01*
X158757699Y-134926597D01*
X158757698Y-134926597D01*
X158626271Y-134905781D01*
X158586611Y-134899500D01*
X158413389Y-134899500D01*
X158373728Y-134905781D01*
X158242302Y-134926597D01*
X158077552Y-134980128D01*
X157923211Y-135058768D01*
X157871961Y-135096004D01*
X157783072Y-135160586D01*
X157783070Y-135160588D01*
X157783069Y-135160588D01*
X157660588Y-135283069D01*
X157660588Y-135283070D01*
X157660586Y-135283072D01*
X157626124Y-135330505D01*
X157558768Y-135423211D01*
X157480128Y-135577552D01*
X157426597Y-135742302D01*
X157399500Y-135913389D01*
X123824100Y-135913389D01*
X123824100Y-133249009D01*
X123843785Y-133181970D01*
X123860414Y-133161333D01*
X126116195Y-130905552D01*
X157300000Y-130905552D01*
X157300000Y-131094447D01*
X157329548Y-131281002D01*
X157387914Y-131460637D01*
X157473666Y-131628933D01*
X157492116Y-131654328D01*
X158100000Y-131046445D01*
X158100000Y-131052661D01*
X158127259Y-131154394D01*
X158179920Y-131245606D01*
X158254394Y-131320080D01*
X158345606Y-131372741D01*
X158447339Y-131400000D01*
X158453554Y-131400000D01*
X157845669Y-132007882D01*
X157845670Y-132007883D01*
X157871059Y-132026329D01*
X158039362Y-132112085D01*
X158218997Y-132170451D01*
X158405553Y-132200000D01*
X158594447Y-132200000D01*
X158781002Y-132170451D01*
X158960637Y-132112085D01*
X159128937Y-132026331D01*
X159154328Y-132007883D01*
X159154328Y-132007882D01*
X158546447Y-131400000D01*
X158552661Y-131400000D01*
X158654394Y-131372741D01*
X158745606Y-131320080D01*
X158820080Y-131245606D01*
X158872741Y-131154394D01*
X158900000Y-131052661D01*
X158900000Y-131046446D01*
X159507882Y-131654328D01*
X159507883Y-131654328D01*
X159526331Y-131628937D01*
X159612085Y-131460637D01*
X159670451Y-131281002D01*
X159700000Y-131094447D01*
X159700000Y-130905552D01*
X159670451Y-130718997D01*
X159612085Y-130539362D01*
X159526329Y-130371059D01*
X159507883Y-130345670D01*
X159507882Y-130345669D01*
X158900000Y-130953552D01*
X158900000Y-130947339D01*
X158872741Y-130845606D01*
X158820080Y-130754394D01*
X158745606Y-130679920D01*
X158654394Y-130627259D01*
X158552661Y-130600000D01*
X158546447Y-130600000D01*
X159154328Y-129992116D01*
X159128933Y-129973666D01*
X158960637Y-129887914D01*
X158781002Y-129829548D01*
X158594447Y-129800000D01*
X158405553Y-129800000D01*
X158218997Y-129829548D01*
X158039362Y-129887914D01*
X157871060Y-129973669D01*
X157845670Y-129992116D01*
X157845669Y-129992116D01*
X158453554Y-130600000D01*
X158447339Y-130600000D01*
X158345606Y-130627259D01*
X158254394Y-130679920D01*
X158179920Y-130754394D01*
X158127259Y-130845606D01*
X158100000Y-130947339D01*
X158100000Y-130953553D01*
X157492116Y-130345669D01*
X157492116Y-130345670D01*
X157473669Y-130371060D01*
X157387914Y-130539362D01*
X157329548Y-130718997D01*
X157300000Y-130905552D01*
X126116195Y-130905552D01*
X129187085Y-127834661D01*
X129248406Y-127801178D01*
X129313081Y-127804412D01*
X129402299Y-127833402D01*
X129573389Y-127860500D01*
X129573390Y-127860500D01*
X129746610Y-127860500D01*
X129746611Y-127860500D01*
X129917701Y-127833402D01*
X130082445Y-127779873D01*
X130236788Y-127701232D01*
X130376928Y-127599414D01*
X130499414Y-127476928D01*
X130601232Y-127336788D01*
X130679873Y-127182445D01*
X130733402Y-127017701D01*
X130760500Y-126846611D01*
X130760500Y-126673389D01*
X131099500Y-126673389D01*
X131099500Y-126846611D01*
X131126598Y-127017701D01*
X131179067Y-127179184D01*
X131180128Y-127182447D01*
X131205843Y-127232915D01*
X131258768Y-127336788D01*
X131360586Y-127476928D01*
X131483072Y-127599414D01*
X131623212Y-127701232D01*
X131777555Y-127779873D01*
X131942299Y-127833402D01*
X132113389Y-127860500D01*
X132113390Y-127860500D01*
X132286610Y-127860500D01*
X132286611Y-127860500D01*
X132457701Y-127833402D01*
X132622445Y-127779873D01*
X132776788Y-127701232D01*
X132916928Y-127599414D01*
X133039414Y-127476928D01*
X133141232Y-127336788D01*
X133219873Y-127182445D01*
X133273402Y-127017701D01*
X133300500Y-126846611D01*
X133300500Y-126673389D01*
X133639500Y-126673389D01*
X133639500Y-126846611D01*
X133666598Y-127017701D01*
X133719067Y-127179184D01*
X133720128Y-127182447D01*
X133745843Y-127232915D01*
X133798768Y-127336788D01*
X133900586Y-127476928D01*
X134023072Y-127599414D01*
X134163212Y-127701232D01*
X134317555Y-127779873D01*
X134482299Y-127833402D01*
X134653389Y-127860500D01*
X134653390Y-127860500D01*
X134826610Y-127860500D01*
X134826611Y-127860500D01*
X134997701Y-127833402D01*
X135162445Y-127779873D01*
X135316788Y-127701232D01*
X135456928Y-127599414D01*
X135579414Y-127476928D01*
X135681232Y-127336788D01*
X135759873Y-127182445D01*
X135813402Y-127017701D01*
X135840500Y-126846611D01*
X135840500Y-126673389D01*
X136179500Y-126673389D01*
X136179500Y-126846611D01*
X136206598Y-127017701D01*
X136259067Y-127179184D01*
X136260128Y-127182447D01*
X136285843Y-127232915D01*
X136338768Y-127336788D01*
X136440586Y-127476928D01*
X136563072Y-127599414D01*
X136703212Y-127701232D01*
X136857555Y-127779873D01*
X137022299Y-127833402D01*
X137193389Y-127860500D01*
X137193390Y-127860500D01*
X137366610Y-127860500D01*
X137366611Y-127860500D01*
X137537701Y-127833402D01*
X137702445Y-127779873D01*
X137856788Y-127701232D01*
X137996928Y-127599414D01*
X138119414Y-127476928D01*
X138221232Y-127336788D01*
X138299873Y-127182445D01*
X138353402Y-127017701D01*
X138380500Y-126846611D01*
X138380500Y-126673389D01*
X138353402Y-126502299D01*
X138299873Y-126337555D01*
X138221232Y-126183212D01*
X138119414Y-126043072D01*
X137996928Y-125920586D01*
X137856788Y-125818768D01*
X137702445Y-125740127D01*
X137537701Y-125686598D01*
X137537699Y-125686597D01*
X137537698Y-125686597D01*
X137406271Y-125665781D01*
X137366611Y-125659500D01*
X137193389Y-125659500D01*
X137153728Y-125665781D01*
X137022302Y-125686597D01*
X136857552Y-125740128D01*
X136703211Y-125818768D01*
X136623256Y-125876859D01*
X136563072Y-125920586D01*
X136563070Y-125920588D01*
X136563069Y-125920588D01*
X136440588Y-126043069D01*
X136440588Y-126043070D01*
X136440586Y-126043072D01*
X136404168Y-126093197D01*
X136338768Y-126183211D01*
X136260128Y-126337552D01*
X136260127Y-126337554D01*
X136260127Y-126337555D01*
X136256602Y-126348405D01*
X136206597Y-126502302D01*
X136179500Y-126673389D01*
X135840500Y-126673389D01*
X135813402Y-126502299D01*
X135759873Y-126337555D01*
X135681232Y-126183212D01*
X135579414Y-126043072D01*
X135456928Y-125920586D01*
X135316788Y-125818768D01*
X135162445Y-125740127D01*
X134997701Y-125686598D01*
X134997699Y-125686597D01*
X134997698Y-125686597D01*
X134866271Y-125665781D01*
X134826611Y-125659500D01*
X134653389Y-125659500D01*
X134613728Y-125665781D01*
X134482302Y-125686597D01*
X134317552Y-125740128D01*
X134163211Y-125818768D01*
X134083256Y-125876859D01*
X134023072Y-125920586D01*
X134023070Y-125920588D01*
X134023069Y-125920588D01*
X133900588Y-126043069D01*
X133900588Y-126043070D01*
X133900586Y-126043072D01*
X133864168Y-126093197D01*
X133798768Y-126183211D01*
X133720128Y-126337552D01*
X133720127Y-126337554D01*
X133720127Y-126337555D01*
X133716602Y-126348405D01*
X133666597Y-126502302D01*
X133639500Y-126673389D01*
X133300500Y-126673389D01*
X133273402Y-126502299D01*
X133219873Y-126337555D01*
X133141232Y-126183212D01*
X133039414Y-126043072D01*
X132916928Y-125920586D01*
X132776788Y-125818768D01*
X132622445Y-125740127D01*
X132457701Y-125686598D01*
X132457699Y-125686597D01*
X132457698Y-125686597D01*
X132326271Y-125665781D01*
X132286611Y-125659500D01*
X132113389Y-125659500D01*
X132073728Y-125665781D01*
X131942302Y-125686597D01*
X131777552Y-125740128D01*
X131623211Y-125818768D01*
X131543256Y-125876859D01*
X131483072Y-125920586D01*
X131483070Y-125920588D01*
X131483069Y-125920588D01*
X131360588Y-126043069D01*
X131360588Y-126043070D01*
X131360586Y-126043072D01*
X131324168Y-126093197D01*
X131258768Y-126183211D01*
X131180128Y-126337552D01*
X131180127Y-126337554D01*
X131180127Y-126337555D01*
X131176602Y-126348405D01*
X131126597Y-126502302D01*
X131099500Y-126673389D01*
X130760500Y-126673389D01*
X130733402Y-126502299D01*
X130679873Y-126337555D01*
X130601232Y-126183212D01*
X130499414Y-126043072D01*
X130376928Y-125920586D01*
X130236788Y-125818768D01*
X130082445Y-125740127D01*
X129917701Y-125686598D01*
X129917699Y-125686597D01*
X129917698Y-125686597D01*
X129786271Y-125665781D01*
X129746611Y-125659500D01*
X129573389Y-125659500D01*
X129533728Y-125665781D01*
X129402302Y-125686597D01*
X129237552Y-125740128D01*
X129083211Y-125818768D01*
X129003256Y-125876859D01*
X128943072Y-125920586D01*
X128943070Y-125920588D01*
X128943069Y-125920588D01*
X128820588Y-126043069D01*
X128820588Y-126043070D01*
X128820586Y-126043072D01*
X128784168Y-126093197D01*
X128718768Y-126183211D01*
X128640128Y-126337552D01*
X128640127Y-126337554D01*
X128640127Y-126337555D01*
X128636602Y-126348405D01*
X128586597Y-126502302D01*
X128559500Y-126673389D01*
X128559500Y-126846610D01*
X128586598Y-127017702D01*
X128586598Y-127017705D01*
X128615585Y-127106916D01*
X128617580Y-127176757D01*
X128585335Y-127232915D01*
X123137337Y-132680915D01*
X123058117Y-132760134D01*
X123058113Y-132760140D01*
X123002098Y-132857160D01*
X123002097Y-132857163D01*
X122973100Y-132965382D01*
X122973100Y-141077396D01*
X122953415Y-141144435D01*
X122900611Y-141190190D01*
X122831453Y-141200134D01*
X122767897Y-141171109D01*
X122761419Y-141165077D01*
X122756930Y-141160588D01*
X122756929Y-141160587D01*
X122756928Y-141160586D01*
X122616788Y-141058768D01*
X122462445Y-140980127D01*
X122297701Y-140926598D01*
X122297699Y-140926597D01*
X122297698Y-140926597D01*
X122166271Y-140905781D01*
X122126611Y-140899500D01*
X121953389Y-140899500D01*
X121913728Y-140905781D01*
X121782302Y-140926597D01*
X121617549Y-140980129D01*
X121459094Y-141060865D01*
X121390425Y-141073761D01*
X121325685Y-141047484D01*
X121285428Y-140990377D01*
X121278800Y-140950380D01*
X121278800Y-130714309D01*
X121298485Y-130647270D01*
X121315114Y-130626633D01*
X124107085Y-127834661D01*
X124168406Y-127801178D01*
X124233081Y-127804412D01*
X124322299Y-127833402D01*
X124493389Y-127860500D01*
X124493390Y-127860500D01*
X124666610Y-127860500D01*
X124666611Y-127860500D01*
X124837701Y-127833402D01*
X125002445Y-127779873D01*
X125156788Y-127701232D01*
X125296928Y-127599414D01*
X125419414Y-127476928D01*
X125521232Y-127336788D01*
X125599873Y-127182445D01*
X125653402Y-127017701D01*
X125680500Y-126846611D01*
X125680500Y-126673389D01*
X125653402Y-126502299D01*
X125599873Y-126337555D01*
X125598316Y-126334500D01*
X125545426Y-126230694D01*
X125544918Y-126227989D01*
X125543117Y-126225911D01*
X125538508Y-126193857D01*
X125532530Y-126162025D01*
X125533564Y-126159476D01*
X125533173Y-126156753D01*
X125546629Y-126127287D01*
X125558807Y-126097285D01*
X125561054Y-126095700D01*
X125562198Y-126093197D01*
X125589446Y-126075685D01*
X125615913Y-126057028D01*
X125619369Y-126056455D01*
X125620976Y-126055423D01*
X125655911Y-126050400D01*
X125757290Y-126050400D01*
X125824329Y-126070085D01*
X125844971Y-126086719D01*
X126045335Y-126287083D01*
X126078820Y-126348406D01*
X126075585Y-126413081D01*
X126046598Y-126502295D01*
X126019500Y-126673389D01*
X126019500Y-126846611D01*
X126046598Y-127017701D01*
X126099067Y-127179184D01*
X126100128Y-127182447D01*
X126125843Y-127232915D01*
X126178768Y-127336788D01*
X126280586Y-127476928D01*
X126403072Y-127599414D01*
X126543212Y-127701232D01*
X126697555Y-127779873D01*
X126862299Y-127833402D01*
X127033389Y-127860500D01*
X127033390Y-127860500D01*
X127206610Y-127860500D01*
X127206611Y-127860500D01*
X127377701Y-127833402D01*
X127542445Y-127779873D01*
X127696788Y-127701232D01*
X127836928Y-127599414D01*
X127959414Y-127476928D01*
X128061232Y-127336788D01*
X128139873Y-127182445D01*
X128193402Y-127017701D01*
X128220500Y-126846611D01*
X128220500Y-126673389D01*
X128193402Y-126502299D01*
X128139873Y-126337555D01*
X128061232Y-126183212D01*
X127959414Y-126043072D01*
X127836928Y-125920586D01*
X127696788Y-125818768D01*
X127542445Y-125740127D01*
X127377701Y-125686598D01*
X127377699Y-125686597D01*
X127377698Y-125686597D01*
X127246271Y-125665781D01*
X127206611Y-125659500D01*
X127033389Y-125659500D01*
X126999171Y-125664919D01*
X126862295Y-125686598D01*
X126773081Y-125715585D01*
X126703240Y-125717580D01*
X126647083Y-125685335D01*
X126246165Y-125284417D01*
X126246163Y-125284415D01*
X126149137Y-125228397D01*
X126040918Y-125199400D01*
X124094619Y-125199400D01*
X123982582Y-125199400D01*
X123874363Y-125228397D01*
X123874360Y-125228398D01*
X123777340Y-125284413D01*
X123777334Y-125284417D01*
X123036727Y-126025023D01*
X122975404Y-126058508D01*
X122905712Y-126053524D01*
X122861365Y-126025023D01*
X122756930Y-125920588D01*
X122756928Y-125920586D01*
X122616788Y-125818768D01*
X122462445Y-125740127D01*
X122297701Y-125686598D01*
X122297699Y-125686597D01*
X122297698Y-125686597D01*
X122166271Y-125665781D01*
X122126611Y-125659500D01*
X121953389Y-125659500D01*
X121921192Y-125664599D01*
X121782301Y-125686597D01*
X121693080Y-125715586D01*
X121623238Y-125717580D01*
X121567082Y-125685335D01*
X116372621Y-120490873D01*
X116288646Y-120406898D01*
X133899500Y-120406898D01*
X133899500Y-121593102D01*
X133903803Y-121628933D01*
X133910122Y-121681561D01*
X133965639Y-121822343D01*
X134057077Y-121942922D01*
X134177656Y-122034360D01*
X134177657Y-122034360D01*
X134177658Y-122034361D01*
X134318436Y-122089877D01*
X134406898Y-122100500D01*
X134406903Y-122100500D01*
X135593097Y-122100500D01*
X135593102Y-122100500D01*
X135681564Y-122089877D01*
X135822342Y-122034361D01*
X135942922Y-121942922D01*
X136034361Y-121822342D01*
X136089877Y-121681564D01*
X136100500Y-121593102D01*
X136100500Y-121549500D01*
X136103050Y-121540814D01*
X136101762Y-121531853D01*
X136112740Y-121507812D01*
X136120185Y-121482461D01*
X136127025Y-121476533D01*
X136130787Y-121468297D01*
X136153021Y-121454007D01*
X136172989Y-121436706D01*
X136183503Y-121434418D01*
X136189565Y-121430523D01*
X136224500Y-121425500D01*
X136445697Y-121425500D01*
X136512736Y-121445185D01*
X136556180Y-121493204D01*
X136571868Y-121523993D01*
X136598766Y-121576784D01*
X136598770Y-121576792D01*
X136641100Y-121635053D01*
X136700586Y-121716928D01*
X136823072Y-121839414D01*
X136963212Y-121941232D01*
X137117555Y-122019873D01*
X137282299Y-122073402D01*
X137453389Y-122100500D01*
X137453390Y-122100500D01*
X137626610Y-122100500D01*
X137626611Y-122100500D01*
X137797701Y-122073402D01*
X137962445Y-122019873D01*
X138116788Y-121941232D01*
X138256928Y-121839414D01*
X138379414Y-121716928D01*
X138481232Y-121576788D01*
X138559873Y-121422445D01*
X138613402Y-121257701D01*
X138640500Y-121086611D01*
X138640500Y-120913389D01*
X138979500Y-120913389D01*
X138979500Y-121086611D01*
X138982844Y-121107722D01*
X139005806Y-121252705D01*
X139006598Y-121257701D01*
X139058537Y-121417553D01*
X139060128Y-121422447D01*
X139079587Y-121460637D01*
X139138768Y-121576788D01*
X139240586Y-121716928D01*
X139363072Y-121839414D01*
X139503212Y-121941232D01*
X139657555Y-122019873D01*
X139822299Y-122073402D01*
X139993389Y-122100500D01*
X139993390Y-122100500D01*
X140166610Y-122100500D01*
X140166611Y-122100500D01*
X140337701Y-122073402D01*
X140502445Y-122019873D01*
X140656788Y-121941232D01*
X140796928Y-121839414D01*
X140919414Y-121716928D01*
X141021232Y-121576788D01*
X141099873Y-121422445D01*
X141153402Y-121257701D01*
X141177156Y-121107720D01*
X141207085Y-121044587D01*
X141266396Y-121007655D01*
X141336259Y-121008653D01*
X141394492Y-121047262D01*
X141422102Y-121107720D01*
X141449548Y-121281002D01*
X141507914Y-121460637D01*
X141593666Y-121628933D01*
X141612116Y-121654328D01*
X142220000Y-121046445D01*
X142220000Y-121052661D01*
X142247259Y-121154394D01*
X142299920Y-121245606D01*
X142374394Y-121320080D01*
X142465606Y-121372741D01*
X142567339Y-121400000D01*
X142573554Y-121400000D01*
X141965669Y-122007882D01*
X141965670Y-122007883D01*
X141991059Y-122026329D01*
X142159362Y-122112085D01*
X142338997Y-122170451D01*
X142525553Y-122200000D01*
X142714447Y-122200000D01*
X142901002Y-122170451D01*
X143080637Y-122112085D01*
X143248937Y-122026331D01*
X143274328Y-122007883D01*
X143274328Y-122007882D01*
X142666447Y-121400000D01*
X142672661Y-121400000D01*
X142774394Y-121372741D01*
X142865606Y-121320080D01*
X142940080Y-121245606D01*
X142992741Y-121154394D01*
X143020000Y-121052661D01*
X143020000Y-121046446D01*
X143627882Y-121654328D01*
X143627883Y-121654328D01*
X143646331Y-121628937D01*
X143732085Y-121460637D01*
X143772069Y-121337579D01*
X143811506Y-121279904D01*
X143875865Y-121252705D01*
X143944711Y-121264619D01*
X143996187Y-121311863D01*
X144007931Y-121337579D01*
X144047914Y-121460637D01*
X144133666Y-121628933D01*
X144152116Y-121654328D01*
X144760000Y-121046445D01*
X144760000Y-121052661D01*
X144787259Y-121154394D01*
X144839920Y-121245606D01*
X144914394Y-121320080D01*
X145005606Y-121372741D01*
X145107339Y-121400000D01*
X145113554Y-121400000D01*
X144505669Y-122007882D01*
X144505670Y-122007883D01*
X144531059Y-122026329D01*
X144699362Y-122112085D01*
X144878997Y-122170451D01*
X145065553Y-122200000D01*
X145254447Y-122200000D01*
X145441002Y-122170451D01*
X145620637Y-122112085D01*
X145788937Y-122026331D01*
X145814328Y-122007883D01*
X145814328Y-122007882D01*
X145206447Y-121400000D01*
X145212661Y-121400000D01*
X145314394Y-121372741D01*
X145405606Y-121320080D01*
X145480080Y-121245606D01*
X145532741Y-121154394D01*
X145560000Y-121052661D01*
X145560000Y-121046446D01*
X146167882Y-121654328D01*
X146167883Y-121654328D01*
X146186331Y-121628937D01*
X146272085Y-121460637D01*
X146330451Y-121281002D01*
X146357897Y-121107721D01*
X146387826Y-121044586D01*
X146447138Y-121007655D01*
X146517000Y-121008653D01*
X146575233Y-121047263D01*
X146602843Y-121107721D01*
X146626597Y-121257696D01*
X146626598Y-121257701D01*
X146678537Y-121417553D01*
X146680128Y-121422447D01*
X146699587Y-121460637D01*
X146758768Y-121576788D01*
X146860586Y-121716928D01*
X146983072Y-121839414D01*
X147123212Y-121941232D01*
X147277555Y-122019873D01*
X147442299Y-122073402D01*
X147613389Y-122100500D01*
X147613390Y-122100500D01*
X147786610Y-122100500D01*
X147786611Y-122100500D01*
X147957701Y-122073402D01*
X148122445Y-122019873D01*
X148276788Y-121941232D01*
X148416928Y-121839414D01*
X148539414Y-121716928D01*
X148641232Y-121576788D01*
X148719873Y-121422445D01*
X148773402Y-121257701D01*
X148797156Y-121107720D01*
X148827085Y-121044587D01*
X148886396Y-121007655D01*
X148956259Y-121008653D01*
X149014492Y-121047262D01*
X149042102Y-121107720D01*
X149069548Y-121281002D01*
X149127914Y-121460637D01*
X149213666Y-121628933D01*
X149232116Y-121654328D01*
X149840000Y-121046445D01*
X149840000Y-121052661D01*
X149867259Y-121154394D01*
X149919920Y-121245606D01*
X149994394Y-121320080D01*
X150085606Y-121372741D01*
X150187339Y-121400000D01*
X150193554Y-121400000D01*
X149585669Y-122007882D01*
X149585670Y-122007883D01*
X149611059Y-122026329D01*
X149779362Y-122112085D01*
X149958997Y-122170451D01*
X150145553Y-122200000D01*
X150334447Y-122200000D01*
X150521002Y-122170451D01*
X150700637Y-122112085D01*
X150868937Y-122026331D01*
X150894328Y-122007883D01*
X150894328Y-122007882D01*
X150286447Y-121400000D01*
X150292661Y-121400000D01*
X150394394Y-121372741D01*
X150485606Y-121320080D01*
X150560080Y-121245606D01*
X150612741Y-121154394D01*
X150640000Y-121052661D01*
X150640000Y-121046446D01*
X151247882Y-121654328D01*
X151247883Y-121654328D01*
X151266331Y-121628937D01*
X151352085Y-121460637D01*
X151410451Y-121281002D01*
X151440000Y-121094447D01*
X151440000Y-120905552D01*
X151410451Y-120718997D01*
X151352085Y-120539362D01*
X151266329Y-120371059D01*
X151247883Y-120345670D01*
X151247882Y-120345669D01*
X150640000Y-120953552D01*
X150640000Y-120947339D01*
X150612741Y-120845606D01*
X150560080Y-120754394D01*
X150485606Y-120679920D01*
X150394394Y-120627259D01*
X150292661Y-120600000D01*
X150286447Y-120600000D01*
X150894328Y-119992116D01*
X150868933Y-119973666D01*
X150700637Y-119887914D01*
X150521002Y-119829548D01*
X150334447Y-119800000D01*
X150145553Y-119800000D01*
X149958997Y-119829548D01*
X149779362Y-119887914D01*
X149611060Y-119973669D01*
X149585670Y-119992116D01*
X149585669Y-119992116D01*
X150193554Y-120600000D01*
X150187339Y-120600000D01*
X150085606Y-120627259D01*
X149994394Y-120679920D01*
X149919920Y-120754394D01*
X149867259Y-120845606D01*
X149840000Y-120947339D01*
X149840000Y-120953553D01*
X149232116Y-120345669D01*
X149232116Y-120345670D01*
X149213669Y-120371060D01*
X149127914Y-120539362D01*
X149069548Y-120718997D01*
X149042102Y-120892279D01*
X149012172Y-120955413D01*
X148952861Y-120992344D01*
X148882998Y-120991346D01*
X148824766Y-120952736D01*
X148797156Y-120892277D01*
X148773403Y-120742303D01*
X148773402Y-120742302D01*
X148773402Y-120742299D01*
X148719873Y-120577555D01*
X148641232Y-120423212D01*
X148539414Y-120283072D01*
X148416928Y-120160586D01*
X148415325Y-120159421D01*
X148388194Y-120139708D01*
X148388171Y-120139693D01*
X148331285Y-120098363D01*
X148276788Y-120058768D01*
X148122445Y-119980127D01*
X147957701Y-119926598D01*
X147957699Y-119926597D01*
X147957698Y-119926597D01*
X147826271Y-119905781D01*
X147786611Y-119899500D01*
X147613389Y-119899500D01*
X147573728Y-119905781D01*
X147442302Y-119926597D01*
X147277552Y-119980128D01*
X147123211Y-120058768D01*
X147068718Y-120098360D01*
X146983072Y-120160586D01*
X146983070Y-120160588D01*
X146983069Y-120160588D01*
X146860588Y-120283069D01*
X146860588Y-120283070D01*
X146860586Y-120283072D01*
X146834891Y-120318438D01*
X146758768Y-120423211D01*
X146680128Y-120577552D01*
X146626597Y-120742302D01*
X146602843Y-120892278D01*
X146572914Y-120955413D01*
X146513602Y-120992344D01*
X146443739Y-120991346D01*
X146385507Y-120952736D01*
X146357897Y-120892278D01*
X146330451Y-120718997D01*
X146272085Y-120539362D01*
X146186329Y-120371059D01*
X146167883Y-120345670D01*
X146167882Y-120345669D01*
X145560000Y-120953552D01*
X145560000Y-120947339D01*
X145532741Y-120845606D01*
X145480080Y-120754394D01*
X145405606Y-120679920D01*
X145314394Y-120627259D01*
X145212661Y-120600000D01*
X145206447Y-120600000D01*
X145814328Y-119992116D01*
X145788933Y-119973666D01*
X145620637Y-119887914D01*
X145441002Y-119829548D01*
X145254447Y-119800000D01*
X145065553Y-119800000D01*
X144878997Y-119829548D01*
X144699362Y-119887914D01*
X144531060Y-119973669D01*
X144505670Y-119992116D01*
X144505669Y-119992116D01*
X145113554Y-120600000D01*
X145107339Y-120600000D01*
X145005606Y-120627259D01*
X144914394Y-120679920D01*
X144839920Y-120754394D01*
X144787259Y-120845606D01*
X144760000Y-120947339D01*
X144760000Y-120953553D01*
X144152116Y-120345669D01*
X144152116Y-120345670D01*
X144133669Y-120371060D01*
X144047914Y-120539362D01*
X144007931Y-120662420D01*
X143968494Y-120720095D01*
X143904135Y-120747294D01*
X143835289Y-120735380D01*
X143783813Y-120688136D01*
X143772069Y-120662420D01*
X143732085Y-120539362D01*
X143646329Y-120371059D01*
X143627883Y-120345670D01*
X143627882Y-120345669D01*
X143020000Y-120953552D01*
X143020000Y-120947339D01*
X142992741Y-120845606D01*
X142940080Y-120754394D01*
X142865606Y-120679920D01*
X142774394Y-120627259D01*
X142672661Y-120600000D01*
X142666447Y-120600000D01*
X143274328Y-119992116D01*
X143248933Y-119973666D01*
X143080637Y-119887914D01*
X142901002Y-119829548D01*
X142714447Y-119800000D01*
X142525553Y-119800000D01*
X142338997Y-119829548D01*
X142159362Y-119887914D01*
X141991060Y-119973669D01*
X141965670Y-119992116D01*
X141965669Y-119992116D01*
X142573554Y-120600000D01*
X142567339Y-120600000D01*
X142465606Y-120627259D01*
X142374394Y-120679920D01*
X142299920Y-120754394D01*
X142247259Y-120845606D01*
X142220000Y-120947339D01*
X142220000Y-120953553D01*
X141612116Y-120345669D01*
X141612116Y-120345670D01*
X141593669Y-120371060D01*
X141507914Y-120539362D01*
X141449548Y-120718997D01*
X141422102Y-120892279D01*
X141392172Y-120955413D01*
X141332861Y-120992344D01*
X141262998Y-120991346D01*
X141204766Y-120952736D01*
X141177156Y-120892277D01*
X141153403Y-120742303D01*
X141153402Y-120742302D01*
X141153402Y-120742299D01*
X141099873Y-120577555D01*
X141021232Y-120423212D01*
X140919414Y-120283072D01*
X140796928Y-120160586D01*
X140795325Y-120159421D01*
X140768194Y-120139708D01*
X140768171Y-120139693D01*
X140711285Y-120098363D01*
X140656788Y-120058768D01*
X140502445Y-119980127D01*
X140337701Y-119926598D01*
X140337699Y-119926597D01*
X140337698Y-119926597D01*
X140206271Y-119905781D01*
X140166611Y-119899500D01*
X139993389Y-119899500D01*
X139953728Y-119905781D01*
X139822302Y-119926597D01*
X139657552Y-119980128D01*
X139503211Y-120058768D01*
X139448718Y-120098360D01*
X139363072Y-120160586D01*
X139363070Y-120160588D01*
X139363069Y-120160588D01*
X139240588Y-120283069D01*
X139240588Y-120283070D01*
X139240586Y-120283072D01*
X139214891Y-120318438D01*
X139138768Y-120423211D01*
X139060128Y-120577552D01*
X139006597Y-120742302D01*
X138990236Y-120845606D01*
X138979500Y-120913389D01*
X138640500Y-120913389D01*
X138613402Y-120742299D01*
X138559873Y-120577555D01*
X138481232Y-120423212D01*
X138379414Y-120283072D01*
X138256928Y-120160586D01*
X138116788Y-120058768D01*
X137962445Y-119980127D01*
X137797701Y-119926598D01*
X137797699Y-119926597D01*
X137797698Y-119926597D01*
X137666271Y-119905781D01*
X137626611Y-119899500D01*
X137453389Y-119899500D01*
X137413728Y-119905781D01*
X137282302Y-119926597D01*
X137117552Y-119980128D01*
X136963211Y-120058768D01*
X136908718Y-120098360D01*
X136823072Y-120160586D01*
X136823070Y-120160588D01*
X136823069Y-120160588D01*
X136700588Y-120283069D01*
X136700588Y-120283070D01*
X136700586Y-120283072D01*
X136675040Y-120318232D01*
X136598770Y-120423207D01*
X136598768Y-120423212D01*
X136556180Y-120506795D01*
X136545732Y-120517857D01*
X136539410Y-120531703D01*
X136522228Y-120542744D01*
X136508208Y-120557590D01*
X136492528Y-120561831D01*
X136480632Y-120569477D01*
X136445697Y-120574500D01*
X136224500Y-120574500D01*
X136157461Y-120554815D01*
X136111706Y-120502011D01*
X136100500Y-120450500D01*
X136100500Y-120406903D01*
X136100500Y-120406898D01*
X136089877Y-120318436D01*
X136034361Y-120177658D01*
X136034360Y-120177657D01*
X136034360Y-120177656D01*
X135942922Y-120057077D01*
X135822343Y-119965639D01*
X135681561Y-119910122D01*
X135635926Y-119904642D01*
X135593102Y-119899500D01*
X134406898Y-119899500D01*
X134367853Y-119904188D01*
X134318438Y-119910122D01*
X134177656Y-119965639D01*
X134057077Y-120057077D01*
X133965639Y-120177656D01*
X133910122Y-120318438D01*
X133904188Y-120367853D01*
X133899500Y-120406898D01*
X116288646Y-120406898D01*
X116081265Y-120199517D01*
X116081264Y-120199516D01*
X116081263Y-120199515D01*
X115984237Y-120143497D01*
X115876018Y-120114500D01*
X115876017Y-120114500D01*
X106150421Y-120114500D01*
X106083382Y-120094815D01*
X106039937Y-120046796D01*
X105983996Y-119937006D01*
X105983994Y-119937003D01*
X105983993Y-119937001D01*
X105877558Y-119790505D01*
X105877554Y-119790500D01*
X105749499Y-119662445D01*
X105749494Y-119662441D01*
X105602997Y-119556006D01*
X105602996Y-119556005D01*
X105602994Y-119556004D01*
X105462629Y-119484484D01*
X105411833Y-119436509D01*
X105395038Y-119368688D01*
X105417576Y-119302553D01*
X105472291Y-119259102D01*
X105518924Y-119249999D01*
X105881479Y-119249999D01*
X105975149Y-119235164D01*
X105975155Y-119235162D01*
X106088041Y-119177643D01*
X106088050Y-119177636D01*
X106177636Y-119088050D01*
X106177639Y-119088046D01*
X106235166Y-118975144D01*
X106250000Y-118881486D01*
X106250000Y-118250000D01*
X105433012Y-118250000D01*
X105465925Y-118192993D01*
X105500000Y-118065826D01*
X105500000Y-117934174D01*
X105465925Y-117807007D01*
X105433012Y-117750000D01*
X106249999Y-117750000D01*
X106249999Y-117118520D01*
X106235164Y-117024850D01*
X106235162Y-117024844D01*
X106177643Y-116911958D01*
X106177636Y-116911949D01*
X106088050Y-116822363D01*
X106088046Y-116822360D01*
X105975144Y-116764833D01*
X105881486Y-116750000D01*
X105250000Y-116750000D01*
X105250000Y-117566988D01*
X105192993Y-117534075D01*
X105065826Y-117500000D01*
X104934174Y-117500000D01*
X104807007Y-117534075D01*
X104750000Y-117566988D01*
X104750000Y-116750000D01*
X104118520Y-116750000D01*
X104024850Y-116764835D01*
X104024844Y-116764837D01*
X103911958Y-116822356D01*
X103911949Y-116822363D01*
X103822363Y-116911949D01*
X103822360Y-116911953D01*
X103764833Y-117024855D01*
X103750000Y-117118513D01*
X100500500Y-117118513D01*
X100500500Y-113293389D01*
X133899500Y-113293389D01*
X133899500Y-113466611D01*
X133902844Y-113487722D01*
X133925806Y-113632705D01*
X133926598Y-113637701D01*
X133980127Y-113802445D01*
X134058768Y-113956788D01*
X134160586Y-114096928D01*
X134283072Y-114219414D01*
X134423212Y-114321232D01*
X134577555Y-114399873D01*
X134742299Y-114453402D01*
X134913389Y-114480500D01*
X134913390Y-114480500D01*
X135086610Y-114480500D01*
X135086611Y-114480500D01*
X135257701Y-114453402D01*
X135346918Y-114424412D01*
X135416756Y-114422418D01*
X135472915Y-114454663D01*
X136102815Y-115084563D01*
X136182037Y-115163785D01*
X136243897Y-115199500D01*
X136279063Y-115219803D01*
X136387281Y-115248800D01*
X136387282Y-115248800D01*
X156725500Y-115248800D01*
X156792539Y-115268485D01*
X156838294Y-115321289D01*
X156849500Y-115372800D01*
X156849500Y-116894856D01*
X156849502Y-116894882D01*
X156852413Y-116919987D01*
X156852415Y-116919991D01*
X156897793Y-117022764D01*
X156897794Y-117022765D01*
X156977235Y-117102206D01*
X157080009Y-117147585D01*
X157105135Y-117150500D01*
X157842872Y-117150499D01*
X157909910Y-117170183D01*
X157955665Y-117222987D01*
X157965609Y-117292146D01*
X157936584Y-117355702D01*
X157877806Y-117393476D01*
X157862270Y-117396972D01*
X157730589Y-117417829D01*
X157558363Y-117473787D01*
X157558360Y-117473788D01*
X157397002Y-117556006D01*
X157250505Y-117662441D01*
X157250500Y-117662445D01*
X157122445Y-117790500D01*
X157122441Y-117790505D01*
X157016006Y-117937002D01*
X156933788Y-118098360D01*
X156933787Y-118098363D01*
X156877829Y-118270589D01*
X156849500Y-118449448D01*
X156849500Y-118630551D01*
X156877828Y-118809409D01*
X156915905Y-118926596D01*
X156917900Y-118996437D01*
X156885655Y-119052595D01*
X152390071Y-123548181D01*
X152328748Y-123581666D01*
X152302390Y-123584500D01*
X142626018Y-123584500D01*
X142513981Y-123584500D01*
X142405763Y-123613497D01*
X142405761Y-123613498D01*
X142405760Y-123613498D01*
X142308740Y-123669513D01*
X142308734Y-123669517D01*
X142229513Y-123748739D01*
X140292915Y-125685335D01*
X140231592Y-125718820D01*
X140166916Y-125715585D01*
X140077704Y-125686598D01*
X139949383Y-125666274D01*
X139906611Y-125659500D01*
X139733389Y-125659500D01*
X139693728Y-125665781D01*
X139562302Y-125686597D01*
X139397552Y-125740128D01*
X139243211Y-125818768D01*
X139163256Y-125876859D01*
X139103072Y-125920586D01*
X139103070Y-125920588D01*
X139103069Y-125920588D01*
X138980588Y-126043069D01*
X138980588Y-126043070D01*
X138980586Y-126043072D01*
X138944168Y-126093197D01*
X138878768Y-126183211D01*
X138800128Y-126337552D01*
X138800127Y-126337554D01*
X138800127Y-126337555D01*
X138796602Y-126348405D01*
X138746597Y-126502302D01*
X138719500Y-126673389D01*
X138719500Y-126846611D01*
X138746598Y-127017701D01*
X138799067Y-127179184D01*
X138800128Y-127182447D01*
X138825843Y-127232915D01*
X138878768Y-127336788D01*
X138980586Y-127476928D01*
X139103072Y-127599414D01*
X139243212Y-127701232D01*
X139397555Y-127779873D01*
X139562299Y-127833402D01*
X139733389Y-127860500D01*
X139733390Y-127860500D01*
X139906610Y-127860500D01*
X139906611Y-127860500D01*
X140077701Y-127833402D01*
X140242445Y-127779873D01*
X140396788Y-127701232D01*
X140536928Y-127599414D01*
X140659414Y-127476928D01*
X140761232Y-127336788D01*
X140839873Y-127182445D01*
X140893402Y-127017701D01*
X140920500Y-126846611D01*
X140920500Y-126673389D01*
X141259500Y-126673389D01*
X141259500Y-126846611D01*
X141286598Y-127017701D01*
X141339067Y-127179184D01*
X141340128Y-127182447D01*
X141365843Y-127232915D01*
X141418768Y-127336788D01*
X141520586Y-127476928D01*
X141643072Y-127599414D01*
X141783212Y-127701232D01*
X141937555Y-127779873D01*
X142102299Y-127833402D01*
X142273389Y-127860500D01*
X142273390Y-127860500D01*
X142446610Y-127860500D01*
X142446611Y-127860500D01*
X142617701Y-127833402D01*
X142782445Y-127779873D01*
X142936788Y-127701232D01*
X143076928Y-127599414D01*
X143199414Y-127476928D01*
X143301232Y-127336788D01*
X143379873Y-127182445D01*
X143433402Y-127017701D01*
X143460500Y-126846611D01*
X143460500Y-126673389D01*
X143799500Y-126673389D01*
X143799500Y-126846611D01*
X143826598Y-127017701D01*
X143879067Y-127179184D01*
X143880128Y-127182447D01*
X143905843Y-127232915D01*
X143958768Y-127336788D01*
X144060586Y-127476928D01*
X144183072Y-127599414D01*
X144323212Y-127701232D01*
X144477555Y-127779873D01*
X144642299Y-127833402D01*
X144813389Y-127860500D01*
X144813390Y-127860500D01*
X144986610Y-127860500D01*
X144986611Y-127860500D01*
X145157701Y-127833402D01*
X145322445Y-127779873D01*
X145476788Y-127701232D01*
X145616928Y-127599414D01*
X145739414Y-127476928D01*
X145841232Y-127336788D01*
X145919873Y-127182445D01*
X145973402Y-127017701D01*
X146000500Y-126846611D01*
X146000500Y-126673389D01*
X146339500Y-126673389D01*
X146339500Y-126846611D01*
X146366598Y-127017701D01*
X146419067Y-127179184D01*
X146420128Y-127182447D01*
X146445843Y-127232915D01*
X146498768Y-127336788D01*
X146600586Y-127476928D01*
X146723072Y-127599414D01*
X146863212Y-127701232D01*
X147017555Y-127779873D01*
X147182299Y-127833402D01*
X147353389Y-127860500D01*
X147353390Y-127860500D01*
X147526610Y-127860500D01*
X147526611Y-127860500D01*
X147697701Y-127833402D01*
X147862445Y-127779873D01*
X148016788Y-127701232D01*
X148156928Y-127599414D01*
X148279414Y-127476928D01*
X148381232Y-127336788D01*
X148459873Y-127182445D01*
X148513402Y-127017701D01*
X148540500Y-126846611D01*
X148540500Y-126673389D01*
X148879500Y-126673389D01*
X148879500Y-126846611D01*
X148906598Y-127017701D01*
X148959067Y-127179184D01*
X148960128Y-127182447D01*
X148985843Y-127232915D01*
X149038768Y-127336788D01*
X149140586Y-127476928D01*
X149263072Y-127599414D01*
X149403212Y-127701232D01*
X149557555Y-127779873D01*
X149722299Y-127833402D01*
X149893389Y-127860500D01*
X149893390Y-127860500D01*
X150066610Y-127860500D01*
X150066611Y-127860500D01*
X150237701Y-127833402D01*
X150402445Y-127779873D01*
X150556788Y-127701232D01*
X150696928Y-127599414D01*
X150819414Y-127476928D01*
X150921232Y-127336788D01*
X150999873Y-127182445D01*
X151053402Y-127017701D01*
X151080500Y-126846611D01*
X151080500Y-126673389D01*
X151419500Y-126673389D01*
X151419500Y-126846611D01*
X151446598Y-127017701D01*
X151499067Y-127179184D01*
X151500128Y-127182447D01*
X151525843Y-127232915D01*
X151578768Y-127336788D01*
X151680586Y-127476928D01*
X151803072Y-127599414D01*
X151943212Y-127701232D01*
X152097555Y-127779873D01*
X152262299Y-127833402D01*
X152433389Y-127860500D01*
X152433390Y-127860500D01*
X152606610Y-127860500D01*
X152606611Y-127860500D01*
X152777701Y-127833402D01*
X152942445Y-127779873D01*
X153096788Y-127701232D01*
X153236928Y-127599414D01*
X153359414Y-127476928D01*
X153461232Y-127336788D01*
X153539873Y-127182445D01*
X153593402Y-127017701D01*
X153620500Y-126846611D01*
X153620500Y-126673389D01*
X153593402Y-126502299D01*
X153539873Y-126337555D01*
X153461232Y-126183212D01*
X153359414Y-126043072D01*
X153236928Y-125920586D01*
X153096788Y-125818768D01*
X152942445Y-125740127D01*
X152777701Y-125686598D01*
X152777699Y-125686597D01*
X152777698Y-125686597D01*
X152646271Y-125665781D01*
X152606611Y-125659500D01*
X152433389Y-125659500D01*
X152393728Y-125665781D01*
X152262302Y-125686597D01*
X152097552Y-125740128D01*
X151943211Y-125818768D01*
X151863256Y-125876859D01*
X151803072Y-125920586D01*
X151803070Y-125920588D01*
X151803069Y-125920588D01*
X151680588Y-126043069D01*
X151680588Y-126043070D01*
X151680586Y-126043072D01*
X151644168Y-126093197D01*
X151578768Y-126183211D01*
X151500128Y-126337552D01*
X151500127Y-126337554D01*
X151500127Y-126337555D01*
X151496602Y-126348405D01*
X151446597Y-126502302D01*
X151419500Y-126673389D01*
X151080500Y-126673389D01*
X151053402Y-126502299D01*
X150999873Y-126337555D01*
X150921232Y-126183212D01*
X150819414Y-126043072D01*
X150696928Y-125920586D01*
X150556788Y-125818768D01*
X150402445Y-125740127D01*
X150237701Y-125686598D01*
X150237699Y-125686597D01*
X150237698Y-125686597D01*
X150106271Y-125665781D01*
X150066611Y-125659500D01*
X149893389Y-125659500D01*
X149853728Y-125665781D01*
X149722302Y-125686597D01*
X149557552Y-125740128D01*
X149403211Y-125818768D01*
X149323256Y-125876859D01*
X149263072Y-125920586D01*
X149263070Y-125920588D01*
X149263069Y-125920588D01*
X149140588Y-126043069D01*
X149140588Y-126043070D01*
X149140586Y-126043072D01*
X149104168Y-126093197D01*
X149038768Y-126183211D01*
X148960128Y-126337552D01*
X148960127Y-126337554D01*
X148960127Y-126337555D01*
X148956602Y-126348405D01*
X148906597Y-126502302D01*
X148879500Y-126673389D01*
X148540500Y-126673389D01*
X148513402Y-126502299D01*
X148459873Y-126337555D01*
X148381232Y-126183212D01*
X148279414Y-126043072D01*
X148156928Y-125920586D01*
X148016788Y-125818768D01*
X147862445Y-125740127D01*
X147697701Y-125686598D01*
X147697699Y-125686597D01*
X147697698Y-125686597D01*
X147566271Y-125665781D01*
X147526611Y-125659500D01*
X147353389Y-125659500D01*
X147313728Y-125665781D01*
X147182302Y-125686597D01*
X147017552Y-125740128D01*
X146863211Y-125818768D01*
X146783256Y-125876859D01*
X146723072Y-125920586D01*
X146723070Y-125920588D01*
X146723069Y-125920588D01*
X146600588Y-126043069D01*
X146600588Y-126043070D01*
X146600586Y-126043072D01*
X146564168Y-126093197D01*
X146498768Y-126183211D01*
X146420128Y-126337552D01*
X146420127Y-126337554D01*
X146420127Y-126337555D01*
X146416602Y-126348405D01*
X146366597Y-126502302D01*
X146339500Y-126673389D01*
X146000500Y-126673389D01*
X145973402Y-126502299D01*
X145919873Y-126337555D01*
X145841232Y-126183212D01*
X145739414Y-126043072D01*
X145616928Y-125920586D01*
X145476788Y-125818768D01*
X145322445Y-125740127D01*
X145157701Y-125686598D01*
X145157699Y-125686597D01*
X145157698Y-125686597D01*
X145026271Y-125665781D01*
X144986611Y-125659500D01*
X144813389Y-125659500D01*
X144773728Y-125665781D01*
X144642302Y-125686597D01*
X144477552Y-125740128D01*
X144323211Y-125818768D01*
X144243256Y-125876859D01*
X144183072Y-125920586D01*
X144183070Y-125920588D01*
X144183069Y-125920588D01*
X144060588Y-126043069D01*
X144060588Y-126043070D01*
X144060586Y-126043072D01*
X144024168Y-126093197D01*
X143958768Y-126183211D01*
X143880128Y-126337552D01*
X143880127Y-126337554D01*
X143880127Y-126337555D01*
X143876602Y-126348405D01*
X143826597Y-126502302D01*
X143799500Y-126673389D01*
X143460500Y-126673389D01*
X143433402Y-126502299D01*
X143379873Y-126337555D01*
X143301232Y-126183212D01*
X143199414Y-126043072D01*
X143076928Y-125920586D01*
X142936788Y-125818768D01*
X142782445Y-125740127D01*
X142617701Y-125686598D01*
X142617699Y-125686597D01*
X142617698Y-125686597D01*
X142486271Y-125665781D01*
X142446611Y-125659500D01*
X142273389Y-125659500D01*
X142233728Y-125665781D01*
X142102302Y-125686597D01*
X141937552Y-125740128D01*
X141783211Y-125818768D01*
X141703256Y-125876859D01*
X141643072Y-125920586D01*
X141643070Y-125920588D01*
X141643069Y-125920588D01*
X141520588Y-126043069D01*
X141520588Y-126043070D01*
X141520586Y-126043072D01*
X141484168Y-126093197D01*
X141418768Y-126183211D01*
X141340128Y-126337552D01*
X141340127Y-126337554D01*
X141340127Y-126337555D01*
X141336602Y-126348405D01*
X141286597Y-126502302D01*
X141259500Y-126673389D01*
X140920500Y-126673389D01*
X140893402Y-126502299D01*
X140864413Y-126413080D01*
X140862418Y-126343241D01*
X140894661Y-126287085D01*
X142709928Y-124471819D01*
X142771251Y-124438334D01*
X142797609Y-124435500D01*
X152586016Y-124435500D01*
X152586018Y-124435500D01*
X152694237Y-124406503D01*
X152791263Y-124350485D01*
X157487404Y-119654342D01*
X157548725Y-119620859D01*
X157613399Y-119624093D01*
X157668294Y-119641929D01*
X157730590Y-119662171D01*
X157909449Y-119690500D01*
X157909454Y-119690500D01*
X158090551Y-119690500D01*
X158177259Y-119676765D01*
X158269409Y-119662171D01*
X158441639Y-119606211D01*
X158602994Y-119523996D01*
X158749501Y-119417553D01*
X158877553Y-119289501D01*
X158983996Y-119142994D01*
X159066211Y-118981639D01*
X159122171Y-118809409D01*
X159136765Y-118717259D01*
X159150500Y-118630551D01*
X159150500Y-118449448D01*
X159134019Y-118345397D01*
X159122171Y-118270591D01*
X159084094Y-118153400D01*
X159082099Y-118083559D01*
X159114342Y-118027403D01*
X160299928Y-116841819D01*
X160361251Y-116808334D01*
X160387609Y-116805500D01*
X163905697Y-116805500D01*
X163972736Y-116825185D01*
X164016180Y-116873204D01*
X164058766Y-116956784D01*
X164058770Y-116956792D01*
X164101100Y-117015053D01*
X164160586Y-117096928D01*
X164283072Y-117219414D01*
X164423212Y-117321232D01*
X164577555Y-117399873D01*
X164742299Y-117453402D01*
X164913389Y-117480500D01*
X164913390Y-117480500D01*
X165086610Y-117480500D01*
X165086611Y-117480500D01*
X165257701Y-117453402D01*
X165422445Y-117399873D01*
X165551806Y-117333960D01*
X165620474Y-117321065D01*
X165685215Y-117347341D01*
X165725472Y-117404448D01*
X165732100Y-117444446D01*
X165732100Y-122614789D01*
X165712415Y-122681828D01*
X165695781Y-122702470D01*
X165472915Y-122925335D01*
X165411592Y-122958820D01*
X165346916Y-122955585D01*
X165257704Y-122926598D01*
X165129383Y-122906274D01*
X165086611Y-122899500D01*
X164913389Y-122899500D01*
X164873728Y-122905781D01*
X164742302Y-122926597D01*
X164577552Y-122980128D01*
X164423211Y-123058768D01*
X164361417Y-123103665D01*
X164283072Y-123160586D01*
X164283070Y-123160588D01*
X164283069Y-123160588D01*
X164160588Y-123283069D01*
X164160588Y-123283070D01*
X164160586Y-123283072D01*
X164116859Y-123343256D01*
X164058768Y-123423211D01*
X163980128Y-123577552D01*
X163980127Y-123577554D01*
X163980127Y-123577555D01*
X163977870Y-123584500D01*
X163926597Y-123742302D01*
X163899500Y-123913389D01*
X163899500Y-124086611D01*
X163926598Y-124257701D01*
X163980127Y-124422445D01*
X164058768Y-124576788D01*
X164160586Y-124716928D01*
X164283072Y-124839414D01*
X164423212Y-124941232D01*
X164577555Y-125019873D01*
X164742299Y-125073402D01*
X164913389Y-125100500D01*
X164913390Y-125100500D01*
X165086610Y-125100500D01*
X165086611Y-125100500D01*
X165257701Y-125073402D01*
X165422445Y-125019873D01*
X165576788Y-124941232D01*
X165716928Y-124839414D01*
X165839414Y-124716928D01*
X165941232Y-124576788D01*
X166019873Y-124422445D01*
X166073402Y-124257701D01*
X166100500Y-124086611D01*
X166100500Y-123913389D01*
X166073402Y-123742299D01*
X166044412Y-123653081D01*
X166042418Y-123583241D01*
X166074661Y-123527085D01*
X166498085Y-123103663D01*
X166554103Y-123006637D01*
X166583100Y-122898418D01*
X166583100Y-122786381D01*
X166583100Y-115826082D01*
X166554103Y-115717863D01*
X166498085Y-115620837D01*
X166418863Y-115541615D01*
X166418862Y-115541614D01*
X166414532Y-115537284D01*
X166414521Y-115537274D01*
X165360065Y-114482817D01*
X165360064Y-114482816D01*
X165360063Y-114482815D01*
X165263037Y-114426797D01*
X165154818Y-114397800D01*
X165154817Y-114397800D01*
X151077904Y-114397800D01*
X151010865Y-114378115D01*
X150965110Y-114325311D01*
X150955166Y-114256153D01*
X150984191Y-114192597D01*
X150990223Y-114186119D01*
X151079414Y-114096928D01*
X151181232Y-113956788D01*
X151259873Y-113802445D01*
X151313402Y-113637701D01*
X151340500Y-113466611D01*
X151340500Y-113293389D01*
X151313402Y-113122299D01*
X151259873Y-112957555D01*
X151181232Y-112803212D01*
X151079414Y-112663072D01*
X150956928Y-112540586D01*
X150816788Y-112438768D01*
X150662445Y-112360127D01*
X150497701Y-112306598D01*
X150497699Y-112306597D01*
X150497698Y-112306597D01*
X150366271Y-112285781D01*
X150326611Y-112279500D01*
X150153389Y-112279500D01*
X150113728Y-112285781D01*
X149982302Y-112306597D01*
X149817552Y-112360128D01*
X149663211Y-112438768D01*
X149583256Y-112496859D01*
X149523072Y-112540586D01*
X149523070Y-112540588D01*
X149523069Y-112540588D01*
X149400588Y-112663069D01*
X149400588Y-112663070D01*
X149400586Y-112663072D01*
X149356859Y-112723256D01*
X149298768Y-112803211D01*
X149220128Y-112957552D01*
X149166597Y-113122302D01*
X149142843Y-113272278D01*
X149112914Y-113335413D01*
X149053602Y-113372344D01*
X148983739Y-113371346D01*
X148925507Y-113332736D01*
X148897897Y-113272278D01*
X148870451Y-113098997D01*
X148812085Y-112919362D01*
X148726329Y-112751059D01*
X148707883Y-112725670D01*
X148707882Y-112725669D01*
X148100000Y-113333552D01*
X148100000Y-113327339D01*
X148072741Y-113225606D01*
X148020080Y-113134394D01*
X147945606Y-113059920D01*
X147854394Y-113007259D01*
X147752661Y-112980000D01*
X147746447Y-112980000D01*
X148354328Y-112372116D01*
X148328933Y-112353666D01*
X148160637Y-112267914D01*
X147981002Y-112209548D01*
X147794447Y-112180000D01*
X147605553Y-112180000D01*
X147418997Y-112209548D01*
X147239362Y-112267914D01*
X147071060Y-112353669D01*
X147045670Y-112372116D01*
X147045669Y-112372116D01*
X147653554Y-112980000D01*
X147647339Y-112980000D01*
X147545606Y-113007259D01*
X147454394Y-113059920D01*
X147379920Y-113134394D01*
X147327259Y-113225606D01*
X147300000Y-113327339D01*
X147300000Y-113333553D01*
X146692116Y-112725669D01*
X146692116Y-112725670D01*
X146673669Y-112751060D01*
X146587914Y-112919362D01*
X146547931Y-113042420D01*
X146508494Y-113100095D01*
X146444135Y-113127294D01*
X146375289Y-113115380D01*
X146323813Y-113068136D01*
X146312069Y-113042420D01*
X146272085Y-112919362D01*
X146186329Y-112751059D01*
X146167883Y-112725670D01*
X146167882Y-112725669D01*
X145560000Y-113333552D01*
X145560000Y-113327339D01*
X145532741Y-113225606D01*
X145480080Y-113134394D01*
X145405606Y-113059920D01*
X145314394Y-113007259D01*
X145212661Y-112980000D01*
X145206447Y-112980000D01*
X145814328Y-112372116D01*
X145788933Y-112353666D01*
X145620637Y-112267914D01*
X145441002Y-112209548D01*
X145254447Y-112180000D01*
X145065553Y-112180000D01*
X144878997Y-112209548D01*
X144699362Y-112267914D01*
X144531060Y-112353669D01*
X144505670Y-112372116D01*
X144505669Y-112372116D01*
X145113554Y-112980000D01*
X145107339Y-112980000D01*
X145005606Y-113007259D01*
X144914394Y-113059920D01*
X144839920Y-113134394D01*
X144787259Y-113225606D01*
X144760000Y-113327339D01*
X144760000Y-113333553D01*
X144152116Y-112725669D01*
X144152116Y-112725670D01*
X144133669Y-112751060D01*
X144047914Y-112919362D01*
X143989548Y-113098997D01*
X143962102Y-113272279D01*
X143932172Y-113335413D01*
X143872861Y-113372344D01*
X143802998Y-113371346D01*
X143744766Y-113332736D01*
X143717156Y-113272277D01*
X143693403Y-113122303D01*
X143693402Y-113122302D01*
X143693402Y-113122299D01*
X143639873Y-112957555D01*
X143561232Y-112803212D01*
X143459414Y-112663072D01*
X143336928Y-112540586D01*
X143335325Y-112539421D01*
X143308194Y-112519708D01*
X143308171Y-112519693D01*
X143196788Y-112438768D01*
X143042447Y-112360128D01*
X143042446Y-112360127D01*
X143042445Y-112360127D01*
X142877701Y-112306598D01*
X142877699Y-112306597D01*
X142877698Y-112306597D01*
X142746271Y-112285781D01*
X142706611Y-112279500D01*
X142533389Y-112279500D01*
X142493728Y-112285781D01*
X142362302Y-112306597D01*
X142197552Y-112360128D01*
X142043211Y-112438768D01*
X141963256Y-112496859D01*
X141903072Y-112540586D01*
X141903070Y-112540588D01*
X141903069Y-112540588D01*
X141780588Y-112663069D01*
X141780588Y-112663070D01*
X141780586Y-112663072D01*
X141736859Y-112723256D01*
X141678768Y-112803211D01*
X141600128Y-112957552D01*
X141546597Y-113122302D01*
X141522843Y-113272278D01*
X141492914Y-113335413D01*
X141433602Y-113372344D01*
X141363739Y-113371346D01*
X141305507Y-113332736D01*
X141277897Y-113272278D01*
X141250451Y-113098997D01*
X141192085Y-112919362D01*
X141106329Y-112751059D01*
X141087883Y-112725670D01*
X141087882Y-112725669D01*
X140480000Y-113333552D01*
X140480000Y-113327339D01*
X140452741Y-113225606D01*
X140400080Y-113134394D01*
X140325606Y-113059920D01*
X140234394Y-113007259D01*
X140132661Y-112980000D01*
X140126447Y-112980000D01*
X140734328Y-112372116D01*
X140708933Y-112353666D01*
X140540637Y-112267914D01*
X140361002Y-112209548D01*
X140174447Y-112180000D01*
X139985553Y-112180000D01*
X139798997Y-112209548D01*
X139619362Y-112267914D01*
X139451060Y-112353669D01*
X139425670Y-112372116D01*
X139425669Y-112372116D01*
X140033554Y-112980000D01*
X140027339Y-112980000D01*
X139925606Y-113007259D01*
X139834394Y-113059920D01*
X139759920Y-113134394D01*
X139707259Y-113225606D01*
X139680000Y-113327339D01*
X139680000Y-113333553D01*
X139072116Y-112725669D01*
X139072116Y-112725670D01*
X139053669Y-112751060D01*
X138967914Y-112919362D01*
X138927931Y-113042420D01*
X138888494Y-113100095D01*
X138824135Y-113127294D01*
X138755289Y-113115380D01*
X138703813Y-113068136D01*
X138692069Y-113042420D01*
X138652085Y-112919362D01*
X138566329Y-112751059D01*
X138547883Y-112725670D01*
X138547882Y-112725669D01*
X137940000Y-113333552D01*
X137940000Y-113327339D01*
X137912741Y-113225606D01*
X137860080Y-113134394D01*
X137785606Y-113059920D01*
X137694394Y-113007259D01*
X137592661Y-112980000D01*
X137586447Y-112980000D01*
X138194328Y-112372116D01*
X138168933Y-112353666D01*
X138000637Y-112267914D01*
X137821002Y-112209548D01*
X137634447Y-112180000D01*
X137445553Y-112180000D01*
X137258997Y-112209548D01*
X137079362Y-112267914D01*
X136911060Y-112353669D01*
X136885670Y-112372116D01*
X136885669Y-112372116D01*
X137493554Y-112980000D01*
X137487339Y-112980000D01*
X137385606Y-113007259D01*
X137294394Y-113059920D01*
X137219920Y-113134394D01*
X137167259Y-113225606D01*
X137140000Y-113327339D01*
X137140000Y-113333553D01*
X136532116Y-112725669D01*
X136532116Y-112725670D01*
X136513669Y-112751060D01*
X136427914Y-112919362D01*
X136369548Y-113098997D01*
X136342102Y-113272279D01*
X136312172Y-113335413D01*
X136252861Y-113372344D01*
X136182998Y-113371346D01*
X136124766Y-113332736D01*
X136097156Y-113272277D01*
X136073403Y-113122303D01*
X136073402Y-113122302D01*
X136073402Y-113122299D01*
X136019873Y-112957555D01*
X135941232Y-112803212D01*
X135839414Y-112663072D01*
X135716928Y-112540586D01*
X135715325Y-112539421D01*
X135688194Y-112519708D01*
X135688171Y-112519693D01*
X135576788Y-112438768D01*
X135422447Y-112360128D01*
X135422446Y-112360127D01*
X135422445Y-112360127D01*
X135257701Y-112306598D01*
X135257699Y-112306597D01*
X135257698Y-112306597D01*
X135126271Y-112285781D01*
X135086611Y-112279500D01*
X134913389Y-112279500D01*
X134873728Y-112285781D01*
X134742302Y-112306597D01*
X134577552Y-112360128D01*
X134423211Y-112438768D01*
X134343256Y-112496859D01*
X134283072Y-112540586D01*
X134283070Y-112540588D01*
X134283069Y-112540588D01*
X134160588Y-112663069D01*
X134160588Y-112663070D01*
X134160586Y-112663072D01*
X134116859Y-112723256D01*
X134058768Y-112803211D01*
X133980128Y-112957552D01*
X133926597Y-113122302D01*
X133924682Y-113134394D01*
X133899500Y-113293389D01*
X100500500Y-113293389D01*
X100500500Y-104378711D01*
X102649500Y-104378711D01*
X102649500Y-104621288D01*
X102681161Y-104861785D01*
X102743947Y-105096104D01*
X102836773Y-105320205D01*
X102836776Y-105320212D01*
X102958064Y-105530289D01*
X102958066Y-105530292D01*
X102958067Y-105530293D01*
X103105733Y-105722736D01*
X103105739Y-105722743D01*
X103277256Y-105894260D01*
X103277262Y-105894265D01*
X103469711Y-106041936D01*
X103679788Y-106163224D01*
X103903900Y-106256054D01*
X104138211Y-106318838D01*
X104318586Y-106342584D01*
X104378711Y-106350500D01*
X104378712Y-106350500D01*
X104621289Y-106350500D01*
X104669388Y-106344167D01*
X104861789Y-106318838D01*
X105096100Y-106256054D01*
X105320212Y-106163224D01*
X105530289Y-106041936D01*
X105722738Y-105894265D01*
X105894265Y-105722738D01*
X106041936Y-105530289D01*
X106163224Y-105320212D01*
X106256054Y-105096100D01*
X106318838Y-104861789D01*
X106350500Y-104621288D01*
X106350500Y-104378712D01*
X106318838Y-104138211D01*
X106256054Y-103903900D01*
X106163224Y-103679788D01*
X106163221Y-103679784D01*
X106163220Y-103679780D01*
X106153852Y-103663555D01*
X106153851Y-103663554D01*
X106130117Y-103622445D01*
X106120121Y-103605131D01*
X110849500Y-103605131D01*
X110849500Y-105394856D01*
X110849502Y-105394882D01*
X110852413Y-105419987D01*
X110852415Y-105419991D01*
X110897793Y-105522764D01*
X110897794Y-105522765D01*
X110977235Y-105602206D01*
X111080009Y-105647585D01*
X111105135Y-105650500D01*
X112894864Y-105650499D01*
X112894879Y-105650497D01*
X112894882Y-105650497D01*
X112919987Y-105647586D01*
X112919988Y-105647585D01*
X112919991Y-105647585D01*
X113022765Y-105602206D01*
X113078433Y-105546537D01*
X113139752Y-105513055D01*
X113209444Y-105518039D01*
X113253792Y-105546540D01*
X116047737Y-108340485D01*
X116144763Y-108396503D01*
X116252981Y-108425500D01*
X116252982Y-108425500D01*
X133905697Y-108425500D01*
X133972736Y-108445185D01*
X134016180Y-108493204D01*
X134058766Y-108576784D01*
X134058770Y-108576792D01*
X134101100Y-108635053D01*
X134160586Y-108716928D01*
X134283072Y-108839414D01*
X134423212Y-108941232D01*
X134577555Y-109019873D01*
X134742299Y-109073402D01*
X134913389Y-109100500D01*
X134913390Y-109100500D01*
X135086610Y-109100500D01*
X135086611Y-109100500D01*
X135257701Y-109073402D01*
X135422445Y-109019873D01*
X135576788Y-108941232D01*
X135716928Y-108839414D01*
X135839414Y-108716928D01*
X135941232Y-108576788D01*
X136019873Y-108422445D01*
X136073402Y-108257701D01*
X136100500Y-108086611D01*
X136100500Y-107913389D01*
X136099259Y-107905552D01*
X138800000Y-107905552D01*
X138800000Y-108094447D01*
X138829548Y-108281002D01*
X138887914Y-108460637D01*
X138973666Y-108628933D01*
X138992116Y-108654328D01*
X139600000Y-108046445D01*
X139600000Y-108052661D01*
X139627259Y-108154394D01*
X139679920Y-108245606D01*
X139754394Y-108320080D01*
X139845606Y-108372741D01*
X139947339Y-108400000D01*
X139953554Y-108400000D01*
X139345669Y-109007882D01*
X139345670Y-109007883D01*
X139371059Y-109026329D01*
X139539362Y-109112085D01*
X139718997Y-109170451D01*
X139905553Y-109200000D01*
X140094447Y-109200000D01*
X140281002Y-109170451D01*
X140460637Y-109112085D01*
X140628937Y-109026331D01*
X140654328Y-109007883D01*
X140654328Y-109007882D01*
X140046447Y-108400000D01*
X140052661Y-108400000D01*
X140154394Y-108372741D01*
X140245606Y-108320080D01*
X140320080Y-108245606D01*
X140372741Y-108154394D01*
X140400000Y-108052661D01*
X140400000Y-108046446D01*
X141007882Y-108654328D01*
X141007883Y-108654328D01*
X141026331Y-108628937D01*
X141112085Y-108460637D01*
X141170451Y-108281002D01*
X141200000Y-108094447D01*
X141200000Y-107905552D01*
X141170451Y-107718997D01*
X141112085Y-107539362D01*
X141026329Y-107371059D01*
X141007883Y-107345670D01*
X141007882Y-107345669D01*
X140400000Y-107953552D01*
X140400000Y-107947339D01*
X140372741Y-107845606D01*
X140320080Y-107754394D01*
X140245606Y-107679920D01*
X140154394Y-107627259D01*
X140052661Y-107600000D01*
X140046447Y-107600000D01*
X140654328Y-106992116D01*
X140628933Y-106973666D01*
X140460637Y-106887914D01*
X140281002Y-106829548D01*
X140094447Y-106800000D01*
X139905553Y-106800000D01*
X139718997Y-106829548D01*
X139539362Y-106887914D01*
X139371060Y-106973669D01*
X139345670Y-106992116D01*
X139345669Y-106992116D01*
X139953554Y-107600000D01*
X139947339Y-107600000D01*
X139845606Y-107627259D01*
X139754394Y-107679920D01*
X139679920Y-107754394D01*
X139627259Y-107845606D01*
X139600000Y-107947339D01*
X139600000Y-107953553D01*
X138992116Y-107345669D01*
X138992116Y-107345670D01*
X138973669Y-107371060D01*
X138887914Y-107539362D01*
X138829548Y-107718997D01*
X138800000Y-107905552D01*
X136099259Y-107905552D01*
X136073402Y-107742299D01*
X136019873Y-107577555D01*
X135941232Y-107423212D01*
X135839414Y-107283072D01*
X135716928Y-107160586D01*
X135715325Y-107159421D01*
X135688194Y-107139708D01*
X135688171Y-107139693D01*
X135576788Y-107058768D01*
X135422447Y-106980128D01*
X135422446Y-106980127D01*
X135422445Y-106980127D01*
X135257701Y-106926598D01*
X135257699Y-106926597D01*
X135257698Y-106926597D01*
X135126271Y-106905781D01*
X135086611Y-106899500D01*
X134913389Y-106899500D01*
X134873728Y-106905781D01*
X134742302Y-106926597D01*
X134577552Y-106980128D01*
X134423211Y-107058768D01*
X134343256Y-107116859D01*
X134283072Y-107160586D01*
X134283070Y-107160588D01*
X134283069Y-107160588D01*
X134160588Y-107283069D01*
X134160588Y-107283070D01*
X134160586Y-107283072D01*
X134135040Y-107318232D01*
X134058770Y-107423207D01*
X134058768Y-107423212D01*
X134016180Y-107506795D01*
X133968208Y-107557590D01*
X133905697Y-107574500D01*
X116536610Y-107574500D01*
X116469571Y-107554815D01*
X116448929Y-107538181D01*
X114742806Y-105832058D01*
X114709321Y-105770735D01*
X114714305Y-105701043D01*
X114756177Y-105645110D01*
X114804964Y-105624501D01*
X114804678Y-105623307D01*
X114809403Y-105622171D01*
X114809409Y-105622171D01*
X114981639Y-105566211D01*
X115142994Y-105483996D01*
X115289501Y-105377553D01*
X115417553Y-105249501D01*
X115523996Y-105102994D01*
X115606211Y-104941639D01*
X115662171Y-104769409D01*
X115676422Y-104679425D01*
X115687527Y-104609321D01*
X115717456Y-104546186D01*
X115776768Y-104509255D01*
X115846630Y-104510253D01*
X115904863Y-104548863D01*
X115932473Y-104609321D01*
X115957829Y-104769410D01*
X116013787Y-104941636D01*
X116013788Y-104941639D01*
X116069664Y-105051300D01*
X116092493Y-105096104D01*
X116096006Y-105102997D01*
X116202441Y-105249494D01*
X116202445Y-105249499D01*
X116330500Y-105377554D01*
X116330505Y-105377558D01*
X116388910Y-105419991D01*
X116477006Y-105483996D01*
X116582484Y-105537740D01*
X116638360Y-105566211D01*
X116638363Y-105566212D01*
X116724476Y-105594191D01*
X116810591Y-105622171D01*
X116893429Y-105635291D01*
X116989449Y-105650500D01*
X116989454Y-105650500D01*
X117170551Y-105650500D01*
X117257259Y-105636765D01*
X117349409Y-105622171D01*
X117521639Y-105566211D01*
X117682994Y-105483996D01*
X117829501Y-105377553D01*
X117957553Y-105249501D01*
X118063996Y-105102994D01*
X118146211Y-104941639D01*
X118202171Y-104769409D01*
X118216422Y-104679425D01*
X118227527Y-104609321D01*
X118257456Y-104546186D01*
X118316768Y-104509255D01*
X118386630Y-104510253D01*
X118444863Y-104548863D01*
X118472473Y-104609321D01*
X118497829Y-104769410D01*
X118553787Y-104941636D01*
X118553788Y-104941639D01*
X118609664Y-105051300D01*
X118632493Y-105096104D01*
X118636006Y-105102997D01*
X118742441Y-105249494D01*
X118742445Y-105249499D01*
X118870500Y-105377554D01*
X118870505Y-105377558D01*
X118928910Y-105419991D01*
X119017006Y-105483996D01*
X119122484Y-105537740D01*
X119178360Y-105566211D01*
X119178363Y-105566212D01*
X119264476Y-105594191D01*
X119350591Y-105622171D01*
X119433429Y-105635291D01*
X119529449Y-105650500D01*
X119529454Y-105650500D01*
X119710551Y-105650500D01*
X119797259Y-105636765D01*
X119889409Y-105622171D01*
X120061639Y-105566211D01*
X120222994Y-105483996D01*
X120369501Y-105377553D01*
X120497553Y-105249501D01*
X120603996Y-105102994D01*
X120686211Y-104941639D01*
X120742171Y-104769409D01*
X120756422Y-104679425D01*
X120767527Y-104609321D01*
X120797456Y-104546186D01*
X120856768Y-104509255D01*
X120926630Y-104510253D01*
X120984863Y-104548863D01*
X121012473Y-104609321D01*
X121037829Y-104769410D01*
X121093787Y-104941636D01*
X121093788Y-104941639D01*
X121149664Y-105051300D01*
X121172493Y-105096104D01*
X121176006Y-105102997D01*
X121282441Y-105249494D01*
X121282445Y-105249499D01*
X121410500Y-105377554D01*
X121410505Y-105377558D01*
X121468910Y-105419991D01*
X121557006Y-105483996D01*
X121662484Y-105537740D01*
X121718360Y-105566211D01*
X121718363Y-105566212D01*
X121804476Y-105594191D01*
X121890591Y-105622171D01*
X121973429Y-105635291D01*
X122069449Y-105650500D01*
X122069454Y-105650500D01*
X122250551Y-105650500D01*
X122337259Y-105636765D01*
X122429409Y-105622171D01*
X122601639Y-105566211D01*
X122762994Y-105483996D01*
X122909501Y-105377553D01*
X123037553Y-105249501D01*
X123143996Y-105102994D01*
X123226211Y-104941639D01*
X123282171Y-104769409D01*
X123296422Y-104679425D01*
X123307527Y-104609321D01*
X123337456Y-104546186D01*
X123396768Y-104509255D01*
X123466630Y-104510253D01*
X123524863Y-104548863D01*
X123552473Y-104609321D01*
X123577829Y-104769410D01*
X123633787Y-104941636D01*
X123633788Y-104941639D01*
X123689664Y-105051300D01*
X123712493Y-105096104D01*
X123716006Y-105102997D01*
X123822441Y-105249494D01*
X123822445Y-105249499D01*
X123950500Y-105377554D01*
X123950505Y-105377558D01*
X124008910Y-105419991D01*
X124097006Y-105483996D01*
X124202484Y-105537740D01*
X124258360Y-105566211D01*
X124258363Y-105566212D01*
X124344476Y-105594191D01*
X124430591Y-105622171D01*
X124513429Y-105635291D01*
X124609449Y-105650500D01*
X124609454Y-105650500D01*
X124790551Y-105650500D01*
X124877259Y-105636765D01*
X124969409Y-105622171D01*
X125141639Y-105566211D01*
X125302994Y-105483996D01*
X125449501Y-105377553D01*
X125577553Y-105249501D01*
X125683996Y-105102994D01*
X125766211Y-104941639D01*
X125822171Y-104769409D01*
X125836422Y-104679425D01*
X125847527Y-104609321D01*
X125877456Y-104546186D01*
X125936768Y-104509255D01*
X126006630Y-104510253D01*
X126064863Y-104548863D01*
X126092473Y-104609321D01*
X126117829Y-104769410D01*
X126173787Y-104941636D01*
X126173788Y-104941639D01*
X126229664Y-105051300D01*
X126252493Y-105096104D01*
X126256006Y-105102997D01*
X126362441Y-105249494D01*
X126362445Y-105249499D01*
X126490500Y-105377554D01*
X126490505Y-105377558D01*
X126548910Y-105419991D01*
X126637006Y-105483996D01*
X126742484Y-105537740D01*
X126798360Y-105566211D01*
X126798363Y-105566212D01*
X126884476Y-105594191D01*
X126970591Y-105622171D01*
X127053429Y-105635291D01*
X127149449Y-105650500D01*
X127149454Y-105650500D01*
X127330551Y-105650500D01*
X127417259Y-105636765D01*
X127509409Y-105622171D01*
X127681639Y-105566211D01*
X127842994Y-105483996D01*
X127931090Y-105419991D01*
X127963973Y-105396101D01*
X127989495Y-105377558D01*
X127989497Y-105377555D01*
X127989501Y-105377553D01*
X128117553Y-105249501D01*
X128223996Y-105102994D01*
X128306211Y-104941639D01*
X128319708Y-104900099D01*
X128339759Y-104838388D01*
X128379196Y-104780712D01*
X128443554Y-104753513D01*
X128512401Y-104765427D01*
X128563877Y-104812671D01*
X128575621Y-104838386D01*
X128621581Y-104979837D01*
X128710905Y-105155145D01*
X128736319Y-105190125D01*
X128736320Y-105190125D01*
X129297037Y-104629408D01*
X129314075Y-104692993D01*
X129379901Y-104807007D01*
X129472993Y-104900099D01*
X129587007Y-104965925D01*
X129650590Y-104982962D01*
X129089873Y-105543677D01*
X129089873Y-105543678D01*
X129124858Y-105569096D01*
X129300164Y-105658418D01*
X129487294Y-105719221D01*
X129681618Y-105750000D01*
X129878382Y-105750000D01*
X130072705Y-105719221D01*
X130259835Y-105658418D01*
X130435143Y-105569095D01*
X130470125Y-105543678D01*
X130470126Y-105543678D01*
X129909410Y-104982962D01*
X129972993Y-104965925D01*
X130087007Y-104900099D01*
X130180099Y-104807007D01*
X130245925Y-104692993D01*
X130262962Y-104629410D01*
X130823678Y-105190126D01*
X130823678Y-105190125D01*
X130849095Y-105155143D01*
X130938418Y-104979835D01*
X130999221Y-104792705D01*
X131030000Y-104598382D01*
X131030000Y-104401618D01*
X131028801Y-104394047D01*
X131028801Y-104394045D01*
X131026372Y-104378711D01*
X165649500Y-104378711D01*
X165649500Y-104621288D01*
X165681161Y-104861785D01*
X165743947Y-105096104D01*
X165836773Y-105320205D01*
X165836776Y-105320212D01*
X165958064Y-105530289D01*
X165958066Y-105530292D01*
X165958067Y-105530293D01*
X166105733Y-105722736D01*
X166105739Y-105722743D01*
X166277256Y-105894260D01*
X166277262Y-105894265D01*
X166469711Y-106041936D01*
X166679788Y-106163224D01*
X166903900Y-106256054D01*
X167138211Y-106318838D01*
X167318586Y-106342584D01*
X167378711Y-106350500D01*
X167378712Y-106350500D01*
X167621289Y-106350500D01*
X167669388Y-106344167D01*
X167861789Y-106318838D01*
X168096100Y-106256054D01*
X168320212Y-106163224D01*
X168530289Y-106041936D01*
X168722738Y-105894265D01*
X168894265Y-105722738D01*
X169041936Y-105530289D01*
X169163224Y-105320212D01*
X169256054Y-105096100D01*
X169318838Y-104861789D01*
X169350500Y-104621288D01*
X169350500Y-104378712D01*
X169318838Y-104138211D01*
X169256054Y-103903900D01*
X169163224Y-103679788D01*
X169041936Y-103469711D01*
X168894265Y-103277262D01*
X168894260Y-103277256D01*
X168722743Y-103105739D01*
X168722736Y-103105733D01*
X168530293Y-102958067D01*
X168530292Y-102958066D01*
X168530289Y-102958064D01*
X168320212Y-102836776D01*
X168299102Y-102828032D01*
X168096104Y-102743947D01*
X167861785Y-102681161D01*
X167621289Y-102649500D01*
X167621288Y-102649500D01*
X167378712Y-102649500D01*
X167378711Y-102649500D01*
X167138214Y-102681161D01*
X166903895Y-102743947D01*
X166679794Y-102836773D01*
X166679785Y-102836777D01*
X166469706Y-102958067D01*
X166277263Y-103105733D01*
X166277256Y-103105739D01*
X166105739Y-103277256D01*
X166105733Y-103277263D01*
X165958067Y-103469706D01*
X165836777Y-103679785D01*
X165836773Y-103679794D01*
X165743947Y-103903895D01*
X165681161Y-104138214D01*
X165649500Y-104378711D01*
X131026372Y-104378711D01*
X130999221Y-104207294D01*
X130938418Y-104020164D01*
X130849096Y-103844858D01*
X130823678Y-103809873D01*
X130823677Y-103809873D01*
X130262962Y-104370589D01*
X130245925Y-104307007D01*
X130180099Y-104192993D01*
X130087007Y-104099901D01*
X129972993Y-104034075D01*
X129909409Y-104017037D01*
X130470125Y-103456320D01*
X130470125Y-103456319D01*
X130435145Y-103430905D01*
X130259835Y-103341581D01*
X130072705Y-103280778D01*
X129878382Y-103250000D01*
X129681618Y-103250000D01*
X129487294Y-103280778D01*
X129300161Y-103341582D01*
X129124863Y-103430899D01*
X129124859Y-103430902D01*
X129089873Y-103456320D01*
X129089872Y-103456320D01*
X129650590Y-104017037D01*
X129587007Y-104034075D01*
X129472993Y-104099901D01*
X129379901Y-104192993D01*
X129314075Y-104307007D01*
X129297037Y-104370590D01*
X128736320Y-103809872D01*
X128736320Y-103809873D01*
X128710902Y-103844859D01*
X128710899Y-103844863D01*
X128621582Y-104020159D01*
X128575621Y-104161613D01*
X128536183Y-104219288D01*
X128471824Y-104246486D01*
X128402978Y-104234571D01*
X128351502Y-104187327D01*
X128339759Y-104161611D01*
X128306213Y-104058366D01*
X128306211Y-104058360D01*
X128276474Y-104000000D01*
X128223996Y-103897006D01*
X128186109Y-103844859D01*
X128117558Y-103750505D01*
X128117554Y-103750500D01*
X127989501Y-103622447D01*
X127963970Y-103603898D01*
X127963968Y-103603895D01*
X127842997Y-103516006D01*
X127842996Y-103516005D01*
X127842994Y-103516004D01*
X127766906Y-103477235D01*
X127681639Y-103433788D01*
X127681636Y-103433787D01*
X127509410Y-103377829D01*
X127330551Y-103349500D01*
X127330546Y-103349500D01*
X127149454Y-103349500D01*
X127149449Y-103349500D01*
X126970589Y-103377829D01*
X126798363Y-103433787D01*
X126798360Y-103433788D01*
X126637002Y-103516006D01*
X126490505Y-103622441D01*
X126490500Y-103622445D01*
X126362445Y-103750500D01*
X126362441Y-103750505D01*
X126256006Y-103897002D01*
X126173788Y-104058360D01*
X126173787Y-104058363D01*
X126117829Y-104230589D01*
X126092473Y-104390678D01*
X126062544Y-104453813D01*
X126003232Y-104490744D01*
X125933369Y-104489746D01*
X125875137Y-104451136D01*
X125847527Y-104390678D01*
X125833740Y-104303639D01*
X125822171Y-104230591D01*
X125781984Y-104106906D01*
X125766212Y-104058363D01*
X125766211Y-104058360D01*
X125736474Y-104000000D01*
X125683996Y-103897006D01*
X125646109Y-103844859D01*
X125577558Y-103750505D01*
X125577554Y-103750500D01*
X125449499Y-103622445D01*
X125449494Y-103622441D01*
X125302997Y-103516006D01*
X125302996Y-103516005D01*
X125302994Y-103516004D01*
X125226906Y-103477235D01*
X125141639Y-103433788D01*
X125141636Y-103433787D01*
X124969410Y-103377829D01*
X124790551Y-103349500D01*
X124790546Y-103349500D01*
X124609454Y-103349500D01*
X124609449Y-103349500D01*
X124430589Y-103377829D01*
X124258363Y-103433787D01*
X124258360Y-103433788D01*
X124097002Y-103516006D01*
X123950505Y-103622441D01*
X123950500Y-103622445D01*
X123822445Y-103750500D01*
X123822441Y-103750505D01*
X123716006Y-103897002D01*
X123633788Y-104058360D01*
X123633787Y-104058363D01*
X123577829Y-104230589D01*
X123552473Y-104390678D01*
X123522544Y-104453813D01*
X123463232Y-104490744D01*
X123393369Y-104489746D01*
X123335137Y-104451136D01*
X123307527Y-104390678D01*
X123293740Y-104303639D01*
X123282171Y-104230591D01*
X123241984Y-104106906D01*
X123226212Y-104058363D01*
X123226211Y-104058360D01*
X123196474Y-104000000D01*
X123143996Y-103897006D01*
X123106109Y-103844859D01*
X123037558Y-103750505D01*
X123037554Y-103750500D01*
X122909499Y-103622445D01*
X122909494Y-103622441D01*
X122762997Y-103516006D01*
X122762996Y-103516005D01*
X122762994Y-103516004D01*
X122686906Y-103477235D01*
X122601639Y-103433788D01*
X122601636Y-103433787D01*
X122429410Y-103377829D01*
X122250551Y-103349500D01*
X122250546Y-103349500D01*
X122069454Y-103349500D01*
X122069449Y-103349500D01*
X121890589Y-103377829D01*
X121718363Y-103433787D01*
X121718360Y-103433788D01*
X121557002Y-103516006D01*
X121410505Y-103622441D01*
X121410500Y-103622445D01*
X121282445Y-103750500D01*
X121282441Y-103750505D01*
X121176006Y-103897002D01*
X121093788Y-104058360D01*
X121093787Y-104058363D01*
X121037829Y-104230589D01*
X121012473Y-104390678D01*
X120982544Y-104453813D01*
X120923232Y-104490744D01*
X120853369Y-104489746D01*
X120795137Y-104451136D01*
X120767527Y-104390678D01*
X120753740Y-104303639D01*
X120742171Y-104230591D01*
X120701984Y-104106906D01*
X120686212Y-104058363D01*
X120686211Y-104058360D01*
X120656474Y-104000000D01*
X120603996Y-103897006D01*
X120566109Y-103844859D01*
X120497558Y-103750505D01*
X120497554Y-103750500D01*
X120369499Y-103622445D01*
X120369494Y-103622441D01*
X120222997Y-103516006D01*
X120222996Y-103516005D01*
X120222994Y-103516004D01*
X120146906Y-103477235D01*
X120061639Y-103433788D01*
X120061636Y-103433787D01*
X119889410Y-103377829D01*
X119710551Y-103349500D01*
X119710546Y-103349500D01*
X119529454Y-103349500D01*
X119529449Y-103349500D01*
X119350589Y-103377829D01*
X119178363Y-103433787D01*
X119178360Y-103433788D01*
X119017002Y-103516006D01*
X118870505Y-103622441D01*
X118870500Y-103622445D01*
X118742445Y-103750500D01*
X118742441Y-103750505D01*
X118636006Y-103897002D01*
X118553788Y-104058360D01*
X118553787Y-104058363D01*
X118497829Y-104230589D01*
X118472473Y-104390678D01*
X118442544Y-104453813D01*
X118383232Y-104490744D01*
X118313369Y-104489746D01*
X118255137Y-104451136D01*
X118227527Y-104390678D01*
X118213740Y-104303639D01*
X118202171Y-104230591D01*
X118161984Y-104106906D01*
X118146212Y-104058363D01*
X118146211Y-104058360D01*
X118116474Y-104000000D01*
X118063996Y-103897006D01*
X118026109Y-103844859D01*
X117957558Y-103750505D01*
X117957554Y-103750500D01*
X117829499Y-103622445D01*
X117829494Y-103622441D01*
X117682997Y-103516006D01*
X117682996Y-103516005D01*
X117682994Y-103516004D01*
X117606906Y-103477235D01*
X117521639Y-103433788D01*
X117521636Y-103433787D01*
X117349410Y-103377829D01*
X117170551Y-103349500D01*
X117170546Y-103349500D01*
X116989454Y-103349500D01*
X116989449Y-103349500D01*
X116810589Y-103377829D01*
X116638363Y-103433787D01*
X116638360Y-103433788D01*
X116477002Y-103516006D01*
X116330505Y-103622441D01*
X116330500Y-103622445D01*
X116202445Y-103750500D01*
X116202441Y-103750505D01*
X116096006Y-103897002D01*
X116013788Y-104058360D01*
X116013787Y-104058363D01*
X115957829Y-104230589D01*
X115932473Y-104390678D01*
X115902544Y-104453813D01*
X115843232Y-104490744D01*
X115773369Y-104489746D01*
X115715137Y-104451136D01*
X115687527Y-104390678D01*
X115673740Y-104303639D01*
X115662171Y-104230591D01*
X115621984Y-104106906D01*
X115606212Y-104058363D01*
X115606211Y-104058360D01*
X115576474Y-104000000D01*
X115523996Y-103897006D01*
X115486109Y-103844859D01*
X115417558Y-103750505D01*
X115417554Y-103750500D01*
X115289499Y-103622445D01*
X115289494Y-103622441D01*
X115142997Y-103516006D01*
X115142996Y-103516005D01*
X115142994Y-103516004D01*
X115066906Y-103477235D01*
X114981639Y-103433788D01*
X114981636Y-103433787D01*
X114809410Y-103377829D01*
X114630551Y-103349500D01*
X114630546Y-103349500D01*
X114449454Y-103349500D01*
X114449449Y-103349500D01*
X114270589Y-103377829D01*
X114098363Y-103433787D01*
X114098360Y-103433788D01*
X113937002Y-103516006D01*
X113790505Y-103622441D01*
X113790500Y-103622445D01*
X113662445Y-103750500D01*
X113662441Y-103750505D01*
X113556006Y-103897002D01*
X113483181Y-104039928D01*
X113461918Y-104062441D01*
X113442199Y-104086324D01*
X113438134Y-104087623D01*
X113435206Y-104090724D01*
X113405151Y-104098166D01*
X113375647Y-104107598D01*
X113369859Y-104106906D01*
X113367385Y-104107519D01*
X113340608Y-104103409D01*
X113242403Y-104077095D01*
X113182745Y-104040731D01*
X113152216Y-103977884D01*
X113150499Y-103957321D01*
X113150499Y-103605143D01*
X113150499Y-103605136D01*
X113150497Y-103605117D01*
X113147586Y-103580012D01*
X113147585Y-103580010D01*
X113147585Y-103580009D01*
X113102206Y-103477235D01*
X113022765Y-103397794D01*
X113022763Y-103397793D01*
X112919992Y-103352415D01*
X112894865Y-103349500D01*
X111105143Y-103349500D01*
X111105117Y-103349502D01*
X111080012Y-103352413D01*
X111080008Y-103352415D01*
X110977235Y-103397793D01*
X110897794Y-103477234D01*
X110852415Y-103580006D01*
X110852415Y-103580008D01*
X110849500Y-103605131D01*
X106120121Y-103605131D01*
X106041936Y-103469711D01*
X105894265Y-103277262D01*
X105894260Y-103277256D01*
X105722743Y-103105739D01*
X105722736Y-103105733D01*
X105530293Y-102958067D01*
X105530292Y-102958066D01*
X105530289Y-102958064D01*
X105320212Y-102836776D01*
X105299102Y-102828032D01*
X105096104Y-102743947D01*
X104861785Y-102681161D01*
X104621289Y-102649500D01*
X104621288Y-102649500D01*
X104378712Y-102649500D01*
X104378711Y-102649500D01*
X104138214Y-102681161D01*
X103903895Y-102743947D01*
X103679794Y-102836773D01*
X103679785Y-102836777D01*
X103469706Y-102958067D01*
X103277263Y-103105733D01*
X103277256Y-103105739D01*
X103105739Y-103277256D01*
X103105733Y-103277263D01*
X102958067Y-103469706D01*
X102836777Y-103679785D01*
X102836773Y-103679794D01*
X102743947Y-103903895D01*
X102681161Y-104138214D01*
X102649500Y-104378711D01*
X100500500Y-104378711D01*
X100500500Y-103003750D01*
X100500726Y-102996263D01*
X100518271Y-102706204D01*
X100520076Y-102691339D01*
X100527744Y-102649500D01*
X100571780Y-102409197D01*
X100575358Y-102394683D01*
X100660700Y-102120806D01*
X100665997Y-102106841D01*
X100783730Y-101845249D01*
X100790675Y-101832016D01*
X100939079Y-101586526D01*
X100947566Y-101574230D01*
X101124480Y-101348416D01*
X101134395Y-101337225D01*
X101337225Y-101134395D01*
X101348416Y-101124480D01*
X101574230Y-100947566D01*
X101586526Y-100939079D01*
X101832016Y-100790675D01*
X101845249Y-100783730D01*
X102106841Y-100665997D01*
X102120806Y-100660700D01*
X102394683Y-100575358D01*
X102409197Y-100571780D01*
X102691343Y-100520075D01*
X102706200Y-100518271D01*
X102996264Y-100500726D01*
X103003751Y-100500500D01*
X103065892Y-100500500D01*
X168934108Y-100500500D01*
X168996249Y-100500500D01*
X169003736Y-100500726D01*
G37*
%TD.AperFunction*%
%TD*%
M02*
